G04 #@! TF.FileFunction,Copper,L1,Top,Signal*
%FSLAX46Y46*%
G04 Gerber Fmt 4.6, Leading zero omitted, Abs format (unit mm)*
G04 Created by KiCad (PCBNEW 4.0.4-stable) date Tuesday, November 08, 2016 'PMt' 06:58:29 PM*
%MOMM*%
%LPD*%
G01*
G04 APERTURE LIST*
%ADD10C,0.100000*%
%ADD11R,3.500120X3.500120*%
%ADD12O,1.600000X2.300000*%
%ADD13R,1.300000X1.300000*%
%ADD14C,1.300000*%
%ADD15C,1.998980*%
%ADD16R,1.998980X1.998980*%
%ADD17R,2.000000X1.900000*%
%ADD18C,1.900000*%
%ADD19O,1.600000X1.600000*%
%ADD20C,2.000000*%
%ADD21R,1.397000X1.397000*%
%ADD22C,1.397000*%
%ADD23O,1.727200X3.048000*%
%ADD24C,1.524000*%
%ADD25C,1.000760*%
%ADD26O,1.998980X2.499360*%
%ADD27O,2.032000X2.540000*%
%ADD28O,1.501140X0.899160*%
%ADD29R,3.000000X3.000000*%
%ADD30C,0.250000*%
G04 APERTURE END LIST*
D10*
D11*
X142090140Y-113030000D03*
X136090660Y-113030000D03*
X139090400Y-117729000D03*
D12*
X156210000Y-81280000D03*
X153670000Y-81280000D03*
X151130000Y-81280000D03*
X148590000Y-81280000D03*
X148590000Y-88900000D03*
X151130000Y-88900000D03*
X153670000Y-88900000D03*
X156210000Y-88900000D03*
D13*
X149860000Y-71120000D03*
D14*
X149860000Y-68620000D03*
D13*
X154940000Y-71120000D03*
D14*
X154940000Y-68620000D03*
D11*
X204619860Y-113030000D03*
X210619340Y-113030000D03*
X207619600Y-108331000D03*
D15*
X134620000Y-96522540D03*
D16*
X144780000Y-96522540D03*
D17*
X134620000Y-71120000D03*
D18*
X134620000Y-73660000D03*
D19*
X130810000Y-59690000D03*
X133350000Y-59690000D03*
X135890000Y-59690000D03*
X138430000Y-59690000D03*
X140970000Y-59690000D03*
X143510000Y-59690000D03*
X146050000Y-59690000D03*
X148590000Y-59690000D03*
X151130000Y-59690000D03*
X153670000Y-59690000D03*
X156210000Y-59690000D03*
X158750000Y-59690000D03*
X161290000Y-59690000D03*
X163830000Y-59690000D03*
X163830000Y-52070000D03*
X161290000Y-52070000D03*
X158750000Y-52070000D03*
X156210000Y-52070000D03*
X153670000Y-52070000D03*
X151130000Y-52070000D03*
X148590000Y-52070000D03*
X146050000Y-52070000D03*
X143510000Y-52070000D03*
X140970000Y-52070000D03*
X138430000Y-52070000D03*
X135890000Y-52070000D03*
X133350000Y-52070000D03*
X130810000Y-52070000D03*
D15*
X186690000Y-110490000D03*
X194310000Y-110490000D03*
X129540000Y-87630000D03*
X137160000Y-87630000D03*
X129540000Y-91440000D03*
X137160000Y-91440000D03*
X187960000Y-67310000D03*
X187960000Y-74930000D03*
X175260000Y-41910000D03*
X182880000Y-41910000D03*
X190500000Y-67310000D03*
X190500000Y-74930000D03*
X193040000Y-67310000D03*
X193040000Y-74930000D03*
X195580000Y-67310000D03*
X195580000Y-74930000D03*
X210820000Y-41910000D03*
X203200000Y-41910000D03*
X210820000Y-44450000D03*
X203200000Y-44450000D03*
D20*
X212079840Y-73660000D03*
X204480160Y-73660000D03*
D21*
X130810000Y-63500000D03*
D22*
X130810000Y-66040000D03*
X130810000Y-68580000D03*
D23*
X191770000Y-86360000D03*
X196850000Y-86360000D03*
X191770000Y-99060000D03*
X196850000Y-99060000D03*
X205740000Y-86360000D03*
X210820000Y-86360000D03*
X205740000Y-99060000D03*
X210820000Y-99060000D03*
D24*
X193040000Y-48260000D03*
X195580000Y-48260000D03*
X198120000Y-48260000D03*
X200660000Y-48260000D03*
X193040000Y-63500000D03*
X195580000Y-63500000D03*
X198120000Y-63500000D03*
X200660000Y-63500000D03*
X190500000Y-48260000D03*
X187960000Y-48260000D03*
X185420000Y-48260000D03*
X185420000Y-63500000D03*
X187960000Y-63500000D03*
X190500000Y-63500000D03*
D25*
X154190700Y-78740000D03*
X155689300Y-78740000D03*
D26*
X154840940Y-64770000D03*
X149959060Y-64770000D03*
D15*
X185420000Y-67310000D03*
X185420000Y-74930000D03*
X175260000Y-44450000D03*
X182880000Y-44450000D03*
X129540000Y-83820000D03*
X137160000Y-83820000D03*
D27*
X139700000Y-101600000D03*
X137160000Y-101600000D03*
X142240000Y-101600000D03*
D13*
X151130000Y-100330000D03*
D14*
X151130000Y-102330000D03*
X129540000Y-102830000D03*
D13*
X129540000Y-100330000D03*
D28*
X199390000Y-109220000D03*
X199390000Y-107950000D03*
X199390000Y-110490000D03*
D29*
X186055000Y-101600000D03*
X156845000Y-101600000D03*
D30*
X136090660Y-109380660D02*
X136090660Y-105209340D01*
X136090660Y-105209340D02*
X139700000Y-101600000D01*
X136090660Y-113030000D02*
X136090660Y-109380660D01*
X136090660Y-109380660D02*
X129540000Y-102830000D01*
X151130000Y-102330000D02*
X156115000Y-102330000D01*
X156115000Y-102330000D02*
X156845000Y-101600000D01*
X156845000Y-104140000D02*
X196850000Y-104140000D01*
X139090400Y-117729000D02*
X139090400Y-116029740D01*
X139090400Y-116029740D02*
X136090660Y-113030000D01*
X136090660Y-113030000D02*
X136090660Y-111559340D01*
X210820000Y-99060000D02*
X210820000Y-102870000D01*
X210820000Y-102870000D02*
X209550000Y-104140000D01*
X209550000Y-104140000D02*
X196850000Y-104140000D01*
X196850000Y-99060000D02*
X196850000Y-104140000D01*
X196850000Y-104140000D02*
X196850000Y-107950000D01*
X198120000Y-109220000D02*
X199390000Y-109220000D01*
X196850000Y-107950000D02*
X198120000Y-109220000D01*
X156845000Y-104140000D02*
X156845000Y-101600000D01*
X129540000Y-102830000D02*
X129540000Y-102870000D01*
X196850000Y-99060000D02*
X196850000Y-100330000D01*
X144780000Y-55880000D02*
X144780000Y-54610000D01*
X146050000Y-53340000D02*
X146050000Y-52070000D01*
X144780000Y-54610000D02*
X146050000Y-53340000D01*
X144780000Y-55880000D02*
X148590000Y-59690000D01*
X200660000Y-63500000D02*
X200660000Y-69839840D01*
X200660000Y-69839840D02*
X204480160Y-73660000D01*
X151130000Y-102330000D02*
X151130000Y-102870000D01*
X196850000Y-86360000D02*
X196850000Y-99060000D01*
X210820000Y-99060000D02*
X210820000Y-86360000D01*
X210820000Y-86360000D02*
X209550000Y-79999840D01*
X209550000Y-79999840D02*
X204480160Y-73660000D01*
X186055000Y-101600000D02*
X175260000Y-101600000D01*
X151130000Y-82550000D02*
X151130000Y-81280000D01*
X153670000Y-85090000D02*
X151130000Y-82550000D01*
X158750000Y-85090000D02*
X153670000Y-85090000D01*
X175260000Y-101600000D02*
X158750000Y-85090000D01*
X144780000Y-96522540D02*
X147322540Y-96522540D01*
X147322540Y-96522540D02*
X151130000Y-100330000D01*
X142240000Y-101600000D02*
X142240000Y-99062540D01*
X142240000Y-99062540D02*
X144780000Y-96522540D01*
X142090140Y-113030000D02*
X142090140Y-101749860D01*
X142090140Y-101749860D02*
X142240000Y-101600000D01*
X142240000Y-112880140D02*
X142090140Y-113030000D01*
X142240000Y-101600000D02*
X142240000Y-100332540D01*
X204619860Y-113030000D02*
X142090140Y-113030000D01*
X133350000Y-100330000D02*
X133350000Y-97792540D01*
X133350000Y-97792540D02*
X134620000Y-96522540D01*
X137160000Y-101600000D02*
X134620000Y-101600000D01*
X133350000Y-100330000D02*
X129540000Y-100330000D01*
X134620000Y-101600000D02*
X133350000Y-100330000D01*
X129540000Y-87630000D02*
X129540000Y-83820000D01*
X129540000Y-87630000D02*
X135890000Y-93980000D01*
X156210000Y-91440000D02*
X156210000Y-88900000D01*
X153670000Y-93980000D02*
X156210000Y-91440000D01*
X135890000Y-93980000D02*
X153670000Y-93980000D01*
X129540000Y-91440000D02*
X129540000Y-93980000D01*
X129540000Y-99060000D02*
X129540000Y-100330000D01*
X129540000Y-93980000D02*
X129540000Y-99060000D01*
X129540000Y-87630000D02*
X129540000Y-91440000D01*
X137160000Y-101600000D02*
X137160000Y-100332540D01*
X149860000Y-64869060D02*
X149959060Y-64770000D01*
X154940000Y-64869060D02*
X154840940Y-64770000D01*
X207619600Y-108331000D02*
X207619600Y-110030260D01*
X207619600Y-110030260D02*
X210619340Y-113030000D01*
X199390000Y-107950000D02*
X205968600Y-106680000D01*
X205968600Y-106680000D02*
X207619600Y-108331000D01*
X207619600Y-108331000D02*
X208661000Y-108331000D01*
X134620000Y-71120000D02*
X132080000Y-71120000D01*
X130810000Y-69850000D02*
X130810000Y-68580000D01*
X132080000Y-71120000D02*
X130810000Y-69850000D01*
X137160000Y-83820000D02*
X137160000Y-80010000D01*
X134620000Y-77470000D02*
X134620000Y-73660000D01*
X137160000Y-80010000D02*
X134620000Y-77470000D01*
X191770000Y-86360000D02*
X187960000Y-86360000D01*
X133350000Y-66040000D02*
X133350000Y-59690000D01*
X144780000Y-77470000D02*
X133350000Y-66040000D01*
X163830000Y-77470000D02*
X144780000Y-77470000D01*
X171450000Y-85090000D02*
X163830000Y-77470000D01*
X186690000Y-85090000D02*
X171450000Y-85090000D01*
X187960000Y-86360000D02*
X186690000Y-85090000D01*
X191770000Y-86360000D02*
X191770000Y-99060000D01*
X205740000Y-86360000D02*
X203200000Y-83820000D01*
X135890000Y-66040000D02*
X135890000Y-59690000D01*
X146050000Y-76200000D02*
X135890000Y-66040000D01*
X165100000Y-76200000D02*
X146050000Y-76200000D01*
X172720000Y-83820000D02*
X165100000Y-76200000D01*
X203200000Y-83820000D02*
X172720000Y-83820000D01*
X205740000Y-86360000D02*
X205740000Y-99060000D01*
X198120000Y-63500000D02*
X198120000Y-77470000D01*
X140970000Y-68580000D02*
X140970000Y-59690000D01*
X147320000Y-74930000D02*
X140970000Y-68580000D01*
X166370000Y-74930000D02*
X147320000Y-74930000D01*
X173990000Y-82550000D02*
X166370000Y-74930000D01*
X193040000Y-82550000D02*
X173990000Y-82550000D01*
X198120000Y-77470000D02*
X193040000Y-82550000D01*
X193040000Y-74930000D02*
X187960000Y-80010000D01*
X176530000Y-80010000D02*
X156210000Y-59690000D01*
X187960000Y-80010000D02*
X176530000Y-80010000D01*
X190500000Y-74930000D02*
X186690000Y-78740000D01*
X177800000Y-78740000D02*
X158750000Y-59690000D01*
X186690000Y-78740000D02*
X177800000Y-78740000D01*
X187960000Y-74930000D02*
X185420000Y-77470000D01*
X179070000Y-77470000D02*
X161290000Y-59690000D01*
X185420000Y-77470000D02*
X179070000Y-77470000D01*
X163830000Y-59690000D02*
X179070000Y-74930000D01*
X179070000Y-74930000D02*
X185420000Y-74930000D01*
X185420000Y-48260000D02*
X167640000Y-48260000D01*
X167640000Y-48260000D02*
X163830000Y-52070000D01*
X175260000Y-44450000D02*
X168910000Y-44450000D01*
X168910000Y-44450000D02*
X161290000Y-52070000D01*
X175260000Y-41910000D02*
X168910000Y-41910000D01*
X168910000Y-41910000D02*
X158750000Y-52070000D01*
X193040000Y-48260000D02*
X184150000Y-39370000D01*
X168910000Y-39370000D02*
X156210000Y-52070000D01*
X184150000Y-39370000D02*
X168910000Y-39370000D01*
X210820000Y-41910000D02*
X205740000Y-36830000D01*
X158750000Y-36830000D02*
X143510000Y-52070000D01*
X205740000Y-36830000D02*
X158750000Y-36830000D01*
X210820000Y-44450000D02*
X212090000Y-44450000D01*
X157480000Y-35560000D02*
X140970000Y-52070000D01*
X207010000Y-35560000D02*
X157480000Y-35560000D01*
X213360000Y-41910000D02*
X207010000Y-35560000D01*
X213360000Y-43180000D02*
X213360000Y-41910000D01*
X212090000Y-44450000D02*
X213360000Y-43180000D01*
X212079840Y-73660000D02*
X212079840Y-48270160D01*
X156210000Y-34290000D02*
X138430000Y-52070000D01*
X208280000Y-34290000D02*
X156210000Y-34290000D01*
X214630000Y-40640000D02*
X208280000Y-34290000D01*
X214630000Y-45720000D02*
X214630000Y-40640000D01*
X212079840Y-48270160D02*
X214630000Y-45720000D01*
X137160000Y-87630000D02*
X134620000Y-87630000D01*
X133350000Y-53340000D02*
X133350000Y-52070000D01*
X132080000Y-54610000D02*
X133350000Y-53340000D01*
X128270000Y-54610000D02*
X132080000Y-54610000D01*
X127000000Y-55880000D02*
X128270000Y-54610000D01*
X127000000Y-74930000D02*
X127000000Y-55880000D01*
X133350000Y-81280000D02*
X127000000Y-74930000D01*
X133350000Y-86360000D02*
X133350000Y-81280000D01*
X134620000Y-87630000D02*
X133350000Y-86360000D01*
X137160000Y-87630000D02*
X139700000Y-87630000D01*
X139700000Y-87630000D02*
X148590000Y-88900000D01*
X137160000Y-91440000D02*
X135890000Y-91440000D01*
X127000000Y-52070000D02*
X130810000Y-52070000D01*
X125730000Y-53340000D02*
X127000000Y-52070000D01*
X125730000Y-76200000D02*
X125730000Y-53340000D01*
X132080000Y-82550000D02*
X125730000Y-76200000D01*
X132080000Y-87630000D02*
X132080000Y-82550000D01*
X135890000Y-91440000D02*
X132080000Y-87630000D01*
X137160000Y-91440000D02*
X148590000Y-91440000D01*
X148590000Y-91440000D02*
X151130000Y-88900000D01*
X194310000Y-110490000D02*
X199390000Y-110490000D01*
X199390000Y-110490000D02*
X199390000Y-110490000D01*
X187960000Y-63500000D02*
X187960000Y-67310000D01*
X182880000Y-41910000D02*
X190500000Y-48260000D01*
X190500000Y-63500000D02*
X190500000Y-67310000D01*
X195580000Y-63500000D02*
X195580000Y-67310000D01*
X156210000Y-81280000D02*
X156210000Y-79260700D01*
X156210000Y-79260700D02*
X155689300Y-78740000D01*
X155689300Y-80759300D02*
X156210000Y-81280000D01*
X153670000Y-81280000D02*
X153670000Y-79260700D01*
X153670000Y-79260700D02*
X154190700Y-78740000D01*
X185420000Y-63500000D02*
X185420000Y-67310000D01*
X182880000Y-44450000D02*
X187960000Y-48260000D01*
X193040000Y-63500000D02*
X193040000Y-67310000D01*
X203200000Y-41910000D02*
X198120000Y-48260000D01*
X203200000Y-44450000D02*
X200660000Y-48260000D01*
X148590000Y-73660000D02*
X143510000Y-68580000D01*
X167640000Y-73660000D02*
X148590000Y-73660000D01*
X195580000Y-74930000D02*
X189230000Y-81280000D01*
X143510000Y-68580000D02*
X143510000Y-59690000D01*
X175260000Y-81280000D02*
X167640000Y-73660000D01*
X189230000Y-81280000D02*
X175260000Y-81280000D01*
X195580000Y-48260000D02*
X185420000Y-38100000D01*
X167640000Y-38100000D02*
X153670000Y-52070000D01*
X185420000Y-38100000D02*
X167640000Y-38100000D01*
M02*
