M48
;DRILL file {KiCad 4.0.4-stable} date Tuesday, November 08, 2016 'PMt' 06:58:44 PM
;FORMAT={-:-/ absolute / inch / decimal}
FMAT,2
INCH,TZ
T1C0.024
T2C0.024
T3C0.030
T4C0.031
T5C0.032
T6C0.032
T7C0.039
T8C0.045
T9C0.047
T10C0.050
%
G90
G05
M72
T1
X6.0705Y-3.1
X6.1295Y-3.1
T2
X7.85Y-4.25
X7.85Y-4.3
X7.85Y-4.35
T3
X7.3Y-1.9
X7.3Y-2.5
X7.4Y-1.9
X7.4Y-2.5
X7.5Y-1.9
X7.5Y-2.5
X7.6Y-1.9
X7.6Y-2.5
X7.7Y-1.9
X7.7Y-2.5
X7.8Y-1.9
X7.8Y-2.5
X7.9Y-1.9
X7.9Y-2.5
T4
X5.1Y-3.95
X5.1Y-4.0484
X5.15Y-2.05
X5.15Y-2.35
X5.25Y-2.05
X5.25Y-2.35
X5.35Y-2.05
X5.35Y-2.35
X5.45Y-2.05
X5.45Y-2.35
X5.55Y-2.05
X5.55Y-2.35
X5.65Y-2.05
X5.65Y-2.35
X5.75Y-2.05
X5.75Y-2.35
X5.85Y-2.05
X5.85Y-2.35
X5.85Y-3.2
X5.85Y-3.5
X5.9Y-2.8
X5.95Y-2.05
X5.95Y-2.35
X5.95Y-3.2
X5.95Y-3.5
X5.95Y-3.95
X5.95Y-4.0287
X6.05Y-2.05
X6.05Y-2.35
X6.05Y-3.2
X6.05Y-3.5
X6.1Y-2.8
X6.15Y-2.05
X6.15Y-2.35
X6.15Y-3.2
X6.15Y-3.5
X6.25Y-2.05
X6.25Y-2.35
X6.35Y-2.05
X6.35Y-2.35
X6.45Y-2.05
X6.45Y-2.35
T5
X5.9Y-2.7016
X6.1Y-2.7016
T6
X5.15Y-2.5
X5.15Y-2.6
X5.15Y-2.7
X7.55Y-3.4
X7.55Y-3.9
X7.75Y-3.4
X7.75Y-3.9
X8.1Y-3.4
X8.1Y-3.9
X8.3Y-3.4
X8.3Y-3.9
T7
X5.1Y-3.3
X5.1Y-3.45
X5.1Y-3.6
X5.3Y-2.8
X5.3Y-2.9
X5.4Y-3.3
X5.4Y-3.45
X5.4Y-3.6
X5.7Y-3.8001
X6.9Y-1.65
X6.9Y-1.75
X7.2Y-1.65
X7.2Y-1.75
X7.3Y-2.65
X7.3Y-2.95
X7.35Y-4.35
X7.4Y-2.65
X7.4Y-2.95
X7.5Y-2.65
X7.5Y-2.95
X7.6Y-2.65
X7.6Y-2.95
X7.65Y-4.35
X7.7Y-2.65
X7.7Y-2.95
X8.Y-1.65
X8.Y-1.75
X8.0504Y-2.9
X8.3Y-1.65
X8.3Y-1.75
X8.3496Y-2.9
T8
X5.4Y-4.
X5.5Y-4.
X5.6Y-4.
T9
X5.9039Y-2.55
X6.0961Y-2.55
T10
X5.3Y-3.8001
T7
X5.3579Y-4.4106G85X5.3579Y-4.4893
G05
X5.4367Y-4.635G85X5.5153Y-4.635
G05
X5.5941Y-4.4106G85X5.5941Y-4.4893
G05
X8.0559Y-4.4893G85X8.0559Y-4.4106
G05
X8.2134Y-4.265G85X8.1347Y-4.265
G05
X8.2921Y-4.4893G85X8.2921Y-4.4106
G05
T0
M30
