G04 #@! TF.FileFunction,Legend,Top*
%FSLAX46Y46*%
G04 Gerber Fmt 4.6, Leading zero omitted, Abs format (unit mm)*
G04 Created by KiCad (PCBNEW 4.0.4-stable) date Thursday, November 10, 2016 'AMt' 08:57:46 AM*
%MOMM*%
%LPD*%
G01*
G04 APERTURE LIST*
%ADD10C,0.100000*%
%ADD11C,0.150000*%
G04 APERTURE END LIST*
D10*
D11*
X163585000Y-90305000D02*
X162315000Y-90305000D01*
X163585000Y-97655000D02*
X162315000Y-97655000D01*
X151375000Y-97655000D02*
X152645000Y-97655000D01*
X151375000Y-90305000D02*
X152645000Y-90305000D01*
X163585000Y-90305000D02*
X163585000Y-97655000D01*
X151375000Y-90305000D02*
X151375000Y-97655000D01*
X162315000Y-90305000D02*
X162315000Y-89020000D01*
X184150000Y-109220000D02*
G75*
G03X184150000Y-109220000I-10160000J0D01*
G01*
X187960000Y-116840000D02*
X187960000Y-101600000D01*
X187960000Y-101600000D02*
X160020000Y-101600000D01*
X160020000Y-101600000D02*
X160020000Y-116840000D01*
X160020000Y-116840000D02*
X187960000Y-116840000D01*
X214820500Y-117530880D02*
X214820500Y-108529120D01*
X218320620Y-117530880D02*
X218320620Y-108529120D01*
X218320620Y-108529120D02*
X203819760Y-108529120D01*
X203819760Y-108529120D02*
X203819760Y-117530880D01*
X203819760Y-117530880D02*
X218320620Y-117530880D01*
X131889500Y-108529120D02*
X131889500Y-117530880D01*
X128389380Y-108529120D02*
X128389380Y-117530880D01*
X128389380Y-117530880D02*
X142890240Y-117530880D01*
X142890240Y-117530880D02*
X142890240Y-108529120D01*
X142890240Y-108529120D02*
X128389380Y-108529120D01*
X162540000Y-82300000D02*
X162540000Y-85300000D01*
X160040000Y-85300000D02*
X160040000Y-82300000D01*
X137160000Y-96522540D02*
X136144000Y-96522540D01*
X141986000Y-96522540D02*
X143256000Y-96522540D01*
X141732000Y-97792540D02*
X141732000Y-95252540D01*
X141478000Y-97792540D02*
X141478000Y-95252540D01*
X141224000Y-97792540D02*
X141224000Y-95252540D01*
X141986000Y-97792540D02*
X141986000Y-95252540D01*
X140970000Y-97792540D02*
X142240000Y-95252540D01*
X142240000Y-97792540D02*
X140970000Y-95252540D01*
X140970000Y-97792540D02*
X140970000Y-95252540D01*
X141605000Y-97792540D02*
X141605000Y-95252540D01*
X142240000Y-95252540D02*
X142240000Y-97792540D01*
X142240000Y-97792540D02*
X137160000Y-97792540D01*
X137160000Y-97792540D02*
X137160000Y-95252540D01*
X137160000Y-95252540D02*
X142240000Y-95252540D01*
X138175096Y-76255112D02*
G75*
G03X141200000Y-76240000I1524904J-2484888D01*
G01*
X138200000Y-76240000D02*
X141200000Y-76240000D01*
X142217936Y-78740000D02*
G75*
G03X142217936Y-78740000I-2517936J0D01*
G01*
X128515000Y-59555000D02*
X129785000Y-59555000D01*
X128515000Y-52205000D02*
X129785000Y-52205000D01*
X166125000Y-52205000D02*
X164855000Y-52205000D01*
X166125000Y-59555000D02*
X164855000Y-59555000D01*
X128515000Y-59555000D02*
X128515000Y-52205000D01*
X166125000Y-59555000D02*
X166125000Y-52205000D01*
X129785000Y-59555000D02*
X129785000Y-60490000D01*
X194310000Y-113030000D02*
X199390000Y-113030000D01*
X199390000Y-113030000D02*
X199390000Y-115570000D01*
X199390000Y-115570000D02*
X194310000Y-115570000D01*
X194310000Y-115570000D02*
X194310000Y-113030000D01*
X137160000Y-86360000D02*
X142240000Y-86360000D01*
X142240000Y-86360000D02*
X142240000Y-88900000D01*
X142240000Y-88900000D02*
X137160000Y-88900000D01*
X137160000Y-88900000D02*
X137160000Y-86360000D01*
X137160000Y-90170000D02*
X142240000Y-90170000D01*
X142240000Y-90170000D02*
X142240000Y-92710000D01*
X142240000Y-92710000D02*
X137160000Y-92710000D01*
X137160000Y-92710000D02*
X137160000Y-90170000D01*
X189230000Y-68580000D02*
X189230000Y-73660000D01*
X189230000Y-73660000D02*
X186690000Y-73660000D01*
X186690000Y-73660000D02*
X186690000Y-68580000D01*
X186690000Y-68580000D02*
X189230000Y-68580000D01*
X176530000Y-40640000D02*
X181610000Y-40640000D01*
X181610000Y-40640000D02*
X181610000Y-43180000D01*
X181610000Y-43180000D02*
X176530000Y-43180000D01*
X176530000Y-43180000D02*
X176530000Y-40640000D01*
X191770000Y-68580000D02*
X191770000Y-73660000D01*
X191770000Y-73660000D02*
X189230000Y-73660000D01*
X189230000Y-73660000D02*
X189230000Y-68580000D01*
X189230000Y-68580000D02*
X191770000Y-68580000D01*
X194310000Y-68580000D02*
X194310000Y-73660000D01*
X194310000Y-73660000D02*
X191770000Y-73660000D01*
X191770000Y-73660000D02*
X191770000Y-68580000D01*
X191770000Y-68580000D02*
X194310000Y-68580000D01*
X196850000Y-68580000D02*
X196850000Y-73660000D01*
X196850000Y-73660000D02*
X194310000Y-73660000D01*
X194310000Y-73660000D02*
X194310000Y-68580000D01*
X194310000Y-68580000D02*
X196850000Y-68580000D01*
X207010000Y-43180000D02*
X201930000Y-43180000D01*
X201930000Y-43180000D02*
X201930000Y-40640000D01*
X201930000Y-40640000D02*
X207010000Y-40640000D01*
X207010000Y-40640000D02*
X207010000Y-43180000D01*
X207010000Y-45720000D02*
X201930000Y-45720000D01*
X201930000Y-45720000D02*
X201930000Y-43180000D01*
X201930000Y-43180000D02*
X207010000Y-43180000D01*
X207010000Y-43180000D02*
X207010000Y-45720000D01*
X209280760Y-73660000D02*
G75*
G03X209280760Y-73660000I-1000760J0D01*
G01*
X214480140Y-73660000D02*
G75*
G03X214480140Y-73660000I-6200140J0D01*
G01*
X129540000Y-62230000D02*
X132080000Y-62230000D01*
X132080000Y-62230000D02*
X132080000Y-69850000D01*
X132080000Y-69850000D02*
X129540000Y-69850000D01*
X129540000Y-69850000D02*
X129540000Y-62230000D01*
X132080000Y-64770000D02*
X129540000Y-64770000D01*
X198889050Y-92710000D02*
G75*
G03X198889050Y-92710000I-4579050J0D01*
G01*
X187960000Y-99060000D02*
X187960000Y-86360000D01*
X187960000Y-86360000D02*
X200660000Y-86360000D01*
X200660000Y-86360000D02*
X200660000Y-99060000D01*
X200660000Y-99060000D02*
X187960000Y-99060000D01*
X212859050Y-92710000D02*
G75*
G03X212859050Y-92710000I-4579050J0D01*
G01*
X201930000Y-99060000D02*
X201930000Y-86360000D01*
X201930000Y-86360000D02*
X214630000Y-86360000D01*
X214630000Y-86360000D02*
X214630000Y-99060000D01*
X214630000Y-99060000D02*
X201930000Y-99060000D01*
X193040000Y-46355000D02*
X167640000Y-46355000D01*
X167640000Y-46355000D02*
X167640000Y-65405000D01*
X167640000Y-65405000D02*
X218440000Y-65405000D01*
X218440000Y-65405000D02*
X218440000Y-46355000D01*
X218440000Y-46355000D02*
X193040000Y-46355000D01*
X160469580Y-88529160D02*
X160370520Y-88579960D01*
X160370520Y-88579960D02*
X160169860Y-88630760D01*
X160169860Y-88630760D02*
X159969200Y-88630760D01*
X159969200Y-88630760D02*
X159720280Y-88579960D01*
X159720280Y-88579960D02*
X159621220Y-88529160D01*
X160418780Y-86730840D02*
X160268920Y-86629240D01*
X160268920Y-86629240D02*
X160070800Y-86629240D01*
X160070800Y-86629240D02*
X159870140Y-86629240D01*
X159870140Y-86629240D02*
X159720280Y-86680040D01*
X159720280Y-86680040D02*
X159621220Y-86730840D01*
X147701000Y-65770760D02*
X147500340Y-65369440D01*
X147500340Y-65369440D02*
X147398740Y-64770000D01*
X147398740Y-64770000D02*
X147500340Y-64269620D01*
X147500340Y-64269620D02*
X147899120Y-63571120D01*
X147899120Y-63571120D02*
X148501100Y-63169800D01*
X148501100Y-63169800D02*
X149100540Y-62969140D01*
X149100540Y-62969140D02*
X155699460Y-62969140D01*
X155699460Y-62969140D02*
X156400500Y-63169800D01*
X156400500Y-63169800D02*
X156799280Y-63469520D01*
X156799280Y-63469520D02*
X157200600Y-63969900D01*
X157200600Y-63969900D02*
X157401260Y-64569340D01*
X157401260Y-64569340D02*
X157401260Y-65069720D01*
X157401260Y-65069720D02*
X157200600Y-65570100D01*
X157200600Y-65570100D02*
X156700220Y-66169540D01*
X156700220Y-66169540D02*
X156199840Y-66469260D01*
X156199840Y-66469260D02*
X155699460Y-66570860D01*
X155600400Y-66570860D02*
X148998940Y-66570860D01*
X148998940Y-66570860D02*
X148600160Y-66469260D01*
X148600160Y-66469260D02*
X148099780Y-66169540D01*
X148099780Y-66169540D02*
X147599400Y-65669160D01*
X155590240Y-67099180D02*
X156049980Y-67050920D01*
X156049980Y-67050920D02*
X156448760Y-66939160D01*
X156448760Y-66939160D02*
X156880560Y-66720720D01*
X156880560Y-66720720D02*
X157170120Y-66489580D01*
X157170120Y-66489580D02*
X157500320Y-66139060D01*
X157500320Y-66139060D02*
X157789880Y-65600580D01*
X157789880Y-65600580D02*
X157919420Y-65001140D01*
X157919420Y-65001140D02*
X157919420Y-64490600D01*
X157919420Y-64490600D02*
X157749240Y-63789560D01*
X157749240Y-63789560D02*
X157350460Y-63200280D01*
X157350460Y-63200280D02*
X156890720Y-62829440D01*
X156890720Y-62829440D02*
X156469080Y-62621160D01*
X156469080Y-62621160D02*
X156019500Y-62461140D01*
X156019500Y-62461140D02*
X155580080Y-62430660D01*
X148239480Y-62649100D02*
X147861020Y-62870080D01*
X147861020Y-62870080D02*
X147540980Y-63149480D01*
X147540980Y-63149480D02*
X147289520Y-63479680D01*
X147289520Y-63479680D02*
X146989800Y-64030860D01*
X146989800Y-64030860D02*
X146880580Y-64500760D01*
X146880580Y-64500760D02*
X146860260Y-64960500D01*
X146860260Y-64960500D02*
X146949160Y-65420240D01*
X146949160Y-65420240D02*
X147139660Y-65869820D01*
X147139660Y-65869820D02*
X147500340Y-66339720D01*
X147500340Y-66339720D02*
X147850860Y-66659760D01*
X147850860Y-66659760D02*
X148239480Y-66890900D01*
X148239480Y-66890900D02*
X148668740Y-67030600D01*
X148668740Y-67030600D02*
X149110700Y-67099180D01*
X155600400Y-62440820D02*
X149148800Y-62440820D01*
X149148800Y-62440820D02*
X148729700Y-62478920D01*
X148729700Y-62478920D02*
X148239480Y-62649100D01*
X155600400Y-67099180D02*
X149148800Y-67099180D01*
X186690000Y-68580000D02*
X186690000Y-73660000D01*
X186690000Y-73660000D02*
X184150000Y-73660000D01*
X184150000Y-73660000D02*
X184150000Y-68580000D01*
X184150000Y-68580000D02*
X186690000Y-68580000D01*
X176530000Y-43180000D02*
X181610000Y-43180000D01*
X181610000Y-43180000D02*
X181610000Y-45720000D01*
X181610000Y-45720000D02*
X176530000Y-45720000D01*
X176530000Y-45720000D02*
X176530000Y-43180000D01*
X137160000Y-82550000D02*
X142240000Y-82550000D01*
X142240000Y-82550000D02*
X142240000Y-85090000D01*
X142240000Y-85090000D02*
X137160000Y-85090000D01*
X137160000Y-85090000D02*
X137160000Y-82550000D01*
X134874000Y-103251000D02*
X134874000Y-99822000D01*
X144526000Y-103251000D02*
X144526000Y-99822000D01*
X134366000Y-104394000D02*
X145034000Y-104394000D01*
X137922000Y-103378000D02*
X137922000Y-104648000D01*
X141478000Y-103378000D02*
X141478000Y-104648000D01*
X145034000Y-103251000D02*
X134366000Y-103251000D01*
X134366000Y-99822000D02*
X145034000Y-99822000D01*
X145034000Y-104648000D02*
X145034000Y-99822000D01*
X134366000Y-104648000D02*
X134366000Y-99822000D01*
X134366000Y-104648000D02*
X145034000Y-104648000D01*
X144821000Y-108145000D02*
X149819000Y-108145000D01*
X144829000Y-108005000D02*
X147166000Y-108005000D01*
X147474000Y-108005000D02*
X149811000Y-108005000D01*
X144845000Y-107865000D02*
X146847000Y-107865000D01*
X147793000Y-107865000D02*
X149795000Y-107865000D01*
X144869000Y-107725000D02*
X146700000Y-107725000D01*
X147940000Y-107725000D02*
X149771000Y-107725000D01*
X144902000Y-107585000D02*
X146608000Y-107585000D01*
X148032000Y-107585000D02*
X149738000Y-107585000D01*
X144943000Y-107445000D02*
X146552000Y-107445000D01*
X148088000Y-107445000D02*
X149697000Y-107445000D01*
X144993000Y-107305000D02*
X146525000Y-107305000D01*
X148115000Y-107305000D02*
X149647000Y-107305000D01*
X145054000Y-107165000D02*
X146522000Y-107165000D01*
X148118000Y-107165000D02*
X149586000Y-107165000D01*
X145124000Y-107025000D02*
X146544000Y-107025000D01*
X148096000Y-107025000D02*
X149516000Y-107025000D01*
X145206000Y-106885000D02*
X146594000Y-106885000D01*
X148046000Y-106885000D02*
X149434000Y-106885000D01*
X145301000Y-106745000D02*
X146676000Y-106745000D01*
X147964000Y-106745000D02*
X149339000Y-106745000D01*
X145412000Y-106605000D02*
X146808000Y-106605000D01*
X147832000Y-106605000D02*
X149228000Y-106605000D01*
X145540000Y-106465000D02*
X147055000Y-106465000D01*
X147585000Y-106465000D02*
X149100000Y-106465000D01*
X145689000Y-106325000D02*
X148951000Y-106325000D01*
X145868000Y-106185000D02*
X148772000Y-106185000D01*
X146087000Y-106045000D02*
X148553000Y-106045000D01*
X146376000Y-105905000D02*
X148264000Y-105905000D01*
X146848000Y-105765000D02*
X147792000Y-105765000D01*
X148120000Y-107220000D02*
G75*
G03X148120000Y-107220000I-800000J0D01*
G01*
X149857500Y-108220000D02*
G75*
G03X149857500Y-108220000I-2537500J0D01*
G01*
X202360000Y-109650000D02*
X202360000Y-106250000D01*
X202357056Y-109647056D02*
G75*
G02X198260000Y-107950000I-1697056J1697056D01*
G01*
X202357056Y-106252944D02*
G75*
G03X198260000Y-107950000I-1697056J-1697056D01*
G01*
X148610000Y-71370000D02*
X148610000Y-68370000D01*
X151110000Y-68370000D02*
X151110000Y-71370000D01*
X153690000Y-71370000D02*
X153690000Y-68370000D01*
X156190000Y-68370000D02*
X156190000Y-71370000D01*
X130865000Y-97181000D02*
X130865000Y-103479000D01*
X131005000Y-97187000D02*
X131005000Y-103473000D01*
X131145000Y-97200000D02*
X131145000Y-99884000D01*
X131145000Y-100776000D02*
X131145000Y-103460000D01*
X131285000Y-97219000D02*
X131285000Y-99674000D01*
X131285000Y-100986000D02*
X131285000Y-103441000D01*
X131425000Y-97245000D02*
X131425000Y-99541000D01*
X131425000Y-101119000D02*
X131425000Y-103415000D01*
X131565000Y-97277000D02*
X131565000Y-99450000D01*
X131565000Y-101210000D02*
X131565000Y-103383000D01*
X131705000Y-97316000D02*
X131705000Y-99388000D01*
X131705000Y-101272000D02*
X131705000Y-103344000D01*
X131845000Y-97362000D02*
X131845000Y-99349000D01*
X131845000Y-101311000D02*
X131845000Y-103298000D01*
X131985000Y-97415000D02*
X131985000Y-99332000D01*
X131985000Y-101328000D02*
X131985000Y-103245000D01*
X132125000Y-97477000D02*
X132125000Y-99334000D01*
X132125000Y-101326000D02*
X132125000Y-103183000D01*
X132265000Y-97547000D02*
X132265000Y-99356000D01*
X132265000Y-101304000D02*
X132265000Y-103113000D01*
X132405000Y-97626000D02*
X132405000Y-99399000D01*
X132405000Y-101261000D02*
X132405000Y-103034000D01*
X132545000Y-97714000D02*
X132545000Y-99467000D01*
X132545000Y-101193000D02*
X132545000Y-102946000D01*
X132685000Y-97814000D02*
X132685000Y-99566000D01*
X132685000Y-101094000D02*
X132685000Y-102846000D01*
X132825000Y-97926000D02*
X132825000Y-99711000D01*
X132825000Y-100949000D02*
X132825000Y-102734000D01*
X132965000Y-98051000D02*
X132965000Y-99950000D01*
X132965000Y-100710000D02*
X132965000Y-102609000D01*
X133105000Y-98194000D02*
X133105000Y-102466000D01*
X133245000Y-98356000D02*
X133245000Y-102304000D01*
X133385000Y-98544000D02*
X133385000Y-102116000D01*
X133525000Y-98767000D02*
X133525000Y-101893000D01*
X133665000Y-99043000D02*
X133665000Y-101617000D01*
X133805000Y-99418000D02*
X133805000Y-101242000D01*
X133040000Y-100330000D02*
G75*
G03X133040000Y-100330000I-1000000J0D01*
G01*
X133977500Y-100330000D02*
G75*
G03X133977500Y-100330000I-3187500J0D01*
G01*
X160000000Y-82300000D02*
X160000000Y-85300000D01*
X157500000Y-85300000D02*
X157500000Y-82300000D01*
X165962381Y-90931905D02*
X166771905Y-90931905D01*
X166867143Y-90884286D01*
X166914762Y-90836667D01*
X166962381Y-90741429D01*
X166962381Y-90550952D01*
X166914762Y-90455714D01*
X166867143Y-90408095D01*
X166771905Y-90360476D01*
X165962381Y-90360476D01*
X166057619Y-89931905D02*
X166010000Y-89884286D01*
X165962381Y-89789048D01*
X165962381Y-89550952D01*
X166010000Y-89455714D01*
X166057619Y-89408095D01*
X166152857Y-89360476D01*
X166248095Y-89360476D01*
X166390952Y-89408095D01*
X166962381Y-89979524D01*
X166962381Y-89360476D01*
X179554286Y-119308571D02*
X179697143Y-119356190D01*
X179744762Y-119403810D01*
X179792381Y-119499048D01*
X179792381Y-119641905D01*
X179744762Y-119737143D01*
X179697143Y-119784762D01*
X179601905Y-119832381D01*
X179220952Y-119832381D01*
X179220952Y-118832381D01*
X179554286Y-118832381D01*
X179649524Y-118880000D01*
X179697143Y-118927619D01*
X179744762Y-119022857D01*
X179744762Y-119118095D01*
X179697143Y-119213333D01*
X179649524Y-119260952D01*
X179554286Y-119308571D01*
X179220952Y-119308571D01*
X180078095Y-118832381D02*
X180649524Y-118832381D01*
X180363809Y-119832381D02*
X180363809Y-118832381D01*
X181506667Y-119832381D02*
X180935238Y-119832381D01*
X181220952Y-119832381D02*
X181220952Y-118832381D01*
X181125714Y-118975238D01*
X181030476Y-119070476D01*
X180935238Y-119118095D01*
X201078103Y-114244285D02*
X201125722Y-114291904D01*
X201173341Y-114434761D01*
X201173341Y-114529999D01*
X201125722Y-114672857D01*
X201030484Y-114768095D01*
X200935246Y-114815714D01*
X200744770Y-114863333D01*
X200601912Y-114863333D01*
X200411436Y-114815714D01*
X200316198Y-114768095D01*
X200220960Y-114672857D01*
X200173341Y-114529999D01*
X200173341Y-114434761D01*
X200220960Y-114291904D01*
X200268579Y-114244285D01*
X200173341Y-113625238D02*
X200173341Y-113434761D01*
X200220960Y-113339523D01*
X200316198Y-113244285D01*
X200506674Y-113196666D01*
X200840008Y-113196666D01*
X201030484Y-113244285D01*
X201125722Y-113339523D01*
X201173341Y-113434761D01*
X201173341Y-113625238D01*
X201125722Y-113720476D01*
X201030484Y-113815714D01*
X200840008Y-113863333D01*
X200506674Y-113863333D01*
X200316198Y-113815714D01*
X200220960Y-113720476D01*
X200173341Y-113625238D01*
X201173341Y-112768095D02*
X200173341Y-112768095D01*
X201173341Y-112196666D01*
X200173341Y-112196666D01*
X200268579Y-111768095D02*
X200220960Y-111720476D01*
X200173341Y-111625238D01*
X200173341Y-111387142D01*
X200220960Y-111291904D01*
X200268579Y-111244285D01*
X200363817Y-111196666D01*
X200459055Y-111196666D01*
X200601912Y-111244285D01*
X201173341Y-111815714D01*
X201173341Y-111196666D01*
X146346183Y-114244285D02*
X146393802Y-114291904D01*
X146441421Y-114434761D01*
X146441421Y-114529999D01*
X146393802Y-114672857D01*
X146298564Y-114768095D01*
X146203326Y-114815714D01*
X146012850Y-114863333D01*
X145869992Y-114863333D01*
X145679516Y-114815714D01*
X145584278Y-114768095D01*
X145489040Y-114672857D01*
X145441421Y-114529999D01*
X145441421Y-114434761D01*
X145489040Y-114291904D01*
X145536659Y-114244285D01*
X145441421Y-113625238D02*
X145441421Y-113434761D01*
X145489040Y-113339523D01*
X145584278Y-113244285D01*
X145774754Y-113196666D01*
X146108088Y-113196666D01*
X146298564Y-113244285D01*
X146393802Y-113339523D01*
X146441421Y-113434761D01*
X146441421Y-113625238D01*
X146393802Y-113720476D01*
X146298564Y-113815714D01*
X146108088Y-113863333D01*
X145774754Y-113863333D01*
X145584278Y-113815714D01*
X145489040Y-113720476D01*
X145441421Y-113625238D01*
X146441421Y-112768095D02*
X145441421Y-112768095D01*
X146441421Y-112196666D01*
X145441421Y-112196666D01*
X146441421Y-111196666D02*
X146441421Y-111768095D01*
X146441421Y-111482381D02*
X145441421Y-111482381D01*
X145584278Y-111577619D01*
X145679516Y-111672857D01*
X145727135Y-111768095D01*
X164147143Y-83966666D02*
X164194762Y-84014285D01*
X164242381Y-84157142D01*
X164242381Y-84252380D01*
X164194762Y-84395238D01*
X164099524Y-84490476D01*
X164004286Y-84538095D01*
X163813810Y-84585714D01*
X163670952Y-84585714D01*
X163480476Y-84538095D01*
X163385238Y-84490476D01*
X163290000Y-84395238D01*
X163242381Y-84252380D01*
X163242381Y-84157142D01*
X163290000Y-84014285D01*
X163337619Y-83966666D01*
X163575714Y-83109523D02*
X164242381Y-83109523D01*
X163194762Y-83347619D02*
X163909048Y-83585714D01*
X163909048Y-82966666D01*
X138654565Y-94434921D02*
X138654565Y-93434921D01*
X138892660Y-93434921D01*
X139035518Y-93482540D01*
X139130756Y-93577778D01*
X139178375Y-93673016D01*
X139225994Y-93863492D01*
X139225994Y-94006350D01*
X139178375Y-94196826D01*
X139130756Y-94292064D01*
X139035518Y-94387302D01*
X138892660Y-94434921D01*
X138654565Y-94434921D01*
X140178375Y-94434921D02*
X139606946Y-94434921D01*
X139892660Y-94434921D02*
X139892660Y-93434921D01*
X139797422Y-93577778D01*
X139702184Y-93673016D01*
X139606946Y-93720635D01*
X136088381Y-79732095D02*
X135088381Y-79732095D01*
X135088381Y-79494000D01*
X135136000Y-79351142D01*
X135231238Y-79255904D01*
X135326476Y-79208285D01*
X135516952Y-79160666D01*
X135659810Y-79160666D01*
X135850286Y-79208285D01*
X135945524Y-79255904D01*
X136040762Y-79351142D01*
X136088381Y-79494000D01*
X136088381Y-79732095D01*
X135183619Y-78779714D02*
X135136000Y-78732095D01*
X135088381Y-78636857D01*
X135088381Y-78398761D01*
X135136000Y-78303523D01*
X135183619Y-78255904D01*
X135278857Y-78208285D01*
X135374095Y-78208285D01*
X135516952Y-78255904D01*
X136088381Y-78827333D01*
X136088381Y-78208285D01*
X138247381Y-75826905D02*
X137247381Y-75826905D01*
X138247381Y-75255476D02*
X137675952Y-75684048D01*
X137247381Y-75255476D02*
X137818810Y-75826905D01*
X126042381Y-60666190D02*
X125042381Y-60666190D01*
X125947143Y-59618571D02*
X125994762Y-59666190D01*
X126042381Y-59809047D01*
X126042381Y-59904285D01*
X125994762Y-60047143D01*
X125899524Y-60142381D01*
X125804286Y-60190000D01*
X125613810Y-60237619D01*
X125470952Y-60237619D01*
X125280476Y-60190000D01*
X125185238Y-60142381D01*
X125090000Y-60047143D01*
X125042381Y-59904285D01*
X125042381Y-59809047D01*
X125090000Y-59666190D01*
X125137619Y-59618571D01*
X126042381Y-58666190D02*
X126042381Y-59237619D01*
X126042381Y-58951905D02*
X125042381Y-58951905D01*
X125185238Y-59047143D01*
X125280476Y-59142381D01*
X125328095Y-59237619D01*
X196932254Y-111252261D02*
X196598920Y-110776070D01*
X196360825Y-111252261D02*
X196360825Y-110252261D01*
X196741778Y-110252261D01*
X196837016Y-110299880D01*
X196884635Y-110347499D01*
X196932254Y-110442737D01*
X196932254Y-110585594D01*
X196884635Y-110680832D01*
X196837016Y-110728451D01*
X196741778Y-110776070D01*
X196360825Y-110776070D01*
X197884635Y-111252261D02*
X197313206Y-111252261D01*
X197598920Y-111252261D02*
X197598920Y-110252261D01*
X197503682Y-110395118D01*
X197408444Y-110490356D01*
X197313206Y-110537975D01*
X139782254Y-84582261D02*
X139448920Y-84106070D01*
X139210825Y-84582261D02*
X139210825Y-83582261D01*
X139591778Y-83582261D01*
X139687016Y-83629880D01*
X139734635Y-83677499D01*
X139782254Y-83772737D01*
X139782254Y-83915594D01*
X139734635Y-84010832D01*
X139687016Y-84058451D01*
X139591778Y-84106070D01*
X139210825Y-84106070D01*
X140163206Y-83677499D02*
X140210825Y-83629880D01*
X140306063Y-83582261D01*
X140544159Y-83582261D01*
X140639397Y-83629880D01*
X140687016Y-83677499D01*
X140734635Y-83772737D01*
X140734635Y-83867975D01*
X140687016Y-84010832D01*
X140115587Y-84582261D01*
X140734635Y-84582261D01*
X139782254Y-88392261D02*
X139448920Y-87916070D01*
X139210825Y-88392261D02*
X139210825Y-87392261D01*
X139591778Y-87392261D01*
X139687016Y-87439880D01*
X139734635Y-87487499D01*
X139782254Y-87582737D01*
X139782254Y-87725594D01*
X139734635Y-87820832D01*
X139687016Y-87868451D01*
X139591778Y-87916070D01*
X139210825Y-87916070D01*
X140115587Y-87392261D02*
X140734635Y-87392261D01*
X140401301Y-87773213D01*
X140544159Y-87773213D01*
X140639397Y-87820832D01*
X140687016Y-87868451D01*
X140734635Y-87963690D01*
X140734635Y-88201785D01*
X140687016Y-88297023D01*
X140639397Y-88344642D01*
X140544159Y-88392261D01*
X140258444Y-88392261D01*
X140163206Y-88344642D01*
X140115587Y-88297023D01*
X191912501Y-71535586D02*
X191436310Y-71868920D01*
X191912501Y-72107015D02*
X190912501Y-72107015D01*
X190912501Y-71726062D01*
X190960120Y-71630824D01*
X191007739Y-71583205D01*
X191102977Y-71535586D01*
X191245834Y-71535586D01*
X191341072Y-71583205D01*
X191388691Y-71630824D01*
X191436310Y-71726062D01*
X191436310Y-72107015D01*
X190912501Y-71202253D02*
X190912501Y-70535586D01*
X191912501Y-70964158D01*
X179152254Y-38862261D02*
X178818920Y-38386070D01*
X178580825Y-38862261D02*
X178580825Y-37862261D01*
X178961778Y-37862261D01*
X179057016Y-37909880D01*
X179104635Y-37957499D01*
X179152254Y-38052737D01*
X179152254Y-38195594D01*
X179104635Y-38290832D01*
X179057016Y-38338451D01*
X178961778Y-38386070D01*
X178580825Y-38386070D01*
X179723682Y-38290832D02*
X179628444Y-38243213D01*
X179580825Y-38195594D01*
X179533206Y-38100356D01*
X179533206Y-38052737D01*
X179580825Y-37957499D01*
X179628444Y-37909880D01*
X179723682Y-37862261D01*
X179914159Y-37862261D01*
X180009397Y-37909880D01*
X180057016Y-37957499D01*
X180104635Y-38052737D01*
X180104635Y-38100356D01*
X180057016Y-38195594D01*
X180009397Y-38243213D01*
X179914159Y-38290832D01*
X179723682Y-38290832D01*
X179628444Y-38338451D01*
X179580825Y-38386070D01*
X179533206Y-38481309D01*
X179533206Y-38671785D01*
X179580825Y-38767023D01*
X179628444Y-38814642D01*
X179723682Y-38862261D01*
X179914159Y-38862261D01*
X180009397Y-38814642D01*
X180057016Y-38767023D01*
X180104635Y-38671785D01*
X180104635Y-38481309D01*
X180057016Y-38386070D01*
X180009397Y-38338451D01*
X179914159Y-38290832D01*
X194452501Y-71535586D02*
X193976310Y-71868920D01*
X194452501Y-72107015D02*
X193452501Y-72107015D01*
X193452501Y-71726062D01*
X193500120Y-71630824D01*
X193547739Y-71583205D01*
X193642977Y-71535586D01*
X193785834Y-71535586D01*
X193881072Y-71583205D01*
X193928691Y-71630824D01*
X193976310Y-71726062D01*
X193976310Y-72107015D01*
X194452501Y-71059396D02*
X194452501Y-70868920D01*
X194404882Y-70773681D01*
X194357263Y-70726062D01*
X194214406Y-70630824D01*
X194023930Y-70583205D01*
X193642977Y-70583205D01*
X193547739Y-70630824D01*
X193500120Y-70678443D01*
X193452501Y-70773681D01*
X193452501Y-70964158D01*
X193500120Y-71059396D01*
X193547739Y-71107015D01*
X193642977Y-71154634D01*
X193881072Y-71154634D01*
X193976310Y-71107015D01*
X194023930Y-71059396D01*
X194071549Y-70964158D01*
X194071549Y-70773681D01*
X194023930Y-70678443D01*
X193976310Y-70630824D01*
X193881072Y-70583205D01*
X196992501Y-72011777D02*
X196516310Y-72345111D01*
X196992501Y-72583206D02*
X195992501Y-72583206D01*
X195992501Y-72202253D01*
X196040120Y-72107015D01*
X196087739Y-72059396D01*
X196182977Y-72011777D01*
X196325834Y-72011777D01*
X196421072Y-72059396D01*
X196468691Y-72107015D01*
X196516310Y-72202253D01*
X196516310Y-72583206D01*
X196992501Y-71059396D02*
X196992501Y-71630825D01*
X196992501Y-71345111D02*
X195992501Y-71345111D01*
X196135358Y-71440349D01*
X196230596Y-71535587D01*
X196278215Y-71630825D01*
X195992501Y-70440349D02*
X195992501Y-70345110D01*
X196040120Y-70249872D01*
X196087739Y-70202253D01*
X196182977Y-70154634D01*
X196373453Y-70107015D01*
X196611549Y-70107015D01*
X196802025Y-70154634D01*
X196897263Y-70202253D01*
X196944882Y-70249872D01*
X196992501Y-70345110D01*
X196992501Y-70440349D01*
X196944882Y-70535587D01*
X196897263Y-70583206D01*
X196802025Y-70630825D01*
X196611549Y-70678444D01*
X196373453Y-70678444D01*
X196182977Y-70630825D01*
X196087739Y-70583206D01*
X196040120Y-70535587D01*
X195992501Y-70440349D01*
X199532501Y-72011777D02*
X199056310Y-72345111D01*
X199532501Y-72583206D02*
X198532501Y-72583206D01*
X198532501Y-72202253D01*
X198580120Y-72107015D01*
X198627739Y-72059396D01*
X198722977Y-72011777D01*
X198865834Y-72011777D01*
X198961072Y-72059396D01*
X199008691Y-72107015D01*
X199056310Y-72202253D01*
X199056310Y-72583206D01*
X199532501Y-71059396D02*
X199532501Y-71630825D01*
X199532501Y-71345111D02*
X198532501Y-71345111D01*
X198675358Y-71440349D01*
X198770596Y-71535587D01*
X198818215Y-71630825D01*
X199532501Y-70107015D02*
X199532501Y-70678444D01*
X199532501Y-70392730D02*
X198532501Y-70392730D01*
X198675358Y-70487968D01*
X198770596Y-70583206D01*
X198818215Y-70678444D01*
X203578223Y-45862501D02*
X203244889Y-45386310D01*
X203006794Y-45862501D02*
X203006794Y-44862501D01*
X203387747Y-44862501D01*
X203482985Y-44910120D01*
X203530604Y-44957739D01*
X203578223Y-45052977D01*
X203578223Y-45195834D01*
X203530604Y-45291072D01*
X203482985Y-45338691D01*
X203387747Y-45386310D01*
X203006794Y-45386310D01*
X204530604Y-45862501D02*
X203959175Y-45862501D01*
X204244889Y-45862501D02*
X204244889Y-44862501D01*
X204149651Y-45005358D01*
X204054413Y-45100596D01*
X203959175Y-45148215D01*
X204911556Y-44957739D02*
X204959175Y-44910120D01*
X205054413Y-44862501D01*
X205292509Y-44862501D01*
X205387747Y-44910120D01*
X205435366Y-44957739D01*
X205482985Y-45052977D01*
X205482985Y-45148215D01*
X205435366Y-45291072D01*
X204863937Y-45862501D01*
X205482985Y-45862501D01*
X203578223Y-48402501D02*
X203244889Y-47926310D01*
X203006794Y-48402501D02*
X203006794Y-47402501D01*
X203387747Y-47402501D01*
X203482985Y-47450120D01*
X203530604Y-47497739D01*
X203578223Y-47592977D01*
X203578223Y-47735834D01*
X203530604Y-47831072D01*
X203482985Y-47878691D01*
X203387747Y-47926310D01*
X203006794Y-47926310D01*
X204530604Y-48402501D02*
X203959175Y-48402501D01*
X204244889Y-48402501D02*
X204244889Y-47402501D01*
X204149651Y-47545358D01*
X204054413Y-47640596D01*
X203959175Y-47688215D01*
X204863937Y-47402501D02*
X205482985Y-47402501D01*
X205149651Y-47783453D01*
X205292509Y-47783453D01*
X205387747Y-47831072D01*
X205435366Y-47878691D01*
X205482985Y-47973930D01*
X205482985Y-48212025D01*
X205435366Y-48307263D01*
X205387747Y-48354882D01*
X205292509Y-48402501D01*
X205006794Y-48402501D01*
X204911556Y-48354882D01*
X204863937Y-48307263D01*
X207018095Y-82065762D02*
X207160952Y-82113381D01*
X207399048Y-82113381D01*
X207494286Y-82065762D01*
X207541905Y-82018143D01*
X207589524Y-81922905D01*
X207589524Y-81827667D01*
X207541905Y-81732429D01*
X207494286Y-81684810D01*
X207399048Y-81637190D01*
X207208571Y-81589571D01*
X207113333Y-81541952D01*
X207065714Y-81494333D01*
X207018095Y-81399095D01*
X207018095Y-81303857D01*
X207065714Y-81208619D01*
X207113333Y-81161000D01*
X207208571Y-81113381D01*
X207446667Y-81113381D01*
X207589524Y-81161000D01*
X208018095Y-82113381D02*
X208018095Y-81113381D01*
X208399048Y-81113381D01*
X208494286Y-81161000D01*
X208541905Y-81208619D01*
X208589524Y-81303857D01*
X208589524Y-81446714D01*
X208541905Y-81541952D01*
X208494286Y-81589571D01*
X208399048Y-81637190D01*
X208018095Y-81637190D01*
X209541905Y-82113381D02*
X208970476Y-82113381D01*
X209256190Y-82113381D02*
X209256190Y-81113381D01*
X209160952Y-81256238D01*
X209065714Y-81351476D01*
X208970476Y-81399095D01*
X211709048Y-76271429D02*
X212470953Y-76271429D01*
X212090001Y-76652381D02*
X212090001Y-75890476D01*
X133754762Y-67373333D02*
X133802381Y-67230476D01*
X133802381Y-66992380D01*
X133754762Y-66897142D01*
X133707143Y-66849523D01*
X133611905Y-66801904D01*
X133516667Y-66801904D01*
X133421429Y-66849523D01*
X133373810Y-66897142D01*
X133326190Y-66992380D01*
X133278571Y-67182857D01*
X133230952Y-67278095D01*
X133183333Y-67325714D01*
X133088095Y-67373333D01*
X132992857Y-67373333D01*
X132897619Y-67325714D01*
X132850000Y-67278095D01*
X132802381Y-67182857D01*
X132802381Y-66944761D01*
X132850000Y-66801904D01*
X132802381Y-66468571D02*
X133802381Y-66230476D01*
X133088095Y-66039999D01*
X133802381Y-65849523D01*
X132802381Y-65611428D01*
X133802381Y-64706666D02*
X133802381Y-65278095D01*
X133802381Y-64992381D02*
X132802381Y-64992381D01*
X132945238Y-65087619D01*
X133040476Y-65182857D01*
X133088095Y-65278095D01*
X193952762Y-94043333D02*
X194000381Y-93900476D01*
X194000381Y-93662380D01*
X193952762Y-93567142D01*
X193905143Y-93519523D01*
X193809905Y-93471904D01*
X193714667Y-93471904D01*
X193619429Y-93519523D01*
X193571810Y-93567142D01*
X193524190Y-93662380D01*
X193476571Y-93852857D01*
X193428952Y-93948095D01*
X193381333Y-93995714D01*
X193286095Y-94043333D01*
X193190857Y-94043333D01*
X193095619Y-93995714D01*
X193048000Y-93948095D01*
X193000381Y-93852857D01*
X193000381Y-93614761D01*
X193048000Y-93471904D01*
X193000381Y-93138571D02*
X194000381Y-92900476D01*
X193286095Y-92709999D01*
X194000381Y-92519523D01*
X193000381Y-92281428D01*
X193095619Y-91948095D02*
X193048000Y-91900476D01*
X193000381Y-91805238D01*
X193000381Y-91567142D01*
X193048000Y-91471904D01*
X193095619Y-91424285D01*
X193190857Y-91376666D01*
X193286095Y-91376666D01*
X193428952Y-91424285D01*
X194000381Y-91995714D01*
X194000381Y-91376666D01*
X207922762Y-94043333D02*
X207970381Y-93900476D01*
X207970381Y-93662380D01*
X207922762Y-93567142D01*
X207875143Y-93519523D01*
X207779905Y-93471904D01*
X207684667Y-93471904D01*
X207589429Y-93519523D01*
X207541810Y-93567142D01*
X207494190Y-93662380D01*
X207446571Y-93852857D01*
X207398952Y-93948095D01*
X207351333Y-93995714D01*
X207256095Y-94043333D01*
X207160857Y-94043333D01*
X207065619Y-93995714D01*
X207018000Y-93948095D01*
X206970381Y-93852857D01*
X206970381Y-93614761D01*
X207018000Y-93471904D01*
X206970381Y-93138571D02*
X207970381Y-92900476D01*
X207256095Y-92709999D01*
X207970381Y-92519523D01*
X206970381Y-92281428D01*
X206970381Y-91995714D02*
X206970381Y-91376666D01*
X207351333Y-91710000D01*
X207351333Y-91567142D01*
X207398952Y-91471904D01*
X207446571Y-91424285D01*
X207541810Y-91376666D01*
X207779905Y-91376666D01*
X207875143Y-91424285D01*
X207922762Y-91471904D01*
X207970381Y-91567142D01*
X207970381Y-91852857D01*
X207922762Y-91948095D01*
X207875143Y-91995714D01*
X169418095Y-48982381D02*
X169418095Y-49791905D01*
X169465714Y-49887143D01*
X169513333Y-49934762D01*
X169608571Y-49982381D01*
X169799048Y-49982381D01*
X169894286Y-49934762D01*
X169941905Y-49887143D01*
X169989524Y-49791905D01*
X169989524Y-48982381D01*
X170370476Y-48982381D02*
X170989524Y-48982381D01*
X170656190Y-49363333D01*
X170799048Y-49363333D01*
X170894286Y-49410952D01*
X170941905Y-49458571D01*
X170989524Y-49553810D01*
X170989524Y-49791905D01*
X170941905Y-49887143D01*
X170894286Y-49934762D01*
X170799048Y-49982381D01*
X170513333Y-49982381D01*
X170418095Y-49934762D01*
X170370476Y-49887143D01*
X159543809Y-83796190D02*
X159543809Y-84272381D01*
X159210476Y-83272381D02*
X159543809Y-83796190D01*
X159877143Y-83272381D01*
X160734286Y-84272381D02*
X160162857Y-84272381D01*
X160448571Y-84272381D02*
X160448571Y-83272381D01*
X160353333Y-83415238D01*
X160258095Y-83510476D01*
X160162857Y-83558095D01*
X151923809Y-68556190D02*
X151923809Y-69032381D01*
X151590476Y-68032381D02*
X151923809Y-68556190D01*
X152257143Y-68032381D01*
X152542857Y-68127619D02*
X152590476Y-68080000D01*
X152685714Y-68032381D01*
X152923810Y-68032381D01*
X153019048Y-68080000D01*
X153066667Y-68127619D01*
X153114286Y-68222857D01*
X153114286Y-68318095D01*
X153066667Y-68460952D01*
X152495238Y-69032381D01*
X153114286Y-69032381D01*
X189372501Y-71535586D02*
X188896310Y-71868920D01*
X189372501Y-72107015D02*
X188372501Y-72107015D01*
X188372501Y-71726062D01*
X188420120Y-71630824D01*
X188467739Y-71583205D01*
X188562977Y-71535586D01*
X188705834Y-71535586D01*
X188801072Y-71583205D01*
X188848691Y-71630824D01*
X188896310Y-71726062D01*
X188896310Y-72107015D01*
X188372501Y-70630824D02*
X188372501Y-71107015D01*
X188848691Y-71154634D01*
X188801072Y-71107015D01*
X188753453Y-71011777D01*
X188753453Y-70773681D01*
X188801072Y-70678443D01*
X188848691Y-70630824D01*
X188943930Y-70583205D01*
X189182025Y-70583205D01*
X189277263Y-70630824D01*
X189324882Y-70678443D01*
X189372501Y-70773681D01*
X189372501Y-71011777D01*
X189324882Y-71107015D01*
X189277263Y-71154634D01*
X179152254Y-41402261D02*
X178818920Y-40926070D01*
X178580825Y-41402261D02*
X178580825Y-40402261D01*
X178961778Y-40402261D01*
X179057016Y-40449880D01*
X179104635Y-40497499D01*
X179152254Y-40592737D01*
X179152254Y-40735594D01*
X179104635Y-40830832D01*
X179057016Y-40878451D01*
X178961778Y-40926070D01*
X178580825Y-40926070D01*
X180009397Y-40402261D02*
X179818920Y-40402261D01*
X179723682Y-40449880D01*
X179676063Y-40497499D01*
X179580825Y-40640356D01*
X179533206Y-40830832D01*
X179533206Y-41211785D01*
X179580825Y-41307023D01*
X179628444Y-41354642D01*
X179723682Y-41402261D01*
X179914159Y-41402261D01*
X180009397Y-41354642D01*
X180057016Y-41307023D01*
X180104635Y-41211785D01*
X180104635Y-40973690D01*
X180057016Y-40878451D01*
X180009397Y-40830832D01*
X179914159Y-40783213D01*
X179723682Y-40783213D01*
X179628444Y-40830832D01*
X179580825Y-40878451D01*
X179533206Y-40973690D01*
X139533334Y-84272381D02*
X139200000Y-83796190D01*
X138961905Y-84272381D02*
X138961905Y-83272381D01*
X139342858Y-83272381D01*
X139438096Y-83320000D01*
X139485715Y-83367619D01*
X139533334Y-83462857D01*
X139533334Y-83605714D01*
X139485715Y-83700952D01*
X139438096Y-83748571D01*
X139342858Y-83796190D01*
X138961905Y-83796190D01*
X140390477Y-83605714D02*
X140390477Y-84272381D01*
X140152381Y-83224762D02*
X139914286Y-83939048D01*
X140533334Y-83939048D01*
X138938095Y-105370381D02*
X138938095Y-106179905D01*
X138985714Y-106275143D01*
X139033333Y-106322762D01*
X139128571Y-106370381D01*
X139319048Y-106370381D01*
X139414286Y-106322762D01*
X139461905Y-106275143D01*
X139509524Y-106179905D01*
X139509524Y-105370381D01*
X140509524Y-106370381D02*
X139938095Y-106370381D01*
X140223809Y-106370381D02*
X140223809Y-105370381D01*
X140128571Y-105513238D01*
X140033333Y-105608476D01*
X139938095Y-105656095D01*
X143877143Y-108386666D02*
X143924762Y-108434285D01*
X143972381Y-108577142D01*
X143972381Y-108672380D01*
X143924762Y-108815238D01*
X143829524Y-108910476D01*
X143734286Y-108958095D01*
X143543810Y-109005714D01*
X143400952Y-109005714D01*
X143210476Y-108958095D01*
X143115238Y-108910476D01*
X143020000Y-108815238D01*
X142972381Y-108672380D01*
X142972381Y-108577142D01*
X143020000Y-108434285D01*
X143067619Y-108386666D01*
X143972381Y-107434285D02*
X143972381Y-108005714D01*
X143972381Y-107720000D02*
X142972381Y-107720000D01*
X143115238Y-107815238D01*
X143210476Y-107910476D01*
X143258095Y-108005714D01*
X197207619Y-109315238D02*
X197160000Y-109410476D01*
X197064762Y-109505714D01*
X196921905Y-109648571D01*
X196874286Y-109743810D01*
X196874286Y-109839048D01*
X197112381Y-109791429D02*
X197064762Y-109886667D01*
X196969524Y-109981905D01*
X196779048Y-110029524D01*
X196445714Y-110029524D01*
X196255238Y-109981905D01*
X196160000Y-109886667D01*
X196112381Y-109791429D01*
X196112381Y-109600952D01*
X196160000Y-109505714D01*
X196255238Y-109410476D01*
X196445714Y-109362857D01*
X196779048Y-109362857D01*
X196969524Y-109410476D01*
X197064762Y-109505714D01*
X197112381Y-109600952D01*
X197112381Y-109791429D01*
X197112381Y-108410476D02*
X197112381Y-108981905D01*
X197112381Y-108696191D02*
X196112381Y-108696191D01*
X196255238Y-108791429D01*
X196350476Y-108886667D01*
X196398095Y-108981905D01*
X147717143Y-70036666D02*
X147764762Y-70084285D01*
X147812381Y-70227142D01*
X147812381Y-70322380D01*
X147764762Y-70465238D01*
X147669524Y-70560476D01*
X147574286Y-70608095D01*
X147383810Y-70655714D01*
X147240952Y-70655714D01*
X147050476Y-70608095D01*
X146955238Y-70560476D01*
X146860000Y-70465238D01*
X146812381Y-70322380D01*
X146812381Y-70227142D01*
X146860000Y-70084285D01*
X146907619Y-70036666D01*
X146812381Y-69131904D02*
X146812381Y-69608095D01*
X147288571Y-69655714D01*
X147240952Y-69608095D01*
X147193333Y-69512857D01*
X147193333Y-69274761D01*
X147240952Y-69179523D01*
X147288571Y-69131904D01*
X147383810Y-69084285D01*
X147621905Y-69084285D01*
X147717143Y-69131904D01*
X147764762Y-69179523D01*
X147812381Y-69274761D01*
X147812381Y-69512857D01*
X147764762Y-69608095D01*
X147717143Y-69655714D01*
X152797143Y-70036666D02*
X152844762Y-70084285D01*
X152892381Y-70227142D01*
X152892381Y-70322380D01*
X152844762Y-70465238D01*
X152749524Y-70560476D01*
X152654286Y-70608095D01*
X152463810Y-70655714D01*
X152320952Y-70655714D01*
X152130476Y-70608095D01*
X152035238Y-70560476D01*
X151940000Y-70465238D01*
X151892381Y-70322380D01*
X151892381Y-70227142D01*
X151940000Y-70084285D01*
X151987619Y-70036666D01*
X151892381Y-69179523D02*
X151892381Y-69370000D01*
X151940000Y-69465238D01*
X151987619Y-69512857D01*
X152130476Y-69608095D01*
X152320952Y-69655714D01*
X152701905Y-69655714D01*
X152797143Y-69608095D01*
X152844762Y-69560476D01*
X152892381Y-69465238D01*
X152892381Y-69274761D01*
X152844762Y-69179523D01*
X152797143Y-69131904D01*
X152701905Y-69084285D01*
X152463810Y-69084285D01*
X152368571Y-69131904D01*
X152320952Y-69179523D01*
X152273333Y-69274761D01*
X152273333Y-69465238D01*
X152320952Y-69560476D01*
X152368571Y-69608095D01*
X152463810Y-69655714D01*
X130623334Y-96287143D02*
X130575715Y-96334762D01*
X130432858Y-96382381D01*
X130337620Y-96382381D01*
X130194762Y-96334762D01*
X130099524Y-96239524D01*
X130051905Y-96144286D01*
X130004286Y-95953810D01*
X130004286Y-95810952D01*
X130051905Y-95620476D01*
X130099524Y-95525238D01*
X130194762Y-95430000D01*
X130337620Y-95382381D01*
X130432858Y-95382381D01*
X130575715Y-95430000D01*
X130623334Y-95477619D01*
X130956667Y-95382381D02*
X131575715Y-95382381D01*
X131242381Y-95763333D01*
X131385239Y-95763333D01*
X131480477Y-95810952D01*
X131528096Y-95858571D01*
X131575715Y-95953810D01*
X131575715Y-96191905D01*
X131528096Y-96287143D01*
X131480477Y-96334762D01*
X131385239Y-96382381D01*
X131099524Y-96382381D01*
X131004286Y-96334762D01*
X130956667Y-96287143D01*
X161607143Y-83966666D02*
X161654762Y-84014285D01*
X161702381Y-84157142D01*
X161702381Y-84252380D01*
X161654762Y-84395238D01*
X161559524Y-84490476D01*
X161464286Y-84538095D01*
X161273810Y-84585714D01*
X161130952Y-84585714D01*
X160940476Y-84538095D01*
X160845238Y-84490476D01*
X160750000Y-84395238D01*
X160702381Y-84252380D01*
X160702381Y-84157142D01*
X160750000Y-84014285D01*
X160797619Y-83966666D01*
X160797619Y-83585714D02*
X160750000Y-83538095D01*
X160702381Y-83442857D01*
X160702381Y-83204761D01*
X160750000Y-83109523D01*
X160797619Y-83061904D01*
X160892857Y-83014285D01*
X160988095Y-83014285D01*
X161130952Y-83061904D01*
X161702381Y-83633333D01*
X161702381Y-83014285D01*
X126936667Y-36322381D02*
X126603333Y-35846190D01*
X126365238Y-36322381D02*
X126365238Y-35322381D01*
X126746191Y-35322381D01*
X126841429Y-35370000D01*
X126889048Y-35417619D01*
X126936667Y-35512857D01*
X126936667Y-35655714D01*
X126889048Y-35750952D01*
X126841429Y-35798571D01*
X126746191Y-35846190D01*
X126365238Y-35846190D01*
X127365238Y-35798571D02*
X127698572Y-35798571D01*
X127841429Y-36322381D02*
X127365238Y-36322381D01*
X127365238Y-35322381D01*
X127841429Y-35322381D01*
X128603334Y-35798571D02*
X128270000Y-35798571D01*
X128270000Y-36322381D02*
X128270000Y-35322381D01*
X128746191Y-35322381D01*
X129270000Y-35322381D02*
X129270000Y-35560476D01*
X129031905Y-35465238D02*
X129270000Y-35560476D01*
X129508096Y-35465238D01*
X129127143Y-35750952D02*
X129270000Y-35560476D01*
X129412858Y-35750952D01*
X130031905Y-35322381D02*
X130031905Y-35560476D01*
X129793810Y-35465238D02*
X130031905Y-35560476D01*
X130270001Y-35465238D01*
X129889048Y-35750952D02*
X130031905Y-35560476D01*
X130174763Y-35750952D01*
X214566667Y-36322381D02*
X214233333Y-35846190D01*
X213995238Y-36322381D02*
X213995238Y-35322381D01*
X214376191Y-35322381D01*
X214471429Y-35370000D01*
X214519048Y-35417619D01*
X214566667Y-35512857D01*
X214566667Y-35655714D01*
X214519048Y-35750952D01*
X214471429Y-35798571D01*
X214376191Y-35846190D01*
X213995238Y-35846190D01*
X214995238Y-35798571D02*
X215328572Y-35798571D01*
X215471429Y-36322381D02*
X214995238Y-36322381D01*
X214995238Y-35322381D01*
X215471429Y-35322381D01*
X216233334Y-35798571D02*
X215900000Y-35798571D01*
X215900000Y-36322381D02*
X215900000Y-35322381D01*
X216376191Y-35322381D01*
X216900000Y-35322381D02*
X216900000Y-35560476D01*
X216661905Y-35465238D02*
X216900000Y-35560476D01*
X217138096Y-35465238D01*
X216757143Y-35750952D02*
X216900000Y-35560476D01*
X217042858Y-35750952D01*
X217661905Y-35322381D02*
X217661905Y-35560476D01*
X217423810Y-35465238D02*
X217661905Y-35560476D01*
X217900001Y-35465238D01*
X217519048Y-35750952D02*
X217661905Y-35560476D01*
X217804763Y-35750952D01*
M02*
