G04 #@! TF.FileFunction,Copper,L2,Bot,Signal*
%FSLAX46Y46*%
G04 Gerber Fmt 4.6, Leading zero omitted, Abs format (unit mm)*
G04 Created by KiCad (PCBNEW 4.0.5) date Sat Feb  4 14:15:58 2017*
%MOMM*%
%LPD*%
G01*
G04 APERTURE LIST*
%ADD10C,0.100000*%
%ADD11O,3.048000X1.727200*%
%ADD12O,1.600000X2.300000*%
%ADD13C,1.300000*%
%ADD14R,1.300000X1.300000*%
%ADD15C,1.998980*%
%ADD16R,1.998980X1.998980*%
%ADD17R,1.900000X0.800000*%
%ADD18R,2.000000X2.500000*%
%ADD19R,2.500000X2.000000*%
%ADD20C,2.000000*%
%ADD21R,1.397000X1.397000*%
%ADD22C,1.397000*%
%ADD23O,2.032000X2.540000*%
%ADD24C,1.524000*%
%ADD25C,1.000760*%
%ADD26C,1.500000*%
%ADD27R,1.800000X1.800000*%
%ADD28C,1.800000*%
%ADD29R,1.600000X1.600000*%
%ADD30O,1.600000X1.600000*%
%ADD31R,1.700000X1.700000*%
%ADD32O,1.700000X1.700000*%
%ADD33R,1.000000X1.600000*%
%ADD34R,1.600000X1.000000*%
%ADD35R,5.080000X2.790000*%
%ADD36C,17.780000*%
%ADD37C,0.600000*%
%ADD38C,0.250000*%
%ADD39C,0.254000*%
G04 APERTURE END LIST*
D10*
D11*
X173990000Y-119380000D03*
X173990000Y-124460000D03*
X161290000Y-119380000D03*
X161290000Y-124460000D03*
D12*
X163830000Y-139065000D03*
X166370000Y-139065000D03*
X168910000Y-139065000D03*
X171450000Y-139065000D03*
X171450000Y-131445000D03*
X168910000Y-131445000D03*
X166370000Y-131445000D03*
X163830000Y-131445000D03*
D13*
X134620000Y-160488000D03*
D14*
X134620000Y-157988000D03*
X118110000Y-148590000D03*
D13*
X118110000Y-150590000D03*
D14*
X132080000Y-139700000D03*
D13*
X134580000Y-139700000D03*
D14*
X132080000Y-144780000D03*
D13*
X134580000Y-144780000D03*
D15*
X118110000Y-144782540D03*
D16*
X128270000Y-144782540D03*
D17*
X160425000Y-155890000D03*
X160425000Y-153990000D03*
X163425000Y-154940000D03*
X125960000Y-129860000D03*
X125960000Y-131760000D03*
X122960000Y-130810000D03*
D18*
X159290000Y-158750000D03*
X163290000Y-158750000D03*
X135350000Y-130810000D03*
X131350000Y-130810000D03*
D19*
X160655000Y-133445000D03*
X160655000Y-129445000D03*
X174625000Y-133445000D03*
X174625000Y-129445000D03*
X118110000Y-131540000D03*
X118110000Y-127540000D03*
X129540000Y-107410000D03*
X129540000Y-103410000D03*
X125730000Y-107410000D03*
X125730000Y-103410000D03*
X133350000Y-107410000D03*
X133350000Y-103410000D03*
X140970000Y-107410000D03*
X140970000Y-103410000D03*
X137160000Y-107410000D03*
X137160000Y-103410000D03*
X144780000Y-107410000D03*
X144780000Y-103410000D03*
X148590000Y-107410000D03*
X148590000Y-103410000D03*
X152400000Y-107410000D03*
X152400000Y-103410000D03*
X156210000Y-107410000D03*
X156210000Y-103410000D03*
D20*
X125719840Y-135890000D03*
X118120160Y-135890000D03*
D21*
X119380000Y-111125000D03*
D22*
X119380000Y-108585000D03*
X119380000Y-106045000D03*
D23*
X127000000Y-148590000D03*
X124460000Y-148590000D03*
X129540000Y-148590000D03*
D24*
X148590000Y-97790000D03*
X151130000Y-97790000D03*
X153670000Y-97790000D03*
X156210000Y-97790000D03*
X148590000Y-113030000D03*
X151130000Y-113030000D03*
X153670000Y-113030000D03*
X156210000Y-113030000D03*
X146050000Y-97790000D03*
X143510000Y-97790000D03*
X140970000Y-97790000D03*
X140970000Y-113030000D03*
X143510000Y-113030000D03*
X146050000Y-113030000D03*
D25*
X165849300Y-142240000D03*
X164350700Y-142240000D03*
D26*
X138684000Y-144780000D03*
X138684000Y-139900000D03*
D27*
X116840000Y-121920000D03*
D28*
X119380000Y-121920000D03*
D29*
X144780000Y-120650000D03*
D30*
X152400000Y-153670000D03*
X144780000Y-123190000D03*
X152400000Y-151130000D03*
X144780000Y-125730000D03*
X152400000Y-148590000D03*
X144780000Y-128270000D03*
X152400000Y-146050000D03*
X144780000Y-130810000D03*
X152400000Y-143510000D03*
X144780000Y-133350000D03*
X152400000Y-140970000D03*
X144780000Y-135890000D03*
X152400000Y-138430000D03*
X144780000Y-138430000D03*
X152400000Y-135890000D03*
X144780000Y-140970000D03*
X152400000Y-133350000D03*
X144780000Y-143510000D03*
X152400000Y-130810000D03*
X144780000Y-146050000D03*
X152400000Y-128270000D03*
X144780000Y-148590000D03*
X152400000Y-125730000D03*
X144780000Y-151130000D03*
X152400000Y-123190000D03*
X144780000Y-153670000D03*
X152400000Y-120650000D03*
D31*
X150876000Y-164084000D03*
D32*
X150876000Y-166624000D03*
X148336000Y-164084000D03*
X148336000Y-166624000D03*
X145796000Y-164084000D03*
X145796000Y-166624000D03*
D11*
X135890000Y-119380000D03*
X135890000Y-124460000D03*
X123190000Y-119380000D03*
X123190000Y-124460000D03*
D33*
X169059860Y-157480000D03*
X175059340Y-157480000D03*
D34*
X172059600Y-152781000D03*
D33*
X128120140Y-157988000D03*
X122120660Y-157988000D03*
D34*
X125120400Y-162687000D03*
D35*
X171450000Y-90646000D03*
X171450000Y-114586000D03*
D36*
X171450000Y-102616000D03*
D37*
X156210000Y-122428000D03*
X148336000Y-137414000D03*
X158435000Y-153990000D03*
X128270000Y-130810000D03*
X156845000Y-137160000D03*
X120650000Y-133350000D03*
X148590000Y-105410000D03*
X139700000Y-111760000D03*
X138430000Y-111760000D03*
X144780000Y-105410000D03*
X137160000Y-111760000D03*
X137160000Y-105410000D03*
X133350000Y-105410000D03*
X135890000Y-111760000D03*
X134620000Y-111760000D03*
X129540000Y-105410000D03*
X150251000Y-148844000D03*
X154305000Y-127635000D03*
X140970000Y-105410000D03*
X159385000Y-136525000D03*
X156845000Y-139065000D03*
X151130000Y-118745000D03*
X156210000Y-111125000D03*
X139700000Y-129540000D03*
X147955000Y-128270000D03*
X163830000Y-129540000D03*
X146558000Y-131826000D03*
X147955000Y-120650000D03*
X137795000Y-128270000D03*
D38*
X158242000Y-124460000D02*
X173990000Y-124460000D01*
X156210000Y-122428000D02*
X158242000Y-124460000D01*
X156210000Y-113030000D02*
X161036000Y-113030000D01*
X161036000Y-113030000D02*
X171450000Y-102616000D01*
X147320000Y-138430000D02*
X148336000Y-137414000D01*
X144780000Y-138430000D02*
X147320000Y-138430000D01*
X160425000Y-153990000D02*
X158435000Y-153990000D01*
X125960000Y-131760000D02*
X127320000Y-131760000D01*
X127320000Y-131760000D02*
X128270000Y-130810000D01*
X125960000Y-131760000D02*
X125960000Y-133580000D01*
X125960000Y-133580000D02*
X132080000Y-139700000D01*
X127000000Y-148590000D02*
X127000000Y-149860000D01*
X132080000Y-149860000D02*
X132080000Y-144780000D01*
X130810000Y-151130000D02*
X132080000Y-149860000D01*
X128270000Y-151130000D02*
X130810000Y-151130000D01*
X127000000Y-149860000D02*
X128270000Y-151130000D01*
X171450000Y-90646000D02*
X172595000Y-90646000D01*
X172595000Y-114586000D02*
X171450000Y-114586000D01*
X172595000Y-114586000D02*
X172627000Y-114554000D01*
X168910000Y-139065000D02*
X168910000Y-138715000D01*
X168910000Y-138715000D02*
X171735000Y-135890000D01*
X171735000Y-135890000D02*
X176022000Y-135890000D01*
X176022000Y-135890000D02*
X176784000Y-135128000D01*
X176784000Y-135128000D02*
X176784000Y-118775000D01*
X176784000Y-118775000D02*
X172595000Y-114586000D01*
X134620000Y-157988000D02*
X152908000Y-157988000D01*
X164995860Y-161544000D02*
X169059860Y-157480000D01*
X156464000Y-161544000D02*
X164995860Y-161544000D01*
X152908000Y-157988000D02*
X156464000Y-161544000D01*
X150876000Y-166624000D02*
X148336000Y-169164000D01*
X148336000Y-169164000D02*
X127508000Y-169164000D01*
X127508000Y-169164000D02*
X121315599Y-162971599D01*
X121315599Y-162971599D02*
X121315599Y-153254401D01*
X121315599Y-153254401D02*
X124460000Y-150110000D01*
X124460000Y-150110000D02*
X124460000Y-148590000D01*
X144780000Y-135890000D02*
X149098000Y-135890000D01*
X149098000Y-135890000D02*
X150368000Y-137160000D01*
X150368000Y-140208000D02*
X151130000Y-140970000D01*
X150368000Y-137160000D02*
X150368000Y-140208000D01*
X151130000Y-140970000D02*
X152400000Y-140970000D01*
X160655000Y-133445000D02*
X161830000Y-133445000D01*
X161830000Y-133445000D02*
X163830000Y-131445000D01*
X156845000Y-137160000D02*
X160560000Y-133445000D01*
X160560000Y-133445000D02*
X160655000Y-133445000D01*
X163830000Y-131445000D02*
X163830000Y-132080000D01*
X163830000Y-132080000D02*
X165195000Y-133445000D01*
X165195000Y-133445000D02*
X174625000Y-133445000D01*
X120650000Y-133350000D02*
X118840000Y-131540000D01*
X118840000Y-131540000D02*
X118110000Y-131540000D01*
X118110000Y-144782540D02*
X118110000Y-139700000D01*
X120650000Y-134620000D02*
X118110000Y-132080000D01*
X120650000Y-137160000D02*
X120650000Y-134620000D01*
X118110000Y-139700000D02*
X120650000Y-137160000D01*
X118110000Y-132080000D02*
X118110000Y-131540000D01*
X172059600Y-152781000D02*
X172059600Y-154480260D01*
X172059600Y-154480260D02*
X175059340Y-157480000D01*
X163425000Y-154940000D02*
X169900600Y-154940000D01*
X169900600Y-154940000D02*
X172059600Y-152781000D01*
X118110000Y-127540000D02*
X118110000Y-125730000D01*
X119380000Y-124460000D02*
X119380000Y-121920000D01*
X118110000Y-125730000D02*
X119380000Y-124460000D01*
X144780000Y-133350000D02*
X143510000Y-132080000D01*
X148590000Y-105410000D02*
X148590000Y-103410000D01*
X139700000Y-113665000D02*
X139700000Y-111760000D01*
X143510000Y-117475000D02*
X139700000Y-113665000D01*
X143510000Y-132080000D02*
X143510000Y-117475000D01*
X144780000Y-146050000D02*
X142875000Y-144145000D01*
X138430000Y-113665000D02*
X138430000Y-111760000D01*
X142875000Y-118110000D02*
X138430000Y-113665000D01*
X142875000Y-144145000D02*
X142875000Y-118110000D01*
X144780000Y-103410000D02*
X144780000Y-105410000D01*
X144780000Y-148590000D02*
X142240000Y-146050000D01*
X142240000Y-146050000D02*
X142240000Y-118745000D01*
X142240000Y-118745000D02*
X137160000Y-113665000D01*
X137160000Y-113665000D02*
X137160000Y-111760000D01*
X137160000Y-105410000D02*
X137160000Y-103410000D01*
X144780000Y-151130000D02*
X141605000Y-147955000D01*
X133350000Y-105410000D02*
X133350000Y-103410000D01*
X135890000Y-113665000D02*
X135890000Y-111760000D01*
X141605000Y-119380000D02*
X135890000Y-113665000D01*
X141605000Y-147955000D02*
X141605000Y-119380000D01*
X134620000Y-113665000D02*
X134620000Y-111760000D01*
X140970000Y-120015000D02*
X134620000Y-113665000D01*
X140970000Y-149860000D02*
X140970000Y-120015000D01*
X144780000Y-153670000D02*
X140970000Y-149860000D01*
X129540000Y-105410000D02*
X129540000Y-103410000D01*
X137795000Y-126365000D02*
X140335000Y-128905000D01*
X135255000Y-126365000D02*
X137795000Y-126365000D01*
X125730000Y-107410000D02*
X125730000Y-116840000D01*
X147955000Y-155575000D02*
X152400000Y-151130000D01*
X140335000Y-128905000D02*
X140335000Y-152400000D01*
X140335000Y-152400000D02*
X143510000Y-155575000D01*
X143510000Y-155575000D02*
X147955000Y-155575000D01*
X125730000Y-116840000D02*
X135255000Y-126365000D01*
X150251000Y-148844000D02*
X152146000Y-148844000D01*
X152146000Y-148844000D02*
X152400000Y-148590000D01*
X152400000Y-148590000D02*
X154305000Y-146685000D01*
X154305000Y-146685000D02*
X154305000Y-127635000D01*
X140970000Y-107410000D02*
X140970000Y-105410000D01*
X156845000Y-139065000D02*
X159385000Y-136525000D01*
X152400000Y-107410000D02*
X152400000Y-117475000D01*
X152400000Y-117475000D02*
X151130000Y-118745000D01*
X151765000Y-133350000D02*
X152400000Y-133350000D01*
X152400000Y-107410000D02*
X152400000Y-108254800D01*
X156210000Y-107410000D02*
X156210000Y-111125000D01*
X147955000Y-128270000D02*
X152400000Y-128270000D01*
X135350000Y-130810000D02*
X138430000Y-130810000D01*
X138430000Y-130810000D02*
X139700000Y-129540000D01*
X152400000Y-125730000D02*
X153670000Y-125730000D01*
X155575000Y-155035000D02*
X159290000Y-158750000D01*
X155575000Y-127635000D02*
X155575000Y-155035000D01*
X153670000Y-125730000D02*
X155575000Y-127635000D01*
X153035000Y-125730000D02*
X152400000Y-125730000D01*
X160655000Y-129445000D02*
X158655000Y-129445000D01*
X158655000Y-129445000D02*
X152400000Y-123190000D01*
X163830000Y-129540000D02*
X163735000Y-129445000D01*
X163735000Y-129445000D02*
X160655000Y-129445000D01*
X168910000Y-131445000D02*
X168910000Y-130810000D01*
X168910000Y-130810000D02*
X170275000Y-129445000D01*
X168910000Y-130810000D02*
X164465000Y-126365000D01*
X170275000Y-129445000D02*
X174625000Y-129445000D01*
X158115000Y-126365000D02*
X152400000Y-120650000D01*
X164465000Y-126365000D02*
X158115000Y-126365000D01*
X152400000Y-120650000D02*
X153035000Y-120650000D01*
X160425000Y-155890000D02*
X160430000Y-155890000D01*
X160430000Y-155890000D02*
X163290000Y-158750000D01*
X125960000Y-129860000D02*
X130400000Y-129860000D01*
X130400000Y-129860000D02*
X131350000Y-130810000D01*
X122960000Y-130810000D02*
X122960000Y-133130160D01*
X122960000Y-133130160D02*
X125719840Y-135890000D01*
X123200160Y-130569840D02*
X122960000Y-130810000D01*
X140970000Y-113030000D02*
X140970000Y-111125000D01*
X129540000Y-109220000D02*
X129540000Y-107410000D01*
X130810000Y-110490000D02*
X129540000Y-109220000D01*
X140335000Y-110490000D02*
X130810000Y-110490000D01*
X140970000Y-111125000D02*
X140335000Y-110490000D01*
X143510000Y-97790000D02*
X143510000Y-97828100D01*
X143510000Y-97828100D02*
X140360400Y-100482400D01*
X140360400Y-100482400D02*
X127844800Y-100482400D01*
X127844800Y-100482400D02*
X125730000Y-103410000D01*
X143510000Y-113030000D02*
X143510000Y-110490000D01*
X135795000Y-109855000D02*
X133350000Y-107410000D01*
X142875000Y-109855000D02*
X135795000Y-109855000D01*
X143510000Y-110490000D02*
X142875000Y-109855000D01*
X143510000Y-113030000D02*
X143510000Y-112636300D01*
X140970000Y-103410000D02*
X140970000Y-102870000D01*
X140970000Y-102870000D02*
X146050000Y-97790000D01*
X146050000Y-113030000D02*
X146050000Y-110490000D01*
X138970000Y-109220000D02*
X137160000Y-107410000D01*
X144780000Y-109220000D02*
X138970000Y-109220000D01*
X146050000Y-110490000D02*
X144780000Y-109220000D01*
X146050000Y-113030000D02*
X146050000Y-112433100D01*
X136804400Y-108356400D02*
X137160000Y-107410000D01*
X148590000Y-113030000D02*
X148590000Y-111760000D01*
X148590000Y-111760000D02*
X144780000Y-107950000D01*
X144780000Y-107950000D02*
X144780000Y-107410000D01*
X148590000Y-113030000D02*
X148590000Y-112839500D01*
X144424400Y-108356400D02*
X144780000Y-107410000D01*
X148590000Y-107410000D02*
X148590000Y-109220000D01*
X151130000Y-111760000D02*
X151130000Y-113030000D01*
X148590000Y-109220000D02*
X151130000Y-111760000D01*
X151130000Y-113030000D02*
X151130000Y-112331500D01*
X151130000Y-113030000D02*
X151130000Y-112509300D01*
X152400000Y-103410000D02*
X152400000Y-99060000D01*
X152400000Y-99060000D02*
X153670000Y-97790000D01*
X152400000Y-103410000D02*
X152400000Y-102768400D01*
X156210000Y-103410000D02*
X156210000Y-97790000D01*
X156210000Y-103410000D02*
X156095700Y-97904300D01*
X156095700Y-97904300D02*
X156210000Y-97790000D01*
X156210000Y-97790000D02*
X156654500Y-97790000D01*
X146558000Y-131826000D02*
X146558000Y-121378000D01*
X146558000Y-121378000D02*
X145830000Y-120650000D01*
X145830000Y-120650000D02*
X144780000Y-120650000D01*
X119380000Y-106045000D02*
X116840000Y-108585000D01*
X116840000Y-121920000D02*
X116840000Y-108585000D01*
X149225000Y-119380000D02*
X147955000Y-120650000D01*
X149225000Y-119380000D02*
X161290000Y-119380000D01*
X135890000Y-128270000D02*
X137795000Y-128270000D01*
X119380000Y-111125000D02*
X119380000Y-111760000D01*
X119380000Y-111760000D02*
X135890000Y-128270000D01*
D39*
G36*
X182195000Y-170130000D02*
X114985000Y-170130000D01*
X114985000Y-167554815D01*
X115974630Y-167554815D01*
X116298980Y-168339800D01*
X116899041Y-168940909D01*
X117683459Y-169266628D01*
X118532815Y-169267370D01*
X119317800Y-168943020D01*
X119918909Y-168342959D01*
X120244628Y-167558541D01*
X120245370Y-166709185D01*
X119921020Y-165924200D01*
X119320959Y-165323091D01*
X118536541Y-164997372D01*
X117687185Y-164996630D01*
X116902200Y-165320980D01*
X116301091Y-165921041D01*
X115975372Y-166705459D01*
X115974630Y-167554815D01*
X114985000Y-167554815D01*
X114985000Y-153254401D01*
X120555599Y-153254401D01*
X120555599Y-162971599D01*
X120613451Y-163262438D01*
X120778198Y-163509000D01*
X126970599Y-169701401D01*
X127217160Y-169866148D01*
X127265414Y-169875746D01*
X127508000Y-169924000D01*
X148336000Y-169924000D01*
X148626839Y-169866148D01*
X148873401Y-169701401D01*
X150509592Y-168065210D01*
X150876000Y-168138093D01*
X151444285Y-168025054D01*
X151926054Y-167703147D01*
X152194883Y-167300815D01*
X176934630Y-167300815D01*
X177258980Y-168085800D01*
X177859041Y-168686909D01*
X178643459Y-169012628D01*
X179492815Y-169013370D01*
X180277800Y-168689020D01*
X180878909Y-168088959D01*
X181204628Y-167304541D01*
X181205370Y-166455185D01*
X180881020Y-165670200D01*
X180280959Y-165069091D01*
X179496541Y-164743372D01*
X178647185Y-164742630D01*
X177862200Y-165066980D01*
X177261091Y-165667041D01*
X176935372Y-166451459D01*
X176934630Y-167300815D01*
X152194883Y-167300815D01*
X152247961Y-167221378D01*
X152361000Y-166653093D01*
X152361000Y-166594907D01*
X152247961Y-166026622D01*
X151926054Y-165544853D01*
X151924821Y-165544029D01*
X151961317Y-165537162D01*
X152177441Y-165398090D01*
X152322431Y-165185890D01*
X152373440Y-164934000D01*
X152373440Y-163234000D01*
X152329162Y-162998683D01*
X152190090Y-162782559D01*
X151977890Y-162637569D01*
X151726000Y-162586560D01*
X150026000Y-162586560D01*
X149790683Y-162630838D01*
X149574559Y-162769910D01*
X149429569Y-162982110D01*
X149415914Y-163049541D01*
X149386054Y-163004853D01*
X148904285Y-162682946D01*
X148336000Y-162569907D01*
X147767715Y-162682946D01*
X147285946Y-163004853D01*
X147066000Y-163334026D01*
X146846054Y-163004853D01*
X146364285Y-162682946D01*
X145796000Y-162569907D01*
X145227715Y-162682946D01*
X144745946Y-163004853D01*
X144424039Y-163486622D01*
X144311000Y-164054907D01*
X144311000Y-164113093D01*
X144424039Y-164681378D01*
X144745946Y-165163147D01*
X145029101Y-165352345D01*
X145029076Y-165352355D01*
X144600817Y-165742642D01*
X144354514Y-166267108D01*
X144475181Y-166497000D01*
X145669000Y-166497000D01*
X145669000Y-166477000D01*
X145923000Y-166477000D01*
X145923000Y-166497000D01*
X145943000Y-166497000D01*
X145943000Y-166751000D01*
X145923000Y-166751000D01*
X145923000Y-167944155D01*
X146152890Y-168065476D01*
X146562924Y-167895645D01*
X146991183Y-167505358D01*
X147058298Y-167362447D01*
X147285946Y-167703147D01*
X147767715Y-168025054D01*
X148295217Y-168129981D01*
X148021198Y-168404000D01*
X127822802Y-168404000D01*
X126399694Y-166980892D01*
X144354514Y-166980892D01*
X144600817Y-167505358D01*
X145029076Y-167895645D01*
X145439110Y-168065476D01*
X145669000Y-167944155D01*
X145669000Y-166751000D01*
X144475181Y-166751000D01*
X144354514Y-166980892D01*
X126399694Y-166980892D01*
X122391552Y-162972750D01*
X123685400Y-162972750D01*
X123685400Y-163313310D01*
X123782073Y-163546699D01*
X123960702Y-163725327D01*
X124194091Y-163822000D01*
X124834650Y-163822000D01*
X124993400Y-163663250D01*
X124993400Y-162814000D01*
X125247400Y-162814000D01*
X125247400Y-163663250D01*
X125406150Y-163822000D01*
X126046709Y-163822000D01*
X126280098Y-163725327D01*
X126458727Y-163546699D01*
X126555400Y-163313310D01*
X126555400Y-162972750D01*
X126396650Y-162814000D01*
X125247400Y-162814000D01*
X124993400Y-162814000D01*
X123844150Y-162814000D01*
X123685400Y-162972750D01*
X122391552Y-162972750D01*
X122075599Y-162656797D01*
X122075599Y-162060690D01*
X123685400Y-162060690D01*
X123685400Y-162401250D01*
X123844150Y-162560000D01*
X124993400Y-162560000D01*
X124993400Y-161710750D01*
X125247400Y-161710750D01*
X125247400Y-162560000D01*
X126396650Y-162560000D01*
X126555400Y-162401250D01*
X126555400Y-162060690D01*
X126458727Y-161827301D01*
X126280098Y-161648673D01*
X126046709Y-161552000D01*
X125406150Y-161552000D01*
X125247400Y-161710750D01*
X124993400Y-161710750D01*
X124834650Y-161552000D01*
X124194091Y-161552000D01*
X123960702Y-161648673D01*
X123782073Y-161827301D01*
X123685400Y-162060690D01*
X122075599Y-162060690D01*
X122075599Y-161387016D01*
X133900590Y-161387016D01*
X133956271Y-161617611D01*
X134439078Y-161785622D01*
X134949428Y-161756083D01*
X135283729Y-161617611D01*
X135339410Y-161387016D01*
X134620000Y-160667605D01*
X133900590Y-161387016D01*
X122075599Y-161387016D01*
X122075599Y-160307078D01*
X133322378Y-160307078D01*
X133351917Y-160817428D01*
X133490389Y-161151729D01*
X133720984Y-161207410D01*
X134440395Y-160488000D01*
X134799605Y-160488000D01*
X135519016Y-161207410D01*
X135749611Y-161151729D01*
X135917622Y-160668922D01*
X135888083Y-160158572D01*
X135749611Y-159824271D01*
X135519016Y-159768590D01*
X134799605Y-160488000D01*
X134440395Y-160488000D01*
X133720984Y-159768590D01*
X133490389Y-159824271D01*
X133322378Y-160307078D01*
X122075599Y-160307078D01*
X122075599Y-158115000D01*
X122247660Y-158115000D01*
X122247660Y-159264250D01*
X122406410Y-159423000D01*
X122746969Y-159423000D01*
X122980358Y-159326327D01*
X123158987Y-159147699D01*
X123255660Y-158914310D01*
X123255660Y-158273750D01*
X123096910Y-158115000D01*
X122247660Y-158115000D01*
X122075599Y-158115000D01*
X122075599Y-156711750D01*
X122247660Y-156711750D01*
X122247660Y-157861000D01*
X123096910Y-157861000D01*
X123255660Y-157702250D01*
X123255660Y-157188000D01*
X126972700Y-157188000D01*
X126972700Y-158788000D01*
X127016978Y-159023317D01*
X127156050Y-159239441D01*
X127368250Y-159384431D01*
X127620140Y-159435440D01*
X128620140Y-159435440D01*
X128855457Y-159391162D01*
X129071581Y-159252090D01*
X129216571Y-159039890D01*
X129267580Y-158788000D01*
X129267580Y-157338000D01*
X133322560Y-157338000D01*
X133322560Y-158638000D01*
X133366838Y-158873317D01*
X133505910Y-159089441D01*
X133718110Y-159234431D01*
X133970000Y-159285440D01*
X134132385Y-159285440D01*
X133956271Y-159358389D01*
X133900590Y-159588984D01*
X134620000Y-160308395D01*
X135339410Y-159588984D01*
X135283729Y-159358389D01*
X135074098Y-159285440D01*
X135270000Y-159285440D01*
X135505317Y-159241162D01*
X135721441Y-159102090D01*
X135866431Y-158889890D01*
X135895164Y-158748000D01*
X152593198Y-158748000D01*
X155926599Y-162081401D01*
X156173160Y-162246148D01*
X156221414Y-162255746D01*
X156464000Y-162304000D01*
X164995860Y-162304000D01*
X165286699Y-162246148D01*
X165533261Y-162081401D01*
X168687222Y-158927440D01*
X169559860Y-158927440D01*
X169795177Y-158883162D01*
X170011301Y-158744090D01*
X170156291Y-158531890D01*
X170207300Y-158280000D01*
X170207300Y-156680000D01*
X170163022Y-156444683D01*
X170023950Y-156228559D01*
X169811750Y-156083569D01*
X169559860Y-156032560D01*
X168559860Y-156032560D01*
X168324543Y-156076838D01*
X168108419Y-156215910D01*
X167963429Y-156428110D01*
X167912420Y-156680000D01*
X167912420Y-157552638D01*
X164681058Y-160784000D01*
X156778802Y-160784000D01*
X153445401Y-157450599D01*
X153198839Y-157285852D01*
X152908000Y-157228000D01*
X135896742Y-157228000D01*
X135873162Y-157102683D01*
X135734090Y-156886559D01*
X135521890Y-156741569D01*
X135270000Y-156690560D01*
X133970000Y-156690560D01*
X133734683Y-156734838D01*
X133518559Y-156873910D01*
X133373569Y-157086110D01*
X133322560Y-157338000D01*
X129267580Y-157338000D01*
X129267580Y-157188000D01*
X129223302Y-156952683D01*
X129084230Y-156736559D01*
X128872030Y-156591569D01*
X128620140Y-156540560D01*
X127620140Y-156540560D01*
X127384823Y-156584838D01*
X127168699Y-156723910D01*
X127023709Y-156936110D01*
X126972700Y-157188000D01*
X123255660Y-157188000D01*
X123255660Y-157061690D01*
X123158987Y-156828301D01*
X122980358Y-156649673D01*
X122746969Y-156553000D01*
X122406410Y-156553000D01*
X122247660Y-156711750D01*
X122075599Y-156711750D01*
X122075599Y-153569203D01*
X124997401Y-150647401D01*
X125162148Y-150400839D01*
X125171597Y-150353334D01*
X125627433Y-150048754D01*
X125744054Y-149874219D01*
X125922370Y-150101236D01*
X126485523Y-150417926D01*
X126617056Y-150449975D01*
X126873000Y-150330836D01*
X126873000Y-148717000D01*
X126853000Y-148717000D01*
X126853000Y-148463000D01*
X126873000Y-148463000D01*
X126873000Y-146849164D01*
X127127000Y-146849164D01*
X127127000Y-148463000D01*
X127147000Y-148463000D01*
X127147000Y-148717000D01*
X127127000Y-148717000D01*
X127127000Y-150330836D01*
X127382944Y-150449975D01*
X127514477Y-150417926D01*
X128077630Y-150101236D01*
X128255946Y-149874219D01*
X128372567Y-150048754D01*
X128908190Y-150406646D01*
X129540000Y-150532321D01*
X130171810Y-150406646D01*
X130707433Y-150048754D01*
X131065325Y-149513131D01*
X131191000Y-148881321D01*
X131191000Y-148298679D01*
X131065325Y-147666869D01*
X130707433Y-147131246D01*
X130171810Y-146773354D01*
X129540000Y-146647679D01*
X128908190Y-146773354D01*
X128372567Y-147131246D01*
X128255946Y-147305781D01*
X128077630Y-147078764D01*
X127514477Y-146762074D01*
X127382944Y-146730025D01*
X127127000Y-146849164D01*
X126873000Y-146849164D01*
X126617056Y-146730025D01*
X126485523Y-146762074D01*
X125922370Y-147078764D01*
X125744054Y-147305781D01*
X125627433Y-147131246D01*
X125091810Y-146773354D01*
X124460000Y-146647679D01*
X123828190Y-146773354D01*
X123292567Y-147131246D01*
X122934675Y-147666869D01*
X122809000Y-148298679D01*
X122809000Y-148881321D01*
X122934675Y-149513131D01*
X123292567Y-150048754D01*
X123384810Y-150110388D01*
X120778198Y-152717000D01*
X120613451Y-152963562D01*
X120555599Y-153254401D01*
X114985000Y-153254401D01*
X114985000Y-151489016D01*
X117390590Y-151489016D01*
X117446271Y-151719611D01*
X117929078Y-151887622D01*
X118439428Y-151858083D01*
X118773729Y-151719611D01*
X118829410Y-151489016D01*
X118110000Y-150769605D01*
X117390590Y-151489016D01*
X114985000Y-151489016D01*
X114985000Y-150409078D01*
X116812378Y-150409078D01*
X116841917Y-150919428D01*
X116980389Y-151253729D01*
X117210984Y-151309410D01*
X117930395Y-150590000D01*
X117916252Y-150575858D01*
X118095858Y-150396252D01*
X118110000Y-150410395D01*
X118124142Y-150396252D01*
X118303748Y-150575858D01*
X118289605Y-150590000D01*
X119009016Y-151309410D01*
X119239611Y-151253729D01*
X119407622Y-150770922D01*
X119378083Y-150260572D01*
X119239611Y-149926271D01*
X119009018Y-149870590D01*
X119110680Y-149768928D01*
X119211441Y-149704090D01*
X119356431Y-149491890D01*
X119407440Y-149240000D01*
X119407440Y-147940000D01*
X119363162Y-147704683D01*
X119224090Y-147488559D01*
X119011890Y-147343569D01*
X118760000Y-147292560D01*
X117460000Y-147292560D01*
X117224683Y-147336838D01*
X117008559Y-147475910D01*
X116863569Y-147688110D01*
X116812560Y-147940000D01*
X116812560Y-149240000D01*
X116856838Y-149475317D01*
X116995910Y-149691441D01*
X117109329Y-149768937D01*
X117210982Y-149870590D01*
X116980389Y-149926271D01*
X116812378Y-150409078D01*
X114985000Y-150409078D01*
X114985000Y-137042532D01*
X117147233Y-137042532D01*
X117245896Y-137309387D01*
X117855621Y-137535908D01*
X118505620Y-137511856D01*
X118994424Y-137309387D01*
X119093087Y-137042532D01*
X118120160Y-136069605D01*
X117147233Y-137042532D01*
X114985000Y-137042532D01*
X114985000Y-135625461D01*
X116474252Y-135625461D01*
X116498304Y-136275460D01*
X116700773Y-136764264D01*
X116967628Y-136862927D01*
X117940555Y-135890000D01*
X118299765Y-135890000D01*
X119272692Y-136862927D01*
X119539547Y-136764264D01*
X119766068Y-136154539D01*
X119742016Y-135504540D01*
X119539547Y-135015736D01*
X119272692Y-134917073D01*
X118299765Y-135890000D01*
X117940555Y-135890000D01*
X116967628Y-134917073D01*
X116700773Y-135015736D01*
X116474252Y-135625461D01*
X114985000Y-135625461D01*
X114985000Y-134737468D01*
X117147233Y-134737468D01*
X118120160Y-135710395D01*
X119093087Y-134737468D01*
X118994424Y-134470613D01*
X118384699Y-134244092D01*
X117734700Y-134268144D01*
X117245896Y-134470613D01*
X117147233Y-134737468D01*
X114985000Y-134737468D01*
X114985000Y-130540000D01*
X116212560Y-130540000D01*
X116212560Y-132540000D01*
X116256838Y-132775317D01*
X116395910Y-132991441D01*
X116608110Y-133136431D01*
X116860000Y-133187440D01*
X118142638Y-133187440D01*
X119890000Y-134934802D01*
X119890000Y-136845198D01*
X117572599Y-139162599D01*
X117407852Y-139409161D01*
X117350000Y-139700000D01*
X117350000Y-143328044D01*
X117185345Y-143396078D01*
X116725154Y-143855467D01*
X116475794Y-144455993D01*
X116475226Y-145106234D01*
X116723538Y-145707195D01*
X117182927Y-146167386D01*
X117783453Y-146416746D01*
X118433694Y-146417314D01*
X119034655Y-146169002D01*
X119494846Y-145709613D01*
X119744206Y-145109087D01*
X119744774Y-144458846D01*
X119496462Y-143857885D01*
X119421758Y-143783050D01*
X126623070Y-143783050D01*
X126623070Y-145782030D01*
X126667348Y-146017347D01*
X126806420Y-146233471D01*
X127018620Y-146378461D01*
X127270510Y-146429470D01*
X129269490Y-146429470D01*
X129504807Y-146385192D01*
X129720931Y-146246120D01*
X129865921Y-146033920D01*
X129916930Y-145782030D01*
X129916930Y-145065750D01*
X130795000Y-145065750D01*
X130795000Y-145556310D01*
X130891673Y-145789699D01*
X131070302Y-145968327D01*
X131303691Y-146065000D01*
X131794250Y-146065000D01*
X131953000Y-145906250D01*
X131953000Y-144907000D01*
X130953750Y-144907000D01*
X130795000Y-145065750D01*
X129916930Y-145065750D01*
X129916930Y-144003690D01*
X130795000Y-144003690D01*
X130795000Y-144494250D01*
X130953750Y-144653000D01*
X131953000Y-144653000D01*
X131953000Y-143653750D01*
X132207000Y-143653750D01*
X132207000Y-144653000D01*
X132227000Y-144653000D01*
X132227000Y-144907000D01*
X132207000Y-144907000D01*
X132207000Y-145906250D01*
X132365750Y-146065000D01*
X132856309Y-146065000D01*
X133089698Y-145968327D01*
X133268327Y-145789699D01*
X133365000Y-145556310D01*
X133365000Y-145204433D01*
X133489995Y-145506943D01*
X133851155Y-145868735D01*
X134323276Y-146064777D01*
X134834481Y-146065223D01*
X135306943Y-145870005D01*
X135668735Y-145508845D01*
X135864777Y-145036724D01*
X135865223Y-144525519D01*
X135670005Y-144053057D01*
X135308845Y-143691265D01*
X134836724Y-143495223D01*
X134325519Y-143494777D01*
X133853057Y-143689995D01*
X133491265Y-144051155D01*
X133365000Y-144355235D01*
X133365000Y-144003690D01*
X133268327Y-143770301D01*
X133089698Y-143591673D01*
X132856309Y-143495000D01*
X132365750Y-143495000D01*
X132207000Y-143653750D01*
X131953000Y-143653750D01*
X131794250Y-143495000D01*
X131303691Y-143495000D01*
X131070302Y-143591673D01*
X130891673Y-143770301D01*
X130795000Y-144003690D01*
X129916930Y-144003690D01*
X129916930Y-143783050D01*
X129872652Y-143547733D01*
X129733580Y-143331609D01*
X129521380Y-143186619D01*
X129269490Y-143135610D01*
X127270510Y-143135610D01*
X127035193Y-143179888D01*
X126819069Y-143318960D01*
X126674079Y-143531160D01*
X126623070Y-143783050D01*
X119421758Y-143783050D01*
X119037073Y-143397694D01*
X118870000Y-143328319D01*
X118870000Y-140014802D01*
X118899052Y-139985750D01*
X130795000Y-139985750D01*
X130795000Y-140476310D01*
X130891673Y-140709699D01*
X131070302Y-140888327D01*
X131303691Y-140985000D01*
X131794250Y-140985000D01*
X131953000Y-140826250D01*
X131953000Y-139827000D01*
X130953750Y-139827000D01*
X130795000Y-139985750D01*
X118899052Y-139985750D01*
X119961112Y-138923690D01*
X130795000Y-138923690D01*
X130795000Y-139414250D01*
X130953750Y-139573000D01*
X131953000Y-139573000D01*
X131953000Y-138573750D01*
X132207000Y-138573750D01*
X132207000Y-139573000D01*
X132227000Y-139573000D01*
X132227000Y-139827000D01*
X132207000Y-139827000D01*
X132207000Y-140826250D01*
X132365750Y-140985000D01*
X132856309Y-140985000D01*
X133089698Y-140888327D01*
X133268327Y-140709699D01*
X133365000Y-140476310D01*
X133365000Y-140124433D01*
X133489995Y-140426943D01*
X133851155Y-140788735D01*
X134323276Y-140984777D01*
X134834481Y-140985223D01*
X135306943Y-140790005D01*
X135668735Y-140428845D01*
X135864777Y-139956724D01*
X135865223Y-139445519D01*
X135670005Y-138973057D01*
X135308845Y-138611265D01*
X134836724Y-138415223D01*
X134325519Y-138414777D01*
X133853057Y-138609995D01*
X133491265Y-138971155D01*
X133365000Y-139275235D01*
X133365000Y-138923690D01*
X133268327Y-138690301D01*
X133089698Y-138511673D01*
X132856309Y-138415000D01*
X132365750Y-138415000D01*
X132207000Y-138573750D01*
X131953000Y-138573750D01*
X131794250Y-138415000D01*
X131303691Y-138415000D01*
X131070302Y-138511673D01*
X130891673Y-138690301D01*
X130795000Y-138923690D01*
X119961112Y-138923690D01*
X121187401Y-137697401D01*
X121352148Y-137450840D01*
X121372843Y-137346799D01*
X121410000Y-137160000D01*
X121410000Y-134620000D01*
X121352148Y-134329161D01*
X121352148Y-134329160D01*
X121208274Y-134113837D01*
X121442192Y-133880327D01*
X121584838Y-133536799D01*
X121585162Y-133164833D01*
X121443117Y-132821057D01*
X121180327Y-132557808D01*
X120836799Y-132415162D01*
X120789923Y-132415121D01*
X120007440Y-131632638D01*
X120007440Y-130540000D01*
X119982979Y-130410000D01*
X121362560Y-130410000D01*
X121362560Y-131210000D01*
X121406838Y-131445317D01*
X121545910Y-131661441D01*
X121758110Y-131806431D01*
X122010000Y-131857440D01*
X122200000Y-131857440D01*
X122200000Y-133130160D01*
X122257852Y-133420999D01*
X122422599Y-133667561D01*
X124153565Y-135398527D01*
X124085124Y-135563352D01*
X124084556Y-136213795D01*
X124332946Y-136814943D01*
X124792477Y-137275278D01*
X125393192Y-137524716D01*
X126043635Y-137525284D01*
X126644783Y-137276894D01*
X127105118Y-136817363D01*
X127354556Y-136216648D01*
X127355124Y-135566205D01*
X127106734Y-134965057D01*
X126647203Y-134504722D01*
X126046488Y-134255284D01*
X125396045Y-134254716D01*
X125228561Y-134323919D01*
X123720000Y-132815358D01*
X123720000Y-132045750D01*
X124375000Y-132045750D01*
X124375000Y-132286310D01*
X124471673Y-132519699D01*
X124650302Y-132698327D01*
X124883691Y-132795000D01*
X125674250Y-132795000D01*
X125833000Y-132636250D01*
X125833000Y-131887000D01*
X126087000Y-131887000D01*
X126087000Y-132636250D01*
X126245750Y-132795000D01*
X127036309Y-132795000D01*
X127269698Y-132698327D01*
X127448327Y-132519699D01*
X127545000Y-132286310D01*
X127545000Y-132045750D01*
X127386250Y-131887000D01*
X126087000Y-131887000D01*
X125833000Y-131887000D01*
X124533750Y-131887000D01*
X124375000Y-132045750D01*
X123720000Y-132045750D01*
X123720000Y-131857440D01*
X123910000Y-131857440D01*
X124145317Y-131813162D01*
X124361441Y-131674090D01*
X124448064Y-131547314D01*
X124533750Y-131633000D01*
X125833000Y-131633000D01*
X125833000Y-131613000D01*
X126087000Y-131613000D01*
X126087000Y-131633000D01*
X127386250Y-131633000D01*
X127545000Y-131474250D01*
X127545000Y-131233690D01*
X127448327Y-131000301D01*
X127269698Y-130821673D01*
X127233253Y-130806577D01*
X127361441Y-130724090D01*
X127432563Y-130620000D01*
X129702560Y-130620000D01*
X129702560Y-132060000D01*
X129746838Y-132295317D01*
X129885910Y-132511441D01*
X130098110Y-132656431D01*
X130350000Y-132707440D01*
X132350000Y-132707440D01*
X132585317Y-132663162D01*
X132801441Y-132524090D01*
X132946431Y-132311890D01*
X132997440Y-132060000D01*
X132997440Y-129560000D01*
X132953162Y-129324683D01*
X132814090Y-129108559D01*
X132601890Y-128963569D01*
X132350000Y-128912560D01*
X130350000Y-128912560D01*
X130114683Y-128956838D01*
X129898559Y-129095910D01*
X129895764Y-129100000D01*
X127432931Y-129100000D01*
X127374090Y-129008559D01*
X127161890Y-128863569D01*
X126910000Y-128812560D01*
X125010000Y-128812560D01*
X124774683Y-128856838D01*
X124558559Y-128995910D01*
X124413569Y-129208110D01*
X124362560Y-129460000D01*
X124362560Y-129950681D01*
X124161890Y-129813569D01*
X123910000Y-129762560D01*
X122010000Y-129762560D01*
X121774683Y-129806838D01*
X121558559Y-129945910D01*
X121413569Y-130158110D01*
X121362560Y-130410000D01*
X119982979Y-130410000D01*
X119963162Y-130304683D01*
X119824090Y-130088559D01*
X119611890Y-129943569D01*
X119360000Y-129892560D01*
X116860000Y-129892560D01*
X116624683Y-129936838D01*
X116408559Y-130075910D01*
X116263569Y-130288110D01*
X116212560Y-130540000D01*
X114985000Y-130540000D01*
X114985000Y-121020000D01*
X115292560Y-121020000D01*
X115292560Y-122820000D01*
X115336838Y-123055317D01*
X115475910Y-123271441D01*
X115688110Y-123416431D01*
X115940000Y-123467440D01*
X117740000Y-123467440D01*
X117975317Y-123423162D01*
X118191441Y-123284090D01*
X118336431Y-123071890D01*
X118340567Y-123051466D01*
X118509357Y-123220551D01*
X118620000Y-123266494D01*
X118620000Y-124145198D01*
X117572599Y-125192599D01*
X117407852Y-125439161D01*
X117350000Y-125730000D01*
X117350000Y-125892560D01*
X116860000Y-125892560D01*
X116624683Y-125936838D01*
X116408559Y-126075910D01*
X116263569Y-126288110D01*
X116212560Y-126540000D01*
X116212560Y-128540000D01*
X116256838Y-128775317D01*
X116395910Y-128991441D01*
X116608110Y-129136431D01*
X116860000Y-129187440D01*
X119360000Y-129187440D01*
X119595317Y-129143162D01*
X119811441Y-129004090D01*
X119956431Y-128791890D01*
X120007440Y-128540000D01*
X120007440Y-126540000D01*
X119963162Y-126304683D01*
X119824090Y-126088559D01*
X119611890Y-125943569D01*
X119360000Y-125892560D01*
X119022242Y-125892560D01*
X119917401Y-124997401D01*
X120036587Y-124819026D01*
X121074642Y-124819026D01*
X121096473Y-124916157D01*
X121380127Y-125429868D01*
X121838778Y-125795925D01*
X122402600Y-125958600D01*
X123063000Y-125958600D01*
X123063000Y-124587000D01*
X123317000Y-124587000D01*
X123317000Y-125958600D01*
X123977400Y-125958600D01*
X124541222Y-125795925D01*
X124999873Y-125429868D01*
X125283527Y-124916157D01*
X125305358Y-124819026D01*
X125184217Y-124587000D01*
X123317000Y-124587000D01*
X123063000Y-124587000D01*
X121195783Y-124587000D01*
X121074642Y-124819026D01*
X120036587Y-124819026D01*
X120082148Y-124750840D01*
X120140000Y-124460000D01*
X120140000Y-124100974D01*
X121074642Y-124100974D01*
X121195783Y-124333000D01*
X123063000Y-124333000D01*
X123063000Y-122961400D01*
X123317000Y-122961400D01*
X123317000Y-124333000D01*
X125184217Y-124333000D01*
X125305358Y-124100974D01*
X125283527Y-124003843D01*
X124999873Y-123490132D01*
X124541222Y-123124075D01*
X123977400Y-122961400D01*
X123317000Y-122961400D01*
X123063000Y-122961400D01*
X122402600Y-122961400D01*
X121838778Y-123124075D01*
X121380127Y-123490132D01*
X121096473Y-124003843D01*
X121074642Y-124100974D01*
X120140000Y-124100974D01*
X120140000Y-123266846D01*
X120248371Y-123222068D01*
X120680551Y-122790643D01*
X120914733Y-122226670D01*
X120915265Y-121616009D01*
X120682068Y-121051629D01*
X120250643Y-120619449D01*
X119686670Y-120385267D01*
X119076009Y-120384735D01*
X118511629Y-120617932D01*
X118343387Y-120785880D01*
X118343162Y-120784683D01*
X118204090Y-120568559D01*
X117991890Y-120423569D01*
X117740000Y-120372560D01*
X117600000Y-120372560D01*
X117600000Y-110426500D01*
X118034060Y-110426500D01*
X118034060Y-111823500D01*
X118078338Y-112058817D01*
X118217410Y-112274941D01*
X118429610Y-112419931D01*
X118681500Y-112470940D01*
X119016138Y-112470940D01*
X124690663Y-118145465D01*
X124466186Y-117995474D01*
X123892697Y-117881400D01*
X122487303Y-117881400D01*
X121913814Y-117995474D01*
X121427633Y-118320330D01*
X121102777Y-118806511D01*
X120988703Y-119380000D01*
X121102777Y-119953489D01*
X121427633Y-120439670D01*
X121913814Y-120764526D01*
X122487303Y-120878600D01*
X123892697Y-120878600D01*
X124466186Y-120764526D01*
X124952367Y-120439670D01*
X125277223Y-119953489D01*
X125391297Y-119380000D01*
X125277223Y-118806511D01*
X125127232Y-118582034D01*
X135352599Y-128807401D01*
X135509981Y-128912560D01*
X134350000Y-128912560D01*
X134114683Y-128956838D01*
X133898559Y-129095910D01*
X133753569Y-129308110D01*
X133702560Y-129560000D01*
X133702560Y-132060000D01*
X133746838Y-132295317D01*
X133885910Y-132511441D01*
X134098110Y-132656431D01*
X134350000Y-132707440D01*
X136350000Y-132707440D01*
X136585317Y-132663162D01*
X136801441Y-132524090D01*
X136946431Y-132311890D01*
X136997440Y-132060000D01*
X136997440Y-131570000D01*
X138430000Y-131570000D01*
X138720839Y-131512148D01*
X138967401Y-131347401D01*
X139575000Y-130739802D01*
X139575000Y-138832159D01*
X139469564Y-138726539D01*
X138960702Y-138515241D01*
X138409715Y-138514760D01*
X137900485Y-138725169D01*
X137510539Y-139114436D01*
X137299241Y-139623298D01*
X137298760Y-140174285D01*
X137509169Y-140683515D01*
X137898436Y-141073461D01*
X138407298Y-141284759D01*
X138958285Y-141285240D01*
X139467515Y-141074831D01*
X139575000Y-140967533D01*
X139575000Y-143712159D01*
X139469564Y-143606539D01*
X138960702Y-143395241D01*
X138409715Y-143394760D01*
X137900485Y-143605169D01*
X137510539Y-143994436D01*
X137299241Y-144503298D01*
X137298760Y-145054285D01*
X137509169Y-145563515D01*
X137898436Y-145953461D01*
X138407298Y-146164759D01*
X138958285Y-146165240D01*
X139467515Y-145954831D01*
X139575000Y-145847533D01*
X139575000Y-152400000D01*
X139632852Y-152690839D01*
X139797599Y-152937401D01*
X142972599Y-156112401D01*
X143219161Y-156277148D01*
X143510000Y-156335000D01*
X147955000Y-156335000D01*
X148245839Y-156277148D01*
X148492401Y-156112401D01*
X149029802Y-155575000D01*
X155040198Y-155575000D01*
X157642560Y-158177362D01*
X157642560Y-160000000D01*
X157686838Y-160235317D01*
X157825910Y-160451441D01*
X158038110Y-160596431D01*
X158290000Y-160647440D01*
X160290000Y-160647440D01*
X160525317Y-160603162D01*
X160741441Y-160464090D01*
X160784549Y-160401000D01*
X161793452Y-160401000D01*
X161825910Y-160451441D01*
X162038110Y-160596431D01*
X162290000Y-160647440D01*
X164290000Y-160647440D01*
X164525317Y-160603162D01*
X164741441Y-160464090D01*
X164886431Y-160251890D01*
X164937440Y-160000000D01*
X164937440Y-157500000D01*
X164893162Y-157264683D01*
X164754090Y-157048559D01*
X164719000Y-157024583D01*
X164719000Y-155873226D01*
X164826441Y-155804090D01*
X164897563Y-155700000D01*
X169900600Y-155700000D01*
X170191439Y-155642148D01*
X170438001Y-155477401D01*
X171322088Y-154593314D01*
X171357452Y-154771099D01*
X171522199Y-155017661D01*
X173911900Y-157407362D01*
X173911900Y-158280000D01*
X173956178Y-158515317D01*
X174095250Y-158731441D01*
X174307450Y-158876431D01*
X174559340Y-158927440D01*
X175559340Y-158927440D01*
X175794657Y-158883162D01*
X176010781Y-158744090D01*
X176155771Y-158531890D01*
X176206780Y-158280000D01*
X176206780Y-156680000D01*
X176162502Y-156444683D01*
X176023430Y-156228559D01*
X175811230Y-156083569D01*
X175559340Y-156032560D01*
X174686702Y-156032560D01*
X172819600Y-154165458D01*
X172819600Y-153928440D01*
X172859600Y-153928440D01*
X173094917Y-153884162D01*
X173311041Y-153745090D01*
X173456031Y-153532890D01*
X173507040Y-153281000D01*
X173507040Y-152281000D01*
X173462762Y-152045683D01*
X173323690Y-151829559D01*
X173111490Y-151684569D01*
X172859600Y-151633560D01*
X171259600Y-151633560D01*
X171024283Y-151677838D01*
X170808159Y-151816910D01*
X170663169Y-152029110D01*
X170612160Y-152281000D01*
X170612160Y-153153638D01*
X169585798Y-154180000D01*
X164897931Y-154180000D01*
X164839090Y-154088559D01*
X164626890Y-153943569D01*
X164375000Y-153892560D01*
X162475000Y-153892560D01*
X162239683Y-153936838D01*
X162023559Y-154075910D01*
X161936936Y-154202686D01*
X161851250Y-154117000D01*
X160552000Y-154117000D01*
X160552000Y-154137000D01*
X160298000Y-154137000D01*
X160298000Y-154117000D01*
X158998750Y-154117000D01*
X158840000Y-154275750D01*
X158840000Y-154516310D01*
X158857683Y-154559000D01*
X158242000Y-154559000D01*
X158192590Y-154569006D01*
X158150965Y-154597447D01*
X158123685Y-154639841D01*
X158115000Y-154686000D01*
X158115000Y-156500198D01*
X156845000Y-155230198D01*
X156845000Y-153463690D01*
X158840000Y-153463690D01*
X158840000Y-153704250D01*
X158998750Y-153863000D01*
X160298000Y-153863000D01*
X160298000Y-153113750D01*
X160552000Y-153113750D01*
X160552000Y-153863000D01*
X161851250Y-153863000D01*
X162010000Y-153704250D01*
X162010000Y-153463690D01*
X161913327Y-153230301D01*
X161734698Y-153051673D01*
X161501309Y-152955000D01*
X160710750Y-152955000D01*
X160552000Y-153113750D01*
X160298000Y-153113750D01*
X160139250Y-152955000D01*
X159348691Y-152955000D01*
X159115302Y-153051673D01*
X158936673Y-153230301D01*
X158840000Y-153463690D01*
X156845000Y-153463690D01*
X156845000Y-142464850D01*
X163215124Y-142464850D01*
X163387611Y-142882301D01*
X163706719Y-143201967D01*
X164123868Y-143375182D01*
X164575550Y-143375576D01*
X164993001Y-143203089D01*
X165099906Y-143096370D01*
X165205319Y-143201967D01*
X165622468Y-143375182D01*
X166074150Y-143375576D01*
X166491601Y-143203089D01*
X166811267Y-142883981D01*
X166984482Y-142466832D01*
X166984876Y-142015150D01*
X166812389Y-141597699D01*
X166493281Y-141278033D01*
X166076132Y-141104818D01*
X165624450Y-141104424D01*
X165206999Y-141276911D01*
X165100094Y-141383630D01*
X164994681Y-141278033D01*
X164577532Y-141104818D01*
X164125850Y-141104424D01*
X163708399Y-141276911D01*
X163388733Y-141596019D01*
X163215518Y-142013168D01*
X163215124Y-142464850D01*
X156845000Y-142464850D01*
X156845000Y-140000001D01*
X157030167Y-140000162D01*
X157373943Y-139858117D01*
X157637192Y-139595327D01*
X157646463Y-139573000D01*
X162419472Y-139573000D01*
X162504233Y-139999121D01*
X162815302Y-140464668D01*
X163280849Y-140775737D01*
X163830000Y-140884970D01*
X164379151Y-140775737D01*
X164844698Y-140464668D01*
X165100000Y-140082582D01*
X165355302Y-140464668D01*
X165820849Y-140775737D01*
X166370000Y-140884970D01*
X166919151Y-140775737D01*
X167384698Y-140464668D01*
X167640000Y-140082582D01*
X167895302Y-140464668D01*
X168360849Y-140775737D01*
X168910000Y-140884970D01*
X169459151Y-140775737D01*
X169924698Y-140464668D01*
X170177149Y-140086849D01*
X170525104Y-140519500D01*
X171018181Y-140789367D01*
X171100961Y-140806904D01*
X171323000Y-140684915D01*
X171323000Y-139192000D01*
X171577000Y-139192000D01*
X171577000Y-140684915D01*
X171799039Y-140806904D01*
X171881819Y-140789367D01*
X172374896Y-140519500D01*
X172727166Y-140081483D01*
X172885000Y-139542000D01*
X172885000Y-139192000D01*
X171577000Y-139192000D01*
X171323000Y-139192000D01*
X171303000Y-139192000D01*
X171303000Y-138938000D01*
X171323000Y-138938000D01*
X171323000Y-137445085D01*
X171577000Y-137445085D01*
X171577000Y-138938000D01*
X172885000Y-138938000D01*
X172885000Y-138588000D01*
X172727166Y-138048517D01*
X172374896Y-137610500D01*
X171881819Y-137340633D01*
X171799039Y-137323096D01*
X171577000Y-137445085D01*
X171323000Y-137445085D01*
X171278929Y-137420873D01*
X172049802Y-136650000D01*
X176022000Y-136650000D01*
X176312839Y-136592148D01*
X176559401Y-136427401D01*
X177321401Y-135665401D01*
X177486148Y-135418839D01*
X177544000Y-135128000D01*
X177544000Y-118775000D01*
X177486148Y-118484161D01*
X177321401Y-118237599D01*
X174637440Y-115553638D01*
X174637440Y-113191000D01*
X174593162Y-112955683D01*
X174454090Y-112739559D01*
X174241890Y-112594569D01*
X173990000Y-112543560D01*
X168910000Y-112543560D01*
X168674683Y-112587838D01*
X168458559Y-112726910D01*
X168313569Y-112939110D01*
X168262560Y-113191000D01*
X168262560Y-115981000D01*
X168306838Y-116216317D01*
X168445910Y-116432441D01*
X168658110Y-116577431D01*
X168910000Y-116628440D01*
X173562638Y-116628440D01*
X174846115Y-117911917D01*
X174692697Y-117881400D01*
X173287303Y-117881400D01*
X172713814Y-117995474D01*
X172227633Y-118320330D01*
X171902777Y-118806511D01*
X171788703Y-119380000D01*
X171902777Y-119953489D01*
X172227633Y-120439670D01*
X172713814Y-120764526D01*
X173287303Y-120878600D01*
X174692697Y-120878600D01*
X175266186Y-120764526D01*
X175752367Y-120439670D01*
X176024000Y-120033143D01*
X176024000Y-123896037D01*
X175799873Y-123490132D01*
X175341222Y-123124075D01*
X174777400Y-122961400D01*
X174117000Y-122961400D01*
X174117000Y-124333000D01*
X174137000Y-124333000D01*
X174137000Y-124587000D01*
X174117000Y-124587000D01*
X174117000Y-125958600D01*
X174777400Y-125958600D01*
X175341222Y-125795925D01*
X175799873Y-125429868D01*
X176024000Y-125023963D01*
X176024000Y-127827733D01*
X175875000Y-127797560D01*
X173375000Y-127797560D01*
X173139683Y-127841838D01*
X172923559Y-127980910D01*
X172778569Y-128193110D01*
X172727560Y-128445000D01*
X172727560Y-128685000D01*
X170275000Y-128685000D01*
X169984161Y-128742852D01*
X169737599Y-128907599D01*
X169001890Y-129643308D01*
X168910000Y-129625030D01*
X168818110Y-129643308D01*
X165002401Y-125827599D01*
X164755839Y-125662852D01*
X164465000Y-125605000D01*
X162880441Y-125605000D01*
X163099873Y-125429868D01*
X163383527Y-124916157D01*
X163405358Y-124819026D01*
X171874642Y-124819026D01*
X171896473Y-124916157D01*
X172180127Y-125429868D01*
X172638778Y-125795925D01*
X173202600Y-125958600D01*
X173863000Y-125958600D01*
X173863000Y-124587000D01*
X171995783Y-124587000D01*
X171874642Y-124819026D01*
X163405358Y-124819026D01*
X163284217Y-124587000D01*
X161417000Y-124587000D01*
X161417000Y-124607000D01*
X161163000Y-124607000D01*
X161163000Y-124587000D01*
X159295783Y-124587000D01*
X159174642Y-124819026D01*
X159196473Y-124916157D01*
X159480127Y-125429868D01*
X159699559Y-125605000D01*
X158429803Y-125605000D01*
X156925777Y-124100974D01*
X159174642Y-124100974D01*
X159295783Y-124333000D01*
X161163000Y-124333000D01*
X161163000Y-122961400D01*
X161417000Y-122961400D01*
X161417000Y-124333000D01*
X163284217Y-124333000D01*
X163405358Y-124100974D01*
X171874642Y-124100974D01*
X171995783Y-124333000D01*
X173863000Y-124333000D01*
X173863000Y-122961400D01*
X173202600Y-122961400D01*
X172638778Y-123124075D01*
X172180127Y-123490132D01*
X171896473Y-124003843D01*
X171874642Y-124100974D01*
X163405358Y-124100974D01*
X163383527Y-124003843D01*
X163099873Y-123490132D01*
X162641222Y-123124075D01*
X162077400Y-122961400D01*
X161417000Y-122961400D01*
X161163000Y-122961400D01*
X160502600Y-122961400D01*
X159938778Y-123124075D01*
X159480127Y-123490132D01*
X159196473Y-124003843D01*
X159174642Y-124100974D01*
X156925777Y-124100974D01*
X156845000Y-124020197D01*
X156845000Y-120140000D01*
X159327400Y-120140000D01*
X159527633Y-120439670D01*
X160013814Y-120764526D01*
X160587303Y-120878600D01*
X161992697Y-120878600D01*
X162566186Y-120764526D01*
X163052367Y-120439670D01*
X163377223Y-119953489D01*
X163491297Y-119380000D01*
X163377223Y-118806511D01*
X163052367Y-118320330D01*
X162566186Y-117995474D01*
X161992697Y-117881400D01*
X160587303Y-117881400D01*
X160013814Y-117995474D01*
X159639000Y-118245917D01*
X159639000Y-109460095D01*
X164785510Y-109460095D01*
X165844894Y-110546831D01*
X169306555Y-112088113D01*
X173094536Y-112187353D01*
X176632152Y-110829441D01*
X177055106Y-110546831D01*
X178114490Y-109460095D01*
X171450000Y-102795605D01*
X164785510Y-109460095D01*
X159639000Y-109460095D01*
X159639000Y-104260536D01*
X161878647Y-104260536D01*
X163236559Y-107798152D01*
X163519169Y-108221106D01*
X164605905Y-109280490D01*
X171270395Y-102616000D01*
X171629605Y-102616000D01*
X178294095Y-109280490D01*
X179380831Y-108221106D01*
X180922113Y-104759445D01*
X181021353Y-100971464D01*
X179663441Y-97433848D01*
X179380831Y-97010894D01*
X178294095Y-95951510D01*
X171629605Y-102616000D01*
X171270395Y-102616000D01*
X164605905Y-95951510D01*
X163519169Y-97010894D01*
X161977887Y-100472555D01*
X161878647Y-104260536D01*
X159639000Y-104260536D01*
X159639000Y-96012000D01*
X159628994Y-95962590D01*
X159600553Y-95920965D01*
X159558159Y-95893685D01*
X159512000Y-95885000D01*
X123698000Y-95885000D01*
X123648590Y-95895006D01*
X123606965Y-95923447D01*
X123579685Y-95965841D01*
X123571000Y-96012000D01*
X123571000Y-114876198D01*
X120690973Y-111996171D01*
X120725940Y-111823500D01*
X120725940Y-110426500D01*
X120681662Y-110191183D01*
X120542590Y-109975059D01*
X120330390Y-109830069D01*
X120078500Y-109779060D01*
X120014360Y-109779060D01*
X120072929Y-109754800D01*
X120134583Y-109519188D01*
X119380000Y-108764605D01*
X118625417Y-109519188D01*
X118687071Y-109754800D01*
X118755998Y-109779060D01*
X118681500Y-109779060D01*
X118446183Y-109823338D01*
X118230059Y-109962410D01*
X118085069Y-110174610D01*
X118034060Y-110426500D01*
X117600000Y-110426500D01*
X117600000Y-108899802D01*
X118037847Y-108461955D01*
X118062852Y-108922199D01*
X118210200Y-109277929D01*
X118445812Y-109339583D01*
X119200395Y-108585000D01*
X119559605Y-108585000D01*
X120314188Y-109339583D01*
X120549800Y-109277929D01*
X120725927Y-108777520D01*
X120697148Y-108247801D01*
X120549800Y-107892071D01*
X120314188Y-107830417D01*
X119559605Y-108585000D01*
X119200395Y-108585000D01*
X119186253Y-108570858D01*
X119365858Y-108391253D01*
X119380000Y-108405395D01*
X120134583Y-107650812D01*
X120072929Y-107415200D01*
X119793688Y-107316917D01*
X120134380Y-107176146D01*
X120509827Y-106801353D01*
X120713268Y-106311413D01*
X120713731Y-105780914D01*
X120511146Y-105290620D01*
X120136353Y-104915173D01*
X119646413Y-104711732D01*
X119115914Y-104711269D01*
X118625620Y-104913854D01*
X118250173Y-105288647D01*
X118046732Y-105778587D01*
X118046274Y-106303924D01*
X116302599Y-108047599D01*
X116137852Y-108294161D01*
X116080000Y-108585000D01*
X116080000Y-120372560D01*
X115940000Y-120372560D01*
X115704683Y-120416838D01*
X115488559Y-120555910D01*
X115343569Y-120768110D01*
X115292560Y-121020000D01*
X114985000Y-121020000D01*
X114985000Y-95771905D01*
X164785510Y-95771905D01*
X171450000Y-102436395D01*
X178114490Y-95771905D01*
X177055106Y-94685169D01*
X173593445Y-93143887D01*
X169805464Y-93044647D01*
X166267848Y-94402559D01*
X165844894Y-94685169D01*
X164785510Y-95771905D01*
X114985000Y-95771905D01*
X114985000Y-88560815D01*
X115974630Y-88560815D01*
X116298980Y-89345800D01*
X116899041Y-89946909D01*
X117683459Y-90272628D01*
X118532815Y-90273370D01*
X119317800Y-89949020D01*
X119918909Y-89348959D01*
X119959585Y-89251000D01*
X168262560Y-89251000D01*
X168262560Y-92041000D01*
X168306838Y-92276317D01*
X168445910Y-92492441D01*
X168658110Y-92637431D01*
X168910000Y-92688440D01*
X173990000Y-92688440D01*
X174225317Y-92644162D01*
X174441441Y-92505090D01*
X174586431Y-92292890D01*
X174637440Y-92041000D01*
X174637440Y-89251000D01*
X174593162Y-89015683D01*
X174454090Y-88799559D01*
X174241890Y-88654569D01*
X173990000Y-88603560D01*
X168910000Y-88603560D01*
X168674683Y-88647838D01*
X168458559Y-88786910D01*
X168313569Y-88999110D01*
X168262560Y-89251000D01*
X119959585Y-89251000D01*
X120244628Y-88564541D01*
X120244631Y-88560815D01*
X176934630Y-88560815D01*
X177258980Y-89345800D01*
X177859041Y-89946909D01*
X178643459Y-90272628D01*
X179492815Y-90273370D01*
X180277800Y-89949020D01*
X180878909Y-89348959D01*
X181204628Y-88564541D01*
X181205370Y-87715185D01*
X180881020Y-86930200D01*
X180280959Y-86329091D01*
X179496541Y-86003372D01*
X178647185Y-86002630D01*
X177862200Y-86326980D01*
X177261091Y-86927041D01*
X176935372Y-87711459D01*
X176934630Y-88560815D01*
X120244631Y-88560815D01*
X120245370Y-87715185D01*
X119921020Y-86930200D01*
X119320959Y-86329091D01*
X118536541Y-86003372D01*
X117687185Y-86002630D01*
X116902200Y-86326980D01*
X116301091Y-86927041D01*
X115975372Y-87711459D01*
X115974630Y-88560815D01*
X114985000Y-88560815D01*
X114985000Y-85140000D01*
X182195000Y-85140000D01*
X182195000Y-170130000D01*
X182195000Y-170130000D01*
G37*
X182195000Y-170130000D02*
X114985000Y-170130000D01*
X114985000Y-167554815D01*
X115974630Y-167554815D01*
X116298980Y-168339800D01*
X116899041Y-168940909D01*
X117683459Y-169266628D01*
X118532815Y-169267370D01*
X119317800Y-168943020D01*
X119918909Y-168342959D01*
X120244628Y-167558541D01*
X120245370Y-166709185D01*
X119921020Y-165924200D01*
X119320959Y-165323091D01*
X118536541Y-164997372D01*
X117687185Y-164996630D01*
X116902200Y-165320980D01*
X116301091Y-165921041D01*
X115975372Y-166705459D01*
X115974630Y-167554815D01*
X114985000Y-167554815D01*
X114985000Y-153254401D01*
X120555599Y-153254401D01*
X120555599Y-162971599D01*
X120613451Y-163262438D01*
X120778198Y-163509000D01*
X126970599Y-169701401D01*
X127217160Y-169866148D01*
X127265414Y-169875746D01*
X127508000Y-169924000D01*
X148336000Y-169924000D01*
X148626839Y-169866148D01*
X148873401Y-169701401D01*
X150509592Y-168065210D01*
X150876000Y-168138093D01*
X151444285Y-168025054D01*
X151926054Y-167703147D01*
X152194883Y-167300815D01*
X176934630Y-167300815D01*
X177258980Y-168085800D01*
X177859041Y-168686909D01*
X178643459Y-169012628D01*
X179492815Y-169013370D01*
X180277800Y-168689020D01*
X180878909Y-168088959D01*
X181204628Y-167304541D01*
X181205370Y-166455185D01*
X180881020Y-165670200D01*
X180280959Y-165069091D01*
X179496541Y-164743372D01*
X178647185Y-164742630D01*
X177862200Y-165066980D01*
X177261091Y-165667041D01*
X176935372Y-166451459D01*
X176934630Y-167300815D01*
X152194883Y-167300815D01*
X152247961Y-167221378D01*
X152361000Y-166653093D01*
X152361000Y-166594907D01*
X152247961Y-166026622D01*
X151926054Y-165544853D01*
X151924821Y-165544029D01*
X151961317Y-165537162D01*
X152177441Y-165398090D01*
X152322431Y-165185890D01*
X152373440Y-164934000D01*
X152373440Y-163234000D01*
X152329162Y-162998683D01*
X152190090Y-162782559D01*
X151977890Y-162637569D01*
X151726000Y-162586560D01*
X150026000Y-162586560D01*
X149790683Y-162630838D01*
X149574559Y-162769910D01*
X149429569Y-162982110D01*
X149415914Y-163049541D01*
X149386054Y-163004853D01*
X148904285Y-162682946D01*
X148336000Y-162569907D01*
X147767715Y-162682946D01*
X147285946Y-163004853D01*
X147066000Y-163334026D01*
X146846054Y-163004853D01*
X146364285Y-162682946D01*
X145796000Y-162569907D01*
X145227715Y-162682946D01*
X144745946Y-163004853D01*
X144424039Y-163486622D01*
X144311000Y-164054907D01*
X144311000Y-164113093D01*
X144424039Y-164681378D01*
X144745946Y-165163147D01*
X145029101Y-165352345D01*
X145029076Y-165352355D01*
X144600817Y-165742642D01*
X144354514Y-166267108D01*
X144475181Y-166497000D01*
X145669000Y-166497000D01*
X145669000Y-166477000D01*
X145923000Y-166477000D01*
X145923000Y-166497000D01*
X145943000Y-166497000D01*
X145943000Y-166751000D01*
X145923000Y-166751000D01*
X145923000Y-167944155D01*
X146152890Y-168065476D01*
X146562924Y-167895645D01*
X146991183Y-167505358D01*
X147058298Y-167362447D01*
X147285946Y-167703147D01*
X147767715Y-168025054D01*
X148295217Y-168129981D01*
X148021198Y-168404000D01*
X127822802Y-168404000D01*
X126399694Y-166980892D01*
X144354514Y-166980892D01*
X144600817Y-167505358D01*
X145029076Y-167895645D01*
X145439110Y-168065476D01*
X145669000Y-167944155D01*
X145669000Y-166751000D01*
X144475181Y-166751000D01*
X144354514Y-166980892D01*
X126399694Y-166980892D01*
X122391552Y-162972750D01*
X123685400Y-162972750D01*
X123685400Y-163313310D01*
X123782073Y-163546699D01*
X123960702Y-163725327D01*
X124194091Y-163822000D01*
X124834650Y-163822000D01*
X124993400Y-163663250D01*
X124993400Y-162814000D01*
X125247400Y-162814000D01*
X125247400Y-163663250D01*
X125406150Y-163822000D01*
X126046709Y-163822000D01*
X126280098Y-163725327D01*
X126458727Y-163546699D01*
X126555400Y-163313310D01*
X126555400Y-162972750D01*
X126396650Y-162814000D01*
X125247400Y-162814000D01*
X124993400Y-162814000D01*
X123844150Y-162814000D01*
X123685400Y-162972750D01*
X122391552Y-162972750D01*
X122075599Y-162656797D01*
X122075599Y-162060690D01*
X123685400Y-162060690D01*
X123685400Y-162401250D01*
X123844150Y-162560000D01*
X124993400Y-162560000D01*
X124993400Y-161710750D01*
X125247400Y-161710750D01*
X125247400Y-162560000D01*
X126396650Y-162560000D01*
X126555400Y-162401250D01*
X126555400Y-162060690D01*
X126458727Y-161827301D01*
X126280098Y-161648673D01*
X126046709Y-161552000D01*
X125406150Y-161552000D01*
X125247400Y-161710750D01*
X124993400Y-161710750D01*
X124834650Y-161552000D01*
X124194091Y-161552000D01*
X123960702Y-161648673D01*
X123782073Y-161827301D01*
X123685400Y-162060690D01*
X122075599Y-162060690D01*
X122075599Y-161387016D01*
X133900590Y-161387016D01*
X133956271Y-161617611D01*
X134439078Y-161785622D01*
X134949428Y-161756083D01*
X135283729Y-161617611D01*
X135339410Y-161387016D01*
X134620000Y-160667605D01*
X133900590Y-161387016D01*
X122075599Y-161387016D01*
X122075599Y-160307078D01*
X133322378Y-160307078D01*
X133351917Y-160817428D01*
X133490389Y-161151729D01*
X133720984Y-161207410D01*
X134440395Y-160488000D01*
X134799605Y-160488000D01*
X135519016Y-161207410D01*
X135749611Y-161151729D01*
X135917622Y-160668922D01*
X135888083Y-160158572D01*
X135749611Y-159824271D01*
X135519016Y-159768590D01*
X134799605Y-160488000D01*
X134440395Y-160488000D01*
X133720984Y-159768590D01*
X133490389Y-159824271D01*
X133322378Y-160307078D01*
X122075599Y-160307078D01*
X122075599Y-158115000D01*
X122247660Y-158115000D01*
X122247660Y-159264250D01*
X122406410Y-159423000D01*
X122746969Y-159423000D01*
X122980358Y-159326327D01*
X123158987Y-159147699D01*
X123255660Y-158914310D01*
X123255660Y-158273750D01*
X123096910Y-158115000D01*
X122247660Y-158115000D01*
X122075599Y-158115000D01*
X122075599Y-156711750D01*
X122247660Y-156711750D01*
X122247660Y-157861000D01*
X123096910Y-157861000D01*
X123255660Y-157702250D01*
X123255660Y-157188000D01*
X126972700Y-157188000D01*
X126972700Y-158788000D01*
X127016978Y-159023317D01*
X127156050Y-159239441D01*
X127368250Y-159384431D01*
X127620140Y-159435440D01*
X128620140Y-159435440D01*
X128855457Y-159391162D01*
X129071581Y-159252090D01*
X129216571Y-159039890D01*
X129267580Y-158788000D01*
X129267580Y-157338000D01*
X133322560Y-157338000D01*
X133322560Y-158638000D01*
X133366838Y-158873317D01*
X133505910Y-159089441D01*
X133718110Y-159234431D01*
X133970000Y-159285440D01*
X134132385Y-159285440D01*
X133956271Y-159358389D01*
X133900590Y-159588984D01*
X134620000Y-160308395D01*
X135339410Y-159588984D01*
X135283729Y-159358389D01*
X135074098Y-159285440D01*
X135270000Y-159285440D01*
X135505317Y-159241162D01*
X135721441Y-159102090D01*
X135866431Y-158889890D01*
X135895164Y-158748000D01*
X152593198Y-158748000D01*
X155926599Y-162081401D01*
X156173160Y-162246148D01*
X156221414Y-162255746D01*
X156464000Y-162304000D01*
X164995860Y-162304000D01*
X165286699Y-162246148D01*
X165533261Y-162081401D01*
X168687222Y-158927440D01*
X169559860Y-158927440D01*
X169795177Y-158883162D01*
X170011301Y-158744090D01*
X170156291Y-158531890D01*
X170207300Y-158280000D01*
X170207300Y-156680000D01*
X170163022Y-156444683D01*
X170023950Y-156228559D01*
X169811750Y-156083569D01*
X169559860Y-156032560D01*
X168559860Y-156032560D01*
X168324543Y-156076838D01*
X168108419Y-156215910D01*
X167963429Y-156428110D01*
X167912420Y-156680000D01*
X167912420Y-157552638D01*
X164681058Y-160784000D01*
X156778802Y-160784000D01*
X153445401Y-157450599D01*
X153198839Y-157285852D01*
X152908000Y-157228000D01*
X135896742Y-157228000D01*
X135873162Y-157102683D01*
X135734090Y-156886559D01*
X135521890Y-156741569D01*
X135270000Y-156690560D01*
X133970000Y-156690560D01*
X133734683Y-156734838D01*
X133518559Y-156873910D01*
X133373569Y-157086110D01*
X133322560Y-157338000D01*
X129267580Y-157338000D01*
X129267580Y-157188000D01*
X129223302Y-156952683D01*
X129084230Y-156736559D01*
X128872030Y-156591569D01*
X128620140Y-156540560D01*
X127620140Y-156540560D01*
X127384823Y-156584838D01*
X127168699Y-156723910D01*
X127023709Y-156936110D01*
X126972700Y-157188000D01*
X123255660Y-157188000D01*
X123255660Y-157061690D01*
X123158987Y-156828301D01*
X122980358Y-156649673D01*
X122746969Y-156553000D01*
X122406410Y-156553000D01*
X122247660Y-156711750D01*
X122075599Y-156711750D01*
X122075599Y-153569203D01*
X124997401Y-150647401D01*
X125162148Y-150400839D01*
X125171597Y-150353334D01*
X125627433Y-150048754D01*
X125744054Y-149874219D01*
X125922370Y-150101236D01*
X126485523Y-150417926D01*
X126617056Y-150449975D01*
X126873000Y-150330836D01*
X126873000Y-148717000D01*
X126853000Y-148717000D01*
X126853000Y-148463000D01*
X126873000Y-148463000D01*
X126873000Y-146849164D01*
X127127000Y-146849164D01*
X127127000Y-148463000D01*
X127147000Y-148463000D01*
X127147000Y-148717000D01*
X127127000Y-148717000D01*
X127127000Y-150330836D01*
X127382944Y-150449975D01*
X127514477Y-150417926D01*
X128077630Y-150101236D01*
X128255946Y-149874219D01*
X128372567Y-150048754D01*
X128908190Y-150406646D01*
X129540000Y-150532321D01*
X130171810Y-150406646D01*
X130707433Y-150048754D01*
X131065325Y-149513131D01*
X131191000Y-148881321D01*
X131191000Y-148298679D01*
X131065325Y-147666869D01*
X130707433Y-147131246D01*
X130171810Y-146773354D01*
X129540000Y-146647679D01*
X128908190Y-146773354D01*
X128372567Y-147131246D01*
X128255946Y-147305781D01*
X128077630Y-147078764D01*
X127514477Y-146762074D01*
X127382944Y-146730025D01*
X127127000Y-146849164D01*
X126873000Y-146849164D01*
X126617056Y-146730025D01*
X126485523Y-146762074D01*
X125922370Y-147078764D01*
X125744054Y-147305781D01*
X125627433Y-147131246D01*
X125091810Y-146773354D01*
X124460000Y-146647679D01*
X123828190Y-146773354D01*
X123292567Y-147131246D01*
X122934675Y-147666869D01*
X122809000Y-148298679D01*
X122809000Y-148881321D01*
X122934675Y-149513131D01*
X123292567Y-150048754D01*
X123384810Y-150110388D01*
X120778198Y-152717000D01*
X120613451Y-152963562D01*
X120555599Y-153254401D01*
X114985000Y-153254401D01*
X114985000Y-151489016D01*
X117390590Y-151489016D01*
X117446271Y-151719611D01*
X117929078Y-151887622D01*
X118439428Y-151858083D01*
X118773729Y-151719611D01*
X118829410Y-151489016D01*
X118110000Y-150769605D01*
X117390590Y-151489016D01*
X114985000Y-151489016D01*
X114985000Y-150409078D01*
X116812378Y-150409078D01*
X116841917Y-150919428D01*
X116980389Y-151253729D01*
X117210984Y-151309410D01*
X117930395Y-150590000D01*
X117916252Y-150575858D01*
X118095858Y-150396252D01*
X118110000Y-150410395D01*
X118124142Y-150396252D01*
X118303748Y-150575858D01*
X118289605Y-150590000D01*
X119009016Y-151309410D01*
X119239611Y-151253729D01*
X119407622Y-150770922D01*
X119378083Y-150260572D01*
X119239611Y-149926271D01*
X119009018Y-149870590D01*
X119110680Y-149768928D01*
X119211441Y-149704090D01*
X119356431Y-149491890D01*
X119407440Y-149240000D01*
X119407440Y-147940000D01*
X119363162Y-147704683D01*
X119224090Y-147488559D01*
X119011890Y-147343569D01*
X118760000Y-147292560D01*
X117460000Y-147292560D01*
X117224683Y-147336838D01*
X117008559Y-147475910D01*
X116863569Y-147688110D01*
X116812560Y-147940000D01*
X116812560Y-149240000D01*
X116856838Y-149475317D01*
X116995910Y-149691441D01*
X117109329Y-149768937D01*
X117210982Y-149870590D01*
X116980389Y-149926271D01*
X116812378Y-150409078D01*
X114985000Y-150409078D01*
X114985000Y-137042532D01*
X117147233Y-137042532D01*
X117245896Y-137309387D01*
X117855621Y-137535908D01*
X118505620Y-137511856D01*
X118994424Y-137309387D01*
X119093087Y-137042532D01*
X118120160Y-136069605D01*
X117147233Y-137042532D01*
X114985000Y-137042532D01*
X114985000Y-135625461D01*
X116474252Y-135625461D01*
X116498304Y-136275460D01*
X116700773Y-136764264D01*
X116967628Y-136862927D01*
X117940555Y-135890000D01*
X118299765Y-135890000D01*
X119272692Y-136862927D01*
X119539547Y-136764264D01*
X119766068Y-136154539D01*
X119742016Y-135504540D01*
X119539547Y-135015736D01*
X119272692Y-134917073D01*
X118299765Y-135890000D01*
X117940555Y-135890000D01*
X116967628Y-134917073D01*
X116700773Y-135015736D01*
X116474252Y-135625461D01*
X114985000Y-135625461D01*
X114985000Y-134737468D01*
X117147233Y-134737468D01*
X118120160Y-135710395D01*
X119093087Y-134737468D01*
X118994424Y-134470613D01*
X118384699Y-134244092D01*
X117734700Y-134268144D01*
X117245896Y-134470613D01*
X117147233Y-134737468D01*
X114985000Y-134737468D01*
X114985000Y-130540000D01*
X116212560Y-130540000D01*
X116212560Y-132540000D01*
X116256838Y-132775317D01*
X116395910Y-132991441D01*
X116608110Y-133136431D01*
X116860000Y-133187440D01*
X118142638Y-133187440D01*
X119890000Y-134934802D01*
X119890000Y-136845198D01*
X117572599Y-139162599D01*
X117407852Y-139409161D01*
X117350000Y-139700000D01*
X117350000Y-143328044D01*
X117185345Y-143396078D01*
X116725154Y-143855467D01*
X116475794Y-144455993D01*
X116475226Y-145106234D01*
X116723538Y-145707195D01*
X117182927Y-146167386D01*
X117783453Y-146416746D01*
X118433694Y-146417314D01*
X119034655Y-146169002D01*
X119494846Y-145709613D01*
X119744206Y-145109087D01*
X119744774Y-144458846D01*
X119496462Y-143857885D01*
X119421758Y-143783050D01*
X126623070Y-143783050D01*
X126623070Y-145782030D01*
X126667348Y-146017347D01*
X126806420Y-146233471D01*
X127018620Y-146378461D01*
X127270510Y-146429470D01*
X129269490Y-146429470D01*
X129504807Y-146385192D01*
X129720931Y-146246120D01*
X129865921Y-146033920D01*
X129916930Y-145782030D01*
X129916930Y-145065750D01*
X130795000Y-145065750D01*
X130795000Y-145556310D01*
X130891673Y-145789699D01*
X131070302Y-145968327D01*
X131303691Y-146065000D01*
X131794250Y-146065000D01*
X131953000Y-145906250D01*
X131953000Y-144907000D01*
X130953750Y-144907000D01*
X130795000Y-145065750D01*
X129916930Y-145065750D01*
X129916930Y-144003690D01*
X130795000Y-144003690D01*
X130795000Y-144494250D01*
X130953750Y-144653000D01*
X131953000Y-144653000D01*
X131953000Y-143653750D01*
X132207000Y-143653750D01*
X132207000Y-144653000D01*
X132227000Y-144653000D01*
X132227000Y-144907000D01*
X132207000Y-144907000D01*
X132207000Y-145906250D01*
X132365750Y-146065000D01*
X132856309Y-146065000D01*
X133089698Y-145968327D01*
X133268327Y-145789699D01*
X133365000Y-145556310D01*
X133365000Y-145204433D01*
X133489995Y-145506943D01*
X133851155Y-145868735D01*
X134323276Y-146064777D01*
X134834481Y-146065223D01*
X135306943Y-145870005D01*
X135668735Y-145508845D01*
X135864777Y-145036724D01*
X135865223Y-144525519D01*
X135670005Y-144053057D01*
X135308845Y-143691265D01*
X134836724Y-143495223D01*
X134325519Y-143494777D01*
X133853057Y-143689995D01*
X133491265Y-144051155D01*
X133365000Y-144355235D01*
X133365000Y-144003690D01*
X133268327Y-143770301D01*
X133089698Y-143591673D01*
X132856309Y-143495000D01*
X132365750Y-143495000D01*
X132207000Y-143653750D01*
X131953000Y-143653750D01*
X131794250Y-143495000D01*
X131303691Y-143495000D01*
X131070302Y-143591673D01*
X130891673Y-143770301D01*
X130795000Y-144003690D01*
X129916930Y-144003690D01*
X129916930Y-143783050D01*
X129872652Y-143547733D01*
X129733580Y-143331609D01*
X129521380Y-143186619D01*
X129269490Y-143135610D01*
X127270510Y-143135610D01*
X127035193Y-143179888D01*
X126819069Y-143318960D01*
X126674079Y-143531160D01*
X126623070Y-143783050D01*
X119421758Y-143783050D01*
X119037073Y-143397694D01*
X118870000Y-143328319D01*
X118870000Y-140014802D01*
X118899052Y-139985750D01*
X130795000Y-139985750D01*
X130795000Y-140476310D01*
X130891673Y-140709699D01*
X131070302Y-140888327D01*
X131303691Y-140985000D01*
X131794250Y-140985000D01*
X131953000Y-140826250D01*
X131953000Y-139827000D01*
X130953750Y-139827000D01*
X130795000Y-139985750D01*
X118899052Y-139985750D01*
X119961112Y-138923690D01*
X130795000Y-138923690D01*
X130795000Y-139414250D01*
X130953750Y-139573000D01*
X131953000Y-139573000D01*
X131953000Y-138573750D01*
X132207000Y-138573750D01*
X132207000Y-139573000D01*
X132227000Y-139573000D01*
X132227000Y-139827000D01*
X132207000Y-139827000D01*
X132207000Y-140826250D01*
X132365750Y-140985000D01*
X132856309Y-140985000D01*
X133089698Y-140888327D01*
X133268327Y-140709699D01*
X133365000Y-140476310D01*
X133365000Y-140124433D01*
X133489995Y-140426943D01*
X133851155Y-140788735D01*
X134323276Y-140984777D01*
X134834481Y-140985223D01*
X135306943Y-140790005D01*
X135668735Y-140428845D01*
X135864777Y-139956724D01*
X135865223Y-139445519D01*
X135670005Y-138973057D01*
X135308845Y-138611265D01*
X134836724Y-138415223D01*
X134325519Y-138414777D01*
X133853057Y-138609995D01*
X133491265Y-138971155D01*
X133365000Y-139275235D01*
X133365000Y-138923690D01*
X133268327Y-138690301D01*
X133089698Y-138511673D01*
X132856309Y-138415000D01*
X132365750Y-138415000D01*
X132207000Y-138573750D01*
X131953000Y-138573750D01*
X131794250Y-138415000D01*
X131303691Y-138415000D01*
X131070302Y-138511673D01*
X130891673Y-138690301D01*
X130795000Y-138923690D01*
X119961112Y-138923690D01*
X121187401Y-137697401D01*
X121352148Y-137450840D01*
X121372843Y-137346799D01*
X121410000Y-137160000D01*
X121410000Y-134620000D01*
X121352148Y-134329161D01*
X121352148Y-134329160D01*
X121208274Y-134113837D01*
X121442192Y-133880327D01*
X121584838Y-133536799D01*
X121585162Y-133164833D01*
X121443117Y-132821057D01*
X121180327Y-132557808D01*
X120836799Y-132415162D01*
X120789923Y-132415121D01*
X120007440Y-131632638D01*
X120007440Y-130540000D01*
X119982979Y-130410000D01*
X121362560Y-130410000D01*
X121362560Y-131210000D01*
X121406838Y-131445317D01*
X121545910Y-131661441D01*
X121758110Y-131806431D01*
X122010000Y-131857440D01*
X122200000Y-131857440D01*
X122200000Y-133130160D01*
X122257852Y-133420999D01*
X122422599Y-133667561D01*
X124153565Y-135398527D01*
X124085124Y-135563352D01*
X124084556Y-136213795D01*
X124332946Y-136814943D01*
X124792477Y-137275278D01*
X125393192Y-137524716D01*
X126043635Y-137525284D01*
X126644783Y-137276894D01*
X127105118Y-136817363D01*
X127354556Y-136216648D01*
X127355124Y-135566205D01*
X127106734Y-134965057D01*
X126647203Y-134504722D01*
X126046488Y-134255284D01*
X125396045Y-134254716D01*
X125228561Y-134323919D01*
X123720000Y-132815358D01*
X123720000Y-132045750D01*
X124375000Y-132045750D01*
X124375000Y-132286310D01*
X124471673Y-132519699D01*
X124650302Y-132698327D01*
X124883691Y-132795000D01*
X125674250Y-132795000D01*
X125833000Y-132636250D01*
X125833000Y-131887000D01*
X126087000Y-131887000D01*
X126087000Y-132636250D01*
X126245750Y-132795000D01*
X127036309Y-132795000D01*
X127269698Y-132698327D01*
X127448327Y-132519699D01*
X127545000Y-132286310D01*
X127545000Y-132045750D01*
X127386250Y-131887000D01*
X126087000Y-131887000D01*
X125833000Y-131887000D01*
X124533750Y-131887000D01*
X124375000Y-132045750D01*
X123720000Y-132045750D01*
X123720000Y-131857440D01*
X123910000Y-131857440D01*
X124145317Y-131813162D01*
X124361441Y-131674090D01*
X124448064Y-131547314D01*
X124533750Y-131633000D01*
X125833000Y-131633000D01*
X125833000Y-131613000D01*
X126087000Y-131613000D01*
X126087000Y-131633000D01*
X127386250Y-131633000D01*
X127545000Y-131474250D01*
X127545000Y-131233690D01*
X127448327Y-131000301D01*
X127269698Y-130821673D01*
X127233253Y-130806577D01*
X127361441Y-130724090D01*
X127432563Y-130620000D01*
X129702560Y-130620000D01*
X129702560Y-132060000D01*
X129746838Y-132295317D01*
X129885910Y-132511441D01*
X130098110Y-132656431D01*
X130350000Y-132707440D01*
X132350000Y-132707440D01*
X132585317Y-132663162D01*
X132801441Y-132524090D01*
X132946431Y-132311890D01*
X132997440Y-132060000D01*
X132997440Y-129560000D01*
X132953162Y-129324683D01*
X132814090Y-129108559D01*
X132601890Y-128963569D01*
X132350000Y-128912560D01*
X130350000Y-128912560D01*
X130114683Y-128956838D01*
X129898559Y-129095910D01*
X129895764Y-129100000D01*
X127432931Y-129100000D01*
X127374090Y-129008559D01*
X127161890Y-128863569D01*
X126910000Y-128812560D01*
X125010000Y-128812560D01*
X124774683Y-128856838D01*
X124558559Y-128995910D01*
X124413569Y-129208110D01*
X124362560Y-129460000D01*
X124362560Y-129950681D01*
X124161890Y-129813569D01*
X123910000Y-129762560D01*
X122010000Y-129762560D01*
X121774683Y-129806838D01*
X121558559Y-129945910D01*
X121413569Y-130158110D01*
X121362560Y-130410000D01*
X119982979Y-130410000D01*
X119963162Y-130304683D01*
X119824090Y-130088559D01*
X119611890Y-129943569D01*
X119360000Y-129892560D01*
X116860000Y-129892560D01*
X116624683Y-129936838D01*
X116408559Y-130075910D01*
X116263569Y-130288110D01*
X116212560Y-130540000D01*
X114985000Y-130540000D01*
X114985000Y-121020000D01*
X115292560Y-121020000D01*
X115292560Y-122820000D01*
X115336838Y-123055317D01*
X115475910Y-123271441D01*
X115688110Y-123416431D01*
X115940000Y-123467440D01*
X117740000Y-123467440D01*
X117975317Y-123423162D01*
X118191441Y-123284090D01*
X118336431Y-123071890D01*
X118340567Y-123051466D01*
X118509357Y-123220551D01*
X118620000Y-123266494D01*
X118620000Y-124145198D01*
X117572599Y-125192599D01*
X117407852Y-125439161D01*
X117350000Y-125730000D01*
X117350000Y-125892560D01*
X116860000Y-125892560D01*
X116624683Y-125936838D01*
X116408559Y-126075910D01*
X116263569Y-126288110D01*
X116212560Y-126540000D01*
X116212560Y-128540000D01*
X116256838Y-128775317D01*
X116395910Y-128991441D01*
X116608110Y-129136431D01*
X116860000Y-129187440D01*
X119360000Y-129187440D01*
X119595317Y-129143162D01*
X119811441Y-129004090D01*
X119956431Y-128791890D01*
X120007440Y-128540000D01*
X120007440Y-126540000D01*
X119963162Y-126304683D01*
X119824090Y-126088559D01*
X119611890Y-125943569D01*
X119360000Y-125892560D01*
X119022242Y-125892560D01*
X119917401Y-124997401D01*
X120036587Y-124819026D01*
X121074642Y-124819026D01*
X121096473Y-124916157D01*
X121380127Y-125429868D01*
X121838778Y-125795925D01*
X122402600Y-125958600D01*
X123063000Y-125958600D01*
X123063000Y-124587000D01*
X123317000Y-124587000D01*
X123317000Y-125958600D01*
X123977400Y-125958600D01*
X124541222Y-125795925D01*
X124999873Y-125429868D01*
X125283527Y-124916157D01*
X125305358Y-124819026D01*
X125184217Y-124587000D01*
X123317000Y-124587000D01*
X123063000Y-124587000D01*
X121195783Y-124587000D01*
X121074642Y-124819026D01*
X120036587Y-124819026D01*
X120082148Y-124750840D01*
X120140000Y-124460000D01*
X120140000Y-124100974D01*
X121074642Y-124100974D01*
X121195783Y-124333000D01*
X123063000Y-124333000D01*
X123063000Y-122961400D01*
X123317000Y-122961400D01*
X123317000Y-124333000D01*
X125184217Y-124333000D01*
X125305358Y-124100974D01*
X125283527Y-124003843D01*
X124999873Y-123490132D01*
X124541222Y-123124075D01*
X123977400Y-122961400D01*
X123317000Y-122961400D01*
X123063000Y-122961400D01*
X122402600Y-122961400D01*
X121838778Y-123124075D01*
X121380127Y-123490132D01*
X121096473Y-124003843D01*
X121074642Y-124100974D01*
X120140000Y-124100974D01*
X120140000Y-123266846D01*
X120248371Y-123222068D01*
X120680551Y-122790643D01*
X120914733Y-122226670D01*
X120915265Y-121616009D01*
X120682068Y-121051629D01*
X120250643Y-120619449D01*
X119686670Y-120385267D01*
X119076009Y-120384735D01*
X118511629Y-120617932D01*
X118343387Y-120785880D01*
X118343162Y-120784683D01*
X118204090Y-120568559D01*
X117991890Y-120423569D01*
X117740000Y-120372560D01*
X117600000Y-120372560D01*
X117600000Y-110426500D01*
X118034060Y-110426500D01*
X118034060Y-111823500D01*
X118078338Y-112058817D01*
X118217410Y-112274941D01*
X118429610Y-112419931D01*
X118681500Y-112470940D01*
X119016138Y-112470940D01*
X124690663Y-118145465D01*
X124466186Y-117995474D01*
X123892697Y-117881400D01*
X122487303Y-117881400D01*
X121913814Y-117995474D01*
X121427633Y-118320330D01*
X121102777Y-118806511D01*
X120988703Y-119380000D01*
X121102777Y-119953489D01*
X121427633Y-120439670D01*
X121913814Y-120764526D01*
X122487303Y-120878600D01*
X123892697Y-120878600D01*
X124466186Y-120764526D01*
X124952367Y-120439670D01*
X125277223Y-119953489D01*
X125391297Y-119380000D01*
X125277223Y-118806511D01*
X125127232Y-118582034D01*
X135352599Y-128807401D01*
X135509981Y-128912560D01*
X134350000Y-128912560D01*
X134114683Y-128956838D01*
X133898559Y-129095910D01*
X133753569Y-129308110D01*
X133702560Y-129560000D01*
X133702560Y-132060000D01*
X133746838Y-132295317D01*
X133885910Y-132511441D01*
X134098110Y-132656431D01*
X134350000Y-132707440D01*
X136350000Y-132707440D01*
X136585317Y-132663162D01*
X136801441Y-132524090D01*
X136946431Y-132311890D01*
X136997440Y-132060000D01*
X136997440Y-131570000D01*
X138430000Y-131570000D01*
X138720839Y-131512148D01*
X138967401Y-131347401D01*
X139575000Y-130739802D01*
X139575000Y-138832159D01*
X139469564Y-138726539D01*
X138960702Y-138515241D01*
X138409715Y-138514760D01*
X137900485Y-138725169D01*
X137510539Y-139114436D01*
X137299241Y-139623298D01*
X137298760Y-140174285D01*
X137509169Y-140683515D01*
X137898436Y-141073461D01*
X138407298Y-141284759D01*
X138958285Y-141285240D01*
X139467515Y-141074831D01*
X139575000Y-140967533D01*
X139575000Y-143712159D01*
X139469564Y-143606539D01*
X138960702Y-143395241D01*
X138409715Y-143394760D01*
X137900485Y-143605169D01*
X137510539Y-143994436D01*
X137299241Y-144503298D01*
X137298760Y-145054285D01*
X137509169Y-145563515D01*
X137898436Y-145953461D01*
X138407298Y-146164759D01*
X138958285Y-146165240D01*
X139467515Y-145954831D01*
X139575000Y-145847533D01*
X139575000Y-152400000D01*
X139632852Y-152690839D01*
X139797599Y-152937401D01*
X142972599Y-156112401D01*
X143219161Y-156277148D01*
X143510000Y-156335000D01*
X147955000Y-156335000D01*
X148245839Y-156277148D01*
X148492401Y-156112401D01*
X149029802Y-155575000D01*
X155040198Y-155575000D01*
X157642560Y-158177362D01*
X157642560Y-160000000D01*
X157686838Y-160235317D01*
X157825910Y-160451441D01*
X158038110Y-160596431D01*
X158290000Y-160647440D01*
X160290000Y-160647440D01*
X160525317Y-160603162D01*
X160741441Y-160464090D01*
X160784549Y-160401000D01*
X161793452Y-160401000D01*
X161825910Y-160451441D01*
X162038110Y-160596431D01*
X162290000Y-160647440D01*
X164290000Y-160647440D01*
X164525317Y-160603162D01*
X164741441Y-160464090D01*
X164886431Y-160251890D01*
X164937440Y-160000000D01*
X164937440Y-157500000D01*
X164893162Y-157264683D01*
X164754090Y-157048559D01*
X164719000Y-157024583D01*
X164719000Y-155873226D01*
X164826441Y-155804090D01*
X164897563Y-155700000D01*
X169900600Y-155700000D01*
X170191439Y-155642148D01*
X170438001Y-155477401D01*
X171322088Y-154593314D01*
X171357452Y-154771099D01*
X171522199Y-155017661D01*
X173911900Y-157407362D01*
X173911900Y-158280000D01*
X173956178Y-158515317D01*
X174095250Y-158731441D01*
X174307450Y-158876431D01*
X174559340Y-158927440D01*
X175559340Y-158927440D01*
X175794657Y-158883162D01*
X176010781Y-158744090D01*
X176155771Y-158531890D01*
X176206780Y-158280000D01*
X176206780Y-156680000D01*
X176162502Y-156444683D01*
X176023430Y-156228559D01*
X175811230Y-156083569D01*
X175559340Y-156032560D01*
X174686702Y-156032560D01*
X172819600Y-154165458D01*
X172819600Y-153928440D01*
X172859600Y-153928440D01*
X173094917Y-153884162D01*
X173311041Y-153745090D01*
X173456031Y-153532890D01*
X173507040Y-153281000D01*
X173507040Y-152281000D01*
X173462762Y-152045683D01*
X173323690Y-151829559D01*
X173111490Y-151684569D01*
X172859600Y-151633560D01*
X171259600Y-151633560D01*
X171024283Y-151677838D01*
X170808159Y-151816910D01*
X170663169Y-152029110D01*
X170612160Y-152281000D01*
X170612160Y-153153638D01*
X169585798Y-154180000D01*
X164897931Y-154180000D01*
X164839090Y-154088559D01*
X164626890Y-153943569D01*
X164375000Y-153892560D01*
X162475000Y-153892560D01*
X162239683Y-153936838D01*
X162023559Y-154075910D01*
X161936936Y-154202686D01*
X161851250Y-154117000D01*
X160552000Y-154117000D01*
X160552000Y-154137000D01*
X160298000Y-154137000D01*
X160298000Y-154117000D01*
X158998750Y-154117000D01*
X158840000Y-154275750D01*
X158840000Y-154516310D01*
X158857683Y-154559000D01*
X158242000Y-154559000D01*
X158192590Y-154569006D01*
X158150965Y-154597447D01*
X158123685Y-154639841D01*
X158115000Y-154686000D01*
X158115000Y-156500198D01*
X156845000Y-155230198D01*
X156845000Y-153463690D01*
X158840000Y-153463690D01*
X158840000Y-153704250D01*
X158998750Y-153863000D01*
X160298000Y-153863000D01*
X160298000Y-153113750D01*
X160552000Y-153113750D01*
X160552000Y-153863000D01*
X161851250Y-153863000D01*
X162010000Y-153704250D01*
X162010000Y-153463690D01*
X161913327Y-153230301D01*
X161734698Y-153051673D01*
X161501309Y-152955000D01*
X160710750Y-152955000D01*
X160552000Y-153113750D01*
X160298000Y-153113750D01*
X160139250Y-152955000D01*
X159348691Y-152955000D01*
X159115302Y-153051673D01*
X158936673Y-153230301D01*
X158840000Y-153463690D01*
X156845000Y-153463690D01*
X156845000Y-142464850D01*
X163215124Y-142464850D01*
X163387611Y-142882301D01*
X163706719Y-143201967D01*
X164123868Y-143375182D01*
X164575550Y-143375576D01*
X164993001Y-143203089D01*
X165099906Y-143096370D01*
X165205319Y-143201967D01*
X165622468Y-143375182D01*
X166074150Y-143375576D01*
X166491601Y-143203089D01*
X166811267Y-142883981D01*
X166984482Y-142466832D01*
X166984876Y-142015150D01*
X166812389Y-141597699D01*
X166493281Y-141278033D01*
X166076132Y-141104818D01*
X165624450Y-141104424D01*
X165206999Y-141276911D01*
X165100094Y-141383630D01*
X164994681Y-141278033D01*
X164577532Y-141104818D01*
X164125850Y-141104424D01*
X163708399Y-141276911D01*
X163388733Y-141596019D01*
X163215518Y-142013168D01*
X163215124Y-142464850D01*
X156845000Y-142464850D01*
X156845000Y-140000001D01*
X157030167Y-140000162D01*
X157373943Y-139858117D01*
X157637192Y-139595327D01*
X157646463Y-139573000D01*
X162419472Y-139573000D01*
X162504233Y-139999121D01*
X162815302Y-140464668D01*
X163280849Y-140775737D01*
X163830000Y-140884970D01*
X164379151Y-140775737D01*
X164844698Y-140464668D01*
X165100000Y-140082582D01*
X165355302Y-140464668D01*
X165820849Y-140775737D01*
X166370000Y-140884970D01*
X166919151Y-140775737D01*
X167384698Y-140464668D01*
X167640000Y-140082582D01*
X167895302Y-140464668D01*
X168360849Y-140775737D01*
X168910000Y-140884970D01*
X169459151Y-140775737D01*
X169924698Y-140464668D01*
X170177149Y-140086849D01*
X170525104Y-140519500D01*
X171018181Y-140789367D01*
X171100961Y-140806904D01*
X171323000Y-140684915D01*
X171323000Y-139192000D01*
X171577000Y-139192000D01*
X171577000Y-140684915D01*
X171799039Y-140806904D01*
X171881819Y-140789367D01*
X172374896Y-140519500D01*
X172727166Y-140081483D01*
X172885000Y-139542000D01*
X172885000Y-139192000D01*
X171577000Y-139192000D01*
X171323000Y-139192000D01*
X171303000Y-139192000D01*
X171303000Y-138938000D01*
X171323000Y-138938000D01*
X171323000Y-137445085D01*
X171577000Y-137445085D01*
X171577000Y-138938000D01*
X172885000Y-138938000D01*
X172885000Y-138588000D01*
X172727166Y-138048517D01*
X172374896Y-137610500D01*
X171881819Y-137340633D01*
X171799039Y-137323096D01*
X171577000Y-137445085D01*
X171323000Y-137445085D01*
X171278929Y-137420873D01*
X172049802Y-136650000D01*
X176022000Y-136650000D01*
X176312839Y-136592148D01*
X176559401Y-136427401D01*
X177321401Y-135665401D01*
X177486148Y-135418839D01*
X177544000Y-135128000D01*
X177544000Y-118775000D01*
X177486148Y-118484161D01*
X177321401Y-118237599D01*
X174637440Y-115553638D01*
X174637440Y-113191000D01*
X174593162Y-112955683D01*
X174454090Y-112739559D01*
X174241890Y-112594569D01*
X173990000Y-112543560D01*
X168910000Y-112543560D01*
X168674683Y-112587838D01*
X168458559Y-112726910D01*
X168313569Y-112939110D01*
X168262560Y-113191000D01*
X168262560Y-115981000D01*
X168306838Y-116216317D01*
X168445910Y-116432441D01*
X168658110Y-116577431D01*
X168910000Y-116628440D01*
X173562638Y-116628440D01*
X174846115Y-117911917D01*
X174692697Y-117881400D01*
X173287303Y-117881400D01*
X172713814Y-117995474D01*
X172227633Y-118320330D01*
X171902777Y-118806511D01*
X171788703Y-119380000D01*
X171902777Y-119953489D01*
X172227633Y-120439670D01*
X172713814Y-120764526D01*
X173287303Y-120878600D01*
X174692697Y-120878600D01*
X175266186Y-120764526D01*
X175752367Y-120439670D01*
X176024000Y-120033143D01*
X176024000Y-123896037D01*
X175799873Y-123490132D01*
X175341222Y-123124075D01*
X174777400Y-122961400D01*
X174117000Y-122961400D01*
X174117000Y-124333000D01*
X174137000Y-124333000D01*
X174137000Y-124587000D01*
X174117000Y-124587000D01*
X174117000Y-125958600D01*
X174777400Y-125958600D01*
X175341222Y-125795925D01*
X175799873Y-125429868D01*
X176024000Y-125023963D01*
X176024000Y-127827733D01*
X175875000Y-127797560D01*
X173375000Y-127797560D01*
X173139683Y-127841838D01*
X172923559Y-127980910D01*
X172778569Y-128193110D01*
X172727560Y-128445000D01*
X172727560Y-128685000D01*
X170275000Y-128685000D01*
X169984161Y-128742852D01*
X169737599Y-128907599D01*
X169001890Y-129643308D01*
X168910000Y-129625030D01*
X168818110Y-129643308D01*
X165002401Y-125827599D01*
X164755839Y-125662852D01*
X164465000Y-125605000D01*
X162880441Y-125605000D01*
X163099873Y-125429868D01*
X163383527Y-124916157D01*
X163405358Y-124819026D01*
X171874642Y-124819026D01*
X171896473Y-124916157D01*
X172180127Y-125429868D01*
X172638778Y-125795925D01*
X173202600Y-125958600D01*
X173863000Y-125958600D01*
X173863000Y-124587000D01*
X171995783Y-124587000D01*
X171874642Y-124819026D01*
X163405358Y-124819026D01*
X163284217Y-124587000D01*
X161417000Y-124587000D01*
X161417000Y-124607000D01*
X161163000Y-124607000D01*
X161163000Y-124587000D01*
X159295783Y-124587000D01*
X159174642Y-124819026D01*
X159196473Y-124916157D01*
X159480127Y-125429868D01*
X159699559Y-125605000D01*
X158429803Y-125605000D01*
X156925777Y-124100974D01*
X159174642Y-124100974D01*
X159295783Y-124333000D01*
X161163000Y-124333000D01*
X161163000Y-122961400D01*
X161417000Y-122961400D01*
X161417000Y-124333000D01*
X163284217Y-124333000D01*
X163405358Y-124100974D01*
X171874642Y-124100974D01*
X171995783Y-124333000D01*
X173863000Y-124333000D01*
X173863000Y-122961400D01*
X173202600Y-122961400D01*
X172638778Y-123124075D01*
X172180127Y-123490132D01*
X171896473Y-124003843D01*
X171874642Y-124100974D01*
X163405358Y-124100974D01*
X163383527Y-124003843D01*
X163099873Y-123490132D01*
X162641222Y-123124075D01*
X162077400Y-122961400D01*
X161417000Y-122961400D01*
X161163000Y-122961400D01*
X160502600Y-122961400D01*
X159938778Y-123124075D01*
X159480127Y-123490132D01*
X159196473Y-124003843D01*
X159174642Y-124100974D01*
X156925777Y-124100974D01*
X156845000Y-124020197D01*
X156845000Y-120140000D01*
X159327400Y-120140000D01*
X159527633Y-120439670D01*
X160013814Y-120764526D01*
X160587303Y-120878600D01*
X161992697Y-120878600D01*
X162566186Y-120764526D01*
X163052367Y-120439670D01*
X163377223Y-119953489D01*
X163491297Y-119380000D01*
X163377223Y-118806511D01*
X163052367Y-118320330D01*
X162566186Y-117995474D01*
X161992697Y-117881400D01*
X160587303Y-117881400D01*
X160013814Y-117995474D01*
X159639000Y-118245917D01*
X159639000Y-109460095D01*
X164785510Y-109460095D01*
X165844894Y-110546831D01*
X169306555Y-112088113D01*
X173094536Y-112187353D01*
X176632152Y-110829441D01*
X177055106Y-110546831D01*
X178114490Y-109460095D01*
X171450000Y-102795605D01*
X164785510Y-109460095D01*
X159639000Y-109460095D01*
X159639000Y-104260536D01*
X161878647Y-104260536D01*
X163236559Y-107798152D01*
X163519169Y-108221106D01*
X164605905Y-109280490D01*
X171270395Y-102616000D01*
X171629605Y-102616000D01*
X178294095Y-109280490D01*
X179380831Y-108221106D01*
X180922113Y-104759445D01*
X181021353Y-100971464D01*
X179663441Y-97433848D01*
X179380831Y-97010894D01*
X178294095Y-95951510D01*
X171629605Y-102616000D01*
X171270395Y-102616000D01*
X164605905Y-95951510D01*
X163519169Y-97010894D01*
X161977887Y-100472555D01*
X161878647Y-104260536D01*
X159639000Y-104260536D01*
X159639000Y-96012000D01*
X159628994Y-95962590D01*
X159600553Y-95920965D01*
X159558159Y-95893685D01*
X159512000Y-95885000D01*
X123698000Y-95885000D01*
X123648590Y-95895006D01*
X123606965Y-95923447D01*
X123579685Y-95965841D01*
X123571000Y-96012000D01*
X123571000Y-114876198D01*
X120690973Y-111996171D01*
X120725940Y-111823500D01*
X120725940Y-110426500D01*
X120681662Y-110191183D01*
X120542590Y-109975059D01*
X120330390Y-109830069D01*
X120078500Y-109779060D01*
X120014360Y-109779060D01*
X120072929Y-109754800D01*
X120134583Y-109519188D01*
X119380000Y-108764605D01*
X118625417Y-109519188D01*
X118687071Y-109754800D01*
X118755998Y-109779060D01*
X118681500Y-109779060D01*
X118446183Y-109823338D01*
X118230059Y-109962410D01*
X118085069Y-110174610D01*
X118034060Y-110426500D01*
X117600000Y-110426500D01*
X117600000Y-108899802D01*
X118037847Y-108461955D01*
X118062852Y-108922199D01*
X118210200Y-109277929D01*
X118445812Y-109339583D01*
X119200395Y-108585000D01*
X119559605Y-108585000D01*
X120314188Y-109339583D01*
X120549800Y-109277929D01*
X120725927Y-108777520D01*
X120697148Y-108247801D01*
X120549800Y-107892071D01*
X120314188Y-107830417D01*
X119559605Y-108585000D01*
X119200395Y-108585000D01*
X119186253Y-108570858D01*
X119365858Y-108391253D01*
X119380000Y-108405395D01*
X120134583Y-107650812D01*
X120072929Y-107415200D01*
X119793688Y-107316917D01*
X120134380Y-107176146D01*
X120509827Y-106801353D01*
X120713268Y-106311413D01*
X120713731Y-105780914D01*
X120511146Y-105290620D01*
X120136353Y-104915173D01*
X119646413Y-104711732D01*
X119115914Y-104711269D01*
X118625620Y-104913854D01*
X118250173Y-105288647D01*
X118046732Y-105778587D01*
X118046274Y-106303924D01*
X116302599Y-108047599D01*
X116137852Y-108294161D01*
X116080000Y-108585000D01*
X116080000Y-120372560D01*
X115940000Y-120372560D01*
X115704683Y-120416838D01*
X115488559Y-120555910D01*
X115343569Y-120768110D01*
X115292560Y-121020000D01*
X114985000Y-121020000D01*
X114985000Y-95771905D01*
X164785510Y-95771905D01*
X171450000Y-102436395D01*
X178114490Y-95771905D01*
X177055106Y-94685169D01*
X173593445Y-93143887D01*
X169805464Y-93044647D01*
X166267848Y-94402559D01*
X165844894Y-94685169D01*
X164785510Y-95771905D01*
X114985000Y-95771905D01*
X114985000Y-88560815D01*
X115974630Y-88560815D01*
X116298980Y-89345800D01*
X116899041Y-89946909D01*
X117683459Y-90272628D01*
X118532815Y-90273370D01*
X119317800Y-89949020D01*
X119918909Y-89348959D01*
X119959585Y-89251000D01*
X168262560Y-89251000D01*
X168262560Y-92041000D01*
X168306838Y-92276317D01*
X168445910Y-92492441D01*
X168658110Y-92637431D01*
X168910000Y-92688440D01*
X173990000Y-92688440D01*
X174225317Y-92644162D01*
X174441441Y-92505090D01*
X174586431Y-92292890D01*
X174637440Y-92041000D01*
X174637440Y-89251000D01*
X174593162Y-89015683D01*
X174454090Y-88799559D01*
X174241890Y-88654569D01*
X173990000Y-88603560D01*
X168910000Y-88603560D01*
X168674683Y-88647838D01*
X168458559Y-88786910D01*
X168313569Y-88999110D01*
X168262560Y-89251000D01*
X119959585Y-89251000D01*
X120244628Y-88564541D01*
X120244631Y-88560815D01*
X176934630Y-88560815D01*
X177258980Y-89345800D01*
X177859041Y-89946909D01*
X178643459Y-90272628D01*
X179492815Y-90273370D01*
X180277800Y-89949020D01*
X180878909Y-89348959D01*
X181204628Y-88564541D01*
X181205370Y-87715185D01*
X180881020Y-86930200D01*
X180280959Y-86329091D01*
X179496541Y-86003372D01*
X178647185Y-86002630D01*
X177862200Y-86326980D01*
X177261091Y-86927041D01*
X176935372Y-87711459D01*
X176934630Y-88560815D01*
X120244631Y-88560815D01*
X120245370Y-87715185D01*
X119921020Y-86930200D01*
X119320959Y-86329091D01*
X118536541Y-86003372D01*
X117687185Y-86002630D01*
X116902200Y-86326980D01*
X116301091Y-86927041D01*
X115975372Y-87711459D01*
X115974630Y-88560815D01*
X114985000Y-88560815D01*
X114985000Y-85140000D01*
X182195000Y-85140000D01*
X182195000Y-170130000D01*
M02*
