G04 #@! TF.FileFunction,Soldermask,Top*
%FSLAX46Y46*%
G04 Gerber Fmt 4.6, Leading zero omitted, Abs format (unit mm)*
G04 Created by KiCad (PCBNEW 4.0.5) date Sat Feb  4 13:13:31 2017*
%MOMM*%
%LPD*%
G01*
G04 APERTURE LIST*
%ADD10C,0.100000*%
%ADD11C,3.200000*%
%ADD12O,1.600000X2.300000*%
%ADD13C,1.300000*%
%ADD14R,1.300000X1.300000*%
%ADD15C,1.998980*%
%ADD16R,1.998980X1.998980*%
%ADD17R,1.900000X2.000000*%
%ADD18C,1.900000*%
%ADD19O,1.600000X1.600000*%
%ADD20C,2.000000*%
%ADD21R,1.397000X1.397000*%
%ADD22C,1.397000*%
%ADD23O,3.048000X1.727200*%
%ADD24O,2.032000X2.540000*%
%ADD25C,1.524000*%
%ADD26O,2.499360X1.998980*%
%ADD27C,1.000760*%
%ADD28R,1.000000X1.600000*%
%ADD29R,1.600000X1.000000*%
G04 APERTURE END LIST*
D10*
D11*
X178435000Y-88900000D03*
D12*
X163830000Y-139065000D03*
X166370000Y-139065000D03*
X168910000Y-139065000D03*
X171450000Y-139065000D03*
X171450000Y-131445000D03*
X168910000Y-131445000D03*
X166370000Y-131445000D03*
X163830000Y-131445000D03*
D13*
X135890000Y-159980000D03*
D14*
X135890000Y-157480000D03*
X118110000Y-148590000D03*
D13*
X118110000Y-150590000D03*
D14*
X132080000Y-139700000D03*
D13*
X134580000Y-139700000D03*
D14*
X132080000Y-144780000D03*
D13*
X134580000Y-144780000D03*
D15*
X118110000Y-144782540D03*
D16*
X128270000Y-144782540D03*
D17*
X116840000Y-121920000D03*
D18*
X119380000Y-121920000D03*
D19*
X144780000Y-120650000D03*
X144780000Y-123190000D03*
X144780000Y-125730000D03*
X144780000Y-128270000D03*
X144780000Y-130810000D03*
X144780000Y-133350000D03*
X144780000Y-135890000D03*
X144780000Y-138430000D03*
X144780000Y-140970000D03*
X144780000Y-143510000D03*
X144780000Y-146050000D03*
X144780000Y-148590000D03*
X144780000Y-151130000D03*
X144780000Y-153670000D03*
X152400000Y-153670000D03*
X152400000Y-151130000D03*
X152400000Y-148590000D03*
X152400000Y-146050000D03*
X152400000Y-143510000D03*
X152400000Y-140970000D03*
X152400000Y-138430000D03*
X152400000Y-135890000D03*
X152400000Y-133350000D03*
X152400000Y-130810000D03*
X152400000Y-128270000D03*
X152400000Y-125730000D03*
X152400000Y-123190000D03*
X152400000Y-120650000D03*
D20*
X125719840Y-135890000D03*
X118120160Y-135890000D03*
D21*
X119380000Y-111125000D03*
D22*
X119380000Y-108585000D03*
X119380000Y-106045000D03*
D23*
X135890000Y-119380000D03*
X135890000Y-124460000D03*
X123190000Y-119380000D03*
X123190000Y-124460000D03*
X173990000Y-119380000D03*
X173990000Y-124460000D03*
X161290000Y-119380000D03*
X161290000Y-124460000D03*
D24*
X127000000Y-148590000D03*
X124460000Y-148590000D03*
X129540000Y-148590000D03*
D25*
X148590000Y-97790000D03*
X151130000Y-97790000D03*
X153670000Y-97790000D03*
X156210000Y-97790000D03*
X148590000Y-113030000D03*
X151130000Y-113030000D03*
X153670000Y-113030000D03*
X156210000Y-113030000D03*
X146050000Y-97790000D03*
X143510000Y-97790000D03*
X140970000Y-97790000D03*
X140970000Y-113030000D03*
X143510000Y-113030000D03*
X146050000Y-113030000D03*
D26*
X138430000Y-144680940D03*
X138430000Y-139799060D03*
D27*
X165849300Y-142240000D03*
X164350700Y-142240000D03*
D11*
X118745000Y-88900000D03*
X118745000Y-166370000D03*
X178435000Y-166370000D03*
D28*
X167789860Y-157480000D03*
X173789340Y-157480000D03*
D29*
X170789600Y-152781000D03*
D28*
X129390140Y-157480000D03*
X123390660Y-157480000D03*
D29*
X126390400Y-162179000D03*
M02*
