M48
;DRILL file {KiCad 4.0.5} date Sat Feb  4 13:13:34 2017
;FORMAT={-:-/ absolute / inch / decimal}
FMAT,2
INCH,TZ
T1C0.016
T2C0.024
T3C0.028
T4C0.030
T5C0.031
T6C0.032
T7C0.032
T8C0.039
T9C0.045
T10C0.047
T11C0.050
%
G90
G05
M72
T1
X4.75Y-5.25
X5.05Y-5.15
X5.1Y-4.15
X5.25Y-4.15
X5.3Y-4.4
X5.35Y-4.4
X5.4Y-4.15
X5.4Y-4.4
X5.425Y-5.05
X5.45Y-4.4
X5.5Y-4.4
X5.5Y-5.1
X5.55Y-4.15
X5.7Y-4.15
X5.825Y-4.75
X5.825Y-5.05
X5.85Y-4.15
X5.95Y-4.675
X6.075Y-5.025
X6.15Y-4.375
X6.15Y-4.825
X6.175Y-5.4
X6.175Y-5.475
X6.2376Y-6.0626
X6.275Y-5.375
X6.45Y-5.1
T2
X6.4705Y-5.6
X6.5295Y-5.6
T4
X5.55Y-3.85
X5.55Y-4.45
X5.65Y-3.85
X5.65Y-4.45
X5.75Y-3.85
X5.75Y-4.45
X5.85Y-3.85
X5.85Y-4.45
X5.95Y-3.85
X5.95Y-4.45
X6.05Y-3.85
X6.05Y-4.45
X6.15Y-3.85
X6.15Y-4.45
T5
X4.65Y-5.85
X4.65Y-5.9287
X5.2Y-5.5
X5.2Y-5.7
X5.35Y-6.2
X5.35Y-6.2984
X5.7Y-4.75
X5.7Y-4.85
X5.7Y-4.95
X5.7Y-5.05
X5.7Y-5.15
X5.7Y-5.25
X5.7Y-5.35
X5.7Y-5.45
X5.7Y-5.55
X5.7Y-5.65
X5.7Y-5.75
X5.7Y-5.85
X5.7Y-5.95
X5.7Y-6.05
X6.Y-4.75
X6.Y-4.85
X6.Y-4.95
X6.Y-5.05
X6.Y-5.15
X6.Y-5.25
X6.Y-5.35
X6.Y-5.45
X6.Y-5.55
X6.Y-5.65
X6.Y-5.75
X6.Y-5.85
X6.Y-5.95
X6.Y-6.05
X6.45Y-5.175
X6.45Y-5.475
X6.55Y-5.175
X6.55Y-5.475
X6.65Y-5.175
X6.65Y-5.475
X6.75Y-5.175
X6.75Y-5.475
T6
X5.2984Y-5.5
X5.2984Y-5.7
T7
X4.7Y-4.175
X4.7Y-4.275
X4.7Y-4.375
X4.85Y-4.7
X4.85Y-4.9
X5.35Y-4.7
X5.35Y-4.9
X6.35Y-4.7
X6.35Y-4.9
X6.85Y-4.7
X6.85Y-4.9
T8
X4.6Y-4.8
X4.6504Y-5.35
X4.7Y-4.8
X4.9496Y-5.35
X5.05Y-5.7001
T9
X4.9Y-5.85
X5.Y-5.85
X5.1Y-5.85
T10
X5.45Y-5.5039
X5.45Y-5.6961
T11
X4.65Y-5.7001
T3
X4.8579Y-6.1902G85X4.8579Y-6.2098
G05
X4.9662Y-6.385G85X4.9858Y-6.385
G05
X5.0941Y-6.1902G85X5.0941Y-6.2098
G05
X6.6059Y-6.2098G85X6.6059Y-6.1902
G05
X6.7338Y-6.015G85X6.7142Y-6.015
G05
X6.8421Y-6.2098G85X6.8421Y-6.1902
G05
T0
M30
