M48
;DRILL file {KiCad 4.0.6} date Tue Mar 14 17:15:14 2017
;FORMAT={-:-/ absolute / inch / decimal}
FMAT,2
INCH,TZ
T1C0.016
T2C0.024
T3C0.028
T4C0.030
T5C0.031
T6C0.032
T7C0.032
T8C0.035
T9C0.039
T10C0.039
T11C0.045
T12C0.050
%
G90
G05
M72
T1
X0.99Y-2.64
X1.19Y-2.64
X1.31Y-1.78
X1.31Y-2.47
X1.42Y-1.54
X1.57Y-1.54
X1.58Y-2.39
X1.72Y-1.54
X1.78Y-2.12
X1.81Y-2.07
X1.84Y-2.02
X1.87Y-1.54
X1.87Y-2.07
X2.01Y-2.58
X2.02Y-1.37
X2.04Y-2.67
X2.065Y-2.14
X2.08Y-2.39
X2.09Y-3.14
X2.14Y-3.25
X2.17Y-1.53
X2.18Y-2.06
X2.3Y-2.98
X2.33Y-2.39
X2.34Y-1.91
X2.39Y-1.75
X2.4Y-2.01
X2.57Y-2.72
X2.69Y-2.49
T2
X2.7105Y-2.99
X2.7695Y-2.99
T4
X1.79Y-1.24
X1.79Y-1.84
X1.89Y-1.24
X1.89Y-1.84
X1.99Y-1.24
X1.99Y-1.84
X2.09Y-1.24
X2.09Y-1.84
X2.19Y-1.24
X2.19Y-1.84
X2.29Y-1.24
X2.29Y-1.84
X2.39Y-1.24
X2.39Y-1.84
T5
X0.89Y-3.24
X0.89Y-3.3187
X1.44Y-2.89
X1.44Y-3.09
X1.54Y-3.61
X1.54Y-3.7084
X1.7Y-2.8979
X1.7Y-3.09
X1.94Y-2.14
X1.94Y-2.24
X1.94Y-2.34
X1.94Y-2.44
X1.94Y-2.54
X1.94Y-2.64
X1.94Y-2.74
X1.94Y-2.84
X1.94Y-2.94
X1.94Y-3.04
X1.94Y-3.14
X1.94Y-3.24
X1.94Y-3.34
X1.94Y-3.44
X2.24Y-2.14
X2.24Y-2.24
X2.24Y-2.34
X2.24Y-2.44
X2.24Y-2.54
X2.24Y-2.64
X2.24Y-2.74
X2.24Y-2.84
X2.24Y-2.94
X2.24Y-3.04
X2.24Y-3.14
X2.24Y-3.24
X2.24Y-3.34
X2.24Y-3.44
X2.69Y-2.565
X2.69Y-2.865
X2.79Y-2.565
X2.79Y-2.865
X2.89Y-2.565
X2.89Y-2.865
X2.99Y-2.565
X2.99Y-2.865
T6
X1.5384Y-2.89
X1.5384Y-3.09
T7
X0.94Y-1.565
X0.94Y-1.665
X0.94Y-1.765
X1.09Y-2.09
X1.09Y-2.29
X1.59Y-2.09
X1.59Y-2.29
X2.59Y-2.09
X2.59Y-2.29
X3.09Y-2.09
X3.09Y-2.29
T8
X0.84Y-2.19
X0.94Y-2.19
T9
X1.98Y-3.85
X1.98Y-3.95
X2.08Y-3.85
X2.08Y-3.95
X2.18Y-3.85
X2.18Y-3.95
T10
X0.8904Y-2.74
X1.1896Y-2.74
X1.29Y-3.0901
T11
X1.14Y-3.24
X1.24Y-3.24
X1.34Y-3.24
T12
X0.89Y-3.0901
T3
X1.0479Y-3.6002G85X1.0479Y-3.6198
G05
X1.1562Y-3.795G85X1.1758Y-3.795
G05
X1.2841Y-3.6002G85X1.2841Y-3.6198
G05
X2.8959Y-3.5998G85X2.8959Y-3.5802
G05
X3.0238Y-3.405G85X3.0042Y-3.405
G05
X3.1321Y-3.5998G85X3.1321Y-3.5802
G05
T0
M30
