G04 #@! TF.FileFunction,Copper,L2,Bot,Signal*
%FSLAX46Y46*%
G04 Gerber Fmt 4.6, Leading zero omitted, Abs format (unit mm)*
G04 Created by KiCad (PCBNEW 4.0.4-stable) date Tuesday, November 08, 2016 'PMt' 06:58:29 PM*
%MOMM*%
%LPD*%
G01*
G04 APERTURE LIST*
%ADD10C,0.100000*%
%ADD11R,3.500120X3.500120*%
%ADD12O,1.600000X2.300000*%
%ADD13R,1.300000X1.300000*%
%ADD14C,1.300000*%
%ADD15C,1.998980*%
%ADD16R,1.998980X1.998980*%
%ADD17R,2.000000X1.900000*%
%ADD18C,1.900000*%
%ADD19O,1.600000X1.600000*%
%ADD20C,2.000000*%
%ADD21R,1.397000X1.397000*%
%ADD22C,1.397000*%
%ADD23O,1.727200X3.048000*%
%ADD24C,1.524000*%
%ADD25C,1.000760*%
%ADD26O,1.998980X2.499360*%
%ADD27O,2.032000X2.540000*%
%ADD28O,1.501140X0.899160*%
%ADD29C,0.250000*%
G04 APERTURE END LIST*
D10*
D11*
X142090140Y-113030000D03*
X136090660Y-113030000D03*
X139090400Y-117729000D03*
D12*
X156210000Y-81280000D03*
X153670000Y-81280000D03*
X151130000Y-81280000D03*
X148590000Y-81280000D03*
X148590000Y-88900000D03*
X151130000Y-88900000D03*
X153670000Y-88900000D03*
X156210000Y-88900000D03*
D13*
X149860000Y-71120000D03*
D14*
X149860000Y-68620000D03*
D13*
X154940000Y-71120000D03*
D14*
X154940000Y-68620000D03*
D11*
X204619860Y-113030000D03*
X210619340Y-113030000D03*
X207619600Y-108331000D03*
D15*
X134620000Y-96522540D03*
D16*
X144780000Y-96522540D03*
D17*
X134620000Y-71120000D03*
D18*
X134620000Y-73660000D03*
D19*
X130810000Y-59690000D03*
X133350000Y-59690000D03*
X135890000Y-59690000D03*
X138430000Y-59690000D03*
X140970000Y-59690000D03*
X143510000Y-59690000D03*
X146050000Y-59690000D03*
X148590000Y-59690000D03*
X151130000Y-59690000D03*
X153670000Y-59690000D03*
X156210000Y-59690000D03*
X158750000Y-59690000D03*
X161290000Y-59690000D03*
X163830000Y-59690000D03*
X163830000Y-52070000D03*
X161290000Y-52070000D03*
X158750000Y-52070000D03*
X156210000Y-52070000D03*
X153670000Y-52070000D03*
X151130000Y-52070000D03*
X148590000Y-52070000D03*
X146050000Y-52070000D03*
X143510000Y-52070000D03*
X140970000Y-52070000D03*
X138430000Y-52070000D03*
X135890000Y-52070000D03*
X133350000Y-52070000D03*
X130810000Y-52070000D03*
D15*
X186690000Y-110490000D03*
X194310000Y-110490000D03*
X129540000Y-87630000D03*
X137160000Y-87630000D03*
X129540000Y-91440000D03*
X137160000Y-91440000D03*
X187960000Y-67310000D03*
X187960000Y-74930000D03*
X175260000Y-41910000D03*
X182880000Y-41910000D03*
X190500000Y-67310000D03*
X190500000Y-74930000D03*
X193040000Y-67310000D03*
X193040000Y-74930000D03*
X195580000Y-67310000D03*
X195580000Y-74930000D03*
X210820000Y-41910000D03*
X203200000Y-41910000D03*
X210820000Y-44450000D03*
X203200000Y-44450000D03*
D20*
X212079840Y-73660000D03*
X204480160Y-73660000D03*
D21*
X130810000Y-63500000D03*
D22*
X130810000Y-66040000D03*
X130810000Y-68580000D03*
D23*
X191770000Y-86360000D03*
X196850000Y-86360000D03*
X191770000Y-99060000D03*
X196850000Y-99060000D03*
X205740000Y-86360000D03*
X210820000Y-86360000D03*
X205740000Y-99060000D03*
X210820000Y-99060000D03*
D24*
X193040000Y-48260000D03*
X195580000Y-48260000D03*
X198120000Y-48260000D03*
X200660000Y-48260000D03*
X193040000Y-63500000D03*
X195580000Y-63500000D03*
X198120000Y-63500000D03*
X200660000Y-63500000D03*
X190500000Y-48260000D03*
X187960000Y-48260000D03*
X185420000Y-48260000D03*
X185420000Y-63500000D03*
X187960000Y-63500000D03*
X190500000Y-63500000D03*
D25*
X154190700Y-78740000D03*
X155689300Y-78740000D03*
D26*
X154840940Y-64770000D03*
X149959060Y-64770000D03*
D15*
X185420000Y-67310000D03*
X185420000Y-74930000D03*
X175260000Y-44450000D03*
X182880000Y-44450000D03*
X129540000Y-83820000D03*
X137160000Y-83820000D03*
D27*
X139700000Y-101600000D03*
X137160000Y-101600000D03*
X142240000Y-101600000D03*
D13*
X151130000Y-100330000D03*
D14*
X151130000Y-102330000D03*
X129540000Y-102830000D03*
D13*
X129540000Y-100330000D03*
D28*
X199390000Y-109220000D03*
X199390000Y-107950000D03*
X199390000Y-110490000D03*
D29*
X139700000Y-101600000D02*
X139700000Y-105410000D01*
X148590000Y-105410000D02*
X151130000Y-102870000D01*
X139700000Y-105410000D02*
X148590000Y-105410000D01*
X151130000Y-102870000D02*
X151130000Y-102330000D01*
X129540000Y-102870000D02*
X129540000Y-102830000D01*
X130810000Y-66040000D02*
X144780000Y-66040000D01*
X144780000Y-66040000D02*
X149860000Y-71120000D01*
X149860000Y-71120000D02*
X147320000Y-68580000D01*
X147320000Y-60960000D02*
X148590000Y-59690000D01*
X147320000Y-62230000D02*
X147320000Y-60960000D01*
X147320000Y-68580000D02*
X147320000Y-62230000D01*
X149860000Y-71120000D02*
X154940000Y-71120000D01*
X148590000Y-81280000D02*
X148590000Y-72390000D01*
X148590000Y-72390000D02*
X149860000Y-71120000D01*
X139700000Y-101600000D02*
X139700000Y-83820000D01*
X139700000Y-83820000D02*
X142240000Y-81280000D01*
X142240000Y-81280000D02*
X148590000Y-81280000D01*
X156210000Y-88900000D02*
X160020000Y-88900000D01*
X160020000Y-88900000D02*
X168910000Y-80010000D01*
X168910000Y-80010000D02*
X168910000Y-59690000D01*
X168910000Y-59690000D02*
X166370000Y-57150000D01*
X166370000Y-57150000D02*
X148590000Y-57150000D01*
X148590000Y-57150000D02*
X146050000Y-59690000D01*
X151130000Y-59690000D02*
X151130000Y-63599060D01*
X151130000Y-63599060D02*
X149959060Y-64770000D01*
X149959060Y-64770000D02*
X149959060Y-68520940D01*
X149959060Y-68520940D02*
X149860000Y-68620000D01*
X154840940Y-64770000D02*
X154840940Y-68520940D01*
X154840940Y-68520940D02*
X154940000Y-68620000D01*
X153670000Y-59690000D02*
X153670000Y-63599060D01*
X153670000Y-63599060D02*
X154840940Y-64770000D01*
X130810000Y-63500000D02*
X137160000Y-63500000D01*
X138430000Y-62230000D02*
X138430000Y-59690000D01*
X137160000Y-63500000D02*
X138430000Y-62230000D01*
X186690000Y-110490000D02*
X177800000Y-110490000D01*
X138430000Y-54610000D02*
X135890000Y-52070000D01*
X165100000Y-54610000D02*
X138430000Y-54610000D01*
X170180000Y-59690000D02*
X165100000Y-54610000D01*
X170180000Y-102870000D02*
X170180000Y-59690000D01*
X177800000Y-110490000D02*
X170180000Y-102870000D01*
X186690000Y-110490000D02*
X186690000Y-110490000D01*
M02*
