G04 #@! TF.FileFunction,Legend,Top*
%FSLAX46Y46*%
G04 Gerber Fmt 4.6, Leading zero omitted, Abs format (unit mm)*
G04 Created by KiCad (PCBNEW 4.0.5) date Sat Feb  4 13:13:31 2017*
%MOMM*%
%LPD*%
G01*
G04 APERTURE LIST*
%ADD10C,0.100000*%
%ADD11C,0.200000*%
%ADD12C,0.300000*%
%ADD13C,0.150000*%
G04 APERTURE END LIST*
D10*
D11*
X155067000Y-132715000D02*
X160147000Y-132715000D01*
D12*
X157480000Y-130716571D02*
X157480000Y-129573714D01*
X157194286Y-129859429D02*
X157480000Y-129573714D01*
X157765715Y-129859429D01*
X155158571Y-131766571D02*
X156015714Y-131766571D01*
X155587143Y-133266571D02*
X155587143Y-131766571D01*
X156515714Y-133266571D02*
X156515714Y-131766571D01*
X157230000Y-133266571D02*
X157230000Y-131766571D01*
X157730000Y-132838000D01*
X158230000Y-131766571D01*
X158230000Y-133266571D01*
X158944286Y-132480857D02*
X159444286Y-132480857D01*
X159658572Y-133266571D02*
X158944286Y-133266571D01*
X158944286Y-131766571D01*
X159658572Y-131766571D01*
X154265714Y-135388000D02*
X154980000Y-135388000D01*
X154122857Y-135816571D02*
X154622857Y-134316571D01*
X155122857Y-135816571D01*
X156337143Y-135816571D02*
X155622857Y-135816571D01*
X155622857Y-134316571D01*
X156765714Y-135388000D02*
X157480000Y-135388000D01*
X156622857Y-135816571D02*
X157122857Y-134316571D01*
X157622857Y-135816571D01*
X158980000Y-135816571D02*
X158480000Y-135102286D01*
X158122857Y-135816571D02*
X158122857Y-134316571D01*
X158694285Y-134316571D01*
X158837143Y-134388000D01*
X158908571Y-134459429D01*
X158980000Y-134602286D01*
X158980000Y-134816571D01*
X158908571Y-134959429D01*
X158837143Y-135030857D01*
X158694285Y-135102286D01*
X158122857Y-135102286D01*
X159622857Y-135816571D02*
X159622857Y-134316571D01*
X160122857Y-135388000D01*
X160622857Y-134316571D01*
X160622857Y-135816571D01*
D11*
X135763000Y-135255000D02*
X143383000Y-135255000D01*
D12*
X139700000Y-129573714D02*
X139700000Y-130716571D01*
X139985715Y-130430857D02*
X139700000Y-130716571D01*
X139414286Y-130430857D01*
X137378571Y-131766571D02*
X138235714Y-131766571D01*
X137807143Y-133266571D02*
X137807143Y-131766571D01*
X138735714Y-133266571D02*
X138735714Y-131766571D01*
X139450000Y-133266571D02*
X139450000Y-131766571D01*
X139950000Y-132838000D01*
X140450000Y-131766571D01*
X140450000Y-133266571D01*
X141164286Y-132480857D02*
X141664286Y-132480857D01*
X141878572Y-133266571D02*
X141164286Y-133266571D01*
X141164286Y-131766571D01*
X141878572Y-131766571D01*
X136485714Y-135388000D02*
X137200000Y-135388000D01*
X136342857Y-135816571D02*
X136842857Y-134316571D01*
X137342857Y-135816571D01*
X138557143Y-135816571D02*
X137842857Y-135816571D01*
X137842857Y-134316571D01*
X138985714Y-135388000D02*
X139700000Y-135388000D01*
X138842857Y-135816571D02*
X139342857Y-134316571D01*
X139842857Y-135816571D01*
X141200000Y-135816571D02*
X140700000Y-135102286D01*
X140342857Y-135816571D02*
X140342857Y-134316571D01*
X140914285Y-134316571D01*
X141057143Y-134388000D01*
X141128571Y-134459429D01*
X141200000Y-134602286D01*
X141200000Y-134816571D01*
X141128571Y-134959429D01*
X141057143Y-135030857D01*
X140914285Y-135102286D01*
X140342857Y-135102286D01*
X141842857Y-135816571D02*
X141842857Y-134316571D01*
X142342857Y-135388000D01*
X142842857Y-134316571D01*
X142842857Y-135816571D01*
D13*
X161535000Y-138930000D02*
X162805000Y-138930000D01*
X161535000Y-131580000D02*
X162805000Y-131580000D01*
X173745000Y-131580000D02*
X172475000Y-131580000D01*
X173745000Y-138930000D02*
X172475000Y-138930000D01*
X161535000Y-138930000D02*
X161535000Y-131580000D01*
X173745000Y-138930000D02*
X173745000Y-131580000D01*
X162805000Y-138930000D02*
X162805000Y-140215000D01*
X139039000Y-158805000D02*
X132741000Y-158805000D01*
X139033000Y-158945000D02*
X132747000Y-158945000D01*
X139020000Y-159085000D02*
X136336000Y-159085000D01*
X135444000Y-159085000D02*
X132760000Y-159085000D01*
X139001000Y-159225000D02*
X136546000Y-159225000D01*
X135234000Y-159225000D02*
X132779000Y-159225000D01*
X138975000Y-159365000D02*
X136679000Y-159365000D01*
X135101000Y-159365000D02*
X132805000Y-159365000D01*
X138943000Y-159505000D02*
X136770000Y-159505000D01*
X135010000Y-159505000D02*
X132837000Y-159505000D01*
X138904000Y-159645000D02*
X136832000Y-159645000D01*
X134948000Y-159645000D02*
X132876000Y-159645000D01*
X138858000Y-159785000D02*
X136871000Y-159785000D01*
X134909000Y-159785000D02*
X132922000Y-159785000D01*
X138805000Y-159925000D02*
X136888000Y-159925000D01*
X134892000Y-159925000D02*
X132975000Y-159925000D01*
X138743000Y-160065000D02*
X136886000Y-160065000D01*
X134894000Y-160065000D02*
X133037000Y-160065000D01*
X138673000Y-160205000D02*
X136864000Y-160205000D01*
X134916000Y-160205000D02*
X133107000Y-160205000D01*
X138594000Y-160345000D02*
X136821000Y-160345000D01*
X134959000Y-160345000D02*
X133186000Y-160345000D01*
X138506000Y-160485000D02*
X136753000Y-160485000D01*
X135027000Y-160485000D02*
X133274000Y-160485000D01*
X138406000Y-160625000D02*
X136654000Y-160625000D01*
X135126000Y-160625000D02*
X133374000Y-160625000D01*
X138294000Y-160765000D02*
X136509000Y-160765000D01*
X135271000Y-160765000D02*
X133486000Y-160765000D01*
X138169000Y-160905000D02*
X136270000Y-160905000D01*
X135510000Y-160905000D02*
X133611000Y-160905000D01*
X138026000Y-161045000D02*
X133754000Y-161045000D01*
X137864000Y-161185000D02*
X133916000Y-161185000D01*
X137676000Y-161325000D02*
X134104000Y-161325000D01*
X137453000Y-161465000D02*
X134327000Y-161465000D01*
X137177000Y-161605000D02*
X134603000Y-161605000D01*
X136802000Y-161745000D02*
X134978000Y-161745000D01*
X136890000Y-159980000D02*
G75*
G03X136890000Y-159980000I-1000000J0D01*
G01*
X139077500Y-158730000D02*
G75*
G03X139077500Y-158730000I-3187500J0D01*
G01*
X120609000Y-149665000D02*
X115611000Y-149665000D01*
X120601000Y-149805000D02*
X118264000Y-149805000D01*
X117956000Y-149805000D02*
X115619000Y-149805000D01*
X120585000Y-149945000D02*
X118583000Y-149945000D01*
X117637000Y-149945000D02*
X115635000Y-149945000D01*
X120561000Y-150085000D02*
X118730000Y-150085000D01*
X117490000Y-150085000D02*
X115659000Y-150085000D01*
X120528000Y-150225000D02*
X118822000Y-150225000D01*
X117398000Y-150225000D02*
X115692000Y-150225000D01*
X120487000Y-150365000D02*
X118878000Y-150365000D01*
X117342000Y-150365000D02*
X115733000Y-150365000D01*
X120437000Y-150505000D02*
X118905000Y-150505000D01*
X117315000Y-150505000D02*
X115783000Y-150505000D01*
X120376000Y-150645000D02*
X118908000Y-150645000D01*
X117312000Y-150645000D02*
X115844000Y-150645000D01*
X120306000Y-150785000D02*
X118886000Y-150785000D01*
X117334000Y-150785000D02*
X115914000Y-150785000D01*
X120224000Y-150925000D02*
X118836000Y-150925000D01*
X117384000Y-150925000D02*
X115996000Y-150925000D01*
X120129000Y-151065000D02*
X118754000Y-151065000D01*
X117466000Y-151065000D02*
X116091000Y-151065000D01*
X120018000Y-151205000D02*
X118622000Y-151205000D01*
X117598000Y-151205000D02*
X116202000Y-151205000D01*
X119890000Y-151345000D02*
X118375000Y-151345000D01*
X117845000Y-151345000D02*
X116330000Y-151345000D01*
X119741000Y-151485000D02*
X116479000Y-151485000D01*
X119562000Y-151625000D02*
X116658000Y-151625000D01*
X119343000Y-151765000D02*
X116877000Y-151765000D01*
X119054000Y-151905000D02*
X117166000Y-151905000D01*
X118582000Y-152045000D02*
X117638000Y-152045000D01*
X118910000Y-150590000D02*
G75*
G03X118910000Y-150590000I-800000J0D01*
G01*
X120647500Y-149590000D02*
G75*
G03X120647500Y-149590000I-2537500J0D01*
G01*
X131830000Y-138450000D02*
X134830000Y-138450000D01*
X134830000Y-140950000D02*
X131830000Y-140950000D01*
X131830000Y-143530000D02*
X134830000Y-143530000D01*
X134830000Y-146030000D02*
X131830000Y-146030000D01*
X120650000Y-144782540D02*
X119634000Y-144782540D01*
X125476000Y-144782540D02*
X126746000Y-144782540D01*
X125222000Y-146052540D02*
X125222000Y-143512540D01*
X124968000Y-146052540D02*
X124968000Y-143512540D01*
X124714000Y-146052540D02*
X124714000Y-143512540D01*
X125476000Y-146052540D02*
X125476000Y-143512540D01*
X124460000Y-146052540D02*
X125730000Y-143512540D01*
X125730000Y-146052540D02*
X124460000Y-143512540D01*
X124460000Y-146052540D02*
X124460000Y-143512540D01*
X125095000Y-146052540D02*
X125095000Y-143512540D01*
X125730000Y-143512540D02*
X125730000Y-146052540D01*
X125730000Y-146052540D02*
X120650000Y-146052540D01*
X120650000Y-146052540D02*
X120650000Y-143512540D01*
X120650000Y-143512540D02*
X125730000Y-143512540D01*
X115625112Y-123444904D02*
G75*
G03X115610000Y-120420000I2484888J1524904D01*
G01*
X115610000Y-123420000D02*
X115610000Y-120420000D01*
X120627936Y-121920000D02*
G75*
G03X120627936Y-121920000I-2517936J0D01*
G01*
X144915000Y-118355000D02*
X144915000Y-119625000D01*
X152265000Y-118355000D02*
X152265000Y-119625000D01*
X152265000Y-155965000D02*
X152265000Y-154695000D01*
X144915000Y-155965000D02*
X144915000Y-154695000D01*
X144915000Y-118355000D02*
X152265000Y-118355000D01*
X144915000Y-155965000D02*
X152265000Y-155965000D01*
X144915000Y-119625000D02*
X143980000Y-119625000D01*
X122920760Y-135890000D02*
G75*
G03X122920760Y-135890000I-1000760J0D01*
G01*
X128120140Y-135890000D02*
G75*
G03X128120140Y-135890000I-6200140J0D01*
G01*
X120650000Y-112395000D02*
X118110000Y-112395000D01*
X118110000Y-112395000D02*
X118110000Y-104775000D01*
X118110000Y-104775000D02*
X120650000Y-104775000D01*
X120650000Y-104775000D02*
X120650000Y-112395000D01*
X118110000Y-109855000D02*
X120650000Y-109855000D01*
X134119050Y-121920000D02*
G75*
G03X134119050Y-121920000I-4579050J0D01*
G01*
X123190000Y-115570000D02*
X135890000Y-115570000D01*
X135890000Y-115570000D02*
X135890000Y-128270000D01*
X135890000Y-128270000D02*
X123190000Y-128270000D01*
X123190000Y-128270000D02*
X123190000Y-115570000D01*
X172219050Y-121920000D02*
G75*
G03X172219050Y-121920000I-4579050J0D01*
G01*
X161290000Y-115570000D02*
X173990000Y-115570000D01*
X173990000Y-115570000D02*
X173990000Y-128270000D01*
X173990000Y-128270000D02*
X161290000Y-128270000D01*
X161290000Y-128270000D02*
X161290000Y-115570000D01*
X122174000Y-150241000D02*
X122174000Y-146812000D01*
X131826000Y-150241000D02*
X131826000Y-146812000D01*
X121666000Y-151384000D02*
X132334000Y-151384000D01*
X125222000Y-150368000D02*
X125222000Y-151638000D01*
X128778000Y-150368000D02*
X128778000Y-151638000D01*
X132334000Y-150241000D02*
X121666000Y-150241000D01*
X121666000Y-146812000D02*
X132334000Y-146812000D01*
X132334000Y-151638000D02*
X132334000Y-146812000D01*
X121666000Y-151638000D02*
X121666000Y-146812000D01*
X121666000Y-151638000D02*
X132334000Y-151638000D01*
X148590000Y-95885000D02*
X123190000Y-95885000D01*
X123190000Y-95885000D02*
X123190000Y-114935000D01*
X123190000Y-114935000D02*
X173990000Y-114935000D01*
X173990000Y-114935000D02*
X173990000Y-95885000D01*
X173990000Y-95885000D02*
X148590000Y-95885000D01*
X137429240Y-137541000D02*
X137830560Y-137340340D01*
X137830560Y-137340340D02*
X138430000Y-137238740D01*
X138430000Y-137238740D02*
X138930380Y-137340340D01*
X138930380Y-137340340D02*
X139628880Y-137739120D01*
X139628880Y-137739120D02*
X140030200Y-138341100D01*
X140030200Y-138341100D02*
X140230860Y-138940540D01*
X140230860Y-138940540D02*
X140230860Y-145539460D01*
X140230860Y-145539460D02*
X140030200Y-146240500D01*
X140030200Y-146240500D02*
X139730480Y-146639280D01*
X139730480Y-146639280D02*
X139230100Y-147040600D01*
X139230100Y-147040600D02*
X138630660Y-147241260D01*
X138630660Y-147241260D02*
X138130280Y-147241260D01*
X138130280Y-147241260D02*
X137629900Y-147040600D01*
X137629900Y-147040600D02*
X137030460Y-146540220D01*
X137030460Y-146540220D02*
X136730740Y-146039840D01*
X136730740Y-146039840D02*
X136629140Y-145539460D01*
X136629140Y-145440400D02*
X136629140Y-138838940D01*
X136629140Y-138838940D02*
X136730740Y-138440160D01*
X136730740Y-138440160D02*
X137030460Y-137939780D01*
X137030460Y-137939780D02*
X137530840Y-137439400D01*
X136100820Y-145430240D02*
X136149080Y-145889980D01*
X136149080Y-145889980D02*
X136260840Y-146288760D01*
X136260840Y-146288760D02*
X136479280Y-146720560D01*
X136479280Y-146720560D02*
X136710420Y-147010120D01*
X136710420Y-147010120D02*
X137060940Y-147340320D01*
X137060940Y-147340320D02*
X137599420Y-147629880D01*
X137599420Y-147629880D02*
X138198860Y-147759420D01*
X138198860Y-147759420D02*
X138709400Y-147759420D01*
X138709400Y-147759420D02*
X139410440Y-147589240D01*
X139410440Y-147589240D02*
X139999720Y-147190460D01*
X139999720Y-147190460D02*
X140370560Y-146730720D01*
X140370560Y-146730720D02*
X140578840Y-146309080D01*
X140578840Y-146309080D02*
X140738860Y-145859500D01*
X140738860Y-145859500D02*
X140769340Y-145420080D01*
X140550900Y-138079480D02*
X140329920Y-137701020D01*
X140329920Y-137701020D02*
X140050520Y-137380980D01*
X140050520Y-137380980D02*
X139720320Y-137129520D01*
X139720320Y-137129520D02*
X139169140Y-136829800D01*
X139169140Y-136829800D02*
X138699240Y-136720580D01*
X138699240Y-136720580D02*
X138239500Y-136700260D01*
X138239500Y-136700260D02*
X137779760Y-136789160D01*
X137779760Y-136789160D02*
X137330180Y-136979660D01*
X137330180Y-136979660D02*
X136860280Y-137340340D01*
X136860280Y-137340340D02*
X136540240Y-137690860D01*
X136540240Y-137690860D02*
X136309100Y-138079480D01*
X136309100Y-138079480D02*
X136169400Y-138508740D01*
X136169400Y-138508740D02*
X136100820Y-138950700D01*
X140759180Y-145440400D02*
X140759180Y-138988800D01*
X140759180Y-138988800D02*
X140721080Y-138569700D01*
X140721080Y-138569700D02*
X140550900Y-138079480D01*
X136100820Y-145440400D02*
X136100820Y-138988800D01*
X165399720Y-143489680D02*
X165498780Y-143189960D01*
X164800280Y-143489680D02*
X164701220Y-143189960D01*
X164200840Y-143489680D02*
X164200840Y-148539200D01*
X164200840Y-148539200D02*
X165999160Y-148539200D01*
X165999160Y-148539200D02*
X165999160Y-143489680D01*
X164200840Y-143489680D02*
X165999160Y-143489680D01*
X177990500Y-161980880D02*
X177990500Y-152979120D01*
X181490620Y-161980880D02*
X181490620Y-152979120D01*
X181490620Y-152979120D02*
X166989760Y-152979120D01*
X166989760Y-152979120D02*
X166989760Y-161980880D01*
X166989760Y-161980880D02*
X181490620Y-161980880D01*
X119189500Y-152979120D02*
X119189500Y-161980880D01*
X115689380Y-152979120D02*
X115689380Y-161980880D01*
X115689380Y-161980880D02*
X130190240Y-161980880D01*
X130190240Y-161980880D02*
X130190240Y-152979120D01*
X130190240Y-152979120D02*
X115689380Y-152979120D01*
X166878095Y-134707381D02*
X166878095Y-135516905D01*
X166925714Y-135612143D01*
X166973333Y-135659762D01*
X167068571Y-135707381D01*
X167259048Y-135707381D01*
X167354286Y-135659762D01*
X167401905Y-135612143D01*
X167449524Y-135516905D01*
X167449524Y-134707381D01*
X167878095Y-134802619D02*
X167925714Y-134755000D01*
X168020952Y-134707381D01*
X168259048Y-134707381D01*
X168354286Y-134755000D01*
X168401905Y-134802619D01*
X168449524Y-134897857D01*
X168449524Y-134993095D01*
X168401905Y-135135952D01*
X167830476Y-135707381D01*
X168449524Y-135707381D01*
X121816905Y-145232381D02*
X121816905Y-144232381D01*
X122055000Y-144232381D01*
X122197858Y-144280000D01*
X122293096Y-144375238D01*
X122340715Y-144470476D01*
X122388334Y-144660952D01*
X122388334Y-144803810D01*
X122340715Y-144994286D01*
X122293096Y-145089524D01*
X122197858Y-145184762D01*
X122055000Y-145232381D01*
X121816905Y-145232381D01*
X123340715Y-145232381D02*
X122769286Y-145232381D01*
X123055000Y-145232381D02*
X123055000Y-144232381D01*
X122959762Y-144375238D01*
X122864524Y-144470476D01*
X122769286Y-144518095D01*
X117371905Y-120467381D02*
X117371905Y-119467381D01*
X117610000Y-119467381D01*
X117752858Y-119515000D01*
X117848096Y-119610238D01*
X117895715Y-119705476D01*
X117943334Y-119895952D01*
X117943334Y-120038810D01*
X117895715Y-120229286D01*
X117848096Y-120324524D01*
X117752858Y-120419762D01*
X117610000Y-120467381D01*
X117371905Y-120467381D01*
X118324286Y-119562619D02*
X118371905Y-119515000D01*
X118467143Y-119467381D01*
X118705239Y-119467381D01*
X118800477Y-119515000D01*
X118848096Y-119562619D01*
X118895715Y-119657857D01*
X118895715Y-119753095D01*
X118848096Y-119895952D01*
X118276667Y-120467381D01*
X118895715Y-120467381D01*
X117848095Y-124277381D02*
X117848095Y-123277381D01*
X118419524Y-124277381D02*
X117990952Y-123705952D01*
X118419524Y-123277381D02*
X117848095Y-123848810D01*
X147613810Y-119832381D02*
X147613810Y-118832381D01*
X148661429Y-119737143D02*
X148613810Y-119784762D01*
X148470953Y-119832381D01*
X148375715Y-119832381D01*
X148232857Y-119784762D01*
X148137619Y-119689524D01*
X148090000Y-119594286D01*
X148042381Y-119403810D01*
X148042381Y-119260952D01*
X148090000Y-119070476D01*
X148137619Y-118975238D01*
X148232857Y-118880000D01*
X148375715Y-118832381D01*
X148470953Y-118832381D01*
X148613810Y-118880000D01*
X148661429Y-118927619D01*
X149613810Y-119832381D02*
X149042381Y-119832381D01*
X149328095Y-119832381D02*
X149328095Y-118832381D01*
X149232857Y-118975238D01*
X149137619Y-119070476D01*
X149042381Y-119118095D01*
X120658095Y-138834762D02*
X120800952Y-138882381D01*
X121039048Y-138882381D01*
X121134286Y-138834762D01*
X121181905Y-138787143D01*
X121229524Y-138691905D01*
X121229524Y-138596667D01*
X121181905Y-138501429D01*
X121134286Y-138453810D01*
X121039048Y-138406190D01*
X120848571Y-138358571D01*
X120753333Y-138310952D01*
X120705714Y-138263333D01*
X120658095Y-138168095D01*
X120658095Y-138072857D01*
X120705714Y-137977619D01*
X120753333Y-137930000D01*
X120848571Y-137882381D01*
X121086667Y-137882381D01*
X121229524Y-137930000D01*
X121658095Y-138882381D02*
X121658095Y-137882381D01*
X122039048Y-137882381D01*
X122134286Y-137930000D01*
X122181905Y-137977619D01*
X122229524Y-138072857D01*
X122229524Y-138215714D01*
X122181905Y-138310952D01*
X122134286Y-138358571D01*
X122039048Y-138406190D01*
X121658095Y-138406190D01*
X123181905Y-138882381D02*
X122610476Y-138882381D01*
X122896190Y-138882381D02*
X122896190Y-137882381D01*
X122800952Y-138025238D01*
X122705714Y-138120476D01*
X122610476Y-138168095D01*
X125349048Y-138501429D02*
X126110953Y-138501429D01*
X125730001Y-138882381D02*
X125730001Y-138120476D01*
X128206667Y-121562762D02*
X128349524Y-121610381D01*
X128587620Y-121610381D01*
X128682858Y-121562762D01*
X128730477Y-121515143D01*
X128778096Y-121419905D01*
X128778096Y-121324667D01*
X128730477Y-121229429D01*
X128682858Y-121181810D01*
X128587620Y-121134190D01*
X128397143Y-121086571D01*
X128301905Y-121038952D01*
X128254286Y-120991333D01*
X128206667Y-120896095D01*
X128206667Y-120800857D01*
X128254286Y-120705619D01*
X128301905Y-120658000D01*
X128397143Y-120610381D01*
X128635239Y-120610381D01*
X128778096Y-120658000D01*
X129111429Y-120610381D02*
X129349524Y-121610381D01*
X129540001Y-120896095D01*
X129730477Y-121610381D01*
X129968572Y-120610381D01*
X130301905Y-120705619D02*
X130349524Y-120658000D01*
X130444762Y-120610381D01*
X130682858Y-120610381D01*
X130778096Y-120658000D01*
X130825715Y-120705619D01*
X130873334Y-120800857D01*
X130873334Y-120896095D01*
X130825715Y-121038952D01*
X130254286Y-121610381D01*
X130873334Y-121610381D01*
X166306667Y-121562762D02*
X166449524Y-121610381D01*
X166687620Y-121610381D01*
X166782858Y-121562762D01*
X166830477Y-121515143D01*
X166878096Y-121419905D01*
X166878096Y-121324667D01*
X166830477Y-121229429D01*
X166782858Y-121181810D01*
X166687620Y-121134190D01*
X166497143Y-121086571D01*
X166401905Y-121038952D01*
X166354286Y-120991333D01*
X166306667Y-120896095D01*
X166306667Y-120800857D01*
X166354286Y-120705619D01*
X166401905Y-120658000D01*
X166497143Y-120610381D01*
X166735239Y-120610381D01*
X166878096Y-120658000D01*
X167211429Y-120610381D02*
X167449524Y-121610381D01*
X167640001Y-120896095D01*
X167830477Y-121610381D01*
X168068572Y-120610381D01*
X168354286Y-120610381D02*
X168973334Y-120610381D01*
X168640000Y-120991333D01*
X168782858Y-120991333D01*
X168878096Y-121038952D01*
X168925715Y-121086571D01*
X168973334Y-121181810D01*
X168973334Y-121419905D01*
X168925715Y-121515143D01*
X168878096Y-121562762D01*
X168782858Y-121610381D01*
X168497143Y-121610381D01*
X168401905Y-121562762D01*
X168354286Y-121515143D01*
X124968095Y-98512381D02*
X124968095Y-99321905D01*
X125015714Y-99417143D01*
X125063333Y-99464762D01*
X125158571Y-99512381D01*
X125349048Y-99512381D01*
X125444286Y-99464762D01*
X125491905Y-99417143D01*
X125539524Y-99321905D01*
X125539524Y-98512381D01*
X125920476Y-98512381D02*
X126539524Y-98512381D01*
X126206190Y-98893333D01*
X126349048Y-98893333D01*
X126444286Y-98940952D01*
X126491905Y-98988571D01*
X126539524Y-99083810D01*
X126539524Y-99321905D01*
X126491905Y-99417143D01*
X126444286Y-99464762D01*
X126349048Y-99512381D01*
X126063333Y-99512381D01*
X125968095Y-99464762D01*
X125920476Y-99417143D01*
X137953809Y-142216190D02*
X137953809Y-142692381D01*
X137620476Y-141692381D02*
X137953809Y-142216190D01*
X138287143Y-141692381D01*
X138572857Y-141787619D02*
X138620476Y-141740000D01*
X138715714Y-141692381D01*
X138953810Y-141692381D01*
X139049048Y-141740000D01*
X139096667Y-141787619D01*
X139144286Y-141882857D01*
X139144286Y-141978095D01*
X139096667Y-142120952D01*
X138525238Y-142692381D01*
X139144286Y-142692381D01*
X165076190Y-147796191D02*
X165552381Y-147796191D01*
X164552381Y-148129524D02*
X165076190Y-147796191D01*
X164552381Y-147462857D01*
X165552381Y-146605714D02*
X165552381Y-147177143D01*
X165552381Y-146891429D02*
X164552381Y-146891429D01*
X164695238Y-146986667D01*
X164790476Y-147081905D01*
X164838095Y-147177143D01*
X180062143Y-158694285D02*
X180109762Y-158741904D01*
X180157381Y-158884761D01*
X180157381Y-158979999D01*
X180109762Y-159122857D01*
X180014524Y-159218095D01*
X179919286Y-159265714D01*
X179728810Y-159313333D01*
X179585952Y-159313333D01*
X179395476Y-159265714D01*
X179300238Y-159218095D01*
X179205000Y-159122857D01*
X179157381Y-158979999D01*
X179157381Y-158884761D01*
X179205000Y-158741904D01*
X179252619Y-158694285D01*
X179157381Y-158075238D02*
X179157381Y-157884761D01*
X179205000Y-157789523D01*
X179300238Y-157694285D01*
X179490714Y-157646666D01*
X179824048Y-157646666D01*
X180014524Y-157694285D01*
X180109762Y-157789523D01*
X180157381Y-157884761D01*
X180157381Y-158075238D01*
X180109762Y-158170476D01*
X180014524Y-158265714D01*
X179824048Y-158313333D01*
X179490714Y-158313333D01*
X179300238Y-158265714D01*
X179205000Y-158170476D01*
X179157381Y-158075238D01*
X180157381Y-157218095D02*
X179157381Y-157218095D01*
X180157381Y-156646666D01*
X179157381Y-156646666D01*
X179252619Y-156218095D02*
X179205000Y-156170476D01*
X179157381Y-156075238D01*
X179157381Y-155837142D01*
X179205000Y-155741904D01*
X179252619Y-155694285D01*
X179347857Y-155646666D01*
X179443095Y-155646666D01*
X179585952Y-155694285D01*
X180157381Y-156265714D01*
X180157381Y-155646666D01*
X117832143Y-158694285D02*
X117879762Y-158741904D01*
X117927381Y-158884761D01*
X117927381Y-158979999D01*
X117879762Y-159122857D01*
X117784524Y-159218095D01*
X117689286Y-159265714D01*
X117498810Y-159313333D01*
X117355952Y-159313333D01*
X117165476Y-159265714D01*
X117070238Y-159218095D01*
X116975000Y-159122857D01*
X116927381Y-158979999D01*
X116927381Y-158884761D01*
X116975000Y-158741904D01*
X117022619Y-158694285D01*
X116927381Y-158075238D02*
X116927381Y-157884761D01*
X116975000Y-157789523D01*
X117070238Y-157694285D01*
X117260714Y-157646666D01*
X117594048Y-157646666D01*
X117784524Y-157694285D01*
X117879762Y-157789523D01*
X117927381Y-157884761D01*
X117927381Y-158075238D01*
X117879762Y-158170476D01*
X117784524Y-158265714D01*
X117594048Y-158313333D01*
X117260714Y-158313333D01*
X117070238Y-158265714D01*
X116975000Y-158170476D01*
X116927381Y-158075238D01*
X117927381Y-157218095D02*
X116927381Y-157218095D01*
X117927381Y-156646666D01*
X116927381Y-156646666D01*
X117927381Y-155646666D02*
X117927381Y-156218095D01*
X117927381Y-155932381D02*
X116927381Y-155932381D01*
X117070238Y-156027619D01*
X117165476Y-156122857D01*
X117213095Y-156218095D01*
M02*
