G04 #@! TF.FileFunction,Copper,L1,Top,Signal*
%FSLAX46Y46*%
G04 Gerber Fmt 4.6, Leading zero omitted, Abs format (unit mm)*
G04 Created by KiCad (PCBNEW 4.0.5) date Sat Feb  4 14:15:58 2017*
%MOMM*%
%LPD*%
G01*
G04 APERTURE LIST*
%ADD10C,0.100000*%
%ADD11O,3.048000X1.727200*%
%ADD12O,1.600000X2.300000*%
%ADD13C,1.300000*%
%ADD14R,1.300000X1.300000*%
%ADD15C,1.998980*%
%ADD16R,1.998980X1.998980*%
%ADD17C,2.000000*%
%ADD18R,1.397000X1.397000*%
%ADD19C,1.397000*%
%ADD20O,2.032000X2.540000*%
%ADD21C,1.524000*%
%ADD22C,1.000760*%
%ADD23C,1.500000*%
%ADD24R,1.800000X1.800000*%
%ADD25C,1.800000*%
%ADD26R,1.600000X1.600000*%
%ADD27O,1.600000X1.600000*%
%ADD28R,1.700000X1.700000*%
%ADD29O,1.700000X1.700000*%
%ADD30R,1.000000X1.600000*%
%ADD31R,1.600000X1.000000*%
%ADD32C,0.600000*%
%ADD33C,0.250000*%
%ADD34C,0.254000*%
G04 APERTURE END LIST*
D10*
D11*
X173990000Y-119380000D03*
X173990000Y-124460000D03*
X161290000Y-119380000D03*
X161290000Y-124460000D03*
D12*
X163830000Y-139065000D03*
X166370000Y-139065000D03*
X168910000Y-139065000D03*
X171450000Y-139065000D03*
X171450000Y-131445000D03*
X168910000Y-131445000D03*
X166370000Y-131445000D03*
X163830000Y-131445000D03*
D13*
X134620000Y-160488000D03*
D14*
X134620000Y-157988000D03*
X118110000Y-148590000D03*
D13*
X118110000Y-150590000D03*
D14*
X132080000Y-139700000D03*
D13*
X134580000Y-139700000D03*
D14*
X132080000Y-144780000D03*
D13*
X134580000Y-144780000D03*
D15*
X118110000Y-144782540D03*
D16*
X128270000Y-144782540D03*
D17*
X125719840Y-135890000D03*
X118120160Y-135890000D03*
D18*
X119380000Y-111125000D03*
D19*
X119380000Y-108585000D03*
X119380000Y-106045000D03*
D20*
X127000000Y-148590000D03*
X124460000Y-148590000D03*
X129540000Y-148590000D03*
D21*
X148590000Y-97790000D03*
X151130000Y-97790000D03*
X153670000Y-97790000D03*
X156210000Y-97790000D03*
X148590000Y-113030000D03*
X151130000Y-113030000D03*
X153670000Y-113030000D03*
X156210000Y-113030000D03*
X146050000Y-97790000D03*
X143510000Y-97790000D03*
X140970000Y-97790000D03*
X140970000Y-113030000D03*
X143510000Y-113030000D03*
X146050000Y-113030000D03*
D22*
X165849300Y-142240000D03*
X164350700Y-142240000D03*
D23*
X138684000Y-144780000D03*
X138684000Y-139900000D03*
D24*
X116840000Y-121920000D03*
D25*
X119380000Y-121920000D03*
D26*
X144780000Y-120650000D03*
D27*
X152400000Y-153670000D03*
X144780000Y-123190000D03*
X152400000Y-151130000D03*
X144780000Y-125730000D03*
X152400000Y-148590000D03*
X144780000Y-128270000D03*
X152400000Y-146050000D03*
X144780000Y-130810000D03*
X152400000Y-143510000D03*
X144780000Y-133350000D03*
X152400000Y-140970000D03*
X144780000Y-135890000D03*
X152400000Y-138430000D03*
X144780000Y-138430000D03*
X152400000Y-135890000D03*
X144780000Y-140970000D03*
X152400000Y-133350000D03*
X144780000Y-143510000D03*
X152400000Y-130810000D03*
X144780000Y-146050000D03*
X152400000Y-128270000D03*
X144780000Y-148590000D03*
X152400000Y-125730000D03*
X144780000Y-151130000D03*
X152400000Y-123190000D03*
X144780000Y-153670000D03*
X152400000Y-120650000D03*
D28*
X150876000Y-164084000D03*
D29*
X150876000Y-166624000D03*
X148336000Y-164084000D03*
X148336000Y-166624000D03*
X145796000Y-164084000D03*
X145796000Y-166624000D03*
D11*
X135890000Y-119380000D03*
X135890000Y-124460000D03*
X123190000Y-119380000D03*
X123190000Y-124460000D03*
D30*
X169059860Y-157480000D03*
X175059340Y-157480000D03*
D31*
X172059600Y-152781000D03*
D30*
X128120140Y-157988000D03*
X122120660Y-157988000D03*
D31*
X125120400Y-162687000D03*
D32*
X156210000Y-122428000D03*
X148336000Y-137414000D03*
X158435000Y-153990000D03*
X128270000Y-130810000D03*
X156845000Y-137160000D03*
X120650000Y-133350000D03*
X148590000Y-105410000D03*
X139700000Y-111760000D03*
X138430000Y-111760000D03*
X144780000Y-105410000D03*
X137160000Y-111760000D03*
X137160000Y-105410000D03*
X133350000Y-105410000D03*
X135890000Y-111760000D03*
X134620000Y-111760000D03*
X129540000Y-105410000D03*
X150251000Y-148844000D03*
X154305000Y-127635000D03*
X140970000Y-105410000D03*
X159385000Y-136525000D03*
X156845000Y-139065000D03*
X151130000Y-118745000D03*
X156210000Y-111125000D03*
X139700000Y-129540000D03*
X147955000Y-128270000D03*
X163830000Y-129540000D03*
X146558000Y-131826000D03*
X147955000Y-120650000D03*
X137795000Y-128270000D03*
D33*
X118110000Y-150590000D02*
X125000000Y-150590000D01*
X125000000Y-150590000D02*
X127000000Y-148590000D01*
X122120660Y-157988000D02*
X122120660Y-159687260D01*
X122120660Y-159687260D02*
X125120400Y-162687000D01*
X122120660Y-157988000D02*
X122120660Y-153469340D01*
X122120660Y-153469340D02*
X127000000Y-148590000D01*
X173990000Y-124460000D02*
X174498000Y-124460000D01*
X174498000Y-124460000D02*
X174752000Y-124714000D01*
X174752000Y-124714000D02*
X174752000Y-135763000D01*
X174752000Y-135763000D02*
X171450000Y-139065000D01*
X156210000Y-113030000D02*
X156210000Y-122428000D01*
X123190000Y-124460000D02*
X123190000Y-122682000D01*
X117602000Y-110363000D02*
X119380000Y-108585000D01*
X117602000Y-117094000D02*
X117602000Y-110363000D01*
X123190000Y-122682000D02*
X117602000Y-117094000D01*
X158115000Y-137160000D02*
X169545000Y-137160000D01*
X169545000Y-137160000D02*
X171450000Y-139065000D01*
X134620000Y-160488000D02*
X134620000Y-160528000D01*
X134620000Y-160528000D02*
X140716000Y-166624000D01*
X140716000Y-166624000D02*
X145796000Y-166624000D01*
X125120400Y-162687000D02*
X132421000Y-162687000D01*
X132421000Y-162687000D02*
X134620000Y-160488000D01*
X149860000Y-135890000D02*
X148336000Y-137414000D01*
X158115000Y-153670000D02*
X158115000Y-137160000D01*
X158435000Y-153990000D02*
X158115000Y-153670000D01*
X128270000Y-130810000D02*
X128270000Y-129540000D01*
X128270000Y-129540000D02*
X133350000Y-124460000D01*
X128270000Y-129540000D02*
X123190000Y-124460000D01*
X144780000Y-138430000D02*
X140335000Y-138430000D01*
X139700000Y-137795000D02*
X132715000Y-137795000D01*
X140335000Y-138430000D02*
X139700000Y-137795000D01*
X158115000Y-136525000D02*
X158115000Y-137160000D01*
X152400000Y-135890000D02*
X157480000Y-135890000D01*
X157480000Y-135890000D02*
X158115000Y-136525000D01*
X152400000Y-135890000D02*
X152400000Y-136525000D01*
X149860000Y-135890000D02*
X152400000Y-135890000D01*
X133350000Y-124460000D02*
X135890000Y-124460000D01*
X132080000Y-139700000D02*
X132080000Y-144780000D01*
X132080000Y-139700000D02*
X132080000Y-138430000D01*
X132080000Y-138430000D02*
X132715000Y-137795000D01*
X115570000Y-138440160D02*
X118120160Y-135890000D01*
X125000000Y-150590000D02*
X127000000Y-148590000D01*
X118110000Y-150590000D02*
X116300000Y-150590000D01*
X115570000Y-149860000D02*
X115570000Y-138440160D01*
X116300000Y-150590000D02*
X115570000Y-149860000D01*
X128120140Y-157988000D02*
X134620000Y-157988000D01*
X129540000Y-148590000D02*
X129540000Y-156568140D01*
X129540000Y-156568140D02*
X128120140Y-157988000D01*
X129540000Y-148590000D02*
X129540000Y-146052540D01*
X129390140Y-148739860D02*
X129540000Y-148590000D01*
X129540000Y-146052540D02*
X128270000Y-144782540D01*
X152400000Y-140970000D02*
X153035000Y-140970000D01*
X153035000Y-140970000D02*
X156845000Y-137160000D01*
X144780000Y-135890000D02*
X128270000Y-135890000D01*
X125730000Y-133350000D02*
X120650000Y-133350000D01*
X128270000Y-135890000D02*
X125730000Y-133350000D01*
X118110000Y-148590000D02*
X118110000Y-144782540D01*
X118110000Y-148590000D02*
X124460000Y-148590000D01*
X144780000Y-140970000D02*
X139600940Y-140970000D01*
X139600940Y-140970000D02*
X138430000Y-139799060D01*
X134580000Y-139700000D02*
X138330940Y-139700000D01*
X138330940Y-139700000D02*
X138430000Y-139799060D01*
X134580000Y-144780000D02*
X138330940Y-144780000D01*
X138330940Y-144780000D02*
X139600940Y-143510000D01*
X139600940Y-143510000D02*
X144780000Y-143510000D01*
X144680940Y-143410940D02*
X144780000Y-143510000D01*
X138330940Y-144780000D02*
X138430000Y-144680940D01*
X144780000Y-130810000D02*
X147955000Y-130810000D01*
X149225000Y-129540000D02*
X149225000Y-119380000D01*
X147955000Y-130810000D02*
X149225000Y-129540000D01*
X153670000Y-114935000D02*
X153670000Y-113030000D01*
X149225000Y-119380000D02*
X153670000Y-114935000D01*
X142240000Y-111760000D02*
X139700000Y-111760000D01*
X142240000Y-111760000D02*
X148590000Y-105410000D01*
X138430000Y-111760000D02*
X144780000Y-105410000D01*
X137160000Y-111760000D02*
X137160000Y-105410000D01*
X133350000Y-109220000D02*
X133350000Y-105410000D01*
X135890000Y-111760000D02*
X133350000Y-109220000D01*
X129540000Y-106680000D02*
X129540000Y-105410000D01*
X134620000Y-111760000D02*
X129540000Y-106680000D01*
X174625000Y-93980000D02*
X179705000Y-99060000D01*
X179705000Y-159385000D02*
X175895000Y-163195000D01*
X179705000Y-99060000D02*
X179705000Y-159385000D01*
X156845000Y-163195000D02*
X175895000Y-163195000D01*
X152400000Y-153670000D02*
X152400000Y-158750000D01*
X152400000Y-158750000D02*
X156845000Y-163195000D01*
X140970000Y-97790000D02*
X144780000Y-93980000D01*
X144780000Y-93980000D02*
X174625000Y-93980000D01*
X148336000Y-166624000D02*
X149511001Y-165448999D01*
X149511001Y-165448999D02*
X149511001Y-149583999D01*
X149511001Y-149583999D02*
X150251000Y-148844000D01*
X154305000Y-127635000D02*
X154305000Y-116205000D01*
X154940000Y-115570000D02*
X154305000Y-116205000D01*
X154940000Y-103505000D02*
X154940000Y-115570000D01*
X152400000Y-100965000D02*
X154940000Y-103505000D01*
X145415000Y-100965000D02*
X152400000Y-100965000D01*
X140970000Y-105410000D02*
X145415000Y-100965000D01*
X152400000Y-147955000D02*
X152400000Y-148590000D01*
X158115000Y-161925000D02*
X174625000Y-161925000D01*
X178435000Y-99060000D02*
X173990000Y-94615000D01*
X178435000Y-158115000D02*
X178435000Y-99060000D01*
X174625000Y-161925000D02*
X178435000Y-158115000D01*
X154305000Y-158115000D02*
X158115000Y-161925000D01*
X154305000Y-147320000D02*
X154305000Y-158115000D01*
X173990000Y-94615000D02*
X151765000Y-94615000D01*
X150876000Y-164084000D02*
X150876000Y-147574000D01*
X150876000Y-147574000D02*
X152400000Y-146050000D01*
X148590000Y-97790000D02*
X151765000Y-94615000D01*
X154305000Y-147320000D02*
X153035000Y-146050000D01*
X153035000Y-146050000D02*
X152400000Y-146050000D01*
X148336000Y-164084000D02*
X148336000Y-147574000D01*
X148336000Y-147574000D02*
X152400000Y-143510000D01*
X152400000Y-143510000D02*
X156845000Y-139065000D01*
X151130000Y-97790000D02*
X158115000Y-104775000D01*
X158115000Y-135255000D02*
X159385000Y-136525000D01*
X158115000Y-104775000D02*
X158115000Y-135255000D01*
X150495000Y-131445000D02*
X152400000Y-133350000D01*
X150495000Y-119380000D02*
X151130000Y-118745000D01*
X150495000Y-131445000D02*
X150495000Y-119380000D01*
X157480000Y-112395000D02*
X156210000Y-111125000D01*
X157480000Y-112395000D02*
X157480000Y-125730000D01*
X152400000Y-130810000D02*
X157480000Y-125730000D01*
X146685000Y-129540000D02*
X139700000Y-129540000D01*
X146685000Y-129540000D02*
X147955000Y-128270000D01*
X171450000Y-131445000D02*
X171450000Y-130810000D01*
X171450000Y-130810000D02*
X170180000Y-129540000D01*
X170180000Y-129540000D02*
X163830000Y-129540000D01*
X164350700Y-142240000D02*
X164350700Y-139585700D01*
X164350700Y-139585700D02*
X163830000Y-139065000D01*
X165849300Y-142240000D02*
X165849300Y-139585700D01*
X165849300Y-139585700D02*
X166370000Y-139065000D01*
X146558000Y-153557002D02*
X146558000Y-131826000D01*
X145796000Y-164084000D02*
X145796000Y-154319002D01*
X145796000Y-154319002D02*
X146558000Y-153557002D01*
X116840000Y-121920000D02*
X116738400Y-121920000D01*
X135890000Y-119380000D02*
X138430000Y-119380000D01*
X142240000Y-123190000D02*
X144780000Y-123190000D01*
X138430000Y-119380000D02*
X142240000Y-123190000D01*
X123190000Y-119380000D02*
X135890000Y-119380000D01*
X144780000Y-125730000D02*
X147320000Y-125730000D01*
X147320000Y-125730000D02*
X147955000Y-125095000D01*
X147955000Y-125095000D02*
X147955000Y-120650000D01*
X161290000Y-119380000D02*
X173990000Y-119380000D01*
X144780000Y-128270000D02*
X137795000Y-128270000D01*
D34*
G36*
X182195000Y-170130000D02*
X114985000Y-170130000D01*
X114985000Y-167554815D01*
X115974630Y-167554815D01*
X116298980Y-168339800D01*
X116899041Y-168940909D01*
X117683459Y-169266628D01*
X118532815Y-169267370D01*
X119317800Y-168943020D01*
X119918909Y-168342959D01*
X120244628Y-167558541D01*
X120245370Y-166709185D01*
X119921020Y-165924200D01*
X119320959Y-165323091D01*
X118536541Y-164997372D01*
X117687185Y-164996630D01*
X116902200Y-165320980D01*
X116301091Y-165921041D01*
X115975372Y-166705459D01*
X115974630Y-167554815D01*
X114985000Y-167554815D01*
X114985000Y-162972750D01*
X123685400Y-162972750D01*
X123685400Y-163313310D01*
X123782073Y-163546699D01*
X123960702Y-163725327D01*
X124194091Y-163822000D01*
X124834650Y-163822000D01*
X124993400Y-163663250D01*
X124993400Y-162814000D01*
X125247400Y-162814000D01*
X125247400Y-163663250D01*
X125406150Y-163822000D01*
X126046709Y-163822000D01*
X126280098Y-163725327D01*
X126458727Y-163546699D01*
X126555400Y-163313310D01*
X126555400Y-162972750D01*
X126396650Y-162814000D01*
X125247400Y-162814000D01*
X124993400Y-162814000D01*
X123844150Y-162814000D01*
X123685400Y-162972750D01*
X114985000Y-162972750D01*
X114985000Y-162060690D01*
X123685400Y-162060690D01*
X123685400Y-162401250D01*
X123844150Y-162560000D01*
X124993400Y-162560000D01*
X124993400Y-161710750D01*
X125247400Y-161710750D01*
X125247400Y-162560000D01*
X126396650Y-162560000D01*
X126555400Y-162401250D01*
X126555400Y-162060690D01*
X126458727Y-161827301D01*
X126280098Y-161648673D01*
X126046709Y-161552000D01*
X125406150Y-161552000D01*
X125247400Y-161710750D01*
X124993400Y-161710750D01*
X124834650Y-161552000D01*
X124194091Y-161552000D01*
X123960702Y-161648673D01*
X123782073Y-161827301D01*
X123685400Y-162060690D01*
X114985000Y-162060690D01*
X114985000Y-161387016D01*
X133900590Y-161387016D01*
X133956271Y-161617611D01*
X134439078Y-161785622D01*
X134949428Y-161756083D01*
X135283729Y-161617611D01*
X135339410Y-161387016D01*
X134620000Y-160667605D01*
X133900590Y-161387016D01*
X114985000Y-161387016D01*
X114985000Y-160307078D01*
X133322378Y-160307078D01*
X133351917Y-160817428D01*
X133490389Y-161151729D01*
X133720984Y-161207410D01*
X134440395Y-160488000D01*
X134799605Y-160488000D01*
X135519016Y-161207410D01*
X135749611Y-161151729D01*
X135917622Y-160668922D01*
X135888083Y-160158572D01*
X135749611Y-159824271D01*
X135519016Y-159768590D01*
X134799605Y-160488000D01*
X134440395Y-160488000D01*
X133720984Y-159768590D01*
X133490389Y-159824271D01*
X133322378Y-160307078D01*
X114985000Y-160307078D01*
X114985000Y-158273750D01*
X120985660Y-158273750D01*
X120985660Y-158914310D01*
X121082333Y-159147699D01*
X121260962Y-159326327D01*
X121494351Y-159423000D01*
X121834910Y-159423000D01*
X121993660Y-159264250D01*
X121993660Y-158115000D01*
X122247660Y-158115000D01*
X122247660Y-159264250D01*
X122406410Y-159423000D01*
X122746969Y-159423000D01*
X122980358Y-159326327D01*
X123158987Y-159147699D01*
X123255660Y-158914310D01*
X123255660Y-158273750D01*
X123096910Y-158115000D01*
X122247660Y-158115000D01*
X121993660Y-158115000D01*
X121144410Y-158115000D01*
X120985660Y-158273750D01*
X114985000Y-158273750D01*
X114985000Y-157061690D01*
X120985660Y-157061690D01*
X120985660Y-157702250D01*
X121144410Y-157861000D01*
X121993660Y-157861000D01*
X121993660Y-156711750D01*
X122247660Y-156711750D01*
X122247660Y-157861000D01*
X123096910Y-157861000D01*
X123255660Y-157702250D01*
X123255660Y-157061690D01*
X123158987Y-156828301D01*
X122980358Y-156649673D01*
X122746969Y-156553000D01*
X122406410Y-156553000D01*
X122247660Y-156711750D01*
X121993660Y-156711750D01*
X121834910Y-156553000D01*
X121494351Y-156553000D01*
X121260962Y-156649673D01*
X121082333Y-156828301D01*
X120985660Y-157061690D01*
X114985000Y-157061690D01*
X114985000Y-151489016D01*
X117390590Y-151489016D01*
X117446271Y-151719611D01*
X117929078Y-151887622D01*
X118439428Y-151858083D01*
X118773729Y-151719611D01*
X118829410Y-151489016D01*
X118110000Y-150769605D01*
X117390590Y-151489016D01*
X114985000Y-151489016D01*
X114985000Y-145106234D01*
X116475226Y-145106234D01*
X116723538Y-145707195D01*
X117182927Y-146167386D01*
X117350000Y-146236761D01*
X117350000Y-147313258D01*
X117224683Y-147336838D01*
X117008559Y-147475910D01*
X116863569Y-147688110D01*
X116812560Y-147940000D01*
X116812560Y-149240000D01*
X116856838Y-149475317D01*
X116995910Y-149691441D01*
X117109329Y-149768937D01*
X117210982Y-149870590D01*
X116980389Y-149926271D01*
X116812378Y-150409078D01*
X116841917Y-150919428D01*
X116980389Y-151253729D01*
X117210984Y-151309410D01*
X117930395Y-150590000D01*
X117916252Y-150575858D01*
X118095858Y-150396252D01*
X118110000Y-150410395D01*
X118124142Y-150396252D01*
X118303748Y-150575858D01*
X118289605Y-150590000D01*
X119009016Y-151309410D01*
X119239611Y-151253729D01*
X119407622Y-150770922D01*
X119378083Y-150260572D01*
X119239611Y-149926271D01*
X119009018Y-149870590D01*
X119110680Y-149768928D01*
X119211441Y-149704090D01*
X119356431Y-149491890D01*
X119385164Y-149350000D01*
X122902226Y-149350000D01*
X122934675Y-149513131D01*
X123292567Y-150048754D01*
X123828190Y-150406646D01*
X124460000Y-150532321D01*
X125091810Y-150406646D01*
X125627433Y-150048754D01*
X125744054Y-149874219D01*
X125922370Y-150101236D01*
X126485523Y-150417926D01*
X126617056Y-150449975D01*
X126873000Y-150330836D01*
X126873000Y-148717000D01*
X126853000Y-148717000D01*
X126853000Y-148463000D01*
X126873000Y-148463000D01*
X126873000Y-146849164D01*
X126617056Y-146730025D01*
X126485523Y-146762074D01*
X125922370Y-147078764D01*
X125744054Y-147305781D01*
X125627433Y-147131246D01*
X125091810Y-146773354D01*
X124460000Y-146647679D01*
X123828190Y-146773354D01*
X123292567Y-147131246D01*
X122934675Y-147666869D01*
X122902226Y-147830000D01*
X119386742Y-147830000D01*
X119363162Y-147704683D01*
X119224090Y-147488559D01*
X119011890Y-147343569D01*
X118870000Y-147314836D01*
X118870000Y-146237036D01*
X119034655Y-146169002D01*
X119494846Y-145709613D01*
X119744206Y-145109087D01*
X119744774Y-144458846D01*
X119496462Y-143857885D01*
X119421758Y-143783050D01*
X126623070Y-143783050D01*
X126623070Y-145782030D01*
X126667348Y-146017347D01*
X126806420Y-146233471D01*
X127018620Y-146378461D01*
X127270510Y-146429470D01*
X128780000Y-146429470D01*
X128780000Y-146859008D01*
X128372567Y-147131246D01*
X128255946Y-147305781D01*
X128077630Y-147078764D01*
X127514477Y-146762074D01*
X127382944Y-146730025D01*
X127127000Y-146849164D01*
X127127000Y-148463000D01*
X127147000Y-148463000D01*
X127147000Y-148717000D01*
X127127000Y-148717000D01*
X127127000Y-150330836D01*
X127382944Y-150449975D01*
X127514477Y-150417926D01*
X128077630Y-150101236D01*
X128255946Y-149874219D01*
X128372567Y-150048754D01*
X128780000Y-150320992D01*
X128780000Y-156253338D01*
X128492778Y-156540560D01*
X127620140Y-156540560D01*
X127384823Y-156584838D01*
X127168699Y-156723910D01*
X127023709Y-156936110D01*
X126972700Y-157188000D01*
X126972700Y-158788000D01*
X127016978Y-159023317D01*
X127156050Y-159239441D01*
X127368250Y-159384431D01*
X127620140Y-159435440D01*
X128620140Y-159435440D01*
X128855457Y-159391162D01*
X129071581Y-159252090D01*
X129216571Y-159039890D01*
X129267580Y-158788000D01*
X129267580Y-158748000D01*
X133343258Y-158748000D01*
X133366838Y-158873317D01*
X133505910Y-159089441D01*
X133718110Y-159234431D01*
X133970000Y-159285440D01*
X134132385Y-159285440D01*
X133956271Y-159358389D01*
X133900590Y-159588984D01*
X134620000Y-160308395D01*
X135339410Y-159588984D01*
X135283729Y-159358389D01*
X135074098Y-159285440D01*
X135270000Y-159285440D01*
X135505317Y-159241162D01*
X135721441Y-159102090D01*
X135866431Y-158889890D01*
X135917440Y-158638000D01*
X135917440Y-157338000D01*
X135873162Y-157102683D01*
X135734090Y-156886559D01*
X135521890Y-156741569D01*
X135270000Y-156690560D01*
X133970000Y-156690560D01*
X133734683Y-156734838D01*
X133518559Y-156873910D01*
X133373569Y-157086110D01*
X133344836Y-157228000D01*
X129954942Y-157228000D01*
X130077401Y-157105541D01*
X130242148Y-156858980D01*
X130300000Y-156568140D01*
X130300000Y-150320992D01*
X130707433Y-150048754D01*
X131065325Y-149513131D01*
X131191000Y-148881321D01*
X131191000Y-148298679D01*
X131065325Y-147666869D01*
X130707433Y-147131246D01*
X130300000Y-146859008D01*
X130300000Y-146052540D01*
X130242148Y-145761701D01*
X130242148Y-145761700D01*
X130077401Y-145515139D01*
X129916930Y-145354668D01*
X129916930Y-143783050D01*
X129872652Y-143547733D01*
X129733580Y-143331609D01*
X129521380Y-143186619D01*
X129269490Y-143135610D01*
X127270510Y-143135610D01*
X127035193Y-143179888D01*
X126819069Y-143318960D01*
X126674079Y-143531160D01*
X126623070Y-143783050D01*
X119421758Y-143783050D01*
X119037073Y-143397694D01*
X118436547Y-143148334D01*
X117786306Y-143147766D01*
X117185345Y-143396078D01*
X116725154Y-143855467D01*
X116475794Y-144455993D01*
X116475226Y-145106234D01*
X114985000Y-145106234D01*
X114985000Y-137042532D01*
X117147233Y-137042532D01*
X117245896Y-137309387D01*
X117855621Y-137535908D01*
X118505620Y-137511856D01*
X118994424Y-137309387D01*
X119093087Y-137042532D01*
X118120160Y-136069605D01*
X117147233Y-137042532D01*
X114985000Y-137042532D01*
X114985000Y-135625461D01*
X116474252Y-135625461D01*
X116498304Y-136275460D01*
X116700773Y-136764264D01*
X116967628Y-136862927D01*
X117940555Y-135890000D01*
X118299765Y-135890000D01*
X119272692Y-136862927D01*
X119539547Y-136764264D01*
X119766068Y-136154539D01*
X119742016Y-135504540D01*
X119539547Y-135015736D01*
X119272692Y-134917073D01*
X118299765Y-135890000D01*
X117940555Y-135890000D01*
X116967628Y-134917073D01*
X116700773Y-135015736D01*
X116474252Y-135625461D01*
X114985000Y-135625461D01*
X114985000Y-134737468D01*
X117147233Y-134737468D01*
X118120160Y-135710395D01*
X119093087Y-134737468D01*
X118994424Y-134470613D01*
X118384699Y-134244092D01*
X117734700Y-134268144D01*
X117245896Y-134470613D01*
X117147233Y-134737468D01*
X114985000Y-134737468D01*
X114985000Y-133535167D01*
X119714838Y-133535167D01*
X119856883Y-133878943D01*
X120119673Y-134142192D01*
X120463201Y-134284838D01*
X120835167Y-134285162D01*
X121178943Y-134143117D01*
X121212118Y-134110000D01*
X125415198Y-134110000D01*
X125560057Y-134254859D01*
X125396045Y-134254716D01*
X124794897Y-134503106D01*
X124334562Y-134962637D01*
X124085124Y-135563352D01*
X124084556Y-136213795D01*
X124332946Y-136814943D01*
X124792477Y-137275278D01*
X125393192Y-137524716D01*
X126043635Y-137525284D01*
X126644783Y-137276894D01*
X127105118Y-136817363D01*
X127354556Y-136216648D01*
X127354702Y-136049504D01*
X127732599Y-136427401D01*
X127979160Y-136592148D01*
X128027414Y-136601746D01*
X128270000Y-136650000D01*
X131699000Y-136650000D01*
X131699000Y-138415000D01*
X131303691Y-138415000D01*
X131070302Y-138511673D01*
X130891673Y-138690301D01*
X130795000Y-138923690D01*
X130795000Y-139414250D01*
X130953750Y-139573000D01*
X131813823Y-139573000D01*
X131953000Y-139599937D01*
X131953000Y-139827000D01*
X130953750Y-139827000D01*
X130795000Y-139985750D01*
X130795000Y-140476310D01*
X130891673Y-140709699D01*
X131070302Y-140888327D01*
X131303691Y-140985000D01*
X131794250Y-140985000D01*
X131952998Y-140826252D01*
X131952998Y-140985000D01*
X131953000Y-140985000D01*
X131953000Y-143495000D01*
X131952998Y-143495000D01*
X131952998Y-143653748D01*
X131794250Y-143495000D01*
X131303691Y-143495000D01*
X131070302Y-143591673D01*
X130891673Y-143770301D01*
X130795000Y-144003690D01*
X130795000Y-144494250D01*
X130953750Y-144653000D01*
X131953000Y-144653000D01*
X131953000Y-144907000D01*
X130953750Y-144907000D01*
X130795000Y-145065750D01*
X130795000Y-145556310D01*
X130891673Y-145789699D01*
X131070302Y-145968327D01*
X131303691Y-146065000D01*
X131794250Y-146065000D01*
X131953000Y-145906250D01*
X131953000Y-145034000D01*
X131963006Y-145083410D01*
X131991447Y-145125035D01*
X132033841Y-145152315D01*
X132080000Y-145161000D01*
X132207000Y-145161000D01*
X132207000Y-145906250D01*
X132365750Y-146065000D01*
X132856309Y-146065000D01*
X133089698Y-145968327D01*
X133268327Y-145789699D01*
X133365000Y-145556310D01*
X133365000Y-145204433D01*
X133489995Y-145506943D01*
X133851155Y-145868735D01*
X134323276Y-146064777D01*
X134834481Y-146065223D01*
X135306943Y-145870005D01*
X135637525Y-145540000D01*
X137499453Y-145540000D01*
X137509169Y-145563515D01*
X137898436Y-145953461D01*
X138407298Y-146164759D01*
X138958285Y-146165240D01*
X139467515Y-145954831D01*
X139857461Y-145565564D01*
X140068759Y-145056702D01*
X140069240Y-144505715D01*
X139971845Y-144270000D01*
X143567005Y-144270000D01*
X143737189Y-144524698D01*
X144119275Y-144780000D01*
X143737189Y-145035302D01*
X143426120Y-145500849D01*
X143316887Y-146050000D01*
X143426120Y-146599151D01*
X143737189Y-147064698D01*
X144119275Y-147320000D01*
X143737189Y-147575302D01*
X143426120Y-148040849D01*
X143316887Y-148590000D01*
X143426120Y-149139151D01*
X143737189Y-149604698D01*
X144119275Y-149860000D01*
X143737189Y-150115302D01*
X143426120Y-150580849D01*
X143316887Y-151130000D01*
X143426120Y-151679151D01*
X143737189Y-152144698D01*
X144119275Y-152400000D01*
X143737189Y-152655302D01*
X143426120Y-153120849D01*
X143316887Y-153670000D01*
X143426120Y-154219151D01*
X143737189Y-154684698D01*
X144202736Y-154995767D01*
X144399000Y-155034806D01*
X144399000Y-163612501D01*
X144311000Y-164054907D01*
X144311000Y-164113093D01*
X144399000Y-164555499D01*
X144399000Y-166172382D01*
X144354514Y-166267108D01*
X144399000Y-166351862D01*
X144399000Y-166896138D01*
X144354514Y-166980892D01*
X144399000Y-167075618D01*
X144399000Y-168910000D01*
X144409006Y-168959410D01*
X144437447Y-169001035D01*
X144479841Y-169028315D01*
X144526000Y-169037000D01*
X152400000Y-169037000D01*
X152449410Y-169026994D01*
X152491035Y-168998553D01*
X152518315Y-168956159D01*
X152527000Y-168910000D01*
X152527000Y-167300815D01*
X176934630Y-167300815D01*
X177258980Y-168085800D01*
X177859041Y-168686909D01*
X178643459Y-169012628D01*
X179492815Y-169013370D01*
X180277800Y-168689020D01*
X180878909Y-168088959D01*
X181204628Y-167304541D01*
X181205370Y-166455185D01*
X180881020Y-165670200D01*
X180280959Y-165069091D01*
X179496541Y-164743372D01*
X178647185Y-164742630D01*
X177862200Y-165066980D01*
X177261091Y-165667041D01*
X176935372Y-166451459D01*
X176934630Y-167300815D01*
X152527000Y-167300815D01*
X152527000Y-159951802D01*
X156307599Y-163732401D01*
X156554160Y-163897148D01*
X156845000Y-163955000D01*
X175895000Y-163955000D01*
X176185839Y-163897148D01*
X176432401Y-163732401D01*
X180242401Y-159922401D01*
X180407148Y-159675839D01*
X180465000Y-159385000D01*
X180465000Y-99060000D01*
X180407148Y-98769161D01*
X180242401Y-98522599D01*
X175162401Y-93442599D01*
X174915839Y-93277852D01*
X174625000Y-93220000D01*
X144780000Y-93220000D01*
X144489161Y-93277852D01*
X144242599Y-93442599D01*
X143952033Y-93733165D01*
X129465199Y-104291366D01*
X129431162Y-104328554D01*
X129413000Y-104394000D01*
X129413000Y-104474889D01*
X129354833Y-104474838D01*
X129011057Y-104616883D01*
X128747808Y-104879673D01*
X128605162Y-105223201D01*
X128604838Y-105595167D01*
X128746883Y-105938943D01*
X128780000Y-105972118D01*
X128780000Y-106680000D01*
X128837852Y-106970839D01*
X129002599Y-107217401D01*
X133684878Y-111899680D01*
X133684838Y-111945167D01*
X133826883Y-112288943D01*
X134089673Y-112552192D01*
X134433201Y-112694838D01*
X134805167Y-112695162D01*
X134885208Y-112662090D01*
X137323008Y-118100259D01*
X137166186Y-117995474D01*
X136592697Y-117881400D01*
X135187303Y-117881400D01*
X134613814Y-117995474D01*
X134127633Y-118320330D01*
X133927400Y-118620000D01*
X125152600Y-118620000D01*
X124952367Y-118320330D01*
X124466186Y-117995474D01*
X123892697Y-117881400D01*
X122487303Y-117881400D01*
X121913814Y-117995474D01*
X121427633Y-118320330D01*
X121102777Y-118806511D01*
X120988703Y-119380000D01*
X121102777Y-119953489D01*
X121427633Y-120439670D01*
X121913814Y-120764526D01*
X122487303Y-120878600D01*
X123892697Y-120878600D01*
X124466186Y-120764526D01*
X124952367Y-120439670D01*
X125152600Y-120140000D01*
X133927400Y-120140000D01*
X134127633Y-120439670D01*
X134613814Y-120764526D01*
X135187303Y-120878600D01*
X136592697Y-120878600D01*
X137166186Y-120764526D01*
X137652367Y-120439670D01*
X137852600Y-120140000D01*
X138115198Y-120140000D01*
X141702599Y-123727401D01*
X141949161Y-123892148D01*
X142240000Y-123950000D01*
X143567005Y-123950000D01*
X143737189Y-124204698D01*
X144119275Y-124460000D01*
X143737189Y-124715302D01*
X143426120Y-125180849D01*
X143316887Y-125730000D01*
X143426120Y-126279151D01*
X143737189Y-126744698D01*
X144119275Y-127000000D01*
X143737189Y-127255302D01*
X143567005Y-127510000D01*
X138357463Y-127510000D01*
X138325327Y-127477808D01*
X137981799Y-127335162D01*
X137609833Y-127334838D01*
X137266057Y-127476883D01*
X137002808Y-127739673D01*
X136860162Y-128083201D01*
X136859838Y-128455167D01*
X137001883Y-128798943D01*
X137264673Y-129062192D01*
X137608201Y-129204838D01*
X137980167Y-129205162D01*
X138323943Y-129063117D01*
X138357118Y-129030000D01*
X138899367Y-129030000D01*
X138765162Y-129353201D01*
X138764838Y-129725167D01*
X138906883Y-130068943D01*
X139169673Y-130332192D01*
X139513201Y-130474838D01*
X139885167Y-130475162D01*
X140228943Y-130333117D01*
X140262118Y-130300000D01*
X143418332Y-130300000D01*
X143316887Y-130810000D01*
X143426120Y-131359151D01*
X143737189Y-131824698D01*
X144119275Y-132080000D01*
X143737189Y-132335302D01*
X143426120Y-132800849D01*
X143316887Y-133350000D01*
X143426120Y-133899151D01*
X143737189Y-134364698D01*
X144119275Y-134620000D01*
X143737189Y-134875302D01*
X143567005Y-135130000D01*
X128584802Y-135130000D01*
X126267401Y-132812599D01*
X126020839Y-132647852D01*
X125730000Y-132590000D01*
X121212463Y-132590000D01*
X121180327Y-132557808D01*
X120836799Y-132415162D01*
X120464833Y-132414838D01*
X120121057Y-132556883D01*
X119857808Y-132819673D01*
X119715162Y-133163201D01*
X119714838Y-133535167D01*
X114985000Y-133535167D01*
X114985000Y-124819026D01*
X121074642Y-124819026D01*
X121096473Y-124916157D01*
X121380127Y-125429868D01*
X121838778Y-125795925D01*
X122402600Y-125958600D01*
X123063000Y-125958600D01*
X123063000Y-124587000D01*
X123317000Y-124587000D01*
X123317000Y-125958600D01*
X123977400Y-125958600D01*
X124541222Y-125795925D01*
X124999873Y-125429868D01*
X125283527Y-124916157D01*
X125305358Y-124819026D01*
X133774642Y-124819026D01*
X133796473Y-124916157D01*
X134080127Y-125429868D01*
X134538778Y-125795925D01*
X135102600Y-125958600D01*
X135763000Y-125958600D01*
X135763000Y-124587000D01*
X136017000Y-124587000D01*
X136017000Y-125958600D01*
X136677400Y-125958600D01*
X137241222Y-125795925D01*
X137699873Y-125429868D01*
X137983527Y-124916157D01*
X138005358Y-124819026D01*
X137884217Y-124587000D01*
X136017000Y-124587000D01*
X135763000Y-124587000D01*
X133895783Y-124587000D01*
X133774642Y-124819026D01*
X125305358Y-124819026D01*
X125184217Y-124587000D01*
X123317000Y-124587000D01*
X123063000Y-124587000D01*
X121195783Y-124587000D01*
X121074642Y-124819026D01*
X114985000Y-124819026D01*
X114985000Y-124100974D01*
X121074642Y-124100974D01*
X121195783Y-124333000D01*
X123063000Y-124333000D01*
X123063000Y-122961400D01*
X123317000Y-122961400D01*
X123317000Y-124333000D01*
X125184217Y-124333000D01*
X125305358Y-124100974D01*
X133774642Y-124100974D01*
X133895783Y-124333000D01*
X135763000Y-124333000D01*
X135763000Y-122961400D01*
X136017000Y-122961400D01*
X136017000Y-124333000D01*
X137884217Y-124333000D01*
X138005358Y-124100974D01*
X137983527Y-124003843D01*
X137699873Y-123490132D01*
X137241222Y-123124075D01*
X136677400Y-122961400D01*
X136017000Y-122961400D01*
X135763000Y-122961400D01*
X135102600Y-122961400D01*
X134538778Y-123124075D01*
X134080127Y-123490132D01*
X133796473Y-124003843D01*
X133774642Y-124100974D01*
X125305358Y-124100974D01*
X125283527Y-124003843D01*
X124999873Y-123490132D01*
X124541222Y-123124075D01*
X123977400Y-122961400D01*
X123317000Y-122961400D01*
X123063000Y-122961400D01*
X122402600Y-122961400D01*
X121838778Y-123124075D01*
X121380127Y-123490132D01*
X121096473Y-124003843D01*
X121074642Y-124100974D01*
X114985000Y-124100974D01*
X114985000Y-121020000D01*
X115292560Y-121020000D01*
X115292560Y-122820000D01*
X115336838Y-123055317D01*
X115475910Y-123271441D01*
X115688110Y-123416431D01*
X115940000Y-123467440D01*
X117740000Y-123467440D01*
X117975317Y-123423162D01*
X118191441Y-123284090D01*
X118336431Y-123071890D01*
X118340567Y-123051466D01*
X118509357Y-123220551D01*
X119073330Y-123454733D01*
X119683991Y-123455265D01*
X120248371Y-123222068D01*
X120680551Y-122790643D01*
X120914733Y-122226670D01*
X120915265Y-121616009D01*
X120682068Y-121051629D01*
X120250643Y-120619449D01*
X119686670Y-120385267D01*
X119076009Y-120384735D01*
X118511629Y-120617932D01*
X118343387Y-120785880D01*
X118343162Y-120784683D01*
X118204090Y-120568559D01*
X117991890Y-120423569D01*
X117740000Y-120372560D01*
X115940000Y-120372560D01*
X115704683Y-120416838D01*
X115488559Y-120555910D01*
X115343569Y-120768110D01*
X115292560Y-121020000D01*
X114985000Y-121020000D01*
X114985000Y-110426500D01*
X118034060Y-110426500D01*
X118034060Y-111823500D01*
X118078338Y-112058817D01*
X118217410Y-112274941D01*
X118429610Y-112419931D01*
X118681500Y-112470940D01*
X120078500Y-112470940D01*
X120313817Y-112426662D01*
X120529941Y-112287590D01*
X120674931Y-112075390D01*
X120725940Y-111823500D01*
X120725940Y-110426500D01*
X120681662Y-110191183D01*
X120542590Y-109975059D01*
X120330390Y-109830069D01*
X120078500Y-109779060D01*
X120014360Y-109779060D01*
X120072929Y-109754800D01*
X120134583Y-109519188D01*
X119380000Y-108764605D01*
X118625417Y-109519188D01*
X118687071Y-109754800D01*
X118755998Y-109779060D01*
X118681500Y-109779060D01*
X118446183Y-109823338D01*
X118230059Y-109962410D01*
X118085069Y-110174610D01*
X118034060Y-110426500D01*
X114985000Y-110426500D01*
X114985000Y-108392480D01*
X118034073Y-108392480D01*
X118062852Y-108922199D01*
X118210200Y-109277929D01*
X118445812Y-109339583D01*
X119200395Y-108585000D01*
X119559605Y-108585000D01*
X120314188Y-109339583D01*
X120549800Y-109277929D01*
X120725927Y-108777520D01*
X120697148Y-108247801D01*
X120549800Y-107892071D01*
X120314188Y-107830417D01*
X119559605Y-108585000D01*
X119200395Y-108585000D01*
X118445812Y-107830417D01*
X118210200Y-107892071D01*
X118034073Y-108392480D01*
X114985000Y-108392480D01*
X114985000Y-106309086D01*
X118046269Y-106309086D01*
X118248854Y-106799380D01*
X118623647Y-107174827D01*
X118945118Y-107308314D01*
X118687071Y-107415200D01*
X118625417Y-107650812D01*
X119380000Y-108405395D01*
X120134583Y-107650812D01*
X120072929Y-107415200D01*
X119793688Y-107316917D01*
X120134380Y-107176146D01*
X120509827Y-106801353D01*
X120713268Y-106311413D01*
X120713731Y-105780914D01*
X120511146Y-105290620D01*
X120136353Y-104915173D01*
X119646413Y-104711732D01*
X119115914Y-104711269D01*
X118625620Y-104913854D01*
X118250173Y-105288647D01*
X118046732Y-105778587D01*
X118046269Y-106309086D01*
X114985000Y-106309086D01*
X114985000Y-88560815D01*
X115974630Y-88560815D01*
X116298980Y-89345800D01*
X116899041Y-89946909D01*
X117683459Y-90272628D01*
X118532815Y-90273370D01*
X119317800Y-89949020D01*
X119918909Y-89348959D01*
X120244628Y-88564541D01*
X120244631Y-88560815D01*
X176934630Y-88560815D01*
X177258980Y-89345800D01*
X177859041Y-89946909D01*
X178643459Y-90272628D01*
X179492815Y-90273370D01*
X180277800Y-89949020D01*
X180878909Y-89348959D01*
X181204628Y-88564541D01*
X181205370Y-87715185D01*
X180881020Y-86930200D01*
X180280959Y-86329091D01*
X179496541Y-86003372D01*
X178647185Y-86002630D01*
X177862200Y-86326980D01*
X177261091Y-86927041D01*
X176935372Y-87711459D01*
X176934630Y-88560815D01*
X120244631Y-88560815D01*
X120245370Y-87715185D01*
X119921020Y-86930200D01*
X119320959Y-86329091D01*
X118536541Y-86003372D01*
X117687185Y-86002630D01*
X116902200Y-86326980D01*
X116301091Y-86927041D01*
X115975372Y-87711459D01*
X115974630Y-88560815D01*
X114985000Y-88560815D01*
X114985000Y-85140000D01*
X182195000Y-85140000D01*
X182195000Y-170130000D01*
X182195000Y-170130000D01*
G37*
X182195000Y-170130000D02*
X114985000Y-170130000D01*
X114985000Y-167554815D01*
X115974630Y-167554815D01*
X116298980Y-168339800D01*
X116899041Y-168940909D01*
X117683459Y-169266628D01*
X118532815Y-169267370D01*
X119317800Y-168943020D01*
X119918909Y-168342959D01*
X120244628Y-167558541D01*
X120245370Y-166709185D01*
X119921020Y-165924200D01*
X119320959Y-165323091D01*
X118536541Y-164997372D01*
X117687185Y-164996630D01*
X116902200Y-165320980D01*
X116301091Y-165921041D01*
X115975372Y-166705459D01*
X115974630Y-167554815D01*
X114985000Y-167554815D01*
X114985000Y-162972750D01*
X123685400Y-162972750D01*
X123685400Y-163313310D01*
X123782073Y-163546699D01*
X123960702Y-163725327D01*
X124194091Y-163822000D01*
X124834650Y-163822000D01*
X124993400Y-163663250D01*
X124993400Y-162814000D01*
X125247400Y-162814000D01*
X125247400Y-163663250D01*
X125406150Y-163822000D01*
X126046709Y-163822000D01*
X126280098Y-163725327D01*
X126458727Y-163546699D01*
X126555400Y-163313310D01*
X126555400Y-162972750D01*
X126396650Y-162814000D01*
X125247400Y-162814000D01*
X124993400Y-162814000D01*
X123844150Y-162814000D01*
X123685400Y-162972750D01*
X114985000Y-162972750D01*
X114985000Y-162060690D01*
X123685400Y-162060690D01*
X123685400Y-162401250D01*
X123844150Y-162560000D01*
X124993400Y-162560000D01*
X124993400Y-161710750D01*
X125247400Y-161710750D01*
X125247400Y-162560000D01*
X126396650Y-162560000D01*
X126555400Y-162401250D01*
X126555400Y-162060690D01*
X126458727Y-161827301D01*
X126280098Y-161648673D01*
X126046709Y-161552000D01*
X125406150Y-161552000D01*
X125247400Y-161710750D01*
X124993400Y-161710750D01*
X124834650Y-161552000D01*
X124194091Y-161552000D01*
X123960702Y-161648673D01*
X123782073Y-161827301D01*
X123685400Y-162060690D01*
X114985000Y-162060690D01*
X114985000Y-161387016D01*
X133900590Y-161387016D01*
X133956271Y-161617611D01*
X134439078Y-161785622D01*
X134949428Y-161756083D01*
X135283729Y-161617611D01*
X135339410Y-161387016D01*
X134620000Y-160667605D01*
X133900590Y-161387016D01*
X114985000Y-161387016D01*
X114985000Y-160307078D01*
X133322378Y-160307078D01*
X133351917Y-160817428D01*
X133490389Y-161151729D01*
X133720984Y-161207410D01*
X134440395Y-160488000D01*
X134799605Y-160488000D01*
X135519016Y-161207410D01*
X135749611Y-161151729D01*
X135917622Y-160668922D01*
X135888083Y-160158572D01*
X135749611Y-159824271D01*
X135519016Y-159768590D01*
X134799605Y-160488000D01*
X134440395Y-160488000D01*
X133720984Y-159768590D01*
X133490389Y-159824271D01*
X133322378Y-160307078D01*
X114985000Y-160307078D01*
X114985000Y-158273750D01*
X120985660Y-158273750D01*
X120985660Y-158914310D01*
X121082333Y-159147699D01*
X121260962Y-159326327D01*
X121494351Y-159423000D01*
X121834910Y-159423000D01*
X121993660Y-159264250D01*
X121993660Y-158115000D01*
X122247660Y-158115000D01*
X122247660Y-159264250D01*
X122406410Y-159423000D01*
X122746969Y-159423000D01*
X122980358Y-159326327D01*
X123158987Y-159147699D01*
X123255660Y-158914310D01*
X123255660Y-158273750D01*
X123096910Y-158115000D01*
X122247660Y-158115000D01*
X121993660Y-158115000D01*
X121144410Y-158115000D01*
X120985660Y-158273750D01*
X114985000Y-158273750D01*
X114985000Y-157061690D01*
X120985660Y-157061690D01*
X120985660Y-157702250D01*
X121144410Y-157861000D01*
X121993660Y-157861000D01*
X121993660Y-156711750D01*
X122247660Y-156711750D01*
X122247660Y-157861000D01*
X123096910Y-157861000D01*
X123255660Y-157702250D01*
X123255660Y-157061690D01*
X123158987Y-156828301D01*
X122980358Y-156649673D01*
X122746969Y-156553000D01*
X122406410Y-156553000D01*
X122247660Y-156711750D01*
X121993660Y-156711750D01*
X121834910Y-156553000D01*
X121494351Y-156553000D01*
X121260962Y-156649673D01*
X121082333Y-156828301D01*
X120985660Y-157061690D01*
X114985000Y-157061690D01*
X114985000Y-151489016D01*
X117390590Y-151489016D01*
X117446271Y-151719611D01*
X117929078Y-151887622D01*
X118439428Y-151858083D01*
X118773729Y-151719611D01*
X118829410Y-151489016D01*
X118110000Y-150769605D01*
X117390590Y-151489016D01*
X114985000Y-151489016D01*
X114985000Y-145106234D01*
X116475226Y-145106234D01*
X116723538Y-145707195D01*
X117182927Y-146167386D01*
X117350000Y-146236761D01*
X117350000Y-147313258D01*
X117224683Y-147336838D01*
X117008559Y-147475910D01*
X116863569Y-147688110D01*
X116812560Y-147940000D01*
X116812560Y-149240000D01*
X116856838Y-149475317D01*
X116995910Y-149691441D01*
X117109329Y-149768937D01*
X117210982Y-149870590D01*
X116980389Y-149926271D01*
X116812378Y-150409078D01*
X116841917Y-150919428D01*
X116980389Y-151253729D01*
X117210984Y-151309410D01*
X117930395Y-150590000D01*
X117916252Y-150575858D01*
X118095858Y-150396252D01*
X118110000Y-150410395D01*
X118124142Y-150396252D01*
X118303748Y-150575858D01*
X118289605Y-150590000D01*
X119009016Y-151309410D01*
X119239611Y-151253729D01*
X119407622Y-150770922D01*
X119378083Y-150260572D01*
X119239611Y-149926271D01*
X119009018Y-149870590D01*
X119110680Y-149768928D01*
X119211441Y-149704090D01*
X119356431Y-149491890D01*
X119385164Y-149350000D01*
X122902226Y-149350000D01*
X122934675Y-149513131D01*
X123292567Y-150048754D01*
X123828190Y-150406646D01*
X124460000Y-150532321D01*
X125091810Y-150406646D01*
X125627433Y-150048754D01*
X125744054Y-149874219D01*
X125922370Y-150101236D01*
X126485523Y-150417926D01*
X126617056Y-150449975D01*
X126873000Y-150330836D01*
X126873000Y-148717000D01*
X126853000Y-148717000D01*
X126853000Y-148463000D01*
X126873000Y-148463000D01*
X126873000Y-146849164D01*
X126617056Y-146730025D01*
X126485523Y-146762074D01*
X125922370Y-147078764D01*
X125744054Y-147305781D01*
X125627433Y-147131246D01*
X125091810Y-146773354D01*
X124460000Y-146647679D01*
X123828190Y-146773354D01*
X123292567Y-147131246D01*
X122934675Y-147666869D01*
X122902226Y-147830000D01*
X119386742Y-147830000D01*
X119363162Y-147704683D01*
X119224090Y-147488559D01*
X119011890Y-147343569D01*
X118870000Y-147314836D01*
X118870000Y-146237036D01*
X119034655Y-146169002D01*
X119494846Y-145709613D01*
X119744206Y-145109087D01*
X119744774Y-144458846D01*
X119496462Y-143857885D01*
X119421758Y-143783050D01*
X126623070Y-143783050D01*
X126623070Y-145782030D01*
X126667348Y-146017347D01*
X126806420Y-146233471D01*
X127018620Y-146378461D01*
X127270510Y-146429470D01*
X128780000Y-146429470D01*
X128780000Y-146859008D01*
X128372567Y-147131246D01*
X128255946Y-147305781D01*
X128077630Y-147078764D01*
X127514477Y-146762074D01*
X127382944Y-146730025D01*
X127127000Y-146849164D01*
X127127000Y-148463000D01*
X127147000Y-148463000D01*
X127147000Y-148717000D01*
X127127000Y-148717000D01*
X127127000Y-150330836D01*
X127382944Y-150449975D01*
X127514477Y-150417926D01*
X128077630Y-150101236D01*
X128255946Y-149874219D01*
X128372567Y-150048754D01*
X128780000Y-150320992D01*
X128780000Y-156253338D01*
X128492778Y-156540560D01*
X127620140Y-156540560D01*
X127384823Y-156584838D01*
X127168699Y-156723910D01*
X127023709Y-156936110D01*
X126972700Y-157188000D01*
X126972700Y-158788000D01*
X127016978Y-159023317D01*
X127156050Y-159239441D01*
X127368250Y-159384431D01*
X127620140Y-159435440D01*
X128620140Y-159435440D01*
X128855457Y-159391162D01*
X129071581Y-159252090D01*
X129216571Y-159039890D01*
X129267580Y-158788000D01*
X129267580Y-158748000D01*
X133343258Y-158748000D01*
X133366838Y-158873317D01*
X133505910Y-159089441D01*
X133718110Y-159234431D01*
X133970000Y-159285440D01*
X134132385Y-159285440D01*
X133956271Y-159358389D01*
X133900590Y-159588984D01*
X134620000Y-160308395D01*
X135339410Y-159588984D01*
X135283729Y-159358389D01*
X135074098Y-159285440D01*
X135270000Y-159285440D01*
X135505317Y-159241162D01*
X135721441Y-159102090D01*
X135866431Y-158889890D01*
X135917440Y-158638000D01*
X135917440Y-157338000D01*
X135873162Y-157102683D01*
X135734090Y-156886559D01*
X135521890Y-156741569D01*
X135270000Y-156690560D01*
X133970000Y-156690560D01*
X133734683Y-156734838D01*
X133518559Y-156873910D01*
X133373569Y-157086110D01*
X133344836Y-157228000D01*
X129954942Y-157228000D01*
X130077401Y-157105541D01*
X130242148Y-156858980D01*
X130300000Y-156568140D01*
X130300000Y-150320992D01*
X130707433Y-150048754D01*
X131065325Y-149513131D01*
X131191000Y-148881321D01*
X131191000Y-148298679D01*
X131065325Y-147666869D01*
X130707433Y-147131246D01*
X130300000Y-146859008D01*
X130300000Y-146052540D01*
X130242148Y-145761701D01*
X130242148Y-145761700D01*
X130077401Y-145515139D01*
X129916930Y-145354668D01*
X129916930Y-143783050D01*
X129872652Y-143547733D01*
X129733580Y-143331609D01*
X129521380Y-143186619D01*
X129269490Y-143135610D01*
X127270510Y-143135610D01*
X127035193Y-143179888D01*
X126819069Y-143318960D01*
X126674079Y-143531160D01*
X126623070Y-143783050D01*
X119421758Y-143783050D01*
X119037073Y-143397694D01*
X118436547Y-143148334D01*
X117786306Y-143147766D01*
X117185345Y-143396078D01*
X116725154Y-143855467D01*
X116475794Y-144455993D01*
X116475226Y-145106234D01*
X114985000Y-145106234D01*
X114985000Y-137042532D01*
X117147233Y-137042532D01*
X117245896Y-137309387D01*
X117855621Y-137535908D01*
X118505620Y-137511856D01*
X118994424Y-137309387D01*
X119093087Y-137042532D01*
X118120160Y-136069605D01*
X117147233Y-137042532D01*
X114985000Y-137042532D01*
X114985000Y-135625461D01*
X116474252Y-135625461D01*
X116498304Y-136275460D01*
X116700773Y-136764264D01*
X116967628Y-136862927D01*
X117940555Y-135890000D01*
X118299765Y-135890000D01*
X119272692Y-136862927D01*
X119539547Y-136764264D01*
X119766068Y-136154539D01*
X119742016Y-135504540D01*
X119539547Y-135015736D01*
X119272692Y-134917073D01*
X118299765Y-135890000D01*
X117940555Y-135890000D01*
X116967628Y-134917073D01*
X116700773Y-135015736D01*
X116474252Y-135625461D01*
X114985000Y-135625461D01*
X114985000Y-134737468D01*
X117147233Y-134737468D01*
X118120160Y-135710395D01*
X119093087Y-134737468D01*
X118994424Y-134470613D01*
X118384699Y-134244092D01*
X117734700Y-134268144D01*
X117245896Y-134470613D01*
X117147233Y-134737468D01*
X114985000Y-134737468D01*
X114985000Y-133535167D01*
X119714838Y-133535167D01*
X119856883Y-133878943D01*
X120119673Y-134142192D01*
X120463201Y-134284838D01*
X120835167Y-134285162D01*
X121178943Y-134143117D01*
X121212118Y-134110000D01*
X125415198Y-134110000D01*
X125560057Y-134254859D01*
X125396045Y-134254716D01*
X124794897Y-134503106D01*
X124334562Y-134962637D01*
X124085124Y-135563352D01*
X124084556Y-136213795D01*
X124332946Y-136814943D01*
X124792477Y-137275278D01*
X125393192Y-137524716D01*
X126043635Y-137525284D01*
X126644783Y-137276894D01*
X127105118Y-136817363D01*
X127354556Y-136216648D01*
X127354702Y-136049504D01*
X127732599Y-136427401D01*
X127979160Y-136592148D01*
X128027414Y-136601746D01*
X128270000Y-136650000D01*
X131699000Y-136650000D01*
X131699000Y-138415000D01*
X131303691Y-138415000D01*
X131070302Y-138511673D01*
X130891673Y-138690301D01*
X130795000Y-138923690D01*
X130795000Y-139414250D01*
X130953750Y-139573000D01*
X131813823Y-139573000D01*
X131953000Y-139599937D01*
X131953000Y-139827000D01*
X130953750Y-139827000D01*
X130795000Y-139985750D01*
X130795000Y-140476310D01*
X130891673Y-140709699D01*
X131070302Y-140888327D01*
X131303691Y-140985000D01*
X131794250Y-140985000D01*
X131952998Y-140826252D01*
X131952998Y-140985000D01*
X131953000Y-140985000D01*
X131953000Y-143495000D01*
X131952998Y-143495000D01*
X131952998Y-143653748D01*
X131794250Y-143495000D01*
X131303691Y-143495000D01*
X131070302Y-143591673D01*
X130891673Y-143770301D01*
X130795000Y-144003690D01*
X130795000Y-144494250D01*
X130953750Y-144653000D01*
X131953000Y-144653000D01*
X131953000Y-144907000D01*
X130953750Y-144907000D01*
X130795000Y-145065750D01*
X130795000Y-145556310D01*
X130891673Y-145789699D01*
X131070302Y-145968327D01*
X131303691Y-146065000D01*
X131794250Y-146065000D01*
X131953000Y-145906250D01*
X131953000Y-145034000D01*
X131963006Y-145083410D01*
X131991447Y-145125035D01*
X132033841Y-145152315D01*
X132080000Y-145161000D01*
X132207000Y-145161000D01*
X132207000Y-145906250D01*
X132365750Y-146065000D01*
X132856309Y-146065000D01*
X133089698Y-145968327D01*
X133268327Y-145789699D01*
X133365000Y-145556310D01*
X133365000Y-145204433D01*
X133489995Y-145506943D01*
X133851155Y-145868735D01*
X134323276Y-146064777D01*
X134834481Y-146065223D01*
X135306943Y-145870005D01*
X135637525Y-145540000D01*
X137499453Y-145540000D01*
X137509169Y-145563515D01*
X137898436Y-145953461D01*
X138407298Y-146164759D01*
X138958285Y-146165240D01*
X139467515Y-145954831D01*
X139857461Y-145565564D01*
X140068759Y-145056702D01*
X140069240Y-144505715D01*
X139971845Y-144270000D01*
X143567005Y-144270000D01*
X143737189Y-144524698D01*
X144119275Y-144780000D01*
X143737189Y-145035302D01*
X143426120Y-145500849D01*
X143316887Y-146050000D01*
X143426120Y-146599151D01*
X143737189Y-147064698D01*
X144119275Y-147320000D01*
X143737189Y-147575302D01*
X143426120Y-148040849D01*
X143316887Y-148590000D01*
X143426120Y-149139151D01*
X143737189Y-149604698D01*
X144119275Y-149860000D01*
X143737189Y-150115302D01*
X143426120Y-150580849D01*
X143316887Y-151130000D01*
X143426120Y-151679151D01*
X143737189Y-152144698D01*
X144119275Y-152400000D01*
X143737189Y-152655302D01*
X143426120Y-153120849D01*
X143316887Y-153670000D01*
X143426120Y-154219151D01*
X143737189Y-154684698D01*
X144202736Y-154995767D01*
X144399000Y-155034806D01*
X144399000Y-163612501D01*
X144311000Y-164054907D01*
X144311000Y-164113093D01*
X144399000Y-164555499D01*
X144399000Y-166172382D01*
X144354514Y-166267108D01*
X144399000Y-166351862D01*
X144399000Y-166896138D01*
X144354514Y-166980892D01*
X144399000Y-167075618D01*
X144399000Y-168910000D01*
X144409006Y-168959410D01*
X144437447Y-169001035D01*
X144479841Y-169028315D01*
X144526000Y-169037000D01*
X152400000Y-169037000D01*
X152449410Y-169026994D01*
X152491035Y-168998553D01*
X152518315Y-168956159D01*
X152527000Y-168910000D01*
X152527000Y-167300815D01*
X176934630Y-167300815D01*
X177258980Y-168085800D01*
X177859041Y-168686909D01*
X178643459Y-169012628D01*
X179492815Y-169013370D01*
X180277800Y-168689020D01*
X180878909Y-168088959D01*
X181204628Y-167304541D01*
X181205370Y-166455185D01*
X180881020Y-165670200D01*
X180280959Y-165069091D01*
X179496541Y-164743372D01*
X178647185Y-164742630D01*
X177862200Y-165066980D01*
X177261091Y-165667041D01*
X176935372Y-166451459D01*
X176934630Y-167300815D01*
X152527000Y-167300815D01*
X152527000Y-159951802D01*
X156307599Y-163732401D01*
X156554160Y-163897148D01*
X156845000Y-163955000D01*
X175895000Y-163955000D01*
X176185839Y-163897148D01*
X176432401Y-163732401D01*
X180242401Y-159922401D01*
X180407148Y-159675839D01*
X180465000Y-159385000D01*
X180465000Y-99060000D01*
X180407148Y-98769161D01*
X180242401Y-98522599D01*
X175162401Y-93442599D01*
X174915839Y-93277852D01*
X174625000Y-93220000D01*
X144780000Y-93220000D01*
X144489161Y-93277852D01*
X144242599Y-93442599D01*
X143952033Y-93733165D01*
X129465199Y-104291366D01*
X129431162Y-104328554D01*
X129413000Y-104394000D01*
X129413000Y-104474889D01*
X129354833Y-104474838D01*
X129011057Y-104616883D01*
X128747808Y-104879673D01*
X128605162Y-105223201D01*
X128604838Y-105595167D01*
X128746883Y-105938943D01*
X128780000Y-105972118D01*
X128780000Y-106680000D01*
X128837852Y-106970839D01*
X129002599Y-107217401D01*
X133684878Y-111899680D01*
X133684838Y-111945167D01*
X133826883Y-112288943D01*
X134089673Y-112552192D01*
X134433201Y-112694838D01*
X134805167Y-112695162D01*
X134885208Y-112662090D01*
X137323008Y-118100259D01*
X137166186Y-117995474D01*
X136592697Y-117881400D01*
X135187303Y-117881400D01*
X134613814Y-117995474D01*
X134127633Y-118320330D01*
X133927400Y-118620000D01*
X125152600Y-118620000D01*
X124952367Y-118320330D01*
X124466186Y-117995474D01*
X123892697Y-117881400D01*
X122487303Y-117881400D01*
X121913814Y-117995474D01*
X121427633Y-118320330D01*
X121102777Y-118806511D01*
X120988703Y-119380000D01*
X121102777Y-119953489D01*
X121427633Y-120439670D01*
X121913814Y-120764526D01*
X122487303Y-120878600D01*
X123892697Y-120878600D01*
X124466186Y-120764526D01*
X124952367Y-120439670D01*
X125152600Y-120140000D01*
X133927400Y-120140000D01*
X134127633Y-120439670D01*
X134613814Y-120764526D01*
X135187303Y-120878600D01*
X136592697Y-120878600D01*
X137166186Y-120764526D01*
X137652367Y-120439670D01*
X137852600Y-120140000D01*
X138115198Y-120140000D01*
X141702599Y-123727401D01*
X141949161Y-123892148D01*
X142240000Y-123950000D01*
X143567005Y-123950000D01*
X143737189Y-124204698D01*
X144119275Y-124460000D01*
X143737189Y-124715302D01*
X143426120Y-125180849D01*
X143316887Y-125730000D01*
X143426120Y-126279151D01*
X143737189Y-126744698D01*
X144119275Y-127000000D01*
X143737189Y-127255302D01*
X143567005Y-127510000D01*
X138357463Y-127510000D01*
X138325327Y-127477808D01*
X137981799Y-127335162D01*
X137609833Y-127334838D01*
X137266057Y-127476883D01*
X137002808Y-127739673D01*
X136860162Y-128083201D01*
X136859838Y-128455167D01*
X137001883Y-128798943D01*
X137264673Y-129062192D01*
X137608201Y-129204838D01*
X137980167Y-129205162D01*
X138323943Y-129063117D01*
X138357118Y-129030000D01*
X138899367Y-129030000D01*
X138765162Y-129353201D01*
X138764838Y-129725167D01*
X138906883Y-130068943D01*
X139169673Y-130332192D01*
X139513201Y-130474838D01*
X139885167Y-130475162D01*
X140228943Y-130333117D01*
X140262118Y-130300000D01*
X143418332Y-130300000D01*
X143316887Y-130810000D01*
X143426120Y-131359151D01*
X143737189Y-131824698D01*
X144119275Y-132080000D01*
X143737189Y-132335302D01*
X143426120Y-132800849D01*
X143316887Y-133350000D01*
X143426120Y-133899151D01*
X143737189Y-134364698D01*
X144119275Y-134620000D01*
X143737189Y-134875302D01*
X143567005Y-135130000D01*
X128584802Y-135130000D01*
X126267401Y-132812599D01*
X126020839Y-132647852D01*
X125730000Y-132590000D01*
X121212463Y-132590000D01*
X121180327Y-132557808D01*
X120836799Y-132415162D01*
X120464833Y-132414838D01*
X120121057Y-132556883D01*
X119857808Y-132819673D01*
X119715162Y-133163201D01*
X119714838Y-133535167D01*
X114985000Y-133535167D01*
X114985000Y-124819026D01*
X121074642Y-124819026D01*
X121096473Y-124916157D01*
X121380127Y-125429868D01*
X121838778Y-125795925D01*
X122402600Y-125958600D01*
X123063000Y-125958600D01*
X123063000Y-124587000D01*
X123317000Y-124587000D01*
X123317000Y-125958600D01*
X123977400Y-125958600D01*
X124541222Y-125795925D01*
X124999873Y-125429868D01*
X125283527Y-124916157D01*
X125305358Y-124819026D01*
X133774642Y-124819026D01*
X133796473Y-124916157D01*
X134080127Y-125429868D01*
X134538778Y-125795925D01*
X135102600Y-125958600D01*
X135763000Y-125958600D01*
X135763000Y-124587000D01*
X136017000Y-124587000D01*
X136017000Y-125958600D01*
X136677400Y-125958600D01*
X137241222Y-125795925D01*
X137699873Y-125429868D01*
X137983527Y-124916157D01*
X138005358Y-124819026D01*
X137884217Y-124587000D01*
X136017000Y-124587000D01*
X135763000Y-124587000D01*
X133895783Y-124587000D01*
X133774642Y-124819026D01*
X125305358Y-124819026D01*
X125184217Y-124587000D01*
X123317000Y-124587000D01*
X123063000Y-124587000D01*
X121195783Y-124587000D01*
X121074642Y-124819026D01*
X114985000Y-124819026D01*
X114985000Y-124100974D01*
X121074642Y-124100974D01*
X121195783Y-124333000D01*
X123063000Y-124333000D01*
X123063000Y-122961400D01*
X123317000Y-122961400D01*
X123317000Y-124333000D01*
X125184217Y-124333000D01*
X125305358Y-124100974D01*
X133774642Y-124100974D01*
X133895783Y-124333000D01*
X135763000Y-124333000D01*
X135763000Y-122961400D01*
X136017000Y-122961400D01*
X136017000Y-124333000D01*
X137884217Y-124333000D01*
X138005358Y-124100974D01*
X137983527Y-124003843D01*
X137699873Y-123490132D01*
X137241222Y-123124075D01*
X136677400Y-122961400D01*
X136017000Y-122961400D01*
X135763000Y-122961400D01*
X135102600Y-122961400D01*
X134538778Y-123124075D01*
X134080127Y-123490132D01*
X133796473Y-124003843D01*
X133774642Y-124100974D01*
X125305358Y-124100974D01*
X125283527Y-124003843D01*
X124999873Y-123490132D01*
X124541222Y-123124075D01*
X123977400Y-122961400D01*
X123317000Y-122961400D01*
X123063000Y-122961400D01*
X122402600Y-122961400D01*
X121838778Y-123124075D01*
X121380127Y-123490132D01*
X121096473Y-124003843D01*
X121074642Y-124100974D01*
X114985000Y-124100974D01*
X114985000Y-121020000D01*
X115292560Y-121020000D01*
X115292560Y-122820000D01*
X115336838Y-123055317D01*
X115475910Y-123271441D01*
X115688110Y-123416431D01*
X115940000Y-123467440D01*
X117740000Y-123467440D01*
X117975317Y-123423162D01*
X118191441Y-123284090D01*
X118336431Y-123071890D01*
X118340567Y-123051466D01*
X118509357Y-123220551D01*
X119073330Y-123454733D01*
X119683991Y-123455265D01*
X120248371Y-123222068D01*
X120680551Y-122790643D01*
X120914733Y-122226670D01*
X120915265Y-121616009D01*
X120682068Y-121051629D01*
X120250643Y-120619449D01*
X119686670Y-120385267D01*
X119076009Y-120384735D01*
X118511629Y-120617932D01*
X118343387Y-120785880D01*
X118343162Y-120784683D01*
X118204090Y-120568559D01*
X117991890Y-120423569D01*
X117740000Y-120372560D01*
X115940000Y-120372560D01*
X115704683Y-120416838D01*
X115488559Y-120555910D01*
X115343569Y-120768110D01*
X115292560Y-121020000D01*
X114985000Y-121020000D01*
X114985000Y-110426500D01*
X118034060Y-110426500D01*
X118034060Y-111823500D01*
X118078338Y-112058817D01*
X118217410Y-112274941D01*
X118429610Y-112419931D01*
X118681500Y-112470940D01*
X120078500Y-112470940D01*
X120313817Y-112426662D01*
X120529941Y-112287590D01*
X120674931Y-112075390D01*
X120725940Y-111823500D01*
X120725940Y-110426500D01*
X120681662Y-110191183D01*
X120542590Y-109975059D01*
X120330390Y-109830069D01*
X120078500Y-109779060D01*
X120014360Y-109779060D01*
X120072929Y-109754800D01*
X120134583Y-109519188D01*
X119380000Y-108764605D01*
X118625417Y-109519188D01*
X118687071Y-109754800D01*
X118755998Y-109779060D01*
X118681500Y-109779060D01*
X118446183Y-109823338D01*
X118230059Y-109962410D01*
X118085069Y-110174610D01*
X118034060Y-110426500D01*
X114985000Y-110426500D01*
X114985000Y-108392480D01*
X118034073Y-108392480D01*
X118062852Y-108922199D01*
X118210200Y-109277929D01*
X118445812Y-109339583D01*
X119200395Y-108585000D01*
X119559605Y-108585000D01*
X120314188Y-109339583D01*
X120549800Y-109277929D01*
X120725927Y-108777520D01*
X120697148Y-108247801D01*
X120549800Y-107892071D01*
X120314188Y-107830417D01*
X119559605Y-108585000D01*
X119200395Y-108585000D01*
X118445812Y-107830417D01*
X118210200Y-107892071D01*
X118034073Y-108392480D01*
X114985000Y-108392480D01*
X114985000Y-106309086D01*
X118046269Y-106309086D01*
X118248854Y-106799380D01*
X118623647Y-107174827D01*
X118945118Y-107308314D01*
X118687071Y-107415200D01*
X118625417Y-107650812D01*
X119380000Y-108405395D01*
X120134583Y-107650812D01*
X120072929Y-107415200D01*
X119793688Y-107316917D01*
X120134380Y-107176146D01*
X120509827Y-106801353D01*
X120713268Y-106311413D01*
X120713731Y-105780914D01*
X120511146Y-105290620D01*
X120136353Y-104915173D01*
X119646413Y-104711732D01*
X119115914Y-104711269D01*
X118625620Y-104913854D01*
X118250173Y-105288647D01*
X118046732Y-105778587D01*
X118046269Y-106309086D01*
X114985000Y-106309086D01*
X114985000Y-88560815D01*
X115974630Y-88560815D01*
X116298980Y-89345800D01*
X116899041Y-89946909D01*
X117683459Y-90272628D01*
X118532815Y-90273370D01*
X119317800Y-89949020D01*
X119918909Y-89348959D01*
X120244628Y-88564541D01*
X120244631Y-88560815D01*
X176934630Y-88560815D01*
X177258980Y-89345800D01*
X177859041Y-89946909D01*
X178643459Y-90272628D01*
X179492815Y-90273370D01*
X180277800Y-89949020D01*
X180878909Y-89348959D01*
X181204628Y-88564541D01*
X181205370Y-87715185D01*
X180881020Y-86930200D01*
X180280959Y-86329091D01*
X179496541Y-86003372D01*
X178647185Y-86002630D01*
X177862200Y-86326980D01*
X177261091Y-86927041D01*
X176935372Y-87711459D01*
X176934630Y-88560815D01*
X120244631Y-88560815D01*
X120245370Y-87715185D01*
X119921020Y-86930200D01*
X119320959Y-86329091D01*
X118536541Y-86003372D01*
X117687185Y-86002630D01*
X116902200Y-86326980D01*
X116301091Y-86927041D01*
X115975372Y-87711459D01*
X115974630Y-88560815D01*
X114985000Y-88560815D01*
X114985000Y-85140000D01*
X182195000Y-85140000D01*
X182195000Y-170130000D01*
G36*
X177675000Y-99374802D02*
X177675000Y-157800198D01*
X174310198Y-161165000D01*
X158429802Y-161165000D01*
X155065000Y-157800198D01*
X155065000Y-156680000D01*
X167912420Y-156680000D01*
X167912420Y-158280000D01*
X167956698Y-158515317D01*
X168095770Y-158731441D01*
X168307970Y-158876431D01*
X168559860Y-158927440D01*
X169559860Y-158927440D01*
X169795177Y-158883162D01*
X170011301Y-158744090D01*
X170156291Y-158531890D01*
X170207300Y-158280000D01*
X170207300Y-156680000D01*
X173911900Y-156680000D01*
X173911900Y-158280000D01*
X173956178Y-158515317D01*
X174095250Y-158731441D01*
X174307450Y-158876431D01*
X174559340Y-158927440D01*
X175559340Y-158927440D01*
X175794657Y-158883162D01*
X176010781Y-158744090D01*
X176155771Y-158531890D01*
X176206780Y-158280000D01*
X176206780Y-156680000D01*
X176162502Y-156444683D01*
X176023430Y-156228559D01*
X175811230Y-156083569D01*
X175559340Y-156032560D01*
X174559340Y-156032560D01*
X174324023Y-156076838D01*
X174107899Y-156215910D01*
X173962909Y-156428110D01*
X173911900Y-156680000D01*
X170207300Y-156680000D01*
X170163022Y-156444683D01*
X170023950Y-156228559D01*
X169811750Y-156083569D01*
X169559860Y-156032560D01*
X168559860Y-156032560D01*
X168324543Y-156076838D01*
X168108419Y-156215910D01*
X167963429Y-156428110D01*
X167912420Y-156680000D01*
X155065000Y-156680000D01*
X155065000Y-152281000D01*
X170612160Y-152281000D01*
X170612160Y-153281000D01*
X170656438Y-153516317D01*
X170795510Y-153732441D01*
X171007710Y-153877431D01*
X171259600Y-153928440D01*
X172859600Y-153928440D01*
X173094917Y-153884162D01*
X173311041Y-153745090D01*
X173456031Y-153532890D01*
X173507040Y-153281000D01*
X173507040Y-152281000D01*
X173462762Y-152045683D01*
X173323690Y-151829559D01*
X173111490Y-151684569D01*
X172859600Y-151633560D01*
X171259600Y-151633560D01*
X171024283Y-151677838D01*
X170808159Y-151816910D01*
X170663169Y-152029110D01*
X170612160Y-152281000D01*
X155065000Y-152281000D01*
X155065000Y-147320000D01*
X155007148Y-147029161D01*
X155007148Y-147029160D01*
X154842401Y-146782599D01*
X153801859Y-145742057D01*
X153753880Y-145500849D01*
X153442811Y-145035302D01*
X153060725Y-144780000D01*
X153442811Y-144524698D01*
X153753880Y-144059151D01*
X153863113Y-143510000D01*
X153798688Y-143186114D01*
X156984680Y-140000122D01*
X157030167Y-140000162D01*
X157373943Y-139858117D01*
X157637192Y-139595327D01*
X157779838Y-139251799D01*
X157780162Y-138879833D01*
X157697606Y-138680030D01*
X162395000Y-138680030D01*
X162395000Y-139449970D01*
X162504233Y-139999121D01*
X162815302Y-140464668D01*
X163280849Y-140775737D01*
X163590700Y-140837370D01*
X163590700Y-141394405D01*
X163388733Y-141596019D01*
X163215518Y-142013168D01*
X163215124Y-142464850D01*
X163387611Y-142882301D01*
X163706719Y-143201967D01*
X164123868Y-143375182D01*
X164575550Y-143375576D01*
X164993001Y-143203089D01*
X165099906Y-143096370D01*
X165205319Y-143201967D01*
X165622468Y-143375182D01*
X166074150Y-143375576D01*
X166491601Y-143203089D01*
X166811267Y-142883981D01*
X166984482Y-142466832D01*
X166984876Y-142015150D01*
X166812389Y-141597699D01*
X166609300Y-141394255D01*
X166609300Y-140837370D01*
X166919151Y-140775737D01*
X167384698Y-140464668D01*
X167640000Y-140082582D01*
X167895302Y-140464668D01*
X168360849Y-140775737D01*
X168910000Y-140884970D01*
X169459151Y-140775737D01*
X169924698Y-140464668D01*
X170177149Y-140086849D01*
X170525104Y-140519500D01*
X171018181Y-140789367D01*
X171100961Y-140806904D01*
X171323000Y-140684915D01*
X171323000Y-139192000D01*
X171577000Y-139192000D01*
X171577000Y-140684915D01*
X171799039Y-140806904D01*
X171881819Y-140789367D01*
X172374896Y-140519500D01*
X172727166Y-140081483D01*
X172885000Y-139542000D01*
X172885000Y-139192000D01*
X171577000Y-139192000D01*
X171323000Y-139192000D01*
X171303000Y-139192000D01*
X171303000Y-138938000D01*
X171323000Y-138938000D01*
X171323000Y-137445085D01*
X171577000Y-137445085D01*
X171577000Y-138938000D01*
X172885000Y-138938000D01*
X172885000Y-138588000D01*
X172727166Y-138048517D01*
X172374896Y-137610500D01*
X171881819Y-137340633D01*
X171799039Y-137323096D01*
X171577000Y-137445085D01*
X171323000Y-137445085D01*
X171100961Y-137323096D01*
X171018181Y-137340633D01*
X170525104Y-137610500D01*
X170177149Y-138043151D01*
X169924698Y-137665332D01*
X169459151Y-137354263D01*
X168910000Y-137245030D01*
X168360849Y-137354263D01*
X167895302Y-137665332D01*
X167640000Y-138047418D01*
X167384698Y-137665332D01*
X166919151Y-137354263D01*
X166370000Y-137245030D01*
X165820849Y-137354263D01*
X165355302Y-137665332D01*
X165100000Y-138047418D01*
X164844698Y-137665332D01*
X164379151Y-137354263D01*
X163830000Y-137245030D01*
X163280849Y-137354263D01*
X162815302Y-137665332D01*
X162504233Y-138130879D01*
X162395000Y-138680030D01*
X157697606Y-138680030D01*
X157667465Y-138607085D01*
X158959844Y-137360863D01*
X159198201Y-137459838D01*
X159570167Y-137460162D01*
X159913943Y-137318117D01*
X160177192Y-137055327D01*
X160319838Y-136711799D01*
X160320162Y-136339833D01*
X160178117Y-135996057D01*
X159915327Y-135732808D01*
X159571799Y-135590162D01*
X159524923Y-135590121D01*
X158875000Y-134940198D01*
X158875000Y-131060030D01*
X162395000Y-131060030D01*
X162395000Y-131829970D01*
X162504233Y-132379121D01*
X162815302Y-132844668D01*
X163280849Y-133155737D01*
X163830000Y-133264970D01*
X164379151Y-133155737D01*
X164844698Y-132844668D01*
X165100000Y-132462582D01*
X165355302Y-132844668D01*
X165820849Y-133155737D01*
X166370000Y-133264970D01*
X166919151Y-133155737D01*
X167384698Y-132844668D01*
X167640000Y-132462582D01*
X167895302Y-132844668D01*
X168360849Y-133155737D01*
X168910000Y-133264970D01*
X169459151Y-133155737D01*
X169924698Y-132844668D01*
X170180000Y-132462582D01*
X170435302Y-132844668D01*
X170900849Y-133155737D01*
X171450000Y-133264970D01*
X171999151Y-133155737D01*
X172464698Y-132844668D01*
X172775767Y-132379121D01*
X172885000Y-131829970D01*
X172885000Y-131060030D01*
X172775767Y-130510879D01*
X172464698Y-130045332D01*
X171999151Y-129734263D01*
X171450000Y-129625030D01*
X171358110Y-129643308D01*
X170717401Y-129002599D01*
X170470839Y-128837852D01*
X170180000Y-128780000D01*
X164392463Y-128780000D01*
X164360327Y-128747808D01*
X164016799Y-128605162D01*
X163644833Y-128604838D01*
X163301057Y-128746883D01*
X163037808Y-129009673D01*
X162895162Y-129353201D01*
X162894838Y-129725167D01*
X162981298Y-129934417D01*
X162815302Y-130045332D01*
X162504233Y-130510879D01*
X162395000Y-131060030D01*
X158875000Y-131060030D01*
X158875000Y-124819026D01*
X159174642Y-124819026D01*
X159196473Y-124916157D01*
X159480127Y-125429868D01*
X159938778Y-125795925D01*
X160502600Y-125958600D01*
X161163000Y-125958600D01*
X161163000Y-124587000D01*
X161417000Y-124587000D01*
X161417000Y-125958600D01*
X162077400Y-125958600D01*
X162641222Y-125795925D01*
X163099873Y-125429868D01*
X163383527Y-124916157D01*
X163405358Y-124819026D01*
X171874642Y-124819026D01*
X171896473Y-124916157D01*
X172180127Y-125429868D01*
X172638778Y-125795925D01*
X173202600Y-125958600D01*
X173863000Y-125958600D01*
X173863000Y-124587000D01*
X174117000Y-124587000D01*
X174117000Y-125958600D01*
X174777400Y-125958600D01*
X175341222Y-125795925D01*
X175799873Y-125429868D01*
X176083527Y-124916157D01*
X176105358Y-124819026D01*
X175984217Y-124587000D01*
X174117000Y-124587000D01*
X173863000Y-124587000D01*
X171995783Y-124587000D01*
X171874642Y-124819026D01*
X163405358Y-124819026D01*
X163284217Y-124587000D01*
X161417000Y-124587000D01*
X161163000Y-124587000D01*
X159295783Y-124587000D01*
X159174642Y-124819026D01*
X158875000Y-124819026D01*
X158875000Y-124100974D01*
X159174642Y-124100974D01*
X159295783Y-124333000D01*
X161163000Y-124333000D01*
X161163000Y-122961400D01*
X161417000Y-122961400D01*
X161417000Y-124333000D01*
X163284217Y-124333000D01*
X163405358Y-124100974D01*
X171874642Y-124100974D01*
X171995783Y-124333000D01*
X173863000Y-124333000D01*
X173863000Y-122961400D01*
X174117000Y-122961400D01*
X174117000Y-124333000D01*
X175984217Y-124333000D01*
X176105358Y-124100974D01*
X176083527Y-124003843D01*
X175799873Y-123490132D01*
X175341222Y-123124075D01*
X174777400Y-122961400D01*
X174117000Y-122961400D01*
X173863000Y-122961400D01*
X173202600Y-122961400D01*
X172638778Y-123124075D01*
X172180127Y-123490132D01*
X171896473Y-124003843D01*
X171874642Y-124100974D01*
X163405358Y-124100974D01*
X163383527Y-124003843D01*
X163099873Y-123490132D01*
X162641222Y-123124075D01*
X162077400Y-122961400D01*
X161417000Y-122961400D01*
X161163000Y-122961400D01*
X160502600Y-122961400D01*
X159938778Y-123124075D01*
X159480127Y-123490132D01*
X159196473Y-124003843D01*
X159174642Y-124100974D01*
X158875000Y-124100974D01*
X158875000Y-119380000D01*
X159088703Y-119380000D01*
X159202777Y-119953489D01*
X159527633Y-120439670D01*
X160013814Y-120764526D01*
X160587303Y-120878600D01*
X161992697Y-120878600D01*
X162566186Y-120764526D01*
X163052367Y-120439670D01*
X163252600Y-120140000D01*
X172027400Y-120140000D01*
X172227633Y-120439670D01*
X172713814Y-120764526D01*
X173287303Y-120878600D01*
X174692697Y-120878600D01*
X175266186Y-120764526D01*
X175752367Y-120439670D01*
X176077223Y-119953489D01*
X176191297Y-119380000D01*
X176077223Y-118806511D01*
X175752367Y-118320330D01*
X175266186Y-117995474D01*
X174692697Y-117881400D01*
X173287303Y-117881400D01*
X172713814Y-117995474D01*
X172227633Y-118320330D01*
X172027400Y-118620000D01*
X163252600Y-118620000D01*
X163052367Y-118320330D01*
X162566186Y-117995474D01*
X161992697Y-117881400D01*
X160587303Y-117881400D01*
X160013814Y-117995474D01*
X159527633Y-118320330D01*
X159202777Y-118806511D01*
X159088703Y-119380000D01*
X158875000Y-119380000D01*
X158875000Y-104775000D01*
X158817148Y-104484161D01*
X158652401Y-104237599D01*
X158305474Y-103890672D01*
X158357399Y-95375000D01*
X173675198Y-95375000D01*
X177675000Y-99374802D01*
X177675000Y-99374802D01*
G37*
X177675000Y-99374802D02*
X177675000Y-157800198D01*
X174310198Y-161165000D01*
X158429802Y-161165000D01*
X155065000Y-157800198D01*
X155065000Y-156680000D01*
X167912420Y-156680000D01*
X167912420Y-158280000D01*
X167956698Y-158515317D01*
X168095770Y-158731441D01*
X168307970Y-158876431D01*
X168559860Y-158927440D01*
X169559860Y-158927440D01*
X169795177Y-158883162D01*
X170011301Y-158744090D01*
X170156291Y-158531890D01*
X170207300Y-158280000D01*
X170207300Y-156680000D01*
X173911900Y-156680000D01*
X173911900Y-158280000D01*
X173956178Y-158515317D01*
X174095250Y-158731441D01*
X174307450Y-158876431D01*
X174559340Y-158927440D01*
X175559340Y-158927440D01*
X175794657Y-158883162D01*
X176010781Y-158744090D01*
X176155771Y-158531890D01*
X176206780Y-158280000D01*
X176206780Y-156680000D01*
X176162502Y-156444683D01*
X176023430Y-156228559D01*
X175811230Y-156083569D01*
X175559340Y-156032560D01*
X174559340Y-156032560D01*
X174324023Y-156076838D01*
X174107899Y-156215910D01*
X173962909Y-156428110D01*
X173911900Y-156680000D01*
X170207300Y-156680000D01*
X170163022Y-156444683D01*
X170023950Y-156228559D01*
X169811750Y-156083569D01*
X169559860Y-156032560D01*
X168559860Y-156032560D01*
X168324543Y-156076838D01*
X168108419Y-156215910D01*
X167963429Y-156428110D01*
X167912420Y-156680000D01*
X155065000Y-156680000D01*
X155065000Y-152281000D01*
X170612160Y-152281000D01*
X170612160Y-153281000D01*
X170656438Y-153516317D01*
X170795510Y-153732441D01*
X171007710Y-153877431D01*
X171259600Y-153928440D01*
X172859600Y-153928440D01*
X173094917Y-153884162D01*
X173311041Y-153745090D01*
X173456031Y-153532890D01*
X173507040Y-153281000D01*
X173507040Y-152281000D01*
X173462762Y-152045683D01*
X173323690Y-151829559D01*
X173111490Y-151684569D01*
X172859600Y-151633560D01*
X171259600Y-151633560D01*
X171024283Y-151677838D01*
X170808159Y-151816910D01*
X170663169Y-152029110D01*
X170612160Y-152281000D01*
X155065000Y-152281000D01*
X155065000Y-147320000D01*
X155007148Y-147029161D01*
X155007148Y-147029160D01*
X154842401Y-146782599D01*
X153801859Y-145742057D01*
X153753880Y-145500849D01*
X153442811Y-145035302D01*
X153060725Y-144780000D01*
X153442811Y-144524698D01*
X153753880Y-144059151D01*
X153863113Y-143510000D01*
X153798688Y-143186114D01*
X156984680Y-140000122D01*
X157030167Y-140000162D01*
X157373943Y-139858117D01*
X157637192Y-139595327D01*
X157779838Y-139251799D01*
X157780162Y-138879833D01*
X157697606Y-138680030D01*
X162395000Y-138680030D01*
X162395000Y-139449970D01*
X162504233Y-139999121D01*
X162815302Y-140464668D01*
X163280849Y-140775737D01*
X163590700Y-140837370D01*
X163590700Y-141394405D01*
X163388733Y-141596019D01*
X163215518Y-142013168D01*
X163215124Y-142464850D01*
X163387611Y-142882301D01*
X163706719Y-143201967D01*
X164123868Y-143375182D01*
X164575550Y-143375576D01*
X164993001Y-143203089D01*
X165099906Y-143096370D01*
X165205319Y-143201967D01*
X165622468Y-143375182D01*
X166074150Y-143375576D01*
X166491601Y-143203089D01*
X166811267Y-142883981D01*
X166984482Y-142466832D01*
X166984876Y-142015150D01*
X166812389Y-141597699D01*
X166609300Y-141394255D01*
X166609300Y-140837370D01*
X166919151Y-140775737D01*
X167384698Y-140464668D01*
X167640000Y-140082582D01*
X167895302Y-140464668D01*
X168360849Y-140775737D01*
X168910000Y-140884970D01*
X169459151Y-140775737D01*
X169924698Y-140464668D01*
X170177149Y-140086849D01*
X170525104Y-140519500D01*
X171018181Y-140789367D01*
X171100961Y-140806904D01*
X171323000Y-140684915D01*
X171323000Y-139192000D01*
X171577000Y-139192000D01*
X171577000Y-140684915D01*
X171799039Y-140806904D01*
X171881819Y-140789367D01*
X172374896Y-140519500D01*
X172727166Y-140081483D01*
X172885000Y-139542000D01*
X172885000Y-139192000D01*
X171577000Y-139192000D01*
X171323000Y-139192000D01*
X171303000Y-139192000D01*
X171303000Y-138938000D01*
X171323000Y-138938000D01*
X171323000Y-137445085D01*
X171577000Y-137445085D01*
X171577000Y-138938000D01*
X172885000Y-138938000D01*
X172885000Y-138588000D01*
X172727166Y-138048517D01*
X172374896Y-137610500D01*
X171881819Y-137340633D01*
X171799039Y-137323096D01*
X171577000Y-137445085D01*
X171323000Y-137445085D01*
X171100961Y-137323096D01*
X171018181Y-137340633D01*
X170525104Y-137610500D01*
X170177149Y-138043151D01*
X169924698Y-137665332D01*
X169459151Y-137354263D01*
X168910000Y-137245030D01*
X168360849Y-137354263D01*
X167895302Y-137665332D01*
X167640000Y-138047418D01*
X167384698Y-137665332D01*
X166919151Y-137354263D01*
X166370000Y-137245030D01*
X165820849Y-137354263D01*
X165355302Y-137665332D01*
X165100000Y-138047418D01*
X164844698Y-137665332D01*
X164379151Y-137354263D01*
X163830000Y-137245030D01*
X163280849Y-137354263D01*
X162815302Y-137665332D01*
X162504233Y-138130879D01*
X162395000Y-138680030D01*
X157697606Y-138680030D01*
X157667465Y-138607085D01*
X158959844Y-137360863D01*
X159198201Y-137459838D01*
X159570167Y-137460162D01*
X159913943Y-137318117D01*
X160177192Y-137055327D01*
X160319838Y-136711799D01*
X160320162Y-136339833D01*
X160178117Y-135996057D01*
X159915327Y-135732808D01*
X159571799Y-135590162D01*
X159524923Y-135590121D01*
X158875000Y-134940198D01*
X158875000Y-131060030D01*
X162395000Y-131060030D01*
X162395000Y-131829970D01*
X162504233Y-132379121D01*
X162815302Y-132844668D01*
X163280849Y-133155737D01*
X163830000Y-133264970D01*
X164379151Y-133155737D01*
X164844698Y-132844668D01*
X165100000Y-132462582D01*
X165355302Y-132844668D01*
X165820849Y-133155737D01*
X166370000Y-133264970D01*
X166919151Y-133155737D01*
X167384698Y-132844668D01*
X167640000Y-132462582D01*
X167895302Y-132844668D01*
X168360849Y-133155737D01*
X168910000Y-133264970D01*
X169459151Y-133155737D01*
X169924698Y-132844668D01*
X170180000Y-132462582D01*
X170435302Y-132844668D01*
X170900849Y-133155737D01*
X171450000Y-133264970D01*
X171999151Y-133155737D01*
X172464698Y-132844668D01*
X172775767Y-132379121D01*
X172885000Y-131829970D01*
X172885000Y-131060030D01*
X172775767Y-130510879D01*
X172464698Y-130045332D01*
X171999151Y-129734263D01*
X171450000Y-129625030D01*
X171358110Y-129643308D01*
X170717401Y-129002599D01*
X170470839Y-128837852D01*
X170180000Y-128780000D01*
X164392463Y-128780000D01*
X164360327Y-128747808D01*
X164016799Y-128605162D01*
X163644833Y-128604838D01*
X163301057Y-128746883D01*
X163037808Y-129009673D01*
X162895162Y-129353201D01*
X162894838Y-129725167D01*
X162981298Y-129934417D01*
X162815302Y-130045332D01*
X162504233Y-130510879D01*
X162395000Y-131060030D01*
X158875000Y-131060030D01*
X158875000Y-124819026D01*
X159174642Y-124819026D01*
X159196473Y-124916157D01*
X159480127Y-125429868D01*
X159938778Y-125795925D01*
X160502600Y-125958600D01*
X161163000Y-125958600D01*
X161163000Y-124587000D01*
X161417000Y-124587000D01*
X161417000Y-125958600D01*
X162077400Y-125958600D01*
X162641222Y-125795925D01*
X163099873Y-125429868D01*
X163383527Y-124916157D01*
X163405358Y-124819026D01*
X171874642Y-124819026D01*
X171896473Y-124916157D01*
X172180127Y-125429868D01*
X172638778Y-125795925D01*
X173202600Y-125958600D01*
X173863000Y-125958600D01*
X173863000Y-124587000D01*
X174117000Y-124587000D01*
X174117000Y-125958600D01*
X174777400Y-125958600D01*
X175341222Y-125795925D01*
X175799873Y-125429868D01*
X176083527Y-124916157D01*
X176105358Y-124819026D01*
X175984217Y-124587000D01*
X174117000Y-124587000D01*
X173863000Y-124587000D01*
X171995783Y-124587000D01*
X171874642Y-124819026D01*
X163405358Y-124819026D01*
X163284217Y-124587000D01*
X161417000Y-124587000D01*
X161163000Y-124587000D01*
X159295783Y-124587000D01*
X159174642Y-124819026D01*
X158875000Y-124819026D01*
X158875000Y-124100974D01*
X159174642Y-124100974D01*
X159295783Y-124333000D01*
X161163000Y-124333000D01*
X161163000Y-122961400D01*
X161417000Y-122961400D01*
X161417000Y-124333000D01*
X163284217Y-124333000D01*
X163405358Y-124100974D01*
X171874642Y-124100974D01*
X171995783Y-124333000D01*
X173863000Y-124333000D01*
X173863000Y-122961400D01*
X174117000Y-122961400D01*
X174117000Y-124333000D01*
X175984217Y-124333000D01*
X176105358Y-124100974D01*
X176083527Y-124003843D01*
X175799873Y-123490132D01*
X175341222Y-123124075D01*
X174777400Y-122961400D01*
X174117000Y-122961400D01*
X173863000Y-122961400D01*
X173202600Y-122961400D01*
X172638778Y-123124075D01*
X172180127Y-123490132D01*
X171896473Y-124003843D01*
X171874642Y-124100974D01*
X163405358Y-124100974D01*
X163383527Y-124003843D01*
X163099873Y-123490132D01*
X162641222Y-123124075D01*
X162077400Y-122961400D01*
X161417000Y-122961400D01*
X161163000Y-122961400D01*
X160502600Y-122961400D01*
X159938778Y-123124075D01*
X159480127Y-123490132D01*
X159196473Y-124003843D01*
X159174642Y-124100974D01*
X158875000Y-124100974D01*
X158875000Y-119380000D01*
X159088703Y-119380000D01*
X159202777Y-119953489D01*
X159527633Y-120439670D01*
X160013814Y-120764526D01*
X160587303Y-120878600D01*
X161992697Y-120878600D01*
X162566186Y-120764526D01*
X163052367Y-120439670D01*
X163252600Y-120140000D01*
X172027400Y-120140000D01*
X172227633Y-120439670D01*
X172713814Y-120764526D01*
X173287303Y-120878600D01*
X174692697Y-120878600D01*
X175266186Y-120764526D01*
X175752367Y-120439670D01*
X176077223Y-119953489D01*
X176191297Y-119380000D01*
X176077223Y-118806511D01*
X175752367Y-118320330D01*
X175266186Y-117995474D01*
X174692697Y-117881400D01*
X173287303Y-117881400D01*
X172713814Y-117995474D01*
X172227633Y-118320330D01*
X172027400Y-118620000D01*
X163252600Y-118620000D01*
X163052367Y-118320330D01*
X162566186Y-117995474D01*
X161992697Y-117881400D01*
X160587303Y-117881400D01*
X160013814Y-117995474D01*
X159527633Y-118320330D01*
X159202777Y-118806511D01*
X159088703Y-119380000D01*
X158875000Y-119380000D01*
X158875000Y-104775000D01*
X158817148Y-104484161D01*
X158652401Y-104237599D01*
X158305474Y-103890672D01*
X158357399Y-95375000D01*
X173675198Y-95375000D01*
X177675000Y-99374802D01*
M02*
