G04 #@! TF.FileFunction,Soldermask,Top*
%FSLAX46Y46*%
G04 Gerber Fmt 4.6, Leading zero omitted, Abs format (unit mm)*
G04 Created by KiCad (PCBNEW 4.0.4-stable) date Thursday, November 10, 2016 'AMt' 08:57:46 AM*
%MOMM*%
%LPD*%
G01*
G04 APERTURE LIST*
%ADD10C,0.100000*%
%ADD11O,2.000000X2.700000*%
%ADD12R,3.400000X3.400000*%
%ADD13R,3.900120X3.900120*%
%ADD14R,1.700000X1.700000*%
%ADD15C,1.700000*%
%ADD16C,2.398980*%
%ADD17R,2.398980X2.398980*%
%ADD18R,2.400000X2.300000*%
%ADD19C,2.300000*%
%ADD20O,2.000000X2.000000*%
%ADD21C,2.400000*%
%ADD22R,1.797000X1.797000*%
%ADD23C,1.797000*%
%ADD24O,2.127200X3.448000*%
%ADD25C,1.924000*%
%ADD26C,1.400760*%
%ADD27O,2.398980X2.899360*%
%ADD28O,2.432000X2.940000*%
%ADD29O,1.901140X1.299160*%
%ADD30C,2.900000*%
G04 APERTURE END LIST*
D10*
D11*
X161290000Y-90170000D03*
X158750000Y-90170000D03*
X156210000Y-90170000D03*
X153670000Y-90170000D03*
X153670000Y-97790000D03*
X156210000Y-97790000D03*
X158750000Y-97790000D03*
X161290000Y-97790000D03*
D12*
X188595000Y-109220000D03*
X159385000Y-109220000D03*
D13*
X204619860Y-113030000D03*
X210619340Y-113030000D03*
X207619600Y-108331000D03*
X142090140Y-113030000D03*
X136090660Y-113030000D03*
X139090400Y-117729000D03*
D14*
X161290000Y-82550000D03*
D15*
X161290000Y-85050000D03*
D16*
X134620000Y-96522540D03*
D17*
X144780000Y-96522540D03*
D18*
X139700000Y-77470000D03*
D19*
X139700000Y-80010000D03*
D20*
X130810000Y-59690000D03*
X133350000Y-59690000D03*
X135890000Y-59690000D03*
X138430000Y-59690000D03*
X140970000Y-59690000D03*
X143510000Y-59690000D03*
X146050000Y-59690000D03*
X148590000Y-59690000D03*
X151130000Y-59690000D03*
X153670000Y-59690000D03*
X156210000Y-59690000D03*
X158750000Y-59690000D03*
X161290000Y-59690000D03*
X163830000Y-59690000D03*
X163830000Y-52070000D03*
X161290000Y-52070000D03*
X158750000Y-52070000D03*
X156210000Y-52070000D03*
X153670000Y-52070000D03*
X151130000Y-52070000D03*
X148590000Y-52070000D03*
X146050000Y-52070000D03*
X143510000Y-52070000D03*
X140970000Y-52070000D03*
X138430000Y-52070000D03*
X135890000Y-52070000D03*
X133350000Y-52070000D03*
X130810000Y-52070000D03*
D16*
X193040000Y-114300000D03*
X200660000Y-114300000D03*
X135890000Y-87630000D03*
X143510000Y-87630000D03*
X135890000Y-91440000D03*
X143510000Y-91440000D03*
X187960000Y-67310000D03*
X187960000Y-74930000D03*
X175260000Y-41910000D03*
X182880000Y-41910000D03*
X190500000Y-67310000D03*
X190500000Y-74930000D03*
X193040000Y-67310000D03*
X193040000Y-74930000D03*
X195580000Y-67310000D03*
X195580000Y-74930000D03*
X208280000Y-41910000D03*
X200660000Y-41910000D03*
X208280000Y-44450000D03*
X200660000Y-44450000D03*
D21*
X212079840Y-73660000D03*
X204480160Y-73660000D03*
D22*
X130810000Y-63500000D03*
D23*
X130810000Y-66040000D03*
X130810000Y-68580000D03*
D24*
X191770000Y-86360000D03*
X196850000Y-86360000D03*
X191770000Y-99060000D03*
X196850000Y-99060000D03*
X205740000Y-86360000D03*
X210820000Y-86360000D03*
X205740000Y-99060000D03*
X210820000Y-99060000D03*
D25*
X193040000Y-48260000D03*
X195580000Y-48260000D03*
X198120000Y-48260000D03*
X200660000Y-48260000D03*
X193040000Y-63500000D03*
X195580000Y-63500000D03*
X198120000Y-63500000D03*
X200660000Y-63500000D03*
X190500000Y-48260000D03*
X187960000Y-48260000D03*
X185420000Y-48260000D03*
X185420000Y-63500000D03*
X187960000Y-63500000D03*
X190500000Y-63500000D03*
D26*
X159270700Y-87630000D03*
X160769300Y-87630000D03*
D27*
X154840940Y-64770000D03*
X149959060Y-64770000D03*
D16*
X185420000Y-67310000D03*
X185420000Y-74930000D03*
X175260000Y-44450000D03*
X182880000Y-44450000D03*
X135890000Y-83820000D03*
X143510000Y-83820000D03*
D28*
X139700000Y-101600000D03*
X137160000Y-101600000D03*
X142240000Y-101600000D03*
D14*
X147320000Y-109220000D03*
D15*
X147320000Y-107220000D03*
D29*
X200660000Y-107950000D03*
X200660000Y-106680000D03*
X200660000Y-109220000D03*
D14*
X149860000Y-71120000D03*
D15*
X149860000Y-68620000D03*
D14*
X154940000Y-71120000D03*
D15*
X154940000Y-68620000D03*
X132040000Y-100330000D03*
D14*
X129540000Y-100330000D03*
X158750000Y-82550000D03*
D15*
X158750000Y-85050000D03*
D30*
X128270000Y-39370000D03*
X215900000Y-39370000D03*
M02*
