G04 #@! TF.FileFunction,Soldermask,Bot*
%FSLAX46Y46*%
G04 Gerber Fmt 4.6, Leading zero omitted, Abs format (unit mm)*
G04 Created by KiCad (PCBNEW 4.0.6) date Tue Mar 14 17:15:09 2017*
%MOMM*%
%LPD*%
G01*
G04 APERTURE LIST*
%ADD10C,0.100000*%
%ADD11C,1.524000*%
%ADD12O,2.032000X2.540000*%
%ADD13O,3.048000X1.727200*%
%ADD14R,1.000000X1.600000*%
%ADD15R,1.600000X1.000000*%
%ADD16O,1.600000X2.300000*%
%ADD17C,1.300000*%
%ADD18R,1.300000X1.300000*%
%ADD19C,1.998980*%
%ADD20R,1.998980X1.998980*%
%ADD21R,1.900000X0.800000*%
%ADD22R,2.000000X2.500000*%
%ADD23R,2.500000X2.000000*%
%ADD24C,2.000000*%
%ADD25R,1.397000X1.397000*%
%ADD26C,1.397000*%
%ADD27C,1.000760*%
%ADD28C,1.500000*%
%ADD29R,1.800000X1.800000*%
%ADD30C,1.800000*%
%ADD31R,1.600000X1.600000*%
%ADD32O,1.600000X1.600000*%
%ADD33R,1.700000X1.700000*%
%ADD34O,1.700000X1.700000*%
%ADD35R,5.080000X2.790000*%
%ADD36C,17.780000*%
G04 APERTURE END LIST*
D10*
D11*
X53086000Y-31496000D03*
X55626000Y-31496000D03*
X58166000Y-31496000D03*
X60706000Y-31496000D03*
X53086000Y-46736000D03*
X55626000Y-46736000D03*
X58166000Y-46736000D03*
X60706000Y-46736000D03*
X50546000Y-31496000D03*
X48006000Y-31496000D03*
X45466000Y-31496000D03*
X45466000Y-46736000D03*
X48006000Y-46736000D03*
X50546000Y-46736000D03*
D12*
X31496000Y-82296000D03*
X28956000Y-82296000D03*
X34036000Y-82296000D03*
D13*
X40386000Y-53086000D03*
X40386000Y-58166000D03*
X27686000Y-53086000D03*
X27686000Y-58166000D03*
X78486000Y-53086000D03*
X78486000Y-58166000D03*
X65786000Y-53086000D03*
X65786000Y-58166000D03*
D14*
X32616140Y-91694000D03*
X26616660Y-91694000D03*
D15*
X29616400Y-96393000D03*
D16*
X68326000Y-72771000D03*
X70866000Y-72771000D03*
X73406000Y-72771000D03*
X75946000Y-72771000D03*
X75946000Y-65151000D03*
X73406000Y-65151000D03*
X70866000Y-65151000D03*
X68326000Y-65151000D03*
D17*
X39116000Y-94194000D03*
D18*
X39116000Y-91694000D03*
X22606000Y-82296000D03*
D17*
X22606000Y-84296000D03*
D18*
X36576000Y-73406000D03*
D17*
X39076000Y-73406000D03*
D18*
X36576000Y-78486000D03*
D17*
X39076000Y-78486000D03*
D19*
X22606000Y-78488540D03*
D20*
X32766000Y-78488540D03*
D21*
X64921000Y-89596000D03*
X64921000Y-87696000D03*
X67921000Y-88646000D03*
X30456000Y-63566000D03*
X30456000Y-65466000D03*
X27456000Y-64516000D03*
D22*
X63786000Y-92456000D03*
X67786000Y-92456000D03*
X39846000Y-64516000D03*
X35846000Y-64516000D03*
D23*
X65151000Y-67151000D03*
X65151000Y-63151000D03*
X79121000Y-67151000D03*
X79121000Y-63151000D03*
X22606000Y-65246000D03*
X22606000Y-61246000D03*
X36068000Y-41116000D03*
X36068000Y-37116000D03*
X32512000Y-41116000D03*
X32512000Y-37116000D03*
X39878000Y-41116000D03*
X39878000Y-37116000D03*
X55118000Y-41116000D03*
X55118000Y-37116000D03*
X43688000Y-41116000D03*
X43688000Y-37116000D03*
X47498000Y-41116000D03*
X47498000Y-37116000D03*
X51308000Y-41116000D03*
X51308000Y-37116000D03*
X58928000Y-41116000D03*
X58928000Y-37116000D03*
X62738000Y-41116000D03*
X62738000Y-37116000D03*
D24*
X30215840Y-69596000D03*
X22616160Y-69596000D03*
D25*
X23876000Y-44831000D03*
D26*
X23876000Y-42291000D03*
X23876000Y-39751000D03*
D27*
X70345300Y-75946000D03*
X68846700Y-75946000D03*
D28*
X43180000Y-78486000D03*
X43180000Y-73606000D03*
D29*
X21336000Y-55626000D03*
D30*
X23876000Y-55626000D03*
D31*
X49276000Y-54356000D03*
D32*
X56896000Y-87376000D03*
X49276000Y-56896000D03*
X56896000Y-84836000D03*
X49276000Y-59436000D03*
X56896000Y-82296000D03*
X49276000Y-61976000D03*
X56896000Y-79756000D03*
X49276000Y-64516000D03*
X56896000Y-77216000D03*
X49276000Y-67056000D03*
X56896000Y-74676000D03*
X49276000Y-69596000D03*
X56896000Y-72136000D03*
X49276000Y-72136000D03*
X56896000Y-69596000D03*
X49276000Y-74676000D03*
X56896000Y-67056000D03*
X49276000Y-77216000D03*
X56896000Y-64516000D03*
X49276000Y-79756000D03*
X56896000Y-61976000D03*
X49276000Y-82296000D03*
X56896000Y-59436000D03*
X49276000Y-84836000D03*
X56896000Y-56896000D03*
X49276000Y-87376000D03*
X56896000Y-54356000D03*
D33*
X55372000Y-97790000D03*
D34*
X55372000Y-100330000D03*
X52832000Y-97790000D03*
X52832000Y-100330000D03*
X50292000Y-97790000D03*
X50292000Y-100330000D03*
D14*
X73555860Y-91186000D03*
X79555340Y-91186000D03*
D15*
X76555600Y-86487000D03*
D35*
X75946000Y-24352000D03*
X75946000Y-48292000D03*
D36*
X75946000Y-36322000D03*
M02*
