G04 #@! TF.FileFunction,Copper,L1,Top,Signal*
%FSLAX46Y46*%
G04 Gerber Fmt 4.6, Leading zero omitted, Abs format (unit mm)*
G04 Created by KiCad (PCBNEW 4.0.6) date Tue Mar 14 17:15:09 2017*
%MOMM*%
%LPD*%
G01*
G04 APERTURE LIST*
%ADD10C,0.100000*%
%ADD11C,1.524000*%
%ADD12O,2.032000X2.540000*%
%ADD13O,3.048000X1.727200*%
%ADD14R,1.000000X1.600000*%
%ADD15R,1.600000X1.000000*%
%ADD16O,1.600000X2.300000*%
%ADD17C,1.300000*%
%ADD18R,1.300000X1.300000*%
%ADD19C,1.998980*%
%ADD20R,1.998980X1.998980*%
%ADD21C,2.000000*%
%ADD22R,1.397000X1.397000*%
%ADD23C,1.397000*%
%ADD24C,1.000760*%
%ADD25C,1.500000*%
%ADD26R,1.800000X1.800000*%
%ADD27C,1.800000*%
%ADD28R,1.600000X1.600000*%
%ADD29O,1.600000X1.600000*%
%ADD30R,1.700000X1.700000*%
%ADD31O,1.700000X1.700000*%
%ADD32C,0.600000*%
%ADD33C,0.250000*%
%ADD34C,0.254000*%
G04 APERTURE END LIST*
D10*
D11*
X53086000Y-31496000D03*
X55626000Y-31496000D03*
X58166000Y-31496000D03*
X60706000Y-31496000D03*
X53086000Y-46736000D03*
X55626000Y-46736000D03*
X58166000Y-46736000D03*
X60706000Y-46736000D03*
X50546000Y-31496000D03*
X48006000Y-31496000D03*
X45466000Y-31496000D03*
X45466000Y-46736000D03*
X48006000Y-46736000D03*
X50546000Y-46736000D03*
D12*
X31496000Y-82296000D03*
X28956000Y-82296000D03*
X34036000Y-82296000D03*
D13*
X40386000Y-53086000D03*
X40386000Y-58166000D03*
X27686000Y-53086000D03*
X27686000Y-58166000D03*
X78486000Y-53086000D03*
X78486000Y-58166000D03*
X65786000Y-53086000D03*
X65786000Y-58166000D03*
D14*
X32616140Y-91694000D03*
X26616660Y-91694000D03*
D15*
X29616400Y-96393000D03*
D16*
X68326000Y-72771000D03*
X70866000Y-72771000D03*
X73406000Y-72771000D03*
X75946000Y-72771000D03*
X75946000Y-65151000D03*
X73406000Y-65151000D03*
X70866000Y-65151000D03*
X68326000Y-65151000D03*
D17*
X39116000Y-94194000D03*
D18*
X39116000Y-91694000D03*
X22606000Y-82296000D03*
D17*
X22606000Y-84296000D03*
D18*
X36576000Y-73406000D03*
D17*
X39076000Y-73406000D03*
D18*
X36576000Y-78486000D03*
D17*
X39076000Y-78486000D03*
D19*
X22606000Y-78488540D03*
D20*
X32766000Y-78488540D03*
D21*
X30215840Y-69596000D03*
X22616160Y-69596000D03*
D22*
X23876000Y-44831000D03*
D23*
X23876000Y-42291000D03*
X23876000Y-39751000D03*
D24*
X70345300Y-75946000D03*
X68846700Y-75946000D03*
D25*
X43180000Y-78486000D03*
X43180000Y-73606000D03*
D26*
X21336000Y-55626000D03*
D27*
X23876000Y-55626000D03*
D28*
X49276000Y-54356000D03*
D29*
X56896000Y-87376000D03*
X49276000Y-56896000D03*
X56896000Y-84836000D03*
X49276000Y-59436000D03*
X56896000Y-82296000D03*
X49276000Y-61976000D03*
X56896000Y-79756000D03*
X49276000Y-64516000D03*
X56896000Y-77216000D03*
X49276000Y-67056000D03*
X56896000Y-74676000D03*
X49276000Y-69596000D03*
X56896000Y-72136000D03*
X49276000Y-72136000D03*
X56896000Y-69596000D03*
X49276000Y-74676000D03*
X56896000Y-67056000D03*
X49276000Y-77216000D03*
X56896000Y-64516000D03*
X49276000Y-79756000D03*
X56896000Y-61976000D03*
X49276000Y-82296000D03*
X56896000Y-59436000D03*
X49276000Y-84836000D03*
X56896000Y-56896000D03*
X49276000Y-87376000D03*
X56896000Y-54356000D03*
D30*
X55372000Y-97790000D03*
D31*
X55372000Y-100330000D03*
X52832000Y-97790000D03*
X52832000Y-100330000D03*
X50292000Y-97790000D03*
X50292000Y-100330000D03*
D14*
X73555860Y-91186000D03*
X79555340Y-91186000D03*
D15*
X76555600Y-86487000D03*
D32*
X30226000Y-67056000D03*
X65278000Y-69088000D03*
X25146000Y-67056000D03*
X51308000Y-34798000D03*
X33274000Y-45212000D03*
X33274000Y-62738000D03*
X47498000Y-52578000D03*
X47498000Y-39116000D03*
X43688000Y-39116000D03*
X46736000Y-51308000D03*
X39878000Y-39116000D03*
X45974000Y-52578000D03*
X36068000Y-39116000D03*
X45212000Y-53848000D03*
X58420000Y-75692000D03*
X40132000Y-60706000D03*
X52832000Y-60706000D03*
X54356000Y-82550000D03*
X53086000Y-79756000D03*
X51816000Y-67818000D03*
X59182000Y-60706000D03*
X60960000Y-51054000D03*
X60706000Y-44450000D03*
X55118000Y-38862000D03*
X55372000Y-52324000D03*
X59436000Y-48514000D03*
X68326000Y-63246000D03*
X51054000Y-65532000D03*
X52451000Y-54356000D03*
D33*
X78486000Y-58166000D02*
X78994000Y-58166000D01*
X78994000Y-58166000D02*
X79248000Y-58420000D01*
X39116000Y-94194000D02*
X39116000Y-94234000D01*
X56896000Y-69596000D02*
X56896000Y-70231000D01*
X32616140Y-91694000D02*
X39116000Y-91694000D01*
X34036000Y-82296000D02*
X34036000Y-90274140D01*
X34036000Y-90274140D02*
X32616140Y-91694000D01*
X34036000Y-82296000D02*
X34036000Y-79758540D01*
X33886140Y-82445860D02*
X34036000Y-82296000D01*
X34036000Y-79758540D02*
X32766000Y-78488540D01*
X56896000Y-74676000D02*
X59690000Y-74676000D01*
X59690000Y-74676000D02*
X65278000Y-69088000D01*
X56896000Y-74676000D02*
X57531000Y-74676000D01*
X49276000Y-69596000D02*
X32766000Y-69596000D01*
X30226000Y-67056000D02*
X25146000Y-67056000D01*
X32766000Y-69596000D02*
X30226000Y-67056000D01*
X22606000Y-82296000D02*
X22606000Y-78488540D01*
X22606000Y-82296000D02*
X28956000Y-82296000D01*
X49276000Y-74676000D02*
X44096940Y-74676000D01*
X44096940Y-74676000D02*
X42926000Y-73505060D01*
X39076000Y-73406000D02*
X42826940Y-73406000D01*
X42826940Y-73406000D02*
X42926000Y-73505060D01*
X39076000Y-78486000D02*
X42826940Y-78486000D01*
X42826940Y-78486000D02*
X44096940Y-77216000D01*
X44096940Y-77216000D02*
X49276000Y-77216000D01*
X49176940Y-77116940D02*
X49276000Y-77216000D01*
X42826940Y-78486000D02*
X42926000Y-78386940D01*
X49276000Y-64516000D02*
X52451000Y-64516000D01*
X53721000Y-63246000D02*
X53721000Y-53086000D01*
X52451000Y-64516000D02*
X53721000Y-63246000D01*
X58166000Y-48641000D02*
X58166000Y-46736000D01*
X53721000Y-53086000D02*
X58166000Y-48641000D01*
X49276000Y-67056000D02*
X34290000Y-67056000D01*
X37084000Y-34798000D02*
X51308000Y-34798000D01*
X33274000Y-38608000D02*
X37084000Y-34798000D01*
X33274000Y-45212000D02*
X33274000Y-38608000D01*
X33274000Y-66040000D02*
X33274000Y-62738000D01*
X34290000Y-67056000D02*
X33274000Y-66040000D01*
X47498000Y-52578000D02*
X49276000Y-50800000D01*
X49276000Y-50800000D02*
X49276000Y-40894000D01*
X49276000Y-40894000D02*
X47498000Y-39116000D01*
X43942000Y-39116000D02*
X43688000Y-39116000D01*
X46736000Y-41910000D02*
X43942000Y-39116000D01*
X46736000Y-51308000D02*
X46736000Y-41910000D01*
X39878000Y-46482000D02*
X39878000Y-39116000D01*
X45974000Y-52578000D02*
X39878000Y-46482000D01*
X36068000Y-44704000D02*
X36068000Y-39116000D01*
X45212000Y-53848000D02*
X36068000Y-44704000D01*
X45466000Y-31496000D02*
X45466000Y-30988000D01*
X45466000Y-30988000D02*
X47498000Y-28956000D01*
X47498000Y-28956000D02*
X64008000Y-28956000D01*
X64008000Y-28956000D02*
X82042000Y-46990000D01*
X82042000Y-46990000D02*
X82042000Y-83058000D01*
X82042000Y-83058000D02*
X80264000Y-84836000D01*
X80264000Y-84836000D02*
X56896000Y-84836000D01*
X58420000Y-75692000D02*
X58420000Y-75946000D01*
X58420000Y-75946000D02*
X58420000Y-75692000D01*
X58420000Y-75692000D02*
X58420000Y-80772000D01*
X40132000Y-60706000D02*
X52832000Y-60706000D01*
X58420000Y-80772000D02*
X56896000Y-82296000D01*
X52832000Y-100330000D02*
X54007001Y-99154999D01*
X54007001Y-99154999D02*
X54007001Y-83289999D01*
X54007001Y-83289999D02*
X54356000Y-82550000D01*
X56896000Y-81661000D02*
X56896000Y-82296000D01*
X51816000Y-78486000D02*
X53086000Y-79756000D01*
X51816000Y-67818000D02*
X51816000Y-78486000D01*
X55372000Y-97790000D02*
X55372000Y-81280000D01*
X55372000Y-81280000D02*
X56896000Y-79756000D01*
X57531000Y-79756000D02*
X56896000Y-79756000D01*
X59182000Y-60452000D02*
X59182000Y-60706000D01*
X60960000Y-58674000D02*
X59182000Y-60452000D01*
X60960000Y-57150000D02*
X60960000Y-58674000D01*
X60960000Y-51054000D02*
X60960000Y-57150000D01*
X55118000Y-38862000D02*
X60706000Y-44450000D01*
X52832000Y-97790000D02*
X52832000Y-81280000D01*
X52832000Y-81280000D02*
X56896000Y-77216000D01*
X53086000Y-31496000D02*
X54610000Y-29972000D01*
X63246000Y-60706000D02*
X56896000Y-67056000D01*
X63246000Y-31496000D02*
X63246000Y-60706000D01*
X61722000Y-29972000D02*
X63246000Y-31496000D01*
X54610000Y-29972000D02*
X61722000Y-29972000D01*
X55626000Y-31496000D02*
X55626000Y-31750000D01*
X55626000Y-31750000D02*
X62484000Y-38608000D01*
X62484000Y-38608000D02*
X62484000Y-58928000D01*
X62484000Y-58928000D02*
X56896000Y-64516000D01*
X55880000Y-61976000D02*
X56896000Y-61976000D01*
X55372000Y-61468000D02*
X55880000Y-61976000D01*
X55372000Y-52324000D02*
X55372000Y-61468000D01*
X59436000Y-48514000D02*
X59436000Y-48768000D01*
X59436000Y-48768000D02*
X59436000Y-48514000D01*
X56896000Y-59436000D02*
X57912000Y-59436000D01*
X57912000Y-59436000D02*
X59436000Y-57912000D01*
X59436000Y-57912000D02*
X59436000Y-48514000D01*
X75946000Y-65151000D02*
X75946000Y-64516000D01*
X75946000Y-64516000D02*
X74676000Y-63246000D01*
X74676000Y-63246000D02*
X68326000Y-63246000D01*
X68846700Y-75946000D02*
X68846700Y-73291700D01*
X68846700Y-73291700D02*
X68326000Y-72771000D01*
X70345300Y-75946000D02*
X70345300Y-73291700D01*
X70345300Y-73291700D02*
X70866000Y-72771000D01*
X51054000Y-87263002D02*
X51054000Y-65532000D01*
X50292000Y-97790000D02*
X50292000Y-88025002D01*
X50292000Y-88025002D02*
X51054000Y-87263002D01*
X21336000Y-55626000D02*
X21234400Y-55626000D01*
X40386000Y-53086000D02*
X42926000Y-53086000D01*
X46736000Y-56896000D02*
X49276000Y-56896000D01*
X42926000Y-53086000D02*
X46736000Y-56896000D01*
X27686000Y-53086000D02*
X40386000Y-53086000D01*
X49276000Y-59436000D02*
X51816000Y-59436000D01*
X51816000Y-59436000D02*
X52451000Y-58801000D01*
X52451000Y-58801000D02*
X52451000Y-54356000D01*
X65786000Y-53086000D02*
X78486000Y-53086000D01*
X42291000Y-61976000D02*
X27686000Y-61976000D01*
X25654000Y-46609000D02*
X23876000Y-44831000D01*
X25654000Y-59944000D02*
X25654000Y-46609000D01*
X27686000Y-61976000D02*
X25654000Y-59944000D01*
X49276000Y-61976000D02*
X42291000Y-61976000D01*
D34*
G36*
X86691000Y-103836000D02*
X19481000Y-103836000D01*
X19481000Y-100686892D01*
X48850514Y-100686892D01*
X49096817Y-101211358D01*
X49525076Y-101601645D01*
X49935110Y-101771476D01*
X50165000Y-101650155D01*
X50165000Y-100457000D01*
X48971181Y-100457000D01*
X48850514Y-100686892D01*
X19481000Y-100686892D01*
X19481000Y-96678750D01*
X28181400Y-96678750D01*
X28181400Y-97019310D01*
X28278073Y-97252699D01*
X28456702Y-97431327D01*
X28690091Y-97528000D01*
X29330650Y-97528000D01*
X29489400Y-97369250D01*
X29489400Y-96520000D01*
X29743400Y-96520000D01*
X29743400Y-97369250D01*
X29902150Y-97528000D01*
X30542709Y-97528000D01*
X30776098Y-97431327D01*
X30954727Y-97252699D01*
X31051400Y-97019310D01*
X31051400Y-96678750D01*
X30892650Y-96520000D01*
X29743400Y-96520000D01*
X29489400Y-96520000D01*
X28340150Y-96520000D01*
X28181400Y-96678750D01*
X19481000Y-96678750D01*
X19481000Y-95766690D01*
X28181400Y-95766690D01*
X28181400Y-96107250D01*
X28340150Y-96266000D01*
X29489400Y-96266000D01*
X29489400Y-95416750D01*
X29743400Y-95416750D01*
X29743400Y-96266000D01*
X30892650Y-96266000D01*
X31051400Y-96107250D01*
X31051400Y-95766690D01*
X30954727Y-95533301D01*
X30776098Y-95354673D01*
X30542709Y-95258000D01*
X29902150Y-95258000D01*
X29743400Y-95416750D01*
X29489400Y-95416750D01*
X29330650Y-95258000D01*
X28690091Y-95258000D01*
X28456702Y-95354673D01*
X28278073Y-95533301D01*
X28181400Y-95766690D01*
X19481000Y-95766690D01*
X19481000Y-95093016D01*
X38396590Y-95093016D01*
X38452271Y-95323611D01*
X38935078Y-95491622D01*
X39445428Y-95462083D01*
X39779729Y-95323611D01*
X39835410Y-95093016D01*
X39116000Y-94373605D01*
X38396590Y-95093016D01*
X19481000Y-95093016D01*
X19481000Y-94013078D01*
X37818378Y-94013078D01*
X37847917Y-94523428D01*
X37986389Y-94857729D01*
X38216984Y-94913410D01*
X38936395Y-94194000D01*
X39295605Y-94194000D01*
X40015016Y-94913410D01*
X40245611Y-94857729D01*
X40413622Y-94374922D01*
X40384083Y-93864572D01*
X40245611Y-93530271D01*
X40015016Y-93474590D01*
X39295605Y-94194000D01*
X38936395Y-94194000D01*
X38216984Y-93474590D01*
X37986389Y-93530271D01*
X37818378Y-94013078D01*
X19481000Y-94013078D01*
X19481000Y-91979750D01*
X25481660Y-91979750D01*
X25481660Y-92620310D01*
X25578333Y-92853699D01*
X25756962Y-93032327D01*
X25990351Y-93129000D01*
X26330910Y-93129000D01*
X26489660Y-92970250D01*
X26489660Y-91821000D01*
X26743660Y-91821000D01*
X26743660Y-92970250D01*
X26902410Y-93129000D01*
X27242969Y-93129000D01*
X27476358Y-93032327D01*
X27654987Y-92853699D01*
X27751660Y-92620310D01*
X27751660Y-91979750D01*
X27592910Y-91821000D01*
X26743660Y-91821000D01*
X26489660Y-91821000D01*
X25640410Y-91821000D01*
X25481660Y-91979750D01*
X19481000Y-91979750D01*
X19481000Y-90767690D01*
X25481660Y-90767690D01*
X25481660Y-91408250D01*
X25640410Y-91567000D01*
X26489660Y-91567000D01*
X26489660Y-90417750D01*
X26743660Y-90417750D01*
X26743660Y-91567000D01*
X27592910Y-91567000D01*
X27751660Y-91408250D01*
X27751660Y-90767690D01*
X27654987Y-90534301D01*
X27476358Y-90355673D01*
X27242969Y-90259000D01*
X26902410Y-90259000D01*
X26743660Y-90417750D01*
X26489660Y-90417750D01*
X26330910Y-90259000D01*
X25990351Y-90259000D01*
X25756962Y-90355673D01*
X25578333Y-90534301D01*
X25481660Y-90767690D01*
X19481000Y-90767690D01*
X19481000Y-85195016D01*
X21886590Y-85195016D01*
X21942271Y-85425611D01*
X22425078Y-85593622D01*
X22935428Y-85564083D01*
X23269729Y-85425611D01*
X23325410Y-85195016D01*
X22606000Y-84475605D01*
X21886590Y-85195016D01*
X19481000Y-85195016D01*
X19481000Y-78812234D01*
X20971226Y-78812234D01*
X21219538Y-79413195D01*
X21678927Y-79873386D01*
X21846000Y-79942761D01*
X21846000Y-81019258D01*
X21720683Y-81042838D01*
X21504559Y-81181910D01*
X21359569Y-81394110D01*
X21308560Y-81646000D01*
X21308560Y-82946000D01*
X21352838Y-83181317D01*
X21491910Y-83397441D01*
X21605329Y-83474937D01*
X21706982Y-83576590D01*
X21476389Y-83632271D01*
X21308378Y-84115078D01*
X21337917Y-84625428D01*
X21476389Y-84959729D01*
X21706984Y-85015410D01*
X22426395Y-84296000D01*
X22412252Y-84281858D01*
X22591858Y-84102252D01*
X22606000Y-84116395D01*
X22620142Y-84102252D01*
X22799748Y-84281858D01*
X22785605Y-84296000D01*
X23505016Y-85015410D01*
X23735611Y-84959729D01*
X23903622Y-84476922D01*
X23874083Y-83966572D01*
X23735611Y-83632271D01*
X23505018Y-83576590D01*
X23606680Y-83474928D01*
X23707441Y-83410090D01*
X23852431Y-83197890D01*
X23881164Y-83056000D01*
X27398226Y-83056000D01*
X27430675Y-83219131D01*
X27788567Y-83754754D01*
X28324190Y-84112646D01*
X28956000Y-84238321D01*
X29587810Y-84112646D01*
X30123433Y-83754754D01*
X30240054Y-83580219D01*
X30418370Y-83807236D01*
X30981523Y-84123926D01*
X31113056Y-84155975D01*
X31369000Y-84036836D01*
X31369000Y-82423000D01*
X31349000Y-82423000D01*
X31349000Y-82169000D01*
X31369000Y-82169000D01*
X31369000Y-80555164D01*
X31113056Y-80436025D01*
X30981523Y-80468074D01*
X30418370Y-80784764D01*
X30240054Y-81011781D01*
X30123433Y-80837246D01*
X29587810Y-80479354D01*
X28956000Y-80353679D01*
X28324190Y-80479354D01*
X27788567Y-80837246D01*
X27430675Y-81372869D01*
X27398226Y-81536000D01*
X23882742Y-81536000D01*
X23859162Y-81410683D01*
X23720090Y-81194559D01*
X23507890Y-81049569D01*
X23366000Y-81020836D01*
X23366000Y-79943036D01*
X23530655Y-79875002D01*
X23990846Y-79415613D01*
X24240206Y-78815087D01*
X24240774Y-78164846D01*
X23992462Y-77563885D01*
X23917758Y-77489050D01*
X31119070Y-77489050D01*
X31119070Y-79488030D01*
X31163348Y-79723347D01*
X31302420Y-79939471D01*
X31514620Y-80084461D01*
X31766510Y-80135470D01*
X33276000Y-80135470D01*
X33276000Y-80565008D01*
X32868567Y-80837246D01*
X32751946Y-81011781D01*
X32573630Y-80784764D01*
X32010477Y-80468074D01*
X31878944Y-80436025D01*
X31623000Y-80555164D01*
X31623000Y-82169000D01*
X31643000Y-82169000D01*
X31643000Y-82423000D01*
X31623000Y-82423000D01*
X31623000Y-84036836D01*
X31878944Y-84155975D01*
X32010477Y-84123926D01*
X32573630Y-83807236D01*
X32751946Y-83580219D01*
X32868567Y-83754754D01*
X33276000Y-84026992D01*
X33276000Y-89959338D01*
X32988778Y-90246560D01*
X32116140Y-90246560D01*
X31880823Y-90290838D01*
X31664699Y-90429910D01*
X31519709Y-90642110D01*
X31468700Y-90894000D01*
X31468700Y-92494000D01*
X31512978Y-92729317D01*
X31652050Y-92945441D01*
X31864250Y-93090431D01*
X32116140Y-93141440D01*
X33116140Y-93141440D01*
X33351457Y-93097162D01*
X33567581Y-92958090D01*
X33712571Y-92745890D01*
X33763580Y-92494000D01*
X33763580Y-92454000D01*
X37839258Y-92454000D01*
X37862838Y-92579317D01*
X38001910Y-92795441D01*
X38214110Y-92940431D01*
X38466000Y-92991440D01*
X38628385Y-92991440D01*
X38452271Y-93064389D01*
X38396590Y-93294984D01*
X39116000Y-94014395D01*
X39835410Y-93294984D01*
X39779729Y-93064389D01*
X39570098Y-92991440D01*
X39766000Y-92991440D01*
X40001317Y-92947162D01*
X40217441Y-92808090D01*
X40362431Y-92595890D01*
X40413440Y-92344000D01*
X40413440Y-91044000D01*
X40369162Y-90808683D01*
X40230090Y-90592559D01*
X40017890Y-90447569D01*
X39766000Y-90396560D01*
X38466000Y-90396560D01*
X38230683Y-90440838D01*
X38014559Y-90579910D01*
X37869569Y-90792110D01*
X37840836Y-90934000D01*
X34450942Y-90934000D01*
X34573401Y-90811541D01*
X34738148Y-90564980D01*
X34796000Y-90274140D01*
X34796000Y-84026992D01*
X35203433Y-83754754D01*
X35561325Y-83219131D01*
X35687000Y-82587321D01*
X35687000Y-82004679D01*
X35561325Y-81372869D01*
X35203433Y-80837246D01*
X34796000Y-80565008D01*
X34796000Y-79758540D01*
X34759439Y-79574735D01*
X34738148Y-79467700D01*
X34573401Y-79221139D01*
X34412930Y-79060668D01*
X34412930Y-78771750D01*
X35291000Y-78771750D01*
X35291000Y-79262310D01*
X35387673Y-79495699D01*
X35566302Y-79674327D01*
X35799691Y-79771000D01*
X36290250Y-79771000D01*
X36449000Y-79612250D01*
X36449000Y-78613000D01*
X35449750Y-78613000D01*
X35291000Y-78771750D01*
X34412930Y-78771750D01*
X34412930Y-77709690D01*
X35291000Y-77709690D01*
X35291000Y-78200250D01*
X35449750Y-78359000D01*
X36449000Y-78359000D01*
X36449000Y-77359750D01*
X36290250Y-77201000D01*
X35799691Y-77201000D01*
X35566302Y-77297673D01*
X35387673Y-77476301D01*
X35291000Y-77709690D01*
X34412930Y-77709690D01*
X34412930Y-77489050D01*
X34368652Y-77253733D01*
X34229580Y-77037609D01*
X34017380Y-76892619D01*
X33765490Y-76841610D01*
X31766510Y-76841610D01*
X31531193Y-76885888D01*
X31315069Y-77024960D01*
X31170079Y-77237160D01*
X31119070Y-77489050D01*
X23917758Y-77489050D01*
X23533073Y-77103694D01*
X22932547Y-76854334D01*
X22282306Y-76853766D01*
X21681345Y-77102078D01*
X21221154Y-77561467D01*
X20971794Y-78161993D01*
X20971226Y-78812234D01*
X19481000Y-78812234D01*
X19481000Y-73691750D01*
X35291000Y-73691750D01*
X35291000Y-74182310D01*
X35387673Y-74415699D01*
X35566302Y-74594327D01*
X35799691Y-74691000D01*
X36290250Y-74691000D01*
X36449000Y-74532250D01*
X36449000Y-73533000D01*
X35449750Y-73533000D01*
X35291000Y-73691750D01*
X19481000Y-73691750D01*
X19481000Y-72629690D01*
X35291000Y-72629690D01*
X35291000Y-73120250D01*
X35449750Y-73279000D01*
X36449000Y-73279000D01*
X36449000Y-72279750D01*
X36290250Y-72121000D01*
X35799691Y-72121000D01*
X35566302Y-72217673D01*
X35387673Y-72396301D01*
X35291000Y-72629690D01*
X19481000Y-72629690D01*
X19481000Y-70748532D01*
X21643233Y-70748532D01*
X21741896Y-71015387D01*
X22351621Y-71241908D01*
X23001620Y-71217856D01*
X23490424Y-71015387D01*
X23589087Y-70748532D01*
X22616160Y-69775605D01*
X21643233Y-70748532D01*
X19481000Y-70748532D01*
X19481000Y-69331461D01*
X20970252Y-69331461D01*
X20994304Y-69981460D01*
X21196773Y-70470264D01*
X21463628Y-70568927D01*
X22436555Y-69596000D01*
X22795765Y-69596000D01*
X23768692Y-70568927D01*
X24035547Y-70470264D01*
X24262068Y-69860539D01*
X24238016Y-69210540D01*
X24035547Y-68721736D01*
X23768692Y-68623073D01*
X22795765Y-69596000D01*
X22436555Y-69596000D01*
X21463628Y-68623073D01*
X21196773Y-68721736D01*
X20970252Y-69331461D01*
X19481000Y-69331461D01*
X19481000Y-68443468D01*
X21643233Y-68443468D01*
X22616160Y-69416395D01*
X23589087Y-68443468D01*
X23490424Y-68176613D01*
X22880699Y-67950092D01*
X22230700Y-67974144D01*
X21741896Y-68176613D01*
X21643233Y-68443468D01*
X19481000Y-68443468D01*
X19481000Y-54726000D01*
X19788560Y-54726000D01*
X19788560Y-56526000D01*
X19832838Y-56761317D01*
X19971910Y-56977441D01*
X20184110Y-57122431D01*
X20436000Y-57173440D01*
X22236000Y-57173440D01*
X22471317Y-57129162D01*
X22687441Y-56990090D01*
X22832431Y-56777890D01*
X22836567Y-56757466D01*
X23005357Y-56926551D01*
X23569330Y-57160733D01*
X24179991Y-57161265D01*
X24744371Y-56928068D01*
X24894000Y-56778700D01*
X24894000Y-59944000D01*
X24951852Y-60234839D01*
X25116599Y-60481401D01*
X27148599Y-62513401D01*
X27395161Y-62678148D01*
X27686000Y-62736000D01*
X32339001Y-62736000D01*
X32338838Y-62923167D01*
X32480883Y-63266943D01*
X32514000Y-63300118D01*
X32514000Y-66040000D01*
X32571852Y-66330839D01*
X32736599Y-66577401D01*
X33752599Y-67593401D01*
X33999161Y-67758148D01*
X34290000Y-67816000D01*
X48063005Y-67816000D01*
X48233189Y-68070698D01*
X48615275Y-68326000D01*
X48233189Y-68581302D01*
X48063005Y-68836000D01*
X33080802Y-68836000D01*
X31161122Y-66916320D01*
X31161162Y-66870833D01*
X31019117Y-66527057D01*
X30756327Y-66263808D01*
X30412799Y-66121162D01*
X30040833Y-66120838D01*
X29697057Y-66262883D01*
X29663882Y-66296000D01*
X25708463Y-66296000D01*
X25676327Y-66263808D01*
X25332799Y-66121162D01*
X24960833Y-66120838D01*
X24617057Y-66262883D01*
X24353808Y-66525673D01*
X24211162Y-66869201D01*
X24210838Y-67241167D01*
X24352883Y-67584943D01*
X24615673Y-67848192D01*
X24959201Y-67990838D01*
X25331167Y-67991162D01*
X25674943Y-67849117D01*
X25708118Y-67816000D01*
X29663537Y-67816000D01*
X29695673Y-67848192D01*
X29966817Y-67960781D01*
X29892045Y-67960716D01*
X29290897Y-68209106D01*
X28830562Y-68668637D01*
X28581124Y-69269352D01*
X28580556Y-69919795D01*
X28828946Y-70520943D01*
X29288477Y-70981278D01*
X29889192Y-71230716D01*
X30539635Y-71231284D01*
X31140783Y-70982894D01*
X31601118Y-70523363D01*
X31850556Y-69922648D01*
X31850702Y-69755504D01*
X32228599Y-70133401D01*
X32475160Y-70298148D01*
X32523414Y-70307746D01*
X32766000Y-70356000D01*
X48063005Y-70356000D01*
X48233189Y-70610698D01*
X48637703Y-70880986D01*
X48420866Y-70983611D01*
X48044959Y-71398577D01*
X47884096Y-71786961D01*
X48006085Y-72009000D01*
X49149000Y-72009000D01*
X49149000Y-71989000D01*
X49403000Y-71989000D01*
X49403000Y-72009000D01*
X49423000Y-72009000D01*
X49423000Y-72263000D01*
X49403000Y-72263000D01*
X49403000Y-72283000D01*
X49149000Y-72283000D01*
X49149000Y-72263000D01*
X48006085Y-72263000D01*
X47884096Y-72485039D01*
X48044959Y-72873423D01*
X48420866Y-73288389D01*
X48637703Y-73391014D01*
X48233189Y-73661302D01*
X48063005Y-73916000D01*
X44550932Y-73916000D01*
X44564759Y-73882702D01*
X44565240Y-73331715D01*
X44354831Y-72822485D01*
X43965564Y-72432539D01*
X43456702Y-72221241D01*
X42905715Y-72220760D01*
X42396485Y-72431169D01*
X42181279Y-72646000D01*
X40133006Y-72646000D01*
X39804845Y-72317265D01*
X39332724Y-72121223D01*
X38821519Y-72120777D01*
X38349057Y-72315995D01*
X37987265Y-72677155D01*
X37861000Y-72981235D01*
X37861000Y-72629690D01*
X37764327Y-72396301D01*
X37585698Y-72217673D01*
X37352309Y-72121000D01*
X36861750Y-72121000D01*
X36703000Y-72279750D01*
X36703000Y-73279000D01*
X36723000Y-73279000D01*
X36723000Y-73533000D01*
X36703000Y-73533000D01*
X36703000Y-74532250D01*
X36861750Y-74691000D01*
X37352309Y-74691000D01*
X37585698Y-74594327D01*
X37764327Y-74415699D01*
X37861000Y-74182310D01*
X37861000Y-73830433D01*
X37985995Y-74132943D01*
X38347155Y-74494735D01*
X38819276Y-74690777D01*
X39330481Y-74691223D01*
X39802943Y-74496005D01*
X40133525Y-74166000D01*
X41912815Y-74166000D01*
X42005169Y-74389515D01*
X42394436Y-74779461D01*
X42903298Y-74990759D01*
X43337276Y-74991138D01*
X43559539Y-75213401D01*
X43806100Y-75378148D01*
X44096940Y-75436000D01*
X48063005Y-75436000D01*
X48233189Y-75690698D01*
X48615275Y-75946000D01*
X48233189Y-76201302D01*
X48063005Y-76456000D01*
X44096940Y-76456000D01*
X43806100Y-76513852D01*
X43559539Y-76678599D01*
X43137176Y-77100962D01*
X42905715Y-77100760D01*
X42396485Y-77311169D01*
X42006539Y-77700436D01*
X41995924Y-77726000D01*
X40133006Y-77726000D01*
X39804845Y-77397265D01*
X39332724Y-77201223D01*
X38821519Y-77200777D01*
X38349057Y-77395995D01*
X37987265Y-77757155D01*
X37861000Y-78061235D01*
X37861000Y-77709690D01*
X37764327Y-77476301D01*
X37585698Y-77297673D01*
X37352309Y-77201000D01*
X36861750Y-77201000D01*
X36703000Y-77359750D01*
X36703000Y-78359000D01*
X36723000Y-78359000D01*
X36723000Y-78613000D01*
X36703000Y-78613000D01*
X36703000Y-79612250D01*
X36861750Y-79771000D01*
X37352309Y-79771000D01*
X37585698Y-79674327D01*
X37764327Y-79495699D01*
X37861000Y-79262310D01*
X37861000Y-78910433D01*
X37985995Y-79212943D01*
X38347155Y-79574735D01*
X38819276Y-79770777D01*
X39330481Y-79771223D01*
X39802943Y-79576005D01*
X40133525Y-79246000D01*
X41995453Y-79246000D01*
X42005169Y-79269515D01*
X42394436Y-79659461D01*
X42903298Y-79870759D01*
X43454285Y-79871240D01*
X43963515Y-79660831D01*
X44353461Y-79271564D01*
X44564759Y-78762702D01*
X44565240Y-78211715D01*
X44467845Y-77976000D01*
X48063005Y-77976000D01*
X48233189Y-78230698D01*
X48615275Y-78486000D01*
X48233189Y-78741302D01*
X47922120Y-79206849D01*
X47812887Y-79756000D01*
X47922120Y-80305151D01*
X48233189Y-80770698D01*
X48615275Y-81026000D01*
X48233189Y-81281302D01*
X47922120Y-81746849D01*
X47812887Y-82296000D01*
X47922120Y-82845151D01*
X48233189Y-83310698D01*
X48615275Y-83566000D01*
X48233189Y-83821302D01*
X47922120Y-84286849D01*
X47812887Y-84836000D01*
X47922120Y-85385151D01*
X48233189Y-85850698D01*
X48615275Y-86106000D01*
X48233189Y-86361302D01*
X47922120Y-86826849D01*
X47812887Y-87376000D01*
X47922120Y-87925151D01*
X48233189Y-88390698D01*
X48698736Y-88701767D01*
X49247887Y-88811000D01*
X49304113Y-88811000D01*
X49532000Y-88765670D01*
X49532000Y-96517046D01*
X49241946Y-96710853D01*
X48920039Y-97192622D01*
X48807000Y-97760907D01*
X48807000Y-97819093D01*
X48920039Y-98387378D01*
X49241946Y-98869147D01*
X49525101Y-99058345D01*
X49525076Y-99058355D01*
X49096817Y-99448642D01*
X48850514Y-99973108D01*
X48971181Y-100203000D01*
X50165000Y-100203000D01*
X50165000Y-100183000D01*
X50419000Y-100183000D01*
X50419000Y-100203000D01*
X50439000Y-100203000D01*
X50439000Y-100457000D01*
X50419000Y-100457000D01*
X50419000Y-101650155D01*
X50648890Y-101771476D01*
X51058924Y-101601645D01*
X51487183Y-101211358D01*
X51554298Y-101068447D01*
X51781946Y-101409147D01*
X52263715Y-101731054D01*
X52832000Y-101844093D01*
X53400285Y-101731054D01*
X53882054Y-101409147D01*
X54102000Y-101079974D01*
X54321946Y-101409147D01*
X54803715Y-101731054D01*
X55372000Y-101844093D01*
X55940285Y-101731054D01*
X56422054Y-101409147D01*
X56743961Y-100927378D01*
X56857000Y-100359093D01*
X56857000Y-100300907D01*
X56743961Y-99732622D01*
X56422054Y-99250853D01*
X56420821Y-99250029D01*
X56457317Y-99243162D01*
X56673441Y-99104090D01*
X56818431Y-98891890D01*
X56869440Y-98640000D01*
X56869440Y-96940000D01*
X56825162Y-96704683D01*
X56686090Y-96488559D01*
X56473890Y-96343569D01*
X56222000Y-96292560D01*
X56132000Y-96292560D01*
X56132000Y-90386000D01*
X72408420Y-90386000D01*
X72408420Y-91986000D01*
X72452698Y-92221317D01*
X72591770Y-92437441D01*
X72803970Y-92582431D01*
X73055860Y-92633440D01*
X74055860Y-92633440D01*
X74291177Y-92589162D01*
X74507301Y-92450090D01*
X74652291Y-92237890D01*
X74703300Y-91986000D01*
X74703300Y-90386000D01*
X78407900Y-90386000D01*
X78407900Y-91986000D01*
X78452178Y-92221317D01*
X78591250Y-92437441D01*
X78803450Y-92582431D01*
X79055340Y-92633440D01*
X80055340Y-92633440D01*
X80290657Y-92589162D01*
X80506781Y-92450090D01*
X80651771Y-92237890D01*
X80702780Y-91986000D01*
X80702780Y-90386000D01*
X80658502Y-90150683D01*
X80519430Y-89934559D01*
X80307230Y-89789569D01*
X80055340Y-89738560D01*
X79055340Y-89738560D01*
X78820023Y-89782838D01*
X78603899Y-89921910D01*
X78458909Y-90134110D01*
X78407900Y-90386000D01*
X74703300Y-90386000D01*
X74659022Y-90150683D01*
X74519950Y-89934559D01*
X74307750Y-89789569D01*
X74055860Y-89738560D01*
X73055860Y-89738560D01*
X72820543Y-89782838D01*
X72604419Y-89921910D01*
X72459429Y-90134110D01*
X72408420Y-90386000D01*
X56132000Y-90386000D01*
X56132000Y-88576994D01*
X56318736Y-88701767D01*
X56867887Y-88811000D01*
X56924113Y-88811000D01*
X57473264Y-88701767D01*
X57938811Y-88390698D01*
X58249880Y-87925151D01*
X58359113Y-87376000D01*
X58249880Y-86826849D01*
X57938811Y-86361302D01*
X57556725Y-86106000D01*
X57938811Y-85850698D01*
X58108995Y-85596000D01*
X75254219Y-85596000D01*
X75159169Y-85735110D01*
X75108160Y-85987000D01*
X75108160Y-86987000D01*
X75152438Y-87222317D01*
X75291510Y-87438441D01*
X75503710Y-87583431D01*
X75755600Y-87634440D01*
X77355600Y-87634440D01*
X77590917Y-87590162D01*
X77807041Y-87451090D01*
X77952031Y-87238890D01*
X78003040Y-86987000D01*
X78003040Y-85987000D01*
X77958762Y-85751683D01*
X77858583Y-85596000D01*
X80264000Y-85596000D01*
X80554839Y-85538148D01*
X80801401Y-85373401D01*
X82579401Y-83595401D01*
X82744148Y-83348839D01*
X82802000Y-83058000D01*
X82802000Y-46990000D01*
X82744148Y-46699161D01*
X82744148Y-46699160D01*
X82579401Y-46452599D01*
X64545401Y-28418599D01*
X64298839Y-28253852D01*
X64008000Y-28196000D01*
X47498000Y-28196000D01*
X47207161Y-28253852D01*
X46960599Y-28418599D01*
X45280361Y-30098837D01*
X45189339Y-30098758D01*
X44675697Y-30310990D01*
X44282371Y-30703630D01*
X44069243Y-31216900D01*
X44068758Y-31772661D01*
X44280990Y-32286303D01*
X44673630Y-32679629D01*
X45186900Y-32892757D01*
X45742661Y-32893242D01*
X46256303Y-32681010D01*
X46649629Y-32288370D01*
X46735949Y-32080488D01*
X46820990Y-32286303D01*
X47213630Y-32679629D01*
X47726900Y-32892757D01*
X48282661Y-32893242D01*
X48796303Y-32681010D01*
X49189629Y-32288370D01*
X49275949Y-32080488D01*
X49360990Y-32286303D01*
X49753630Y-32679629D01*
X50266900Y-32892757D01*
X50822661Y-32893242D01*
X51336303Y-32681010D01*
X51729629Y-32288370D01*
X51815949Y-32080488D01*
X51900990Y-32286303D01*
X52293630Y-32679629D01*
X52806900Y-32892757D01*
X53362661Y-32893242D01*
X53876303Y-32681010D01*
X54269629Y-32288370D01*
X54355949Y-32080488D01*
X54440990Y-32286303D01*
X54833630Y-32679629D01*
X55346900Y-32892757D01*
X55694258Y-32893060D01*
X61724000Y-38922802D01*
X61724000Y-45946230D01*
X61686213Y-45935392D01*
X60885605Y-46736000D01*
X61686213Y-47536608D01*
X61724000Y-47525770D01*
X61724000Y-50495889D01*
X61490327Y-50261808D01*
X61146799Y-50119162D01*
X60774833Y-50118838D01*
X60431057Y-50260883D01*
X60196000Y-50495530D01*
X60196000Y-49076463D01*
X60228192Y-49044327D01*
X60370838Y-48700799D01*
X60371162Y-48328833D01*
X60260158Y-48060183D01*
X60498302Y-48145144D01*
X61053368Y-48117362D01*
X61437143Y-47958397D01*
X61506608Y-47716213D01*
X60706000Y-46915605D01*
X60691858Y-46929748D01*
X60512253Y-46750143D01*
X60526395Y-46736000D01*
X59725787Y-45935392D01*
X59483603Y-46004857D01*
X59433491Y-46145318D01*
X59351010Y-45945697D01*
X58958370Y-45552371D01*
X58445100Y-45339243D01*
X57889339Y-45338758D01*
X57375697Y-45550990D01*
X56982371Y-45943630D01*
X56896051Y-46151512D01*
X56811010Y-45945697D01*
X56418370Y-45552371D01*
X55905100Y-45339243D01*
X55349339Y-45338758D01*
X54835697Y-45550990D01*
X54442371Y-45943630D01*
X54356051Y-46151512D01*
X54271010Y-45945697D01*
X53878370Y-45552371D01*
X53365100Y-45339243D01*
X52809339Y-45338758D01*
X52295697Y-45550990D01*
X51902371Y-45943630D01*
X51816051Y-46151512D01*
X51731010Y-45945697D01*
X51338370Y-45552371D01*
X50825100Y-45339243D01*
X50269339Y-45338758D01*
X50036000Y-45435171D01*
X50036000Y-40894000D01*
X49978148Y-40603161D01*
X49813401Y-40356599D01*
X48503969Y-39047167D01*
X54182838Y-39047167D01*
X54324883Y-39390943D01*
X54587673Y-39654192D01*
X54931201Y-39796838D01*
X54978077Y-39796879D01*
X59770878Y-44589680D01*
X59770838Y-44635167D01*
X59912883Y-44978943D01*
X60175673Y-45242192D01*
X60437023Y-45350714D01*
X60358632Y-45354638D01*
X59974857Y-45513603D01*
X59905392Y-45755787D01*
X60706000Y-46556395D01*
X61506608Y-45755787D01*
X61437143Y-45513603D01*
X60977333Y-45349559D01*
X61234943Y-45243117D01*
X61498192Y-44980327D01*
X61640838Y-44636799D01*
X61641162Y-44264833D01*
X61499117Y-43921057D01*
X61236327Y-43657808D01*
X60892799Y-43515162D01*
X60845923Y-43515121D01*
X56053122Y-38722320D01*
X56053162Y-38676833D01*
X55911117Y-38333057D01*
X55648327Y-38069808D01*
X55304799Y-37927162D01*
X54932833Y-37926838D01*
X54589057Y-38068883D01*
X54325808Y-38331673D01*
X54183162Y-38675201D01*
X54182838Y-39047167D01*
X48503969Y-39047167D01*
X48433122Y-38976320D01*
X48433162Y-38930833D01*
X48291117Y-38587057D01*
X48028327Y-38323808D01*
X47684799Y-38181162D01*
X47312833Y-38180838D01*
X46969057Y-38322883D01*
X46705808Y-38585673D01*
X46563162Y-38929201D01*
X46562838Y-39301167D01*
X46704883Y-39644943D01*
X46967673Y-39908192D01*
X47311201Y-40050838D01*
X47358077Y-40050879D01*
X48516000Y-41208802D01*
X48516000Y-45435121D01*
X48285100Y-45339243D01*
X47729339Y-45338758D01*
X47496000Y-45435171D01*
X47496000Y-41910000D01*
X47438148Y-41619161D01*
X47273401Y-41372599D01*
X44479401Y-38578599D01*
X44459198Y-38565100D01*
X44218327Y-38323808D01*
X43874799Y-38181162D01*
X43502833Y-38180838D01*
X43159057Y-38322883D01*
X42895808Y-38585673D01*
X42753162Y-38929201D01*
X42752838Y-39301167D01*
X42894883Y-39644943D01*
X43157673Y-39908192D01*
X43501201Y-40050838D01*
X43802298Y-40051100D01*
X45976000Y-42224802D01*
X45976000Y-45435121D01*
X45745100Y-45339243D01*
X45189339Y-45338758D01*
X44675697Y-45550990D01*
X44282371Y-45943630D01*
X44069243Y-46456900D01*
X44068758Y-47012661D01*
X44280990Y-47526303D01*
X44673630Y-47919629D01*
X45186900Y-48132757D01*
X45742661Y-48133242D01*
X45976000Y-48036829D01*
X45976000Y-50745537D01*
X45943808Y-50777673D01*
X45801162Y-51121201D01*
X45800980Y-51330178D01*
X40638000Y-46167198D01*
X40638000Y-39678463D01*
X40670192Y-39646327D01*
X40812838Y-39302799D01*
X40813162Y-38930833D01*
X40671117Y-38587057D01*
X40408327Y-38323808D01*
X40064799Y-38181162D01*
X39692833Y-38180838D01*
X39349057Y-38322883D01*
X39085808Y-38585673D01*
X38943162Y-38929201D01*
X38942838Y-39301167D01*
X39084883Y-39644943D01*
X39118000Y-39678118D01*
X39118000Y-46482000D01*
X39166965Y-46728163D01*
X36828000Y-44389198D01*
X36828000Y-39678463D01*
X36860192Y-39646327D01*
X37002838Y-39302799D01*
X37003162Y-38930833D01*
X36861117Y-38587057D01*
X36598327Y-38323808D01*
X36254799Y-38181162D01*
X35882833Y-38180838D01*
X35539057Y-38322883D01*
X35275808Y-38585673D01*
X35133162Y-38929201D01*
X35132838Y-39301167D01*
X35274883Y-39644943D01*
X35308000Y-39678118D01*
X35308000Y-44704000D01*
X35365852Y-44994839D01*
X35530599Y-45241401D01*
X42615198Y-52326000D01*
X42348600Y-52326000D01*
X42148367Y-52026330D01*
X41662186Y-51701474D01*
X41088697Y-51587400D01*
X39683303Y-51587400D01*
X39109814Y-51701474D01*
X38623633Y-52026330D01*
X38423400Y-52326000D01*
X29648600Y-52326000D01*
X29448367Y-52026330D01*
X28962186Y-51701474D01*
X28388697Y-51587400D01*
X26983303Y-51587400D01*
X26414000Y-51700641D01*
X26414000Y-46609000D01*
X26356148Y-46318161D01*
X26191401Y-46071599D01*
X25516969Y-45397167D01*
X32338838Y-45397167D01*
X32480883Y-45740943D01*
X32743673Y-46004192D01*
X33087201Y-46146838D01*
X33459167Y-46147162D01*
X33802943Y-46005117D01*
X34066192Y-45742327D01*
X34208838Y-45398799D01*
X34209162Y-45026833D01*
X34067117Y-44683057D01*
X34034000Y-44649882D01*
X34034000Y-38922802D01*
X37398802Y-35558000D01*
X50745537Y-35558000D01*
X50777673Y-35590192D01*
X51121201Y-35732838D01*
X51493167Y-35733162D01*
X51836943Y-35591117D01*
X52100192Y-35328327D01*
X52242838Y-34984799D01*
X52243162Y-34612833D01*
X52101117Y-34269057D01*
X51838327Y-34005808D01*
X51494799Y-33863162D01*
X51122833Y-33862838D01*
X50779057Y-34004883D01*
X50745882Y-34038000D01*
X37084000Y-34038000D01*
X36793161Y-34095852D01*
X36546599Y-34260599D01*
X32736599Y-38070599D01*
X32571852Y-38317161D01*
X32514000Y-38608000D01*
X32514000Y-44649537D01*
X32481808Y-44681673D01*
X32339162Y-45025201D01*
X32338838Y-45397167D01*
X25516969Y-45397167D01*
X25221940Y-45102138D01*
X25221940Y-44132500D01*
X25177662Y-43897183D01*
X25038590Y-43681059D01*
X24826390Y-43536069D01*
X24574500Y-43485060D01*
X24510360Y-43485060D01*
X24568929Y-43460800D01*
X24630583Y-43225188D01*
X23876000Y-42470605D01*
X23121417Y-43225188D01*
X23183071Y-43460800D01*
X23251998Y-43485060D01*
X23177500Y-43485060D01*
X22942183Y-43529338D01*
X22726059Y-43668410D01*
X22581069Y-43880610D01*
X22530060Y-44132500D01*
X22530060Y-45529500D01*
X22574338Y-45764817D01*
X22713410Y-45980941D01*
X22925610Y-46125931D01*
X23177500Y-46176940D01*
X24147138Y-46176940D01*
X24894000Y-46923802D01*
X24894000Y-54473064D01*
X24746643Y-54325449D01*
X24182670Y-54091267D01*
X23572009Y-54090735D01*
X23007629Y-54323932D01*
X22839387Y-54491880D01*
X22839162Y-54490683D01*
X22700090Y-54274559D01*
X22487890Y-54129569D01*
X22236000Y-54078560D01*
X20436000Y-54078560D01*
X20200683Y-54122838D01*
X19984559Y-54261910D01*
X19839569Y-54474110D01*
X19788560Y-54726000D01*
X19481000Y-54726000D01*
X19481000Y-42098480D01*
X22530073Y-42098480D01*
X22558852Y-42628199D01*
X22706200Y-42983929D01*
X22941812Y-43045583D01*
X23696395Y-42291000D01*
X24055605Y-42291000D01*
X24810188Y-43045583D01*
X25045800Y-42983929D01*
X25221927Y-42483520D01*
X25193148Y-41953801D01*
X25045800Y-41598071D01*
X24810188Y-41536417D01*
X24055605Y-42291000D01*
X23696395Y-42291000D01*
X22941812Y-41536417D01*
X22706200Y-41598071D01*
X22530073Y-42098480D01*
X19481000Y-42098480D01*
X19481000Y-40015086D01*
X22542269Y-40015086D01*
X22744854Y-40505380D01*
X23119647Y-40880827D01*
X23441118Y-41014314D01*
X23183071Y-41121200D01*
X23121417Y-41356812D01*
X23876000Y-42111395D01*
X24630583Y-41356812D01*
X24568929Y-41121200D01*
X24289688Y-41022917D01*
X24630380Y-40882146D01*
X25005827Y-40507353D01*
X25209268Y-40017413D01*
X25209731Y-39486914D01*
X25007146Y-38996620D01*
X24632353Y-38621173D01*
X24142413Y-38417732D01*
X23611914Y-38417269D01*
X23121620Y-38619854D01*
X22746173Y-38994647D01*
X22542732Y-39484587D01*
X22542269Y-40015086D01*
X19481000Y-40015086D01*
X19481000Y-18846000D01*
X86691000Y-18846000D01*
X86691000Y-103836000D01*
X86691000Y-103836000D01*
G37*
X86691000Y-103836000D02*
X19481000Y-103836000D01*
X19481000Y-100686892D01*
X48850514Y-100686892D01*
X49096817Y-101211358D01*
X49525076Y-101601645D01*
X49935110Y-101771476D01*
X50165000Y-101650155D01*
X50165000Y-100457000D01*
X48971181Y-100457000D01*
X48850514Y-100686892D01*
X19481000Y-100686892D01*
X19481000Y-96678750D01*
X28181400Y-96678750D01*
X28181400Y-97019310D01*
X28278073Y-97252699D01*
X28456702Y-97431327D01*
X28690091Y-97528000D01*
X29330650Y-97528000D01*
X29489400Y-97369250D01*
X29489400Y-96520000D01*
X29743400Y-96520000D01*
X29743400Y-97369250D01*
X29902150Y-97528000D01*
X30542709Y-97528000D01*
X30776098Y-97431327D01*
X30954727Y-97252699D01*
X31051400Y-97019310D01*
X31051400Y-96678750D01*
X30892650Y-96520000D01*
X29743400Y-96520000D01*
X29489400Y-96520000D01*
X28340150Y-96520000D01*
X28181400Y-96678750D01*
X19481000Y-96678750D01*
X19481000Y-95766690D01*
X28181400Y-95766690D01*
X28181400Y-96107250D01*
X28340150Y-96266000D01*
X29489400Y-96266000D01*
X29489400Y-95416750D01*
X29743400Y-95416750D01*
X29743400Y-96266000D01*
X30892650Y-96266000D01*
X31051400Y-96107250D01*
X31051400Y-95766690D01*
X30954727Y-95533301D01*
X30776098Y-95354673D01*
X30542709Y-95258000D01*
X29902150Y-95258000D01*
X29743400Y-95416750D01*
X29489400Y-95416750D01*
X29330650Y-95258000D01*
X28690091Y-95258000D01*
X28456702Y-95354673D01*
X28278073Y-95533301D01*
X28181400Y-95766690D01*
X19481000Y-95766690D01*
X19481000Y-95093016D01*
X38396590Y-95093016D01*
X38452271Y-95323611D01*
X38935078Y-95491622D01*
X39445428Y-95462083D01*
X39779729Y-95323611D01*
X39835410Y-95093016D01*
X39116000Y-94373605D01*
X38396590Y-95093016D01*
X19481000Y-95093016D01*
X19481000Y-94013078D01*
X37818378Y-94013078D01*
X37847917Y-94523428D01*
X37986389Y-94857729D01*
X38216984Y-94913410D01*
X38936395Y-94194000D01*
X39295605Y-94194000D01*
X40015016Y-94913410D01*
X40245611Y-94857729D01*
X40413622Y-94374922D01*
X40384083Y-93864572D01*
X40245611Y-93530271D01*
X40015016Y-93474590D01*
X39295605Y-94194000D01*
X38936395Y-94194000D01*
X38216984Y-93474590D01*
X37986389Y-93530271D01*
X37818378Y-94013078D01*
X19481000Y-94013078D01*
X19481000Y-91979750D01*
X25481660Y-91979750D01*
X25481660Y-92620310D01*
X25578333Y-92853699D01*
X25756962Y-93032327D01*
X25990351Y-93129000D01*
X26330910Y-93129000D01*
X26489660Y-92970250D01*
X26489660Y-91821000D01*
X26743660Y-91821000D01*
X26743660Y-92970250D01*
X26902410Y-93129000D01*
X27242969Y-93129000D01*
X27476358Y-93032327D01*
X27654987Y-92853699D01*
X27751660Y-92620310D01*
X27751660Y-91979750D01*
X27592910Y-91821000D01*
X26743660Y-91821000D01*
X26489660Y-91821000D01*
X25640410Y-91821000D01*
X25481660Y-91979750D01*
X19481000Y-91979750D01*
X19481000Y-90767690D01*
X25481660Y-90767690D01*
X25481660Y-91408250D01*
X25640410Y-91567000D01*
X26489660Y-91567000D01*
X26489660Y-90417750D01*
X26743660Y-90417750D01*
X26743660Y-91567000D01*
X27592910Y-91567000D01*
X27751660Y-91408250D01*
X27751660Y-90767690D01*
X27654987Y-90534301D01*
X27476358Y-90355673D01*
X27242969Y-90259000D01*
X26902410Y-90259000D01*
X26743660Y-90417750D01*
X26489660Y-90417750D01*
X26330910Y-90259000D01*
X25990351Y-90259000D01*
X25756962Y-90355673D01*
X25578333Y-90534301D01*
X25481660Y-90767690D01*
X19481000Y-90767690D01*
X19481000Y-85195016D01*
X21886590Y-85195016D01*
X21942271Y-85425611D01*
X22425078Y-85593622D01*
X22935428Y-85564083D01*
X23269729Y-85425611D01*
X23325410Y-85195016D01*
X22606000Y-84475605D01*
X21886590Y-85195016D01*
X19481000Y-85195016D01*
X19481000Y-78812234D01*
X20971226Y-78812234D01*
X21219538Y-79413195D01*
X21678927Y-79873386D01*
X21846000Y-79942761D01*
X21846000Y-81019258D01*
X21720683Y-81042838D01*
X21504559Y-81181910D01*
X21359569Y-81394110D01*
X21308560Y-81646000D01*
X21308560Y-82946000D01*
X21352838Y-83181317D01*
X21491910Y-83397441D01*
X21605329Y-83474937D01*
X21706982Y-83576590D01*
X21476389Y-83632271D01*
X21308378Y-84115078D01*
X21337917Y-84625428D01*
X21476389Y-84959729D01*
X21706984Y-85015410D01*
X22426395Y-84296000D01*
X22412252Y-84281858D01*
X22591858Y-84102252D01*
X22606000Y-84116395D01*
X22620142Y-84102252D01*
X22799748Y-84281858D01*
X22785605Y-84296000D01*
X23505016Y-85015410D01*
X23735611Y-84959729D01*
X23903622Y-84476922D01*
X23874083Y-83966572D01*
X23735611Y-83632271D01*
X23505018Y-83576590D01*
X23606680Y-83474928D01*
X23707441Y-83410090D01*
X23852431Y-83197890D01*
X23881164Y-83056000D01*
X27398226Y-83056000D01*
X27430675Y-83219131D01*
X27788567Y-83754754D01*
X28324190Y-84112646D01*
X28956000Y-84238321D01*
X29587810Y-84112646D01*
X30123433Y-83754754D01*
X30240054Y-83580219D01*
X30418370Y-83807236D01*
X30981523Y-84123926D01*
X31113056Y-84155975D01*
X31369000Y-84036836D01*
X31369000Y-82423000D01*
X31349000Y-82423000D01*
X31349000Y-82169000D01*
X31369000Y-82169000D01*
X31369000Y-80555164D01*
X31113056Y-80436025D01*
X30981523Y-80468074D01*
X30418370Y-80784764D01*
X30240054Y-81011781D01*
X30123433Y-80837246D01*
X29587810Y-80479354D01*
X28956000Y-80353679D01*
X28324190Y-80479354D01*
X27788567Y-80837246D01*
X27430675Y-81372869D01*
X27398226Y-81536000D01*
X23882742Y-81536000D01*
X23859162Y-81410683D01*
X23720090Y-81194559D01*
X23507890Y-81049569D01*
X23366000Y-81020836D01*
X23366000Y-79943036D01*
X23530655Y-79875002D01*
X23990846Y-79415613D01*
X24240206Y-78815087D01*
X24240774Y-78164846D01*
X23992462Y-77563885D01*
X23917758Y-77489050D01*
X31119070Y-77489050D01*
X31119070Y-79488030D01*
X31163348Y-79723347D01*
X31302420Y-79939471D01*
X31514620Y-80084461D01*
X31766510Y-80135470D01*
X33276000Y-80135470D01*
X33276000Y-80565008D01*
X32868567Y-80837246D01*
X32751946Y-81011781D01*
X32573630Y-80784764D01*
X32010477Y-80468074D01*
X31878944Y-80436025D01*
X31623000Y-80555164D01*
X31623000Y-82169000D01*
X31643000Y-82169000D01*
X31643000Y-82423000D01*
X31623000Y-82423000D01*
X31623000Y-84036836D01*
X31878944Y-84155975D01*
X32010477Y-84123926D01*
X32573630Y-83807236D01*
X32751946Y-83580219D01*
X32868567Y-83754754D01*
X33276000Y-84026992D01*
X33276000Y-89959338D01*
X32988778Y-90246560D01*
X32116140Y-90246560D01*
X31880823Y-90290838D01*
X31664699Y-90429910D01*
X31519709Y-90642110D01*
X31468700Y-90894000D01*
X31468700Y-92494000D01*
X31512978Y-92729317D01*
X31652050Y-92945441D01*
X31864250Y-93090431D01*
X32116140Y-93141440D01*
X33116140Y-93141440D01*
X33351457Y-93097162D01*
X33567581Y-92958090D01*
X33712571Y-92745890D01*
X33763580Y-92494000D01*
X33763580Y-92454000D01*
X37839258Y-92454000D01*
X37862838Y-92579317D01*
X38001910Y-92795441D01*
X38214110Y-92940431D01*
X38466000Y-92991440D01*
X38628385Y-92991440D01*
X38452271Y-93064389D01*
X38396590Y-93294984D01*
X39116000Y-94014395D01*
X39835410Y-93294984D01*
X39779729Y-93064389D01*
X39570098Y-92991440D01*
X39766000Y-92991440D01*
X40001317Y-92947162D01*
X40217441Y-92808090D01*
X40362431Y-92595890D01*
X40413440Y-92344000D01*
X40413440Y-91044000D01*
X40369162Y-90808683D01*
X40230090Y-90592559D01*
X40017890Y-90447569D01*
X39766000Y-90396560D01*
X38466000Y-90396560D01*
X38230683Y-90440838D01*
X38014559Y-90579910D01*
X37869569Y-90792110D01*
X37840836Y-90934000D01*
X34450942Y-90934000D01*
X34573401Y-90811541D01*
X34738148Y-90564980D01*
X34796000Y-90274140D01*
X34796000Y-84026992D01*
X35203433Y-83754754D01*
X35561325Y-83219131D01*
X35687000Y-82587321D01*
X35687000Y-82004679D01*
X35561325Y-81372869D01*
X35203433Y-80837246D01*
X34796000Y-80565008D01*
X34796000Y-79758540D01*
X34759439Y-79574735D01*
X34738148Y-79467700D01*
X34573401Y-79221139D01*
X34412930Y-79060668D01*
X34412930Y-78771750D01*
X35291000Y-78771750D01*
X35291000Y-79262310D01*
X35387673Y-79495699D01*
X35566302Y-79674327D01*
X35799691Y-79771000D01*
X36290250Y-79771000D01*
X36449000Y-79612250D01*
X36449000Y-78613000D01*
X35449750Y-78613000D01*
X35291000Y-78771750D01*
X34412930Y-78771750D01*
X34412930Y-77709690D01*
X35291000Y-77709690D01*
X35291000Y-78200250D01*
X35449750Y-78359000D01*
X36449000Y-78359000D01*
X36449000Y-77359750D01*
X36290250Y-77201000D01*
X35799691Y-77201000D01*
X35566302Y-77297673D01*
X35387673Y-77476301D01*
X35291000Y-77709690D01*
X34412930Y-77709690D01*
X34412930Y-77489050D01*
X34368652Y-77253733D01*
X34229580Y-77037609D01*
X34017380Y-76892619D01*
X33765490Y-76841610D01*
X31766510Y-76841610D01*
X31531193Y-76885888D01*
X31315069Y-77024960D01*
X31170079Y-77237160D01*
X31119070Y-77489050D01*
X23917758Y-77489050D01*
X23533073Y-77103694D01*
X22932547Y-76854334D01*
X22282306Y-76853766D01*
X21681345Y-77102078D01*
X21221154Y-77561467D01*
X20971794Y-78161993D01*
X20971226Y-78812234D01*
X19481000Y-78812234D01*
X19481000Y-73691750D01*
X35291000Y-73691750D01*
X35291000Y-74182310D01*
X35387673Y-74415699D01*
X35566302Y-74594327D01*
X35799691Y-74691000D01*
X36290250Y-74691000D01*
X36449000Y-74532250D01*
X36449000Y-73533000D01*
X35449750Y-73533000D01*
X35291000Y-73691750D01*
X19481000Y-73691750D01*
X19481000Y-72629690D01*
X35291000Y-72629690D01*
X35291000Y-73120250D01*
X35449750Y-73279000D01*
X36449000Y-73279000D01*
X36449000Y-72279750D01*
X36290250Y-72121000D01*
X35799691Y-72121000D01*
X35566302Y-72217673D01*
X35387673Y-72396301D01*
X35291000Y-72629690D01*
X19481000Y-72629690D01*
X19481000Y-70748532D01*
X21643233Y-70748532D01*
X21741896Y-71015387D01*
X22351621Y-71241908D01*
X23001620Y-71217856D01*
X23490424Y-71015387D01*
X23589087Y-70748532D01*
X22616160Y-69775605D01*
X21643233Y-70748532D01*
X19481000Y-70748532D01*
X19481000Y-69331461D01*
X20970252Y-69331461D01*
X20994304Y-69981460D01*
X21196773Y-70470264D01*
X21463628Y-70568927D01*
X22436555Y-69596000D01*
X22795765Y-69596000D01*
X23768692Y-70568927D01*
X24035547Y-70470264D01*
X24262068Y-69860539D01*
X24238016Y-69210540D01*
X24035547Y-68721736D01*
X23768692Y-68623073D01*
X22795765Y-69596000D01*
X22436555Y-69596000D01*
X21463628Y-68623073D01*
X21196773Y-68721736D01*
X20970252Y-69331461D01*
X19481000Y-69331461D01*
X19481000Y-68443468D01*
X21643233Y-68443468D01*
X22616160Y-69416395D01*
X23589087Y-68443468D01*
X23490424Y-68176613D01*
X22880699Y-67950092D01*
X22230700Y-67974144D01*
X21741896Y-68176613D01*
X21643233Y-68443468D01*
X19481000Y-68443468D01*
X19481000Y-54726000D01*
X19788560Y-54726000D01*
X19788560Y-56526000D01*
X19832838Y-56761317D01*
X19971910Y-56977441D01*
X20184110Y-57122431D01*
X20436000Y-57173440D01*
X22236000Y-57173440D01*
X22471317Y-57129162D01*
X22687441Y-56990090D01*
X22832431Y-56777890D01*
X22836567Y-56757466D01*
X23005357Y-56926551D01*
X23569330Y-57160733D01*
X24179991Y-57161265D01*
X24744371Y-56928068D01*
X24894000Y-56778700D01*
X24894000Y-59944000D01*
X24951852Y-60234839D01*
X25116599Y-60481401D01*
X27148599Y-62513401D01*
X27395161Y-62678148D01*
X27686000Y-62736000D01*
X32339001Y-62736000D01*
X32338838Y-62923167D01*
X32480883Y-63266943D01*
X32514000Y-63300118D01*
X32514000Y-66040000D01*
X32571852Y-66330839D01*
X32736599Y-66577401D01*
X33752599Y-67593401D01*
X33999161Y-67758148D01*
X34290000Y-67816000D01*
X48063005Y-67816000D01*
X48233189Y-68070698D01*
X48615275Y-68326000D01*
X48233189Y-68581302D01*
X48063005Y-68836000D01*
X33080802Y-68836000D01*
X31161122Y-66916320D01*
X31161162Y-66870833D01*
X31019117Y-66527057D01*
X30756327Y-66263808D01*
X30412799Y-66121162D01*
X30040833Y-66120838D01*
X29697057Y-66262883D01*
X29663882Y-66296000D01*
X25708463Y-66296000D01*
X25676327Y-66263808D01*
X25332799Y-66121162D01*
X24960833Y-66120838D01*
X24617057Y-66262883D01*
X24353808Y-66525673D01*
X24211162Y-66869201D01*
X24210838Y-67241167D01*
X24352883Y-67584943D01*
X24615673Y-67848192D01*
X24959201Y-67990838D01*
X25331167Y-67991162D01*
X25674943Y-67849117D01*
X25708118Y-67816000D01*
X29663537Y-67816000D01*
X29695673Y-67848192D01*
X29966817Y-67960781D01*
X29892045Y-67960716D01*
X29290897Y-68209106D01*
X28830562Y-68668637D01*
X28581124Y-69269352D01*
X28580556Y-69919795D01*
X28828946Y-70520943D01*
X29288477Y-70981278D01*
X29889192Y-71230716D01*
X30539635Y-71231284D01*
X31140783Y-70982894D01*
X31601118Y-70523363D01*
X31850556Y-69922648D01*
X31850702Y-69755504D01*
X32228599Y-70133401D01*
X32475160Y-70298148D01*
X32523414Y-70307746D01*
X32766000Y-70356000D01*
X48063005Y-70356000D01*
X48233189Y-70610698D01*
X48637703Y-70880986D01*
X48420866Y-70983611D01*
X48044959Y-71398577D01*
X47884096Y-71786961D01*
X48006085Y-72009000D01*
X49149000Y-72009000D01*
X49149000Y-71989000D01*
X49403000Y-71989000D01*
X49403000Y-72009000D01*
X49423000Y-72009000D01*
X49423000Y-72263000D01*
X49403000Y-72263000D01*
X49403000Y-72283000D01*
X49149000Y-72283000D01*
X49149000Y-72263000D01*
X48006085Y-72263000D01*
X47884096Y-72485039D01*
X48044959Y-72873423D01*
X48420866Y-73288389D01*
X48637703Y-73391014D01*
X48233189Y-73661302D01*
X48063005Y-73916000D01*
X44550932Y-73916000D01*
X44564759Y-73882702D01*
X44565240Y-73331715D01*
X44354831Y-72822485D01*
X43965564Y-72432539D01*
X43456702Y-72221241D01*
X42905715Y-72220760D01*
X42396485Y-72431169D01*
X42181279Y-72646000D01*
X40133006Y-72646000D01*
X39804845Y-72317265D01*
X39332724Y-72121223D01*
X38821519Y-72120777D01*
X38349057Y-72315995D01*
X37987265Y-72677155D01*
X37861000Y-72981235D01*
X37861000Y-72629690D01*
X37764327Y-72396301D01*
X37585698Y-72217673D01*
X37352309Y-72121000D01*
X36861750Y-72121000D01*
X36703000Y-72279750D01*
X36703000Y-73279000D01*
X36723000Y-73279000D01*
X36723000Y-73533000D01*
X36703000Y-73533000D01*
X36703000Y-74532250D01*
X36861750Y-74691000D01*
X37352309Y-74691000D01*
X37585698Y-74594327D01*
X37764327Y-74415699D01*
X37861000Y-74182310D01*
X37861000Y-73830433D01*
X37985995Y-74132943D01*
X38347155Y-74494735D01*
X38819276Y-74690777D01*
X39330481Y-74691223D01*
X39802943Y-74496005D01*
X40133525Y-74166000D01*
X41912815Y-74166000D01*
X42005169Y-74389515D01*
X42394436Y-74779461D01*
X42903298Y-74990759D01*
X43337276Y-74991138D01*
X43559539Y-75213401D01*
X43806100Y-75378148D01*
X44096940Y-75436000D01*
X48063005Y-75436000D01*
X48233189Y-75690698D01*
X48615275Y-75946000D01*
X48233189Y-76201302D01*
X48063005Y-76456000D01*
X44096940Y-76456000D01*
X43806100Y-76513852D01*
X43559539Y-76678599D01*
X43137176Y-77100962D01*
X42905715Y-77100760D01*
X42396485Y-77311169D01*
X42006539Y-77700436D01*
X41995924Y-77726000D01*
X40133006Y-77726000D01*
X39804845Y-77397265D01*
X39332724Y-77201223D01*
X38821519Y-77200777D01*
X38349057Y-77395995D01*
X37987265Y-77757155D01*
X37861000Y-78061235D01*
X37861000Y-77709690D01*
X37764327Y-77476301D01*
X37585698Y-77297673D01*
X37352309Y-77201000D01*
X36861750Y-77201000D01*
X36703000Y-77359750D01*
X36703000Y-78359000D01*
X36723000Y-78359000D01*
X36723000Y-78613000D01*
X36703000Y-78613000D01*
X36703000Y-79612250D01*
X36861750Y-79771000D01*
X37352309Y-79771000D01*
X37585698Y-79674327D01*
X37764327Y-79495699D01*
X37861000Y-79262310D01*
X37861000Y-78910433D01*
X37985995Y-79212943D01*
X38347155Y-79574735D01*
X38819276Y-79770777D01*
X39330481Y-79771223D01*
X39802943Y-79576005D01*
X40133525Y-79246000D01*
X41995453Y-79246000D01*
X42005169Y-79269515D01*
X42394436Y-79659461D01*
X42903298Y-79870759D01*
X43454285Y-79871240D01*
X43963515Y-79660831D01*
X44353461Y-79271564D01*
X44564759Y-78762702D01*
X44565240Y-78211715D01*
X44467845Y-77976000D01*
X48063005Y-77976000D01*
X48233189Y-78230698D01*
X48615275Y-78486000D01*
X48233189Y-78741302D01*
X47922120Y-79206849D01*
X47812887Y-79756000D01*
X47922120Y-80305151D01*
X48233189Y-80770698D01*
X48615275Y-81026000D01*
X48233189Y-81281302D01*
X47922120Y-81746849D01*
X47812887Y-82296000D01*
X47922120Y-82845151D01*
X48233189Y-83310698D01*
X48615275Y-83566000D01*
X48233189Y-83821302D01*
X47922120Y-84286849D01*
X47812887Y-84836000D01*
X47922120Y-85385151D01*
X48233189Y-85850698D01*
X48615275Y-86106000D01*
X48233189Y-86361302D01*
X47922120Y-86826849D01*
X47812887Y-87376000D01*
X47922120Y-87925151D01*
X48233189Y-88390698D01*
X48698736Y-88701767D01*
X49247887Y-88811000D01*
X49304113Y-88811000D01*
X49532000Y-88765670D01*
X49532000Y-96517046D01*
X49241946Y-96710853D01*
X48920039Y-97192622D01*
X48807000Y-97760907D01*
X48807000Y-97819093D01*
X48920039Y-98387378D01*
X49241946Y-98869147D01*
X49525101Y-99058345D01*
X49525076Y-99058355D01*
X49096817Y-99448642D01*
X48850514Y-99973108D01*
X48971181Y-100203000D01*
X50165000Y-100203000D01*
X50165000Y-100183000D01*
X50419000Y-100183000D01*
X50419000Y-100203000D01*
X50439000Y-100203000D01*
X50439000Y-100457000D01*
X50419000Y-100457000D01*
X50419000Y-101650155D01*
X50648890Y-101771476D01*
X51058924Y-101601645D01*
X51487183Y-101211358D01*
X51554298Y-101068447D01*
X51781946Y-101409147D01*
X52263715Y-101731054D01*
X52832000Y-101844093D01*
X53400285Y-101731054D01*
X53882054Y-101409147D01*
X54102000Y-101079974D01*
X54321946Y-101409147D01*
X54803715Y-101731054D01*
X55372000Y-101844093D01*
X55940285Y-101731054D01*
X56422054Y-101409147D01*
X56743961Y-100927378D01*
X56857000Y-100359093D01*
X56857000Y-100300907D01*
X56743961Y-99732622D01*
X56422054Y-99250853D01*
X56420821Y-99250029D01*
X56457317Y-99243162D01*
X56673441Y-99104090D01*
X56818431Y-98891890D01*
X56869440Y-98640000D01*
X56869440Y-96940000D01*
X56825162Y-96704683D01*
X56686090Y-96488559D01*
X56473890Y-96343569D01*
X56222000Y-96292560D01*
X56132000Y-96292560D01*
X56132000Y-90386000D01*
X72408420Y-90386000D01*
X72408420Y-91986000D01*
X72452698Y-92221317D01*
X72591770Y-92437441D01*
X72803970Y-92582431D01*
X73055860Y-92633440D01*
X74055860Y-92633440D01*
X74291177Y-92589162D01*
X74507301Y-92450090D01*
X74652291Y-92237890D01*
X74703300Y-91986000D01*
X74703300Y-90386000D01*
X78407900Y-90386000D01*
X78407900Y-91986000D01*
X78452178Y-92221317D01*
X78591250Y-92437441D01*
X78803450Y-92582431D01*
X79055340Y-92633440D01*
X80055340Y-92633440D01*
X80290657Y-92589162D01*
X80506781Y-92450090D01*
X80651771Y-92237890D01*
X80702780Y-91986000D01*
X80702780Y-90386000D01*
X80658502Y-90150683D01*
X80519430Y-89934559D01*
X80307230Y-89789569D01*
X80055340Y-89738560D01*
X79055340Y-89738560D01*
X78820023Y-89782838D01*
X78603899Y-89921910D01*
X78458909Y-90134110D01*
X78407900Y-90386000D01*
X74703300Y-90386000D01*
X74659022Y-90150683D01*
X74519950Y-89934559D01*
X74307750Y-89789569D01*
X74055860Y-89738560D01*
X73055860Y-89738560D01*
X72820543Y-89782838D01*
X72604419Y-89921910D01*
X72459429Y-90134110D01*
X72408420Y-90386000D01*
X56132000Y-90386000D01*
X56132000Y-88576994D01*
X56318736Y-88701767D01*
X56867887Y-88811000D01*
X56924113Y-88811000D01*
X57473264Y-88701767D01*
X57938811Y-88390698D01*
X58249880Y-87925151D01*
X58359113Y-87376000D01*
X58249880Y-86826849D01*
X57938811Y-86361302D01*
X57556725Y-86106000D01*
X57938811Y-85850698D01*
X58108995Y-85596000D01*
X75254219Y-85596000D01*
X75159169Y-85735110D01*
X75108160Y-85987000D01*
X75108160Y-86987000D01*
X75152438Y-87222317D01*
X75291510Y-87438441D01*
X75503710Y-87583431D01*
X75755600Y-87634440D01*
X77355600Y-87634440D01*
X77590917Y-87590162D01*
X77807041Y-87451090D01*
X77952031Y-87238890D01*
X78003040Y-86987000D01*
X78003040Y-85987000D01*
X77958762Y-85751683D01*
X77858583Y-85596000D01*
X80264000Y-85596000D01*
X80554839Y-85538148D01*
X80801401Y-85373401D01*
X82579401Y-83595401D01*
X82744148Y-83348839D01*
X82802000Y-83058000D01*
X82802000Y-46990000D01*
X82744148Y-46699161D01*
X82744148Y-46699160D01*
X82579401Y-46452599D01*
X64545401Y-28418599D01*
X64298839Y-28253852D01*
X64008000Y-28196000D01*
X47498000Y-28196000D01*
X47207161Y-28253852D01*
X46960599Y-28418599D01*
X45280361Y-30098837D01*
X45189339Y-30098758D01*
X44675697Y-30310990D01*
X44282371Y-30703630D01*
X44069243Y-31216900D01*
X44068758Y-31772661D01*
X44280990Y-32286303D01*
X44673630Y-32679629D01*
X45186900Y-32892757D01*
X45742661Y-32893242D01*
X46256303Y-32681010D01*
X46649629Y-32288370D01*
X46735949Y-32080488D01*
X46820990Y-32286303D01*
X47213630Y-32679629D01*
X47726900Y-32892757D01*
X48282661Y-32893242D01*
X48796303Y-32681010D01*
X49189629Y-32288370D01*
X49275949Y-32080488D01*
X49360990Y-32286303D01*
X49753630Y-32679629D01*
X50266900Y-32892757D01*
X50822661Y-32893242D01*
X51336303Y-32681010D01*
X51729629Y-32288370D01*
X51815949Y-32080488D01*
X51900990Y-32286303D01*
X52293630Y-32679629D01*
X52806900Y-32892757D01*
X53362661Y-32893242D01*
X53876303Y-32681010D01*
X54269629Y-32288370D01*
X54355949Y-32080488D01*
X54440990Y-32286303D01*
X54833630Y-32679629D01*
X55346900Y-32892757D01*
X55694258Y-32893060D01*
X61724000Y-38922802D01*
X61724000Y-45946230D01*
X61686213Y-45935392D01*
X60885605Y-46736000D01*
X61686213Y-47536608D01*
X61724000Y-47525770D01*
X61724000Y-50495889D01*
X61490327Y-50261808D01*
X61146799Y-50119162D01*
X60774833Y-50118838D01*
X60431057Y-50260883D01*
X60196000Y-50495530D01*
X60196000Y-49076463D01*
X60228192Y-49044327D01*
X60370838Y-48700799D01*
X60371162Y-48328833D01*
X60260158Y-48060183D01*
X60498302Y-48145144D01*
X61053368Y-48117362D01*
X61437143Y-47958397D01*
X61506608Y-47716213D01*
X60706000Y-46915605D01*
X60691858Y-46929748D01*
X60512253Y-46750143D01*
X60526395Y-46736000D01*
X59725787Y-45935392D01*
X59483603Y-46004857D01*
X59433491Y-46145318D01*
X59351010Y-45945697D01*
X58958370Y-45552371D01*
X58445100Y-45339243D01*
X57889339Y-45338758D01*
X57375697Y-45550990D01*
X56982371Y-45943630D01*
X56896051Y-46151512D01*
X56811010Y-45945697D01*
X56418370Y-45552371D01*
X55905100Y-45339243D01*
X55349339Y-45338758D01*
X54835697Y-45550990D01*
X54442371Y-45943630D01*
X54356051Y-46151512D01*
X54271010Y-45945697D01*
X53878370Y-45552371D01*
X53365100Y-45339243D01*
X52809339Y-45338758D01*
X52295697Y-45550990D01*
X51902371Y-45943630D01*
X51816051Y-46151512D01*
X51731010Y-45945697D01*
X51338370Y-45552371D01*
X50825100Y-45339243D01*
X50269339Y-45338758D01*
X50036000Y-45435171D01*
X50036000Y-40894000D01*
X49978148Y-40603161D01*
X49813401Y-40356599D01*
X48503969Y-39047167D01*
X54182838Y-39047167D01*
X54324883Y-39390943D01*
X54587673Y-39654192D01*
X54931201Y-39796838D01*
X54978077Y-39796879D01*
X59770878Y-44589680D01*
X59770838Y-44635167D01*
X59912883Y-44978943D01*
X60175673Y-45242192D01*
X60437023Y-45350714D01*
X60358632Y-45354638D01*
X59974857Y-45513603D01*
X59905392Y-45755787D01*
X60706000Y-46556395D01*
X61506608Y-45755787D01*
X61437143Y-45513603D01*
X60977333Y-45349559D01*
X61234943Y-45243117D01*
X61498192Y-44980327D01*
X61640838Y-44636799D01*
X61641162Y-44264833D01*
X61499117Y-43921057D01*
X61236327Y-43657808D01*
X60892799Y-43515162D01*
X60845923Y-43515121D01*
X56053122Y-38722320D01*
X56053162Y-38676833D01*
X55911117Y-38333057D01*
X55648327Y-38069808D01*
X55304799Y-37927162D01*
X54932833Y-37926838D01*
X54589057Y-38068883D01*
X54325808Y-38331673D01*
X54183162Y-38675201D01*
X54182838Y-39047167D01*
X48503969Y-39047167D01*
X48433122Y-38976320D01*
X48433162Y-38930833D01*
X48291117Y-38587057D01*
X48028327Y-38323808D01*
X47684799Y-38181162D01*
X47312833Y-38180838D01*
X46969057Y-38322883D01*
X46705808Y-38585673D01*
X46563162Y-38929201D01*
X46562838Y-39301167D01*
X46704883Y-39644943D01*
X46967673Y-39908192D01*
X47311201Y-40050838D01*
X47358077Y-40050879D01*
X48516000Y-41208802D01*
X48516000Y-45435121D01*
X48285100Y-45339243D01*
X47729339Y-45338758D01*
X47496000Y-45435171D01*
X47496000Y-41910000D01*
X47438148Y-41619161D01*
X47273401Y-41372599D01*
X44479401Y-38578599D01*
X44459198Y-38565100D01*
X44218327Y-38323808D01*
X43874799Y-38181162D01*
X43502833Y-38180838D01*
X43159057Y-38322883D01*
X42895808Y-38585673D01*
X42753162Y-38929201D01*
X42752838Y-39301167D01*
X42894883Y-39644943D01*
X43157673Y-39908192D01*
X43501201Y-40050838D01*
X43802298Y-40051100D01*
X45976000Y-42224802D01*
X45976000Y-45435121D01*
X45745100Y-45339243D01*
X45189339Y-45338758D01*
X44675697Y-45550990D01*
X44282371Y-45943630D01*
X44069243Y-46456900D01*
X44068758Y-47012661D01*
X44280990Y-47526303D01*
X44673630Y-47919629D01*
X45186900Y-48132757D01*
X45742661Y-48133242D01*
X45976000Y-48036829D01*
X45976000Y-50745537D01*
X45943808Y-50777673D01*
X45801162Y-51121201D01*
X45800980Y-51330178D01*
X40638000Y-46167198D01*
X40638000Y-39678463D01*
X40670192Y-39646327D01*
X40812838Y-39302799D01*
X40813162Y-38930833D01*
X40671117Y-38587057D01*
X40408327Y-38323808D01*
X40064799Y-38181162D01*
X39692833Y-38180838D01*
X39349057Y-38322883D01*
X39085808Y-38585673D01*
X38943162Y-38929201D01*
X38942838Y-39301167D01*
X39084883Y-39644943D01*
X39118000Y-39678118D01*
X39118000Y-46482000D01*
X39166965Y-46728163D01*
X36828000Y-44389198D01*
X36828000Y-39678463D01*
X36860192Y-39646327D01*
X37002838Y-39302799D01*
X37003162Y-38930833D01*
X36861117Y-38587057D01*
X36598327Y-38323808D01*
X36254799Y-38181162D01*
X35882833Y-38180838D01*
X35539057Y-38322883D01*
X35275808Y-38585673D01*
X35133162Y-38929201D01*
X35132838Y-39301167D01*
X35274883Y-39644943D01*
X35308000Y-39678118D01*
X35308000Y-44704000D01*
X35365852Y-44994839D01*
X35530599Y-45241401D01*
X42615198Y-52326000D01*
X42348600Y-52326000D01*
X42148367Y-52026330D01*
X41662186Y-51701474D01*
X41088697Y-51587400D01*
X39683303Y-51587400D01*
X39109814Y-51701474D01*
X38623633Y-52026330D01*
X38423400Y-52326000D01*
X29648600Y-52326000D01*
X29448367Y-52026330D01*
X28962186Y-51701474D01*
X28388697Y-51587400D01*
X26983303Y-51587400D01*
X26414000Y-51700641D01*
X26414000Y-46609000D01*
X26356148Y-46318161D01*
X26191401Y-46071599D01*
X25516969Y-45397167D01*
X32338838Y-45397167D01*
X32480883Y-45740943D01*
X32743673Y-46004192D01*
X33087201Y-46146838D01*
X33459167Y-46147162D01*
X33802943Y-46005117D01*
X34066192Y-45742327D01*
X34208838Y-45398799D01*
X34209162Y-45026833D01*
X34067117Y-44683057D01*
X34034000Y-44649882D01*
X34034000Y-38922802D01*
X37398802Y-35558000D01*
X50745537Y-35558000D01*
X50777673Y-35590192D01*
X51121201Y-35732838D01*
X51493167Y-35733162D01*
X51836943Y-35591117D01*
X52100192Y-35328327D01*
X52242838Y-34984799D01*
X52243162Y-34612833D01*
X52101117Y-34269057D01*
X51838327Y-34005808D01*
X51494799Y-33863162D01*
X51122833Y-33862838D01*
X50779057Y-34004883D01*
X50745882Y-34038000D01*
X37084000Y-34038000D01*
X36793161Y-34095852D01*
X36546599Y-34260599D01*
X32736599Y-38070599D01*
X32571852Y-38317161D01*
X32514000Y-38608000D01*
X32514000Y-44649537D01*
X32481808Y-44681673D01*
X32339162Y-45025201D01*
X32338838Y-45397167D01*
X25516969Y-45397167D01*
X25221940Y-45102138D01*
X25221940Y-44132500D01*
X25177662Y-43897183D01*
X25038590Y-43681059D01*
X24826390Y-43536069D01*
X24574500Y-43485060D01*
X24510360Y-43485060D01*
X24568929Y-43460800D01*
X24630583Y-43225188D01*
X23876000Y-42470605D01*
X23121417Y-43225188D01*
X23183071Y-43460800D01*
X23251998Y-43485060D01*
X23177500Y-43485060D01*
X22942183Y-43529338D01*
X22726059Y-43668410D01*
X22581069Y-43880610D01*
X22530060Y-44132500D01*
X22530060Y-45529500D01*
X22574338Y-45764817D01*
X22713410Y-45980941D01*
X22925610Y-46125931D01*
X23177500Y-46176940D01*
X24147138Y-46176940D01*
X24894000Y-46923802D01*
X24894000Y-54473064D01*
X24746643Y-54325449D01*
X24182670Y-54091267D01*
X23572009Y-54090735D01*
X23007629Y-54323932D01*
X22839387Y-54491880D01*
X22839162Y-54490683D01*
X22700090Y-54274559D01*
X22487890Y-54129569D01*
X22236000Y-54078560D01*
X20436000Y-54078560D01*
X20200683Y-54122838D01*
X19984559Y-54261910D01*
X19839569Y-54474110D01*
X19788560Y-54726000D01*
X19481000Y-54726000D01*
X19481000Y-42098480D01*
X22530073Y-42098480D01*
X22558852Y-42628199D01*
X22706200Y-42983929D01*
X22941812Y-43045583D01*
X23696395Y-42291000D01*
X24055605Y-42291000D01*
X24810188Y-43045583D01*
X25045800Y-42983929D01*
X25221927Y-42483520D01*
X25193148Y-41953801D01*
X25045800Y-41598071D01*
X24810188Y-41536417D01*
X24055605Y-42291000D01*
X23696395Y-42291000D01*
X22941812Y-41536417D01*
X22706200Y-41598071D01*
X22530073Y-42098480D01*
X19481000Y-42098480D01*
X19481000Y-40015086D01*
X22542269Y-40015086D01*
X22744854Y-40505380D01*
X23119647Y-40880827D01*
X23441118Y-41014314D01*
X23183071Y-41121200D01*
X23121417Y-41356812D01*
X23876000Y-42111395D01*
X24630583Y-41356812D01*
X24568929Y-41121200D01*
X24289688Y-41022917D01*
X24630380Y-40882146D01*
X25005827Y-40507353D01*
X25209268Y-40017413D01*
X25209731Y-39486914D01*
X25007146Y-38996620D01*
X24632353Y-38621173D01*
X24142413Y-38417732D01*
X23611914Y-38417269D01*
X23121620Y-38619854D01*
X22746173Y-38994647D01*
X22542732Y-39484587D01*
X22542269Y-40015086D01*
X19481000Y-40015086D01*
X19481000Y-18846000D01*
X86691000Y-18846000D01*
X86691000Y-103836000D01*
G36*
X81282000Y-47304802D02*
X81282000Y-82743198D01*
X79949198Y-84076000D01*
X58108995Y-84076000D01*
X57938811Y-83821302D01*
X57556725Y-83566000D01*
X57938811Y-83310698D01*
X58249880Y-82845151D01*
X58359113Y-82296000D01*
X58294688Y-81972114D01*
X58957401Y-81309401D01*
X59122148Y-81062840D01*
X59134934Y-80998560D01*
X59180000Y-80772000D01*
X59180000Y-76254463D01*
X59212192Y-76222327D01*
X59354838Y-75878799D01*
X59355162Y-75506833D01*
X59325894Y-75436000D01*
X59690000Y-75436000D01*
X59980839Y-75378148D01*
X60227401Y-75213401D01*
X63054772Y-72386030D01*
X66891000Y-72386030D01*
X66891000Y-73155970D01*
X67000233Y-73705121D01*
X67311302Y-74170668D01*
X67776849Y-74481737D01*
X68086700Y-74543370D01*
X68086700Y-75100405D01*
X67884733Y-75302019D01*
X67711518Y-75719168D01*
X67711124Y-76170850D01*
X67883611Y-76588301D01*
X68202719Y-76907967D01*
X68619868Y-77081182D01*
X69071550Y-77081576D01*
X69489001Y-76909089D01*
X69595906Y-76802370D01*
X69701319Y-76907967D01*
X70118468Y-77081182D01*
X70570150Y-77081576D01*
X70987601Y-76909089D01*
X71307267Y-76589981D01*
X71480482Y-76172832D01*
X71480876Y-75721150D01*
X71308389Y-75303699D01*
X71105300Y-75100255D01*
X71105300Y-74543370D01*
X71415151Y-74481737D01*
X71880698Y-74170668D01*
X72136000Y-73788582D01*
X72391302Y-74170668D01*
X72856849Y-74481737D01*
X73406000Y-74590970D01*
X73955151Y-74481737D01*
X74420698Y-74170668D01*
X74673149Y-73792849D01*
X75021104Y-74225500D01*
X75514181Y-74495367D01*
X75596961Y-74512904D01*
X75819000Y-74390915D01*
X75819000Y-72898000D01*
X76073000Y-72898000D01*
X76073000Y-74390915D01*
X76295039Y-74512904D01*
X76377819Y-74495367D01*
X76870896Y-74225500D01*
X77223166Y-73787483D01*
X77381000Y-73248000D01*
X77381000Y-72898000D01*
X76073000Y-72898000D01*
X75819000Y-72898000D01*
X75799000Y-72898000D01*
X75799000Y-72644000D01*
X75819000Y-72644000D01*
X75819000Y-71151085D01*
X76073000Y-71151085D01*
X76073000Y-72644000D01*
X77381000Y-72644000D01*
X77381000Y-72294000D01*
X77223166Y-71754517D01*
X76870896Y-71316500D01*
X76377819Y-71046633D01*
X76295039Y-71029096D01*
X76073000Y-71151085D01*
X75819000Y-71151085D01*
X75596961Y-71029096D01*
X75514181Y-71046633D01*
X75021104Y-71316500D01*
X74673149Y-71749151D01*
X74420698Y-71371332D01*
X73955151Y-71060263D01*
X73406000Y-70951030D01*
X72856849Y-71060263D01*
X72391302Y-71371332D01*
X72136000Y-71753418D01*
X71880698Y-71371332D01*
X71415151Y-71060263D01*
X70866000Y-70951030D01*
X70316849Y-71060263D01*
X69851302Y-71371332D01*
X69596000Y-71753418D01*
X69340698Y-71371332D01*
X68875151Y-71060263D01*
X68326000Y-70951030D01*
X67776849Y-71060263D01*
X67311302Y-71371332D01*
X67000233Y-71836879D01*
X66891000Y-72386030D01*
X63054772Y-72386030D01*
X65417680Y-70023122D01*
X65463167Y-70023162D01*
X65806943Y-69881117D01*
X66070192Y-69618327D01*
X66212838Y-69274799D01*
X66213162Y-68902833D01*
X66071117Y-68559057D01*
X65808327Y-68295808D01*
X65464799Y-68153162D01*
X65092833Y-68152838D01*
X64749057Y-68294883D01*
X64485808Y-68557673D01*
X64343162Y-68901201D01*
X64343121Y-68948077D01*
X59375198Y-73916000D01*
X58108995Y-73916000D01*
X57938811Y-73661302D01*
X57556725Y-73406000D01*
X57938811Y-73150698D01*
X58249880Y-72685151D01*
X58359113Y-72136000D01*
X58249880Y-71586849D01*
X57938811Y-71121302D01*
X57534297Y-70851014D01*
X57751134Y-70748389D01*
X58127041Y-70333423D01*
X58287904Y-69945039D01*
X58165915Y-69723000D01*
X57023000Y-69723000D01*
X57023000Y-69743000D01*
X56769000Y-69743000D01*
X56769000Y-69723000D01*
X55626085Y-69723000D01*
X55504096Y-69945039D01*
X55664959Y-70333423D01*
X56040866Y-70748389D01*
X56257703Y-70851014D01*
X55853189Y-71121302D01*
X55542120Y-71586849D01*
X55432887Y-72136000D01*
X55542120Y-72685151D01*
X55853189Y-73150698D01*
X56235275Y-73406000D01*
X55853189Y-73661302D01*
X55542120Y-74126849D01*
X55432887Y-74676000D01*
X55542120Y-75225151D01*
X55853189Y-75690698D01*
X56235275Y-75946000D01*
X55853189Y-76201302D01*
X55542120Y-76666849D01*
X55432887Y-77216000D01*
X55497312Y-77539886D01*
X53844659Y-79192539D01*
X53616327Y-78963808D01*
X53272799Y-78821162D01*
X53225923Y-78821121D01*
X52576000Y-78171198D01*
X52576000Y-68380463D01*
X52608192Y-68348327D01*
X52750838Y-68004799D01*
X52751162Y-67632833D01*
X52609117Y-67289057D01*
X52346327Y-67025808D01*
X52002799Y-66883162D01*
X51814000Y-66882998D01*
X51814000Y-66094463D01*
X51846192Y-66062327D01*
X51988838Y-65718799D01*
X51989162Y-65346833D01*
X51959894Y-65276000D01*
X52451000Y-65276000D01*
X52741839Y-65218148D01*
X52988401Y-65053401D01*
X54258401Y-63783401D01*
X54423148Y-63536840D01*
X54481000Y-63246000D01*
X54481000Y-53400802D01*
X54612000Y-53269802D01*
X54612000Y-61468000D01*
X54669852Y-61758839D01*
X54834599Y-62005401D01*
X55342599Y-62513401D01*
X55589161Y-62678148D01*
X55652809Y-62690808D01*
X55853189Y-62990698D01*
X56235275Y-63246000D01*
X55853189Y-63501302D01*
X55542120Y-63966849D01*
X55432887Y-64516000D01*
X55542120Y-65065151D01*
X55853189Y-65530698D01*
X56235275Y-65786000D01*
X55853189Y-66041302D01*
X55542120Y-66506849D01*
X55432887Y-67056000D01*
X55542120Y-67605151D01*
X55853189Y-68070698D01*
X56257703Y-68340986D01*
X56040866Y-68443611D01*
X55664959Y-68858577D01*
X55504096Y-69246961D01*
X55626085Y-69469000D01*
X56769000Y-69469000D01*
X56769000Y-69449000D01*
X57023000Y-69449000D01*
X57023000Y-69469000D01*
X58165915Y-69469000D01*
X58287904Y-69246961D01*
X58127041Y-68858577D01*
X57751134Y-68443611D01*
X57534297Y-68340986D01*
X57938811Y-68070698D01*
X58249880Y-67605151D01*
X58359113Y-67056000D01*
X58294688Y-66732114D01*
X60260772Y-64766030D01*
X66891000Y-64766030D01*
X66891000Y-65535970D01*
X67000233Y-66085121D01*
X67311302Y-66550668D01*
X67776849Y-66861737D01*
X68326000Y-66970970D01*
X68875151Y-66861737D01*
X69340698Y-66550668D01*
X69596000Y-66168582D01*
X69851302Y-66550668D01*
X70316849Y-66861737D01*
X70866000Y-66970970D01*
X71415151Y-66861737D01*
X71880698Y-66550668D01*
X72136000Y-66168582D01*
X72391302Y-66550668D01*
X72856849Y-66861737D01*
X73406000Y-66970970D01*
X73955151Y-66861737D01*
X74420698Y-66550668D01*
X74676000Y-66168582D01*
X74931302Y-66550668D01*
X75396849Y-66861737D01*
X75946000Y-66970970D01*
X76495151Y-66861737D01*
X76960698Y-66550668D01*
X77271767Y-66085121D01*
X77381000Y-65535970D01*
X77381000Y-64766030D01*
X77271767Y-64216879D01*
X76960698Y-63751332D01*
X76495151Y-63440263D01*
X75946000Y-63331030D01*
X75854110Y-63349308D01*
X75213401Y-62708599D01*
X74966839Y-62543852D01*
X74676000Y-62486000D01*
X68888463Y-62486000D01*
X68856327Y-62453808D01*
X68512799Y-62311162D01*
X68140833Y-62310838D01*
X67797057Y-62452883D01*
X67533808Y-62715673D01*
X67391162Y-63059201D01*
X67390838Y-63431167D01*
X67477298Y-63640417D01*
X67311302Y-63751332D01*
X67000233Y-64216879D01*
X66891000Y-64766030D01*
X60260772Y-64766030D01*
X63783401Y-61243401D01*
X63948148Y-60996839D01*
X64006000Y-60706000D01*
X64006000Y-59159710D01*
X64434778Y-59501925D01*
X64998600Y-59664600D01*
X65659000Y-59664600D01*
X65659000Y-58293000D01*
X65913000Y-58293000D01*
X65913000Y-59664600D01*
X66573400Y-59664600D01*
X67137222Y-59501925D01*
X67595873Y-59135868D01*
X67879527Y-58622157D01*
X67901358Y-58525026D01*
X76370642Y-58525026D01*
X76392473Y-58622157D01*
X76676127Y-59135868D01*
X77134778Y-59501925D01*
X77698600Y-59664600D01*
X78359000Y-59664600D01*
X78359000Y-58293000D01*
X78613000Y-58293000D01*
X78613000Y-59664600D01*
X79273400Y-59664600D01*
X79837222Y-59501925D01*
X80295873Y-59135868D01*
X80579527Y-58622157D01*
X80601358Y-58525026D01*
X80480217Y-58293000D01*
X78613000Y-58293000D01*
X78359000Y-58293000D01*
X76491783Y-58293000D01*
X76370642Y-58525026D01*
X67901358Y-58525026D01*
X67780217Y-58293000D01*
X65913000Y-58293000D01*
X65659000Y-58293000D01*
X65639000Y-58293000D01*
X65639000Y-58039000D01*
X65659000Y-58039000D01*
X65659000Y-56667400D01*
X65913000Y-56667400D01*
X65913000Y-58039000D01*
X67780217Y-58039000D01*
X67901358Y-57806974D01*
X76370642Y-57806974D01*
X76491783Y-58039000D01*
X78359000Y-58039000D01*
X78359000Y-56667400D01*
X78613000Y-56667400D01*
X78613000Y-58039000D01*
X80480217Y-58039000D01*
X80601358Y-57806974D01*
X80579527Y-57709843D01*
X80295873Y-57196132D01*
X79837222Y-56830075D01*
X79273400Y-56667400D01*
X78613000Y-56667400D01*
X78359000Y-56667400D01*
X77698600Y-56667400D01*
X77134778Y-56830075D01*
X76676127Y-57196132D01*
X76392473Y-57709843D01*
X76370642Y-57806974D01*
X67901358Y-57806974D01*
X67879527Y-57709843D01*
X67595873Y-57196132D01*
X67137222Y-56830075D01*
X66573400Y-56667400D01*
X65913000Y-56667400D01*
X65659000Y-56667400D01*
X64998600Y-56667400D01*
X64434778Y-56830075D01*
X64006000Y-57172290D01*
X64006000Y-54119280D01*
X64023633Y-54145670D01*
X64509814Y-54470526D01*
X65083303Y-54584600D01*
X66488697Y-54584600D01*
X67062186Y-54470526D01*
X67548367Y-54145670D01*
X67748600Y-53846000D01*
X76523400Y-53846000D01*
X76723633Y-54145670D01*
X77209814Y-54470526D01*
X77783303Y-54584600D01*
X79188697Y-54584600D01*
X79762186Y-54470526D01*
X80248367Y-54145670D01*
X80573223Y-53659489D01*
X80687297Y-53086000D01*
X80573223Y-52512511D01*
X80248367Y-52026330D01*
X79762186Y-51701474D01*
X79188697Y-51587400D01*
X77783303Y-51587400D01*
X77209814Y-51701474D01*
X76723633Y-52026330D01*
X76523400Y-52326000D01*
X67748600Y-52326000D01*
X67548367Y-52026330D01*
X67062186Y-51701474D01*
X66488697Y-51587400D01*
X65083303Y-51587400D01*
X64509814Y-51701474D01*
X64023633Y-52026330D01*
X64006000Y-52052720D01*
X64006000Y-31496000D01*
X63948148Y-31205161D01*
X63948148Y-31205160D01*
X63783401Y-30958599D01*
X62540802Y-29716000D01*
X63693198Y-29716000D01*
X81282000Y-47304802D01*
X81282000Y-47304802D01*
G37*
X81282000Y-47304802D02*
X81282000Y-82743198D01*
X79949198Y-84076000D01*
X58108995Y-84076000D01*
X57938811Y-83821302D01*
X57556725Y-83566000D01*
X57938811Y-83310698D01*
X58249880Y-82845151D01*
X58359113Y-82296000D01*
X58294688Y-81972114D01*
X58957401Y-81309401D01*
X59122148Y-81062840D01*
X59134934Y-80998560D01*
X59180000Y-80772000D01*
X59180000Y-76254463D01*
X59212192Y-76222327D01*
X59354838Y-75878799D01*
X59355162Y-75506833D01*
X59325894Y-75436000D01*
X59690000Y-75436000D01*
X59980839Y-75378148D01*
X60227401Y-75213401D01*
X63054772Y-72386030D01*
X66891000Y-72386030D01*
X66891000Y-73155970D01*
X67000233Y-73705121D01*
X67311302Y-74170668D01*
X67776849Y-74481737D01*
X68086700Y-74543370D01*
X68086700Y-75100405D01*
X67884733Y-75302019D01*
X67711518Y-75719168D01*
X67711124Y-76170850D01*
X67883611Y-76588301D01*
X68202719Y-76907967D01*
X68619868Y-77081182D01*
X69071550Y-77081576D01*
X69489001Y-76909089D01*
X69595906Y-76802370D01*
X69701319Y-76907967D01*
X70118468Y-77081182D01*
X70570150Y-77081576D01*
X70987601Y-76909089D01*
X71307267Y-76589981D01*
X71480482Y-76172832D01*
X71480876Y-75721150D01*
X71308389Y-75303699D01*
X71105300Y-75100255D01*
X71105300Y-74543370D01*
X71415151Y-74481737D01*
X71880698Y-74170668D01*
X72136000Y-73788582D01*
X72391302Y-74170668D01*
X72856849Y-74481737D01*
X73406000Y-74590970D01*
X73955151Y-74481737D01*
X74420698Y-74170668D01*
X74673149Y-73792849D01*
X75021104Y-74225500D01*
X75514181Y-74495367D01*
X75596961Y-74512904D01*
X75819000Y-74390915D01*
X75819000Y-72898000D01*
X76073000Y-72898000D01*
X76073000Y-74390915D01*
X76295039Y-74512904D01*
X76377819Y-74495367D01*
X76870896Y-74225500D01*
X77223166Y-73787483D01*
X77381000Y-73248000D01*
X77381000Y-72898000D01*
X76073000Y-72898000D01*
X75819000Y-72898000D01*
X75799000Y-72898000D01*
X75799000Y-72644000D01*
X75819000Y-72644000D01*
X75819000Y-71151085D01*
X76073000Y-71151085D01*
X76073000Y-72644000D01*
X77381000Y-72644000D01*
X77381000Y-72294000D01*
X77223166Y-71754517D01*
X76870896Y-71316500D01*
X76377819Y-71046633D01*
X76295039Y-71029096D01*
X76073000Y-71151085D01*
X75819000Y-71151085D01*
X75596961Y-71029096D01*
X75514181Y-71046633D01*
X75021104Y-71316500D01*
X74673149Y-71749151D01*
X74420698Y-71371332D01*
X73955151Y-71060263D01*
X73406000Y-70951030D01*
X72856849Y-71060263D01*
X72391302Y-71371332D01*
X72136000Y-71753418D01*
X71880698Y-71371332D01*
X71415151Y-71060263D01*
X70866000Y-70951030D01*
X70316849Y-71060263D01*
X69851302Y-71371332D01*
X69596000Y-71753418D01*
X69340698Y-71371332D01*
X68875151Y-71060263D01*
X68326000Y-70951030D01*
X67776849Y-71060263D01*
X67311302Y-71371332D01*
X67000233Y-71836879D01*
X66891000Y-72386030D01*
X63054772Y-72386030D01*
X65417680Y-70023122D01*
X65463167Y-70023162D01*
X65806943Y-69881117D01*
X66070192Y-69618327D01*
X66212838Y-69274799D01*
X66213162Y-68902833D01*
X66071117Y-68559057D01*
X65808327Y-68295808D01*
X65464799Y-68153162D01*
X65092833Y-68152838D01*
X64749057Y-68294883D01*
X64485808Y-68557673D01*
X64343162Y-68901201D01*
X64343121Y-68948077D01*
X59375198Y-73916000D01*
X58108995Y-73916000D01*
X57938811Y-73661302D01*
X57556725Y-73406000D01*
X57938811Y-73150698D01*
X58249880Y-72685151D01*
X58359113Y-72136000D01*
X58249880Y-71586849D01*
X57938811Y-71121302D01*
X57534297Y-70851014D01*
X57751134Y-70748389D01*
X58127041Y-70333423D01*
X58287904Y-69945039D01*
X58165915Y-69723000D01*
X57023000Y-69723000D01*
X57023000Y-69743000D01*
X56769000Y-69743000D01*
X56769000Y-69723000D01*
X55626085Y-69723000D01*
X55504096Y-69945039D01*
X55664959Y-70333423D01*
X56040866Y-70748389D01*
X56257703Y-70851014D01*
X55853189Y-71121302D01*
X55542120Y-71586849D01*
X55432887Y-72136000D01*
X55542120Y-72685151D01*
X55853189Y-73150698D01*
X56235275Y-73406000D01*
X55853189Y-73661302D01*
X55542120Y-74126849D01*
X55432887Y-74676000D01*
X55542120Y-75225151D01*
X55853189Y-75690698D01*
X56235275Y-75946000D01*
X55853189Y-76201302D01*
X55542120Y-76666849D01*
X55432887Y-77216000D01*
X55497312Y-77539886D01*
X53844659Y-79192539D01*
X53616327Y-78963808D01*
X53272799Y-78821162D01*
X53225923Y-78821121D01*
X52576000Y-78171198D01*
X52576000Y-68380463D01*
X52608192Y-68348327D01*
X52750838Y-68004799D01*
X52751162Y-67632833D01*
X52609117Y-67289057D01*
X52346327Y-67025808D01*
X52002799Y-66883162D01*
X51814000Y-66882998D01*
X51814000Y-66094463D01*
X51846192Y-66062327D01*
X51988838Y-65718799D01*
X51989162Y-65346833D01*
X51959894Y-65276000D01*
X52451000Y-65276000D01*
X52741839Y-65218148D01*
X52988401Y-65053401D01*
X54258401Y-63783401D01*
X54423148Y-63536840D01*
X54481000Y-63246000D01*
X54481000Y-53400802D01*
X54612000Y-53269802D01*
X54612000Y-61468000D01*
X54669852Y-61758839D01*
X54834599Y-62005401D01*
X55342599Y-62513401D01*
X55589161Y-62678148D01*
X55652809Y-62690808D01*
X55853189Y-62990698D01*
X56235275Y-63246000D01*
X55853189Y-63501302D01*
X55542120Y-63966849D01*
X55432887Y-64516000D01*
X55542120Y-65065151D01*
X55853189Y-65530698D01*
X56235275Y-65786000D01*
X55853189Y-66041302D01*
X55542120Y-66506849D01*
X55432887Y-67056000D01*
X55542120Y-67605151D01*
X55853189Y-68070698D01*
X56257703Y-68340986D01*
X56040866Y-68443611D01*
X55664959Y-68858577D01*
X55504096Y-69246961D01*
X55626085Y-69469000D01*
X56769000Y-69469000D01*
X56769000Y-69449000D01*
X57023000Y-69449000D01*
X57023000Y-69469000D01*
X58165915Y-69469000D01*
X58287904Y-69246961D01*
X58127041Y-68858577D01*
X57751134Y-68443611D01*
X57534297Y-68340986D01*
X57938811Y-68070698D01*
X58249880Y-67605151D01*
X58359113Y-67056000D01*
X58294688Y-66732114D01*
X60260772Y-64766030D01*
X66891000Y-64766030D01*
X66891000Y-65535970D01*
X67000233Y-66085121D01*
X67311302Y-66550668D01*
X67776849Y-66861737D01*
X68326000Y-66970970D01*
X68875151Y-66861737D01*
X69340698Y-66550668D01*
X69596000Y-66168582D01*
X69851302Y-66550668D01*
X70316849Y-66861737D01*
X70866000Y-66970970D01*
X71415151Y-66861737D01*
X71880698Y-66550668D01*
X72136000Y-66168582D01*
X72391302Y-66550668D01*
X72856849Y-66861737D01*
X73406000Y-66970970D01*
X73955151Y-66861737D01*
X74420698Y-66550668D01*
X74676000Y-66168582D01*
X74931302Y-66550668D01*
X75396849Y-66861737D01*
X75946000Y-66970970D01*
X76495151Y-66861737D01*
X76960698Y-66550668D01*
X77271767Y-66085121D01*
X77381000Y-65535970D01*
X77381000Y-64766030D01*
X77271767Y-64216879D01*
X76960698Y-63751332D01*
X76495151Y-63440263D01*
X75946000Y-63331030D01*
X75854110Y-63349308D01*
X75213401Y-62708599D01*
X74966839Y-62543852D01*
X74676000Y-62486000D01*
X68888463Y-62486000D01*
X68856327Y-62453808D01*
X68512799Y-62311162D01*
X68140833Y-62310838D01*
X67797057Y-62452883D01*
X67533808Y-62715673D01*
X67391162Y-63059201D01*
X67390838Y-63431167D01*
X67477298Y-63640417D01*
X67311302Y-63751332D01*
X67000233Y-64216879D01*
X66891000Y-64766030D01*
X60260772Y-64766030D01*
X63783401Y-61243401D01*
X63948148Y-60996839D01*
X64006000Y-60706000D01*
X64006000Y-59159710D01*
X64434778Y-59501925D01*
X64998600Y-59664600D01*
X65659000Y-59664600D01*
X65659000Y-58293000D01*
X65913000Y-58293000D01*
X65913000Y-59664600D01*
X66573400Y-59664600D01*
X67137222Y-59501925D01*
X67595873Y-59135868D01*
X67879527Y-58622157D01*
X67901358Y-58525026D01*
X76370642Y-58525026D01*
X76392473Y-58622157D01*
X76676127Y-59135868D01*
X77134778Y-59501925D01*
X77698600Y-59664600D01*
X78359000Y-59664600D01*
X78359000Y-58293000D01*
X78613000Y-58293000D01*
X78613000Y-59664600D01*
X79273400Y-59664600D01*
X79837222Y-59501925D01*
X80295873Y-59135868D01*
X80579527Y-58622157D01*
X80601358Y-58525026D01*
X80480217Y-58293000D01*
X78613000Y-58293000D01*
X78359000Y-58293000D01*
X76491783Y-58293000D01*
X76370642Y-58525026D01*
X67901358Y-58525026D01*
X67780217Y-58293000D01*
X65913000Y-58293000D01*
X65659000Y-58293000D01*
X65639000Y-58293000D01*
X65639000Y-58039000D01*
X65659000Y-58039000D01*
X65659000Y-56667400D01*
X65913000Y-56667400D01*
X65913000Y-58039000D01*
X67780217Y-58039000D01*
X67901358Y-57806974D01*
X76370642Y-57806974D01*
X76491783Y-58039000D01*
X78359000Y-58039000D01*
X78359000Y-56667400D01*
X78613000Y-56667400D01*
X78613000Y-58039000D01*
X80480217Y-58039000D01*
X80601358Y-57806974D01*
X80579527Y-57709843D01*
X80295873Y-57196132D01*
X79837222Y-56830075D01*
X79273400Y-56667400D01*
X78613000Y-56667400D01*
X78359000Y-56667400D01*
X77698600Y-56667400D01*
X77134778Y-56830075D01*
X76676127Y-57196132D01*
X76392473Y-57709843D01*
X76370642Y-57806974D01*
X67901358Y-57806974D01*
X67879527Y-57709843D01*
X67595873Y-57196132D01*
X67137222Y-56830075D01*
X66573400Y-56667400D01*
X65913000Y-56667400D01*
X65659000Y-56667400D01*
X64998600Y-56667400D01*
X64434778Y-56830075D01*
X64006000Y-57172290D01*
X64006000Y-54119280D01*
X64023633Y-54145670D01*
X64509814Y-54470526D01*
X65083303Y-54584600D01*
X66488697Y-54584600D01*
X67062186Y-54470526D01*
X67548367Y-54145670D01*
X67748600Y-53846000D01*
X76523400Y-53846000D01*
X76723633Y-54145670D01*
X77209814Y-54470526D01*
X77783303Y-54584600D01*
X79188697Y-54584600D01*
X79762186Y-54470526D01*
X80248367Y-54145670D01*
X80573223Y-53659489D01*
X80687297Y-53086000D01*
X80573223Y-52512511D01*
X80248367Y-52026330D01*
X79762186Y-51701474D01*
X79188697Y-51587400D01*
X77783303Y-51587400D01*
X77209814Y-51701474D01*
X76723633Y-52026330D01*
X76523400Y-52326000D01*
X67748600Y-52326000D01*
X67548367Y-52026330D01*
X67062186Y-51701474D01*
X66488697Y-51587400D01*
X65083303Y-51587400D01*
X64509814Y-51701474D01*
X64023633Y-52026330D01*
X64006000Y-52052720D01*
X64006000Y-31496000D01*
X63948148Y-31205161D01*
X63948148Y-31205160D01*
X63783401Y-30958599D01*
X62540802Y-29716000D01*
X63693198Y-29716000D01*
X81282000Y-47304802D01*
G36*
X38623633Y-54145670D02*
X39109814Y-54470526D01*
X39683303Y-54584600D01*
X41088697Y-54584600D01*
X41662186Y-54470526D01*
X42148367Y-54145670D01*
X42348600Y-53846000D01*
X42611198Y-53846000D01*
X46198599Y-57433401D01*
X46445161Y-57598148D01*
X46736000Y-57656000D01*
X48063005Y-57656000D01*
X48233189Y-57910698D01*
X48615275Y-58166000D01*
X48233189Y-58421302D01*
X47922120Y-58886849D01*
X47812887Y-59436000D01*
X47914332Y-59946000D01*
X40694463Y-59946000D01*
X40662327Y-59913808D01*
X40318799Y-59771162D01*
X39946833Y-59770838D01*
X39603057Y-59912883D01*
X39339808Y-60175673D01*
X39197162Y-60519201D01*
X39196838Y-60891167D01*
X39331056Y-61216000D01*
X28000802Y-61216000D01*
X26414000Y-59629198D01*
X26414000Y-59524782D01*
X26898600Y-59664600D01*
X27559000Y-59664600D01*
X27559000Y-58293000D01*
X27813000Y-58293000D01*
X27813000Y-59664600D01*
X28473400Y-59664600D01*
X29037222Y-59501925D01*
X29495873Y-59135868D01*
X29779527Y-58622157D01*
X29801358Y-58525026D01*
X38270642Y-58525026D01*
X38292473Y-58622157D01*
X38576127Y-59135868D01*
X39034778Y-59501925D01*
X39598600Y-59664600D01*
X40259000Y-59664600D01*
X40259000Y-58293000D01*
X40513000Y-58293000D01*
X40513000Y-59664600D01*
X41173400Y-59664600D01*
X41737222Y-59501925D01*
X42195873Y-59135868D01*
X42479527Y-58622157D01*
X42501358Y-58525026D01*
X42380217Y-58293000D01*
X40513000Y-58293000D01*
X40259000Y-58293000D01*
X38391783Y-58293000D01*
X38270642Y-58525026D01*
X29801358Y-58525026D01*
X29680217Y-58293000D01*
X27813000Y-58293000D01*
X27559000Y-58293000D01*
X27539000Y-58293000D01*
X27539000Y-58039000D01*
X27559000Y-58039000D01*
X27559000Y-56667400D01*
X27813000Y-56667400D01*
X27813000Y-58039000D01*
X29680217Y-58039000D01*
X29801358Y-57806974D01*
X38270642Y-57806974D01*
X38391783Y-58039000D01*
X40259000Y-58039000D01*
X40259000Y-56667400D01*
X40513000Y-56667400D01*
X40513000Y-58039000D01*
X42380217Y-58039000D01*
X42501358Y-57806974D01*
X42479527Y-57709843D01*
X42195873Y-57196132D01*
X41737222Y-56830075D01*
X41173400Y-56667400D01*
X40513000Y-56667400D01*
X40259000Y-56667400D01*
X39598600Y-56667400D01*
X39034778Y-56830075D01*
X38576127Y-57196132D01*
X38292473Y-57709843D01*
X38270642Y-57806974D01*
X29801358Y-57806974D01*
X29779527Y-57709843D01*
X29495873Y-57196132D01*
X29037222Y-56830075D01*
X28473400Y-56667400D01*
X27813000Y-56667400D01*
X27559000Y-56667400D01*
X26898600Y-56667400D01*
X26414000Y-56807218D01*
X26414000Y-54471359D01*
X26983303Y-54584600D01*
X28388697Y-54584600D01*
X28962186Y-54470526D01*
X29448367Y-54145670D01*
X29648600Y-53846000D01*
X38423400Y-53846000D01*
X38623633Y-54145670D01*
X38623633Y-54145670D01*
G37*
X38623633Y-54145670D02*
X39109814Y-54470526D01*
X39683303Y-54584600D01*
X41088697Y-54584600D01*
X41662186Y-54470526D01*
X42148367Y-54145670D01*
X42348600Y-53846000D01*
X42611198Y-53846000D01*
X46198599Y-57433401D01*
X46445161Y-57598148D01*
X46736000Y-57656000D01*
X48063005Y-57656000D01*
X48233189Y-57910698D01*
X48615275Y-58166000D01*
X48233189Y-58421302D01*
X47922120Y-58886849D01*
X47812887Y-59436000D01*
X47914332Y-59946000D01*
X40694463Y-59946000D01*
X40662327Y-59913808D01*
X40318799Y-59771162D01*
X39946833Y-59770838D01*
X39603057Y-59912883D01*
X39339808Y-60175673D01*
X39197162Y-60519201D01*
X39196838Y-60891167D01*
X39331056Y-61216000D01*
X28000802Y-61216000D01*
X26414000Y-59629198D01*
X26414000Y-59524782D01*
X26898600Y-59664600D01*
X27559000Y-59664600D01*
X27559000Y-58293000D01*
X27813000Y-58293000D01*
X27813000Y-59664600D01*
X28473400Y-59664600D01*
X29037222Y-59501925D01*
X29495873Y-59135868D01*
X29779527Y-58622157D01*
X29801358Y-58525026D01*
X38270642Y-58525026D01*
X38292473Y-58622157D01*
X38576127Y-59135868D01*
X39034778Y-59501925D01*
X39598600Y-59664600D01*
X40259000Y-59664600D01*
X40259000Y-58293000D01*
X40513000Y-58293000D01*
X40513000Y-59664600D01*
X41173400Y-59664600D01*
X41737222Y-59501925D01*
X42195873Y-59135868D01*
X42479527Y-58622157D01*
X42501358Y-58525026D01*
X42380217Y-58293000D01*
X40513000Y-58293000D01*
X40259000Y-58293000D01*
X38391783Y-58293000D01*
X38270642Y-58525026D01*
X29801358Y-58525026D01*
X29680217Y-58293000D01*
X27813000Y-58293000D01*
X27559000Y-58293000D01*
X27539000Y-58293000D01*
X27539000Y-58039000D01*
X27559000Y-58039000D01*
X27559000Y-56667400D01*
X27813000Y-56667400D01*
X27813000Y-58039000D01*
X29680217Y-58039000D01*
X29801358Y-57806974D01*
X38270642Y-57806974D01*
X38391783Y-58039000D01*
X40259000Y-58039000D01*
X40259000Y-56667400D01*
X40513000Y-56667400D01*
X40513000Y-58039000D01*
X42380217Y-58039000D01*
X42501358Y-57806974D01*
X42479527Y-57709843D01*
X42195873Y-57196132D01*
X41737222Y-56830075D01*
X41173400Y-56667400D01*
X40513000Y-56667400D01*
X40259000Y-56667400D01*
X39598600Y-56667400D01*
X39034778Y-56830075D01*
X38576127Y-57196132D01*
X38292473Y-57709843D01*
X38270642Y-57806974D01*
X29801358Y-57806974D01*
X29779527Y-57709843D01*
X29495873Y-57196132D01*
X29037222Y-56830075D01*
X28473400Y-56667400D01*
X27813000Y-56667400D01*
X27559000Y-56667400D01*
X26898600Y-56667400D01*
X26414000Y-56807218D01*
X26414000Y-54471359D01*
X26983303Y-54584600D01*
X28388697Y-54584600D01*
X28962186Y-54470526D01*
X29448367Y-54145670D01*
X29648600Y-53846000D01*
X38423400Y-53846000D01*
X38623633Y-54145670D01*
M02*
