G04 #@! TF.FileFunction,Copper,L1,Top,Signal*
%FSLAX46Y46*%
G04 Gerber Fmt 4.6, Leading zero omitted, Abs format (unit mm)*
G04 Created by KiCad (PCBNEW 4.0.4-stable) date Thursday, November 10, 2016 'AMt' 08:57:46 AM*
%MOMM*%
%LPD*%
G01*
G04 APERTURE LIST*
%ADD10C,0.100000*%
%ADD11O,1.600000X2.300000*%
%ADD12R,3.000000X3.000000*%
%ADD13R,3.500120X3.500120*%
%ADD14R,1.300000X1.300000*%
%ADD15C,1.300000*%
%ADD16C,1.998980*%
%ADD17R,1.998980X1.998980*%
%ADD18R,2.000000X1.900000*%
%ADD19C,1.900000*%
%ADD20O,1.600000X1.600000*%
%ADD21C,2.000000*%
%ADD22R,1.397000X1.397000*%
%ADD23C,1.397000*%
%ADD24O,1.727200X3.048000*%
%ADD25C,1.524000*%
%ADD26C,1.000760*%
%ADD27O,1.998980X2.499360*%
%ADD28O,2.032000X2.540000*%
%ADD29O,1.501140X0.899160*%
%ADD30C,0.250000*%
G04 APERTURE END LIST*
D10*
D11*
X161290000Y-90170000D03*
X158750000Y-90170000D03*
X156210000Y-90170000D03*
X153670000Y-90170000D03*
X153670000Y-97790000D03*
X156210000Y-97790000D03*
X158750000Y-97790000D03*
X161290000Y-97790000D03*
D12*
X188595000Y-109220000D03*
X159385000Y-109220000D03*
D13*
X204619860Y-113030000D03*
X210619340Y-113030000D03*
X207619600Y-108331000D03*
X142090140Y-113030000D03*
X136090660Y-113030000D03*
X139090400Y-117729000D03*
D14*
X161290000Y-82550000D03*
D15*
X161290000Y-85050000D03*
D16*
X134620000Y-96522540D03*
D17*
X144780000Y-96522540D03*
D18*
X139700000Y-77470000D03*
D19*
X139700000Y-80010000D03*
D20*
X130810000Y-59690000D03*
X133350000Y-59690000D03*
X135890000Y-59690000D03*
X138430000Y-59690000D03*
X140970000Y-59690000D03*
X143510000Y-59690000D03*
X146050000Y-59690000D03*
X148590000Y-59690000D03*
X151130000Y-59690000D03*
X153670000Y-59690000D03*
X156210000Y-59690000D03*
X158750000Y-59690000D03*
X161290000Y-59690000D03*
X163830000Y-59690000D03*
X163830000Y-52070000D03*
X161290000Y-52070000D03*
X158750000Y-52070000D03*
X156210000Y-52070000D03*
X153670000Y-52070000D03*
X151130000Y-52070000D03*
X148590000Y-52070000D03*
X146050000Y-52070000D03*
X143510000Y-52070000D03*
X140970000Y-52070000D03*
X138430000Y-52070000D03*
X135890000Y-52070000D03*
X133350000Y-52070000D03*
X130810000Y-52070000D03*
D16*
X193040000Y-114300000D03*
X200660000Y-114300000D03*
X135890000Y-87630000D03*
X143510000Y-87630000D03*
X135890000Y-91440000D03*
X143510000Y-91440000D03*
X187960000Y-67310000D03*
X187960000Y-74930000D03*
X175260000Y-41910000D03*
X182880000Y-41910000D03*
X190500000Y-67310000D03*
X190500000Y-74930000D03*
X193040000Y-67310000D03*
X193040000Y-74930000D03*
X195580000Y-67310000D03*
X195580000Y-74930000D03*
X208280000Y-41910000D03*
X200660000Y-41910000D03*
X208280000Y-44450000D03*
X200660000Y-44450000D03*
D21*
X212079840Y-73660000D03*
X204480160Y-73660000D03*
D22*
X130810000Y-63500000D03*
D23*
X130810000Y-66040000D03*
X130810000Y-68580000D03*
D24*
X191770000Y-86360000D03*
X196850000Y-86360000D03*
X191770000Y-99060000D03*
X196850000Y-99060000D03*
X205740000Y-86360000D03*
X210820000Y-86360000D03*
X205740000Y-99060000D03*
X210820000Y-99060000D03*
D25*
X193040000Y-48260000D03*
X195580000Y-48260000D03*
X198120000Y-48260000D03*
X200660000Y-48260000D03*
X193040000Y-63500000D03*
X195580000Y-63500000D03*
X198120000Y-63500000D03*
X200660000Y-63500000D03*
X190500000Y-48260000D03*
X187960000Y-48260000D03*
X185420000Y-48260000D03*
X185420000Y-63500000D03*
X187960000Y-63500000D03*
X190500000Y-63500000D03*
D26*
X159270700Y-87630000D03*
X160769300Y-87630000D03*
D27*
X154840940Y-64770000D03*
X149959060Y-64770000D03*
D16*
X185420000Y-67310000D03*
X185420000Y-74930000D03*
X175260000Y-44450000D03*
X182880000Y-44450000D03*
X135890000Y-83820000D03*
X143510000Y-83820000D03*
D28*
X139700000Y-101600000D03*
X137160000Y-101600000D03*
X142240000Y-101600000D03*
D14*
X147320000Y-109220000D03*
D15*
X147320000Y-107220000D03*
D29*
X200660000Y-107950000D03*
X200660000Y-106680000D03*
X200660000Y-109220000D03*
D14*
X149860000Y-71120000D03*
D15*
X149860000Y-68620000D03*
D14*
X154940000Y-71120000D03*
D15*
X154940000Y-68620000D03*
X132040000Y-100330000D03*
D14*
X129540000Y-100330000D03*
X158750000Y-82550000D03*
D15*
X158750000Y-85050000D03*
D30*
X153670000Y-90170000D02*
X153670000Y-92710000D01*
X163830000Y-104775000D02*
X159385000Y-109220000D01*
X163830000Y-96520000D02*
X163830000Y-104775000D01*
X161290000Y-93980000D02*
X163830000Y-96520000D01*
X154940000Y-93980000D02*
X161290000Y-93980000D01*
X153670000Y-92710000D02*
X154940000Y-93980000D01*
X196850000Y-86360000D02*
X200660000Y-90170000D01*
X207010000Y-90170000D02*
X210820000Y-86360000D01*
X200660000Y-90170000D02*
X207010000Y-90170000D01*
X161290000Y-82550000D02*
X166370000Y-82550000D01*
X193040000Y-90170000D02*
X196850000Y-86360000D01*
X173990000Y-90170000D02*
X193040000Y-90170000D01*
X166370000Y-82550000D02*
X173990000Y-90170000D01*
X147320000Y-107220000D02*
X157385000Y-107220000D01*
X157385000Y-107220000D02*
X159385000Y-109220000D01*
X136090660Y-109380660D02*
X136090660Y-105209340D01*
X136090660Y-105209340D02*
X139700000Y-101600000D01*
X136090660Y-113030000D02*
X136090660Y-109380660D01*
X158655000Y-109950000D02*
X159385000Y-109220000D01*
X139090400Y-117729000D02*
X139090400Y-116029740D01*
X139090400Y-116029740D02*
X136090660Y-113030000D01*
X136090660Y-113030000D02*
X136090660Y-111559340D01*
X196850000Y-99060000D02*
X196850000Y-100330000D01*
X144780000Y-55880000D02*
X144780000Y-54610000D01*
X146050000Y-53340000D02*
X146050000Y-52070000D01*
X144780000Y-54610000D02*
X146050000Y-53340000D01*
X144780000Y-55880000D02*
X148590000Y-59690000D01*
X147320000Y-107220000D02*
X147320000Y-106680000D01*
X156210000Y-90170000D02*
X156210000Y-92710000D01*
X188595000Y-97155000D02*
X188595000Y-109220000D01*
X184150000Y-92710000D02*
X188595000Y-97155000D01*
X156210000Y-92710000D02*
X184150000Y-92710000D01*
X142090140Y-113030000D02*
X146050000Y-113030000D01*
X147320000Y-111760000D02*
X147320000Y-109220000D01*
X146050000Y-113030000D02*
X147320000Y-111760000D01*
X142090140Y-113030000D02*
X142240000Y-113030000D01*
X142240000Y-113030000D02*
X147320000Y-118110000D01*
X204619860Y-116690140D02*
X204619860Y-113030000D01*
X203200000Y-118110000D02*
X204619860Y-116690140D01*
X147320000Y-118110000D02*
X203200000Y-118110000D01*
X142240000Y-101600000D02*
X142240000Y-99062540D01*
X142240000Y-99062540D02*
X144780000Y-96522540D01*
X142090140Y-113030000D02*
X142090140Y-101749860D01*
X142090140Y-101749860D02*
X142240000Y-101600000D01*
X142240000Y-112880140D02*
X142090140Y-113030000D01*
X142240000Y-101600000D02*
X142240000Y-100332540D01*
X134620000Y-96522540D02*
X134620000Y-96520000D01*
X134620000Y-96520000D02*
X137160000Y-93980000D01*
X158750000Y-95250000D02*
X161290000Y-97790000D01*
X153670000Y-95250000D02*
X158750000Y-95250000D01*
X152400000Y-93980000D02*
X153670000Y-95250000D01*
X137160000Y-93980000D02*
X152400000Y-93980000D01*
X135890000Y-83820000D02*
X135890000Y-82550000D01*
X143510000Y-57150000D02*
X146050000Y-59690000D01*
X129540000Y-57150000D02*
X143510000Y-57150000D01*
X125730000Y-60960000D02*
X129540000Y-57150000D01*
X125730000Y-72390000D02*
X125730000Y-60960000D01*
X135890000Y-82550000D02*
X125730000Y-72390000D01*
X137160000Y-101600000D02*
X137160000Y-100332540D01*
X160769300Y-89649300D02*
X161290000Y-90170000D01*
X207619600Y-108331000D02*
X207619600Y-110030260D01*
X205968600Y-106680000D02*
X207619600Y-108331000D01*
X207619600Y-108331000D02*
X208661000Y-108331000D01*
X191770000Y-86360000D02*
X187960000Y-86360000D01*
X133350000Y-66040000D02*
X133350000Y-59690000D01*
X144780000Y-77470000D02*
X133350000Y-66040000D01*
X163830000Y-77470000D02*
X144780000Y-77470000D01*
X171450000Y-85090000D02*
X163830000Y-77470000D01*
X186690000Y-85090000D02*
X171450000Y-85090000D01*
X187960000Y-86360000D02*
X186690000Y-85090000D01*
X205740000Y-86360000D02*
X203200000Y-83820000D01*
X135890000Y-66040000D02*
X135890000Y-59690000D01*
X146050000Y-76200000D02*
X135890000Y-66040000D01*
X165100000Y-76200000D02*
X146050000Y-76200000D01*
X172720000Y-83820000D02*
X165100000Y-76200000D01*
X203200000Y-83820000D02*
X172720000Y-83820000D01*
X198120000Y-63500000D02*
X198120000Y-77470000D01*
X140970000Y-68580000D02*
X140970000Y-59690000D01*
X147320000Y-74930000D02*
X140970000Y-68580000D01*
X166370000Y-74930000D02*
X147320000Y-74930000D01*
X173990000Y-82550000D02*
X166370000Y-74930000D01*
X193040000Y-82550000D02*
X173990000Y-82550000D01*
X198120000Y-77470000D02*
X193040000Y-82550000D01*
X193040000Y-74930000D02*
X187960000Y-80010000D01*
X176530000Y-80010000D02*
X156210000Y-59690000D01*
X187960000Y-80010000D02*
X176530000Y-80010000D01*
X190500000Y-74930000D02*
X186690000Y-78740000D01*
X177800000Y-78740000D02*
X158750000Y-59690000D01*
X186690000Y-78740000D02*
X177800000Y-78740000D01*
X187960000Y-74930000D02*
X185420000Y-77470000D01*
X179070000Y-77470000D02*
X161290000Y-59690000D01*
X185420000Y-77470000D02*
X179070000Y-77470000D01*
X163830000Y-59690000D02*
X179070000Y-74930000D01*
X179070000Y-74930000D02*
X185420000Y-74930000D01*
X193040000Y-48260000D02*
X184150000Y-39370000D01*
X168910000Y-39370000D02*
X156210000Y-52070000D01*
X184150000Y-39370000D02*
X168910000Y-39370000D01*
X200660000Y-109220000D02*
X200660000Y-109220000D01*
X148590000Y-73660000D02*
X143510000Y-68580000D01*
X167640000Y-73660000D02*
X148590000Y-73660000D01*
X195580000Y-74930000D02*
X189230000Y-81280000D01*
X143510000Y-68580000D02*
X143510000Y-59690000D01*
X175260000Y-81280000D02*
X167640000Y-73660000D01*
X189230000Y-81280000D02*
X175260000Y-81280000D01*
X195580000Y-48260000D02*
X185420000Y-38100000D01*
X167640000Y-38100000D02*
X153670000Y-52070000D01*
X185420000Y-38100000D02*
X167640000Y-38100000D01*
X158750000Y-85050000D02*
X158750000Y-85090000D01*
X149860000Y-64869060D02*
X149959060Y-64770000D01*
X154940000Y-64869060D02*
X154840940Y-64770000D01*
M02*
