G04 #@! TF.FileFunction,Legend,Top*
%FSLAX46Y46*%
G04 Gerber Fmt 4.6, Leading zero omitted, Abs format (unit mm)*
G04 Created by KiCad (PCBNEW 4.0.4-stable) date Tuesday, November 08, 2016 'PMt' 06:58:29 PM*
%MOMM*%
%LPD*%
G01*
G04 APERTURE LIST*
%ADD10C,0.100000*%
%ADD11C,0.150000*%
G04 APERTURE END LIST*
D10*
D11*
X131889500Y-108529120D02*
X131889500Y-117530880D01*
X128389380Y-108529120D02*
X128389380Y-117530880D01*
X128389380Y-117530880D02*
X142890240Y-117530880D01*
X142890240Y-117530880D02*
X142890240Y-108529120D01*
X142890240Y-108529120D02*
X128389380Y-108529120D01*
X158505000Y-81415000D02*
X157235000Y-81415000D01*
X158505000Y-88765000D02*
X157235000Y-88765000D01*
X146295000Y-88765000D02*
X147565000Y-88765000D01*
X146295000Y-81415000D02*
X147565000Y-81415000D01*
X158505000Y-81415000D02*
X158505000Y-88765000D01*
X146295000Y-81415000D02*
X146295000Y-88765000D01*
X157235000Y-81415000D02*
X157235000Y-80130000D01*
X148610000Y-71370000D02*
X148610000Y-68370000D01*
X151110000Y-68370000D02*
X151110000Y-71370000D01*
X153690000Y-71370000D02*
X153690000Y-68370000D01*
X156190000Y-68370000D02*
X156190000Y-71370000D01*
X214820500Y-117530880D02*
X214820500Y-108529120D01*
X218320620Y-117530880D02*
X218320620Y-108529120D01*
X218320620Y-108529120D02*
X203819760Y-108529120D01*
X203819760Y-108529120D02*
X203819760Y-117530880D01*
X203819760Y-117530880D02*
X218320620Y-117530880D01*
X137160000Y-96522540D02*
X136144000Y-96522540D01*
X141986000Y-96522540D02*
X143256000Y-96522540D01*
X141732000Y-97792540D02*
X141732000Y-95252540D01*
X141478000Y-97792540D02*
X141478000Y-95252540D01*
X141224000Y-97792540D02*
X141224000Y-95252540D01*
X141986000Y-97792540D02*
X141986000Y-95252540D01*
X140970000Y-97792540D02*
X142240000Y-95252540D01*
X142240000Y-97792540D02*
X140970000Y-95252540D01*
X140970000Y-97792540D02*
X140970000Y-95252540D01*
X141605000Y-97792540D02*
X141605000Y-95252540D01*
X142240000Y-95252540D02*
X142240000Y-97792540D01*
X142240000Y-97792540D02*
X137160000Y-97792540D01*
X137160000Y-97792540D02*
X137160000Y-95252540D01*
X137160000Y-95252540D02*
X142240000Y-95252540D01*
X133095096Y-69905112D02*
G75*
G03X136120000Y-69890000I1524904J-2484888D01*
G01*
X133120000Y-69890000D02*
X136120000Y-69890000D01*
X137137936Y-72390000D02*
G75*
G03X137137936Y-72390000I-2517936J0D01*
G01*
X128515000Y-59555000D02*
X129785000Y-59555000D01*
X128515000Y-52205000D02*
X129785000Y-52205000D01*
X166125000Y-52205000D02*
X164855000Y-52205000D01*
X166125000Y-59555000D02*
X164855000Y-59555000D01*
X128515000Y-59555000D02*
X128515000Y-52205000D01*
X166125000Y-59555000D02*
X166125000Y-52205000D01*
X129785000Y-59555000D02*
X129785000Y-60490000D01*
X187960000Y-109220000D02*
X193040000Y-109220000D01*
X193040000Y-109220000D02*
X193040000Y-111760000D01*
X193040000Y-111760000D02*
X187960000Y-111760000D01*
X187960000Y-111760000D02*
X187960000Y-109220000D01*
X130810000Y-86360000D02*
X135890000Y-86360000D01*
X135890000Y-86360000D02*
X135890000Y-88900000D01*
X135890000Y-88900000D02*
X130810000Y-88900000D01*
X130810000Y-88900000D02*
X130810000Y-86360000D01*
X130810000Y-90170000D02*
X135890000Y-90170000D01*
X135890000Y-90170000D02*
X135890000Y-92710000D01*
X135890000Y-92710000D02*
X130810000Y-92710000D01*
X130810000Y-92710000D02*
X130810000Y-90170000D01*
X189230000Y-68580000D02*
X189230000Y-73660000D01*
X189230000Y-73660000D02*
X186690000Y-73660000D01*
X186690000Y-73660000D02*
X186690000Y-68580000D01*
X186690000Y-68580000D02*
X189230000Y-68580000D01*
X176530000Y-40640000D02*
X181610000Y-40640000D01*
X181610000Y-40640000D02*
X181610000Y-43180000D01*
X181610000Y-43180000D02*
X176530000Y-43180000D01*
X176530000Y-43180000D02*
X176530000Y-40640000D01*
X191770000Y-68580000D02*
X191770000Y-73660000D01*
X191770000Y-73660000D02*
X189230000Y-73660000D01*
X189230000Y-73660000D02*
X189230000Y-68580000D01*
X189230000Y-68580000D02*
X191770000Y-68580000D01*
X194310000Y-68580000D02*
X194310000Y-73660000D01*
X194310000Y-73660000D02*
X191770000Y-73660000D01*
X191770000Y-73660000D02*
X191770000Y-68580000D01*
X191770000Y-68580000D02*
X194310000Y-68580000D01*
X196850000Y-68580000D02*
X196850000Y-73660000D01*
X196850000Y-73660000D02*
X194310000Y-73660000D01*
X194310000Y-73660000D02*
X194310000Y-68580000D01*
X194310000Y-68580000D02*
X196850000Y-68580000D01*
X209550000Y-43180000D02*
X204470000Y-43180000D01*
X204470000Y-43180000D02*
X204470000Y-40640000D01*
X204470000Y-40640000D02*
X209550000Y-40640000D01*
X209550000Y-40640000D02*
X209550000Y-43180000D01*
X209550000Y-45720000D02*
X204470000Y-45720000D01*
X204470000Y-45720000D02*
X204470000Y-43180000D01*
X204470000Y-43180000D02*
X209550000Y-43180000D01*
X209550000Y-43180000D02*
X209550000Y-45720000D01*
X209280760Y-73660000D02*
G75*
G03X209280760Y-73660000I-1000760J0D01*
G01*
X214480140Y-73660000D02*
G75*
G03X214480140Y-73660000I-6200140J0D01*
G01*
X129540000Y-62230000D02*
X132080000Y-62230000D01*
X132080000Y-62230000D02*
X132080000Y-69850000D01*
X132080000Y-69850000D02*
X129540000Y-69850000D01*
X129540000Y-69850000D02*
X129540000Y-62230000D01*
X132080000Y-64770000D02*
X129540000Y-64770000D01*
X198889050Y-92710000D02*
G75*
G03X198889050Y-92710000I-4579050J0D01*
G01*
X187960000Y-99060000D02*
X187960000Y-86360000D01*
X187960000Y-86360000D02*
X200660000Y-86360000D01*
X200660000Y-86360000D02*
X200660000Y-99060000D01*
X200660000Y-99060000D02*
X187960000Y-99060000D01*
X212859050Y-92710000D02*
G75*
G03X212859050Y-92710000I-4579050J0D01*
G01*
X201930000Y-99060000D02*
X201930000Y-86360000D01*
X201930000Y-86360000D02*
X214630000Y-86360000D01*
X214630000Y-86360000D02*
X214630000Y-99060000D01*
X214630000Y-99060000D02*
X201930000Y-99060000D01*
X193040000Y-46355000D02*
X167640000Y-46355000D01*
X167640000Y-46355000D02*
X167640000Y-65405000D01*
X167640000Y-65405000D02*
X218440000Y-65405000D01*
X218440000Y-65405000D02*
X218440000Y-46355000D01*
X218440000Y-46355000D02*
X193040000Y-46355000D01*
X155389580Y-79639160D02*
X155290520Y-79689960D01*
X155290520Y-79689960D02*
X155089860Y-79740760D01*
X155089860Y-79740760D02*
X154889200Y-79740760D01*
X154889200Y-79740760D02*
X154640280Y-79689960D01*
X154640280Y-79689960D02*
X154541220Y-79639160D01*
X155338780Y-77840840D02*
X155188920Y-77739240D01*
X155188920Y-77739240D02*
X154990800Y-77739240D01*
X154990800Y-77739240D02*
X154790140Y-77739240D01*
X154790140Y-77739240D02*
X154640280Y-77790040D01*
X154640280Y-77790040D02*
X154541220Y-77840840D01*
X147701000Y-65770760D02*
X147500340Y-65369440D01*
X147500340Y-65369440D02*
X147398740Y-64770000D01*
X147398740Y-64770000D02*
X147500340Y-64269620D01*
X147500340Y-64269620D02*
X147899120Y-63571120D01*
X147899120Y-63571120D02*
X148501100Y-63169800D01*
X148501100Y-63169800D02*
X149100540Y-62969140D01*
X149100540Y-62969140D02*
X155699460Y-62969140D01*
X155699460Y-62969140D02*
X156400500Y-63169800D01*
X156400500Y-63169800D02*
X156799280Y-63469520D01*
X156799280Y-63469520D02*
X157200600Y-63969900D01*
X157200600Y-63969900D02*
X157401260Y-64569340D01*
X157401260Y-64569340D02*
X157401260Y-65069720D01*
X157401260Y-65069720D02*
X157200600Y-65570100D01*
X157200600Y-65570100D02*
X156700220Y-66169540D01*
X156700220Y-66169540D02*
X156199840Y-66469260D01*
X156199840Y-66469260D02*
X155699460Y-66570860D01*
X155600400Y-66570860D02*
X148998940Y-66570860D01*
X148998940Y-66570860D02*
X148600160Y-66469260D01*
X148600160Y-66469260D02*
X148099780Y-66169540D01*
X148099780Y-66169540D02*
X147599400Y-65669160D01*
X155590240Y-67099180D02*
X156049980Y-67050920D01*
X156049980Y-67050920D02*
X156448760Y-66939160D01*
X156448760Y-66939160D02*
X156880560Y-66720720D01*
X156880560Y-66720720D02*
X157170120Y-66489580D01*
X157170120Y-66489580D02*
X157500320Y-66139060D01*
X157500320Y-66139060D02*
X157789880Y-65600580D01*
X157789880Y-65600580D02*
X157919420Y-65001140D01*
X157919420Y-65001140D02*
X157919420Y-64490600D01*
X157919420Y-64490600D02*
X157749240Y-63789560D01*
X157749240Y-63789560D02*
X157350460Y-63200280D01*
X157350460Y-63200280D02*
X156890720Y-62829440D01*
X156890720Y-62829440D02*
X156469080Y-62621160D01*
X156469080Y-62621160D02*
X156019500Y-62461140D01*
X156019500Y-62461140D02*
X155580080Y-62430660D01*
X148239480Y-62649100D02*
X147861020Y-62870080D01*
X147861020Y-62870080D02*
X147540980Y-63149480D01*
X147540980Y-63149480D02*
X147289520Y-63479680D01*
X147289520Y-63479680D02*
X146989800Y-64030860D01*
X146989800Y-64030860D02*
X146880580Y-64500760D01*
X146880580Y-64500760D02*
X146860260Y-64960500D01*
X146860260Y-64960500D02*
X146949160Y-65420240D01*
X146949160Y-65420240D02*
X147139660Y-65869820D01*
X147139660Y-65869820D02*
X147500340Y-66339720D01*
X147500340Y-66339720D02*
X147850860Y-66659760D01*
X147850860Y-66659760D02*
X148239480Y-66890900D01*
X148239480Y-66890900D02*
X148668740Y-67030600D01*
X148668740Y-67030600D02*
X149110700Y-67099180D01*
X155600400Y-62440820D02*
X149148800Y-62440820D01*
X149148800Y-62440820D02*
X148729700Y-62478920D01*
X148729700Y-62478920D02*
X148239480Y-62649100D01*
X155600400Y-67099180D02*
X149148800Y-67099180D01*
X186690000Y-68580000D02*
X186690000Y-73660000D01*
X186690000Y-73660000D02*
X184150000Y-73660000D01*
X184150000Y-73660000D02*
X184150000Y-68580000D01*
X184150000Y-68580000D02*
X186690000Y-68580000D01*
X176530000Y-43180000D02*
X181610000Y-43180000D01*
X181610000Y-43180000D02*
X181610000Y-45720000D01*
X181610000Y-45720000D02*
X176530000Y-45720000D01*
X176530000Y-45720000D02*
X176530000Y-43180000D01*
X130810000Y-82550000D02*
X135890000Y-82550000D01*
X135890000Y-82550000D02*
X135890000Y-85090000D01*
X135890000Y-85090000D02*
X130810000Y-85090000D01*
X130810000Y-85090000D02*
X130810000Y-82550000D01*
X134874000Y-103251000D02*
X134874000Y-99822000D01*
X144526000Y-103251000D02*
X144526000Y-99822000D01*
X134366000Y-104394000D02*
X145034000Y-104394000D01*
X137922000Y-103378000D02*
X137922000Y-104648000D01*
X141478000Y-103378000D02*
X141478000Y-104648000D01*
X145034000Y-103251000D02*
X134366000Y-103251000D01*
X134366000Y-99822000D02*
X145034000Y-99822000D01*
X145034000Y-104648000D02*
X145034000Y-99822000D01*
X134366000Y-104648000D02*
X134366000Y-99822000D01*
X134366000Y-104648000D02*
X145034000Y-104648000D01*
X153629000Y-101405000D02*
X148631000Y-101405000D01*
X153621000Y-101545000D02*
X151284000Y-101545000D01*
X150976000Y-101545000D02*
X148639000Y-101545000D01*
X153605000Y-101685000D02*
X151603000Y-101685000D01*
X150657000Y-101685000D02*
X148655000Y-101685000D01*
X153581000Y-101825000D02*
X151750000Y-101825000D01*
X150510000Y-101825000D02*
X148679000Y-101825000D01*
X153548000Y-101965000D02*
X151842000Y-101965000D01*
X150418000Y-101965000D02*
X148712000Y-101965000D01*
X153507000Y-102105000D02*
X151898000Y-102105000D01*
X150362000Y-102105000D02*
X148753000Y-102105000D01*
X153457000Y-102245000D02*
X151925000Y-102245000D01*
X150335000Y-102245000D02*
X148803000Y-102245000D01*
X153396000Y-102385000D02*
X151928000Y-102385000D01*
X150332000Y-102385000D02*
X148864000Y-102385000D01*
X153326000Y-102525000D02*
X151906000Y-102525000D01*
X150354000Y-102525000D02*
X148934000Y-102525000D01*
X153244000Y-102665000D02*
X151856000Y-102665000D01*
X150404000Y-102665000D02*
X149016000Y-102665000D01*
X153149000Y-102805000D02*
X151774000Y-102805000D01*
X150486000Y-102805000D02*
X149111000Y-102805000D01*
X153038000Y-102945000D02*
X151642000Y-102945000D01*
X150618000Y-102945000D02*
X149222000Y-102945000D01*
X152910000Y-103085000D02*
X151395000Y-103085000D01*
X150865000Y-103085000D02*
X149350000Y-103085000D01*
X152761000Y-103225000D02*
X149499000Y-103225000D01*
X152582000Y-103365000D02*
X149678000Y-103365000D01*
X152363000Y-103505000D02*
X149897000Y-103505000D01*
X152074000Y-103645000D02*
X150186000Y-103645000D01*
X151602000Y-103785000D02*
X150658000Y-103785000D01*
X151930000Y-102330000D02*
G75*
G03X151930000Y-102330000I-800000J0D01*
G01*
X153667500Y-101330000D02*
G75*
G03X153667500Y-101330000I-2537500J0D01*
G01*
X132689000Y-101655000D02*
X126391000Y-101655000D01*
X132683000Y-101795000D02*
X126397000Y-101795000D01*
X132670000Y-101935000D02*
X129986000Y-101935000D01*
X129094000Y-101935000D02*
X126410000Y-101935000D01*
X132651000Y-102075000D02*
X130196000Y-102075000D01*
X128884000Y-102075000D02*
X126429000Y-102075000D01*
X132625000Y-102215000D02*
X130329000Y-102215000D01*
X128751000Y-102215000D02*
X126455000Y-102215000D01*
X132593000Y-102355000D02*
X130420000Y-102355000D01*
X128660000Y-102355000D02*
X126487000Y-102355000D01*
X132554000Y-102495000D02*
X130482000Y-102495000D01*
X128598000Y-102495000D02*
X126526000Y-102495000D01*
X132508000Y-102635000D02*
X130521000Y-102635000D01*
X128559000Y-102635000D02*
X126572000Y-102635000D01*
X132455000Y-102775000D02*
X130538000Y-102775000D01*
X128542000Y-102775000D02*
X126625000Y-102775000D01*
X132393000Y-102915000D02*
X130536000Y-102915000D01*
X128544000Y-102915000D02*
X126687000Y-102915000D01*
X132323000Y-103055000D02*
X130514000Y-103055000D01*
X128566000Y-103055000D02*
X126757000Y-103055000D01*
X132244000Y-103195000D02*
X130471000Y-103195000D01*
X128609000Y-103195000D02*
X126836000Y-103195000D01*
X132156000Y-103335000D02*
X130403000Y-103335000D01*
X128677000Y-103335000D02*
X126924000Y-103335000D01*
X132056000Y-103475000D02*
X130304000Y-103475000D01*
X128776000Y-103475000D02*
X127024000Y-103475000D01*
X131944000Y-103615000D02*
X130159000Y-103615000D01*
X128921000Y-103615000D02*
X127136000Y-103615000D01*
X131819000Y-103755000D02*
X129920000Y-103755000D01*
X129160000Y-103755000D02*
X127261000Y-103755000D01*
X131676000Y-103895000D02*
X127404000Y-103895000D01*
X131514000Y-104035000D02*
X127566000Y-104035000D01*
X131326000Y-104175000D02*
X127754000Y-104175000D01*
X131103000Y-104315000D02*
X127977000Y-104315000D01*
X130827000Y-104455000D02*
X128253000Y-104455000D01*
X130452000Y-104595000D02*
X128628000Y-104595000D01*
X130540000Y-102830000D02*
G75*
G03X130540000Y-102830000I-1000000J0D01*
G01*
X132727500Y-101580000D02*
G75*
G03X132727500Y-101580000I-3187500J0D01*
G01*
X201090000Y-110920000D02*
X201090000Y-107520000D01*
X201087056Y-110917056D02*
G75*
G02X196990000Y-109220000I-1697056J1697056D01*
G01*
X201087056Y-107522944D02*
G75*
G03X196990000Y-109220000I-1697056J-1697056D01*
G01*
X181610000Y-101600000D02*
G75*
G03X181610000Y-101600000I-10160000J0D01*
G01*
X185420000Y-109220000D02*
X185420000Y-93980000D01*
X185420000Y-93980000D02*
X157480000Y-93980000D01*
X157480000Y-93980000D02*
X157480000Y-109220000D01*
X157480000Y-109220000D02*
X185420000Y-109220000D01*
X146346183Y-114244285D02*
X146393802Y-114291904D01*
X146441421Y-114434761D01*
X146441421Y-114529999D01*
X146393802Y-114672857D01*
X146298564Y-114768095D01*
X146203326Y-114815714D01*
X146012850Y-114863333D01*
X145869992Y-114863333D01*
X145679516Y-114815714D01*
X145584278Y-114768095D01*
X145489040Y-114672857D01*
X145441421Y-114529999D01*
X145441421Y-114434761D01*
X145489040Y-114291904D01*
X145536659Y-114244285D01*
X145441421Y-113625238D02*
X145441421Y-113434761D01*
X145489040Y-113339523D01*
X145584278Y-113244285D01*
X145774754Y-113196666D01*
X146108088Y-113196666D01*
X146298564Y-113244285D01*
X146393802Y-113339523D01*
X146441421Y-113434761D01*
X146441421Y-113625238D01*
X146393802Y-113720476D01*
X146298564Y-113815714D01*
X146108088Y-113863333D01*
X145774754Y-113863333D01*
X145584278Y-113815714D01*
X145489040Y-113720476D01*
X145441421Y-113625238D01*
X146441421Y-112768095D02*
X145441421Y-112768095D01*
X146441421Y-112196666D01*
X145441421Y-112196666D01*
X146441421Y-111196666D02*
X146441421Y-111768095D01*
X146441421Y-111482381D02*
X145441421Y-111482381D01*
X145584278Y-111577619D01*
X145679516Y-111672857D01*
X145727135Y-111768095D01*
X160882381Y-82041905D02*
X161691905Y-82041905D01*
X161787143Y-81994286D01*
X161834762Y-81946667D01*
X161882381Y-81851429D01*
X161882381Y-81660952D01*
X161834762Y-81565714D01*
X161787143Y-81518095D01*
X161691905Y-81470476D01*
X160882381Y-81470476D01*
X160977619Y-81041905D02*
X160930000Y-80994286D01*
X160882381Y-80899048D01*
X160882381Y-80660952D01*
X160930000Y-80565714D01*
X160977619Y-80518095D01*
X161072857Y-80470476D01*
X161168095Y-80470476D01*
X161310952Y-80518095D01*
X161882381Y-81089524D01*
X161882381Y-80470476D01*
X147717143Y-70036666D02*
X147764762Y-70084285D01*
X147812381Y-70227142D01*
X147812381Y-70322380D01*
X147764762Y-70465238D01*
X147669524Y-70560476D01*
X147574286Y-70608095D01*
X147383810Y-70655714D01*
X147240952Y-70655714D01*
X147050476Y-70608095D01*
X146955238Y-70560476D01*
X146860000Y-70465238D01*
X146812381Y-70322380D01*
X146812381Y-70227142D01*
X146860000Y-70084285D01*
X146907619Y-70036666D01*
X146812381Y-69703333D02*
X146812381Y-69084285D01*
X147193333Y-69417619D01*
X147193333Y-69274761D01*
X147240952Y-69179523D01*
X147288571Y-69131904D01*
X147383810Y-69084285D01*
X147621905Y-69084285D01*
X147717143Y-69131904D01*
X147764762Y-69179523D01*
X147812381Y-69274761D01*
X147812381Y-69560476D01*
X147764762Y-69655714D01*
X147717143Y-69703333D01*
X152797143Y-70036666D02*
X152844762Y-70084285D01*
X152892381Y-70227142D01*
X152892381Y-70322380D01*
X152844762Y-70465238D01*
X152749524Y-70560476D01*
X152654286Y-70608095D01*
X152463810Y-70655714D01*
X152320952Y-70655714D01*
X152130476Y-70608095D01*
X152035238Y-70560476D01*
X151940000Y-70465238D01*
X151892381Y-70322380D01*
X151892381Y-70227142D01*
X151940000Y-70084285D01*
X151987619Y-70036666D01*
X152225714Y-69179523D02*
X152892381Y-69179523D01*
X151844762Y-69417619D02*
X152559048Y-69655714D01*
X152559048Y-69036666D01*
X201078103Y-114244285D02*
X201125722Y-114291904D01*
X201173341Y-114434761D01*
X201173341Y-114529999D01*
X201125722Y-114672857D01*
X201030484Y-114768095D01*
X200935246Y-114815714D01*
X200744770Y-114863333D01*
X200601912Y-114863333D01*
X200411436Y-114815714D01*
X200316198Y-114768095D01*
X200220960Y-114672857D01*
X200173341Y-114529999D01*
X200173341Y-114434761D01*
X200220960Y-114291904D01*
X200268579Y-114244285D01*
X200173341Y-113625238D02*
X200173341Y-113434761D01*
X200220960Y-113339523D01*
X200316198Y-113244285D01*
X200506674Y-113196666D01*
X200840008Y-113196666D01*
X201030484Y-113244285D01*
X201125722Y-113339523D01*
X201173341Y-113434761D01*
X201173341Y-113625238D01*
X201125722Y-113720476D01*
X201030484Y-113815714D01*
X200840008Y-113863333D01*
X200506674Y-113863333D01*
X200316198Y-113815714D01*
X200220960Y-113720476D01*
X200173341Y-113625238D01*
X201173341Y-112768095D02*
X200173341Y-112768095D01*
X201173341Y-112196666D01*
X200173341Y-112196666D01*
X200268579Y-111768095D02*
X200220960Y-111720476D01*
X200173341Y-111625238D01*
X200173341Y-111387142D01*
X200220960Y-111291904D01*
X200268579Y-111244285D01*
X200363817Y-111196666D01*
X200459055Y-111196666D01*
X200601912Y-111244285D01*
X201173341Y-111815714D01*
X201173341Y-111196666D01*
X138654565Y-94434921D02*
X138654565Y-93434921D01*
X138892660Y-93434921D01*
X139035518Y-93482540D01*
X139130756Y-93577778D01*
X139178375Y-93673016D01*
X139225994Y-93863492D01*
X139225994Y-94006350D01*
X139178375Y-94196826D01*
X139130756Y-94292064D01*
X139035518Y-94387302D01*
X138892660Y-94434921D01*
X138654565Y-94434921D01*
X140178375Y-94434921D02*
X139606946Y-94434921D01*
X139892660Y-94434921D02*
X139892660Y-93434921D01*
X139797422Y-93577778D01*
X139702184Y-93673016D01*
X139606946Y-93720635D01*
X131008381Y-73382095D02*
X130008381Y-73382095D01*
X130008381Y-73144000D01*
X130056000Y-73001142D01*
X130151238Y-72905904D01*
X130246476Y-72858285D01*
X130436952Y-72810666D01*
X130579810Y-72810666D01*
X130770286Y-72858285D01*
X130865524Y-72905904D01*
X130960762Y-73001142D01*
X131008381Y-73144000D01*
X131008381Y-73382095D01*
X130103619Y-72429714D02*
X130056000Y-72382095D01*
X130008381Y-72286857D01*
X130008381Y-72048761D01*
X130056000Y-71953523D01*
X130103619Y-71905904D01*
X130198857Y-71858285D01*
X130294095Y-71858285D01*
X130436952Y-71905904D01*
X131008381Y-72477333D01*
X131008381Y-71858285D01*
X133167381Y-69476905D02*
X132167381Y-69476905D01*
X133167381Y-68905476D02*
X132595952Y-69334048D01*
X132167381Y-68905476D02*
X132738810Y-69476905D01*
X126042381Y-60666190D02*
X125042381Y-60666190D01*
X125947143Y-59618571D02*
X125994762Y-59666190D01*
X126042381Y-59809047D01*
X126042381Y-59904285D01*
X125994762Y-60047143D01*
X125899524Y-60142381D01*
X125804286Y-60190000D01*
X125613810Y-60237619D01*
X125470952Y-60237619D01*
X125280476Y-60190000D01*
X125185238Y-60142381D01*
X125090000Y-60047143D01*
X125042381Y-59904285D01*
X125042381Y-59809047D01*
X125090000Y-59666190D01*
X125137619Y-59618571D01*
X126042381Y-58666190D02*
X126042381Y-59237619D01*
X126042381Y-58951905D02*
X125042381Y-58951905D01*
X125185238Y-59047143D01*
X125280476Y-59142381D01*
X125328095Y-59237619D01*
X190582254Y-107442261D02*
X190248920Y-106966070D01*
X190010825Y-107442261D02*
X190010825Y-106442261D01*
X190391778Y-106442261D01*
X190487016Y-106489880D01*
X190534635Y-106537499D01*
X190582254Y-106632737D01*
X190582254Y-106775594D01*
X190534635Y-106870832D01*
X190487016Y-106918451D01*
X190391778Y-106966070D01*
X190010825Y-106966070D01*
X191534635Y-107442261D02*
X190963206Y-107442261D01*
X191248920Y-107442261D02*
X191248920Y-106442261D01*
X191153682Y-106585118D01*
X191058444Y-106680356D01*
X190963206Y-106727975D01*
X133432254Y-84582261D02*
X133098920Y-84106070D01*
X132860825Y-84582261D02*
X132860825Y-83582261D01*
X133241778Y-83582261D01*
X133337016Y-83629880D01*
X133384635Y-83677499D01*
X133432254Y-83772737D01*
X133432254Y-83915594D01*
X133384635Y-84010832D01*
X133337016Y-84058451D01*
X133241778Y-84106070D01*
X132860825Y-84106070D01*
X133813206Y-83677499D02*
X133860825Y-83629880D01*
X133956063Y-83582261D01*
X134194159Y-83582261D01*
X134289397Y-83629880D01*
X134337016Y-83677499D01*
X134384635Y-83772737D01*
X134384635Y-83867975D01*
X134337016Y-84010832D01*
X133765587Y-84582261D01*
X134384635Y-84582261D01*
X133432254Y-88392261D02*
X133098920Y-87916070D01*
X132860825Y-88392261D02*
X132860825Y-87392261D01*
X133241778Y-87392261D01*
X133337016Y-87439880D01*
X133384635Y-87487499D01*
X133432254Y-87582737D01*
X133432254Y-87725594D01*
X133384635Y-87820832D01*
X133337016Y-87868451D01*
X133241778Y-87916070D01*
X132860825Y-87916070D01*
X133765587Y-87392261D02*
X134384635Y-87392261D01*
X134051301Y-87773213D01*
X134194159Y-87773213D01*
X134289397Y-87820832D01*
X134337016Y-87868451D01*
X134384635Y-87963690D01*
X134384635Y-88201785D01*
X134337016Y-88297023D01*
X134289397Y-88344642D01*
X134194159Y-88392261D01*
X133908444Y-88392261D01*
X133813206Y-88344642D01*
X133765587Y-88297023D01*
X191912501Y-71535586D02*
X191436310Y-71868920D01*
X191912501Y-72107015D02*
X190912501Y-72107015D01*
X190912501Y-71726062D01*
X190960120Y-71630824D01*
X191007739Y-71583205D01*
X191102977Y-71535586D01*
X191245834Y-71535586D01*
X191341072Y-71583205D01*
X191388691Y-71630824D01*
X191436310Y-71726062D01*
X191436310Y-72107015D01*
X190912501Y-71202253D02*
X190912501Y-70535586D01*
X191912501Y-70964158D01*
X179152254Y-38862261D02*
X178818920Y-38386070D01*
X178580825Y-38862261D02*
X178580825Y-37862261D01*
X178961778Y-37862261D01*
X179057016Y-37909880D01*
X179104635Y-37957499D01*
X179152254Y-38052737D01*
X179152254Y-38195594D01*
X179104635Y-38290832D01*
X179057016Y-38338451D01*
X178961778Y-38386070D01*
X178580825Y-38386070D01*
X179723682Y-38290832D02*
X179628444Y-38243213D01*
X179580825Y-38195594D01*
X179533206Y-38100356D01*
X179533206Y-38052737D01*
X179580825Y-37957499D01*
X179628444Y-37909880D01*
X179723682Y-37862261D01*
X179914159Y-37862261D01*
X180009397Y-37909880D01*
X180057016Y-37957499D01*
X180104635Y-38052737D01*
X180104635Y-38100356D01*
X180057016Y-38195594D01*
X180009397Y-38243213D01*
X179914159Y-38290832D01*
X179723682Y-38290832D01*
X179628444Y-38338451D01*
X179580825Y-38386070D01*
X179533206Y-38481309D01*
X179533206Y-38671785D01*
X179580825Y-38767023D01*
X179628444Y-38814642D01*
X179723682Y-38862261D01*
X179914159Y-38862261D01*
X180009397Y-38814642D01*
X180057016Y-38767023D01*
X180104635Y-38671785D01*
X180104635Y-38481309D01*
X180057016Y-38386070D01*
X180009397Y-38338451D01*
X179914159Y-38290832D01*
X194452501Y-71535586D02*
X193976310Y-71868920D01*
X194452501Y-72107015D02*
X193452501Y-72107015D01*
X193452501Y-71726062D01*
X193500120Y-71630824D01*
X193547739Y-71583205D01*
X193642977Y-71535586D01*
X193785834Y-71535586D01*
X193881072Y-71583205D01*
X193928691Y-71630824D01*
X193976310Y-71726062D01*
X193976310Y-72107015D01*
X194452501Y-71059396D02*
X194452501Y-70868920D01*
X194404882Y-70773681D01*
X194357263Y-70726062D01*
X194214406Y-70630824D01*
X194023930Y-70583205D01*
X193642977Y-70583205D01*
X193547739Y-70630824D01*
X193500120Y-70678443D01*
X193452501Y-70773681D01*
X193452501Y-70964158D01*
X193500120Y-71059396D01*
X193547739Y-71107015D01*
X193642977Y-71154634D01*
X193881072Y-71154634D01*
X193976310Y-71107015D01*
X194023930Y-71059396D01*
X194071549Y-70964158D01*
X194071549Y-70773681D01*
X194023930Y-70678443D01*
X193976310Y-70630824D01*
X193881072Y-70583205D01*
X196992501Y-72011777D02*
X196516310Y-72345111D01*
X196992501Y-72583206D02*
X195992501Y-72583206D01*
X195992501Y-72202253D01*
X196040120Y-72107015D01*
X196087739Y-72059396D01*
X196182977Y-72011777D01*
X196325834Y-72011777D01*
X196421072Y-72059396D01*
X196468691Y-72107015D01*
X196516310Y-72202253D01*
X196516310Y-72583206D01*
X196992501Y-71059396D02*
X196992501Y-71630825D01*
X196992501Y-71345111D02*
X195992501Y-71345111D01*
X196135358Y-71440349D01*
X196230596Y-71535587D01*
X196278215Y-71630825D01*
X195992501Y-70440349D02*
X195992501Y-70345110D01*
X196040120Y-70249872D01*
X196087739Y-70202253D01*
X196182977Y-70154634D01*
X196373453Y-70107015D01*
X196611549Y-70107015D01*
X196802025Y-70154634D01*
X196897263Y-70202253D01*
X196944882Y-70249872D01*
X196992501Y-70345110D01*
X196992501Y-70440349D01*
X196944882Y-70535587D01*
X196897263Y-70583206D01*
X196802025Y-70630825D01*
X196611549Y-70678444D01*
X196373453Y-70678444D01*
X196182977Y-70630825D01*
X196087739Y-70583206D01*
X196040120Y-70535587D01*
X195992501Y-70440349D01*
X199532501Y-72011777D02*
X199056310Y-72345111D01*
X199532501Y-72583206D02*
X198532501Y-72583206D01*
X198532501Y-72202253D01*
X198580120Y-72107015D01*
X198627739Y-72059396D01*
X198722977Y-72011777D01*
X198865834Y-72011777D01*
X198961072Y-72059396D01*
X199008691Y-72107015D01*
X199056310Y-72202253D01*
X199056310Y-72583206D01*
X199532501Y-71059396D02*
X199532501Y-71630825D01*
X199532501Y-71345111D02*
X198532501Y-71345111D01*
X198675358Y-71440349D01*
X198770596Y-71535587D01*
X198818215Y-71630825D01*
X199532501Y-70107015D02*
X199532501Y-70678444D01*
X199532501Y-70392730D02*
X198532501Y-70392730D01*
X198675358Y-70487968D01*
X198770596Y-70583206D01*
X198818215Y-70678444D01*
X206118223Y-45862501D02*
X205784889Y-45386310D01*
X205546794Y-45862501D02*
X205546794Y-44862501D01*
X205927747Y-44862501D01*
X206022985Y-44910120D01*
X206070604Y-44957739D01*
X206118223Y-45052977D01*
X206118223Y-45195834D01*
X206070604Y-45291072D01*
X206022985Y-45338691D01*
X205927747Y-45386310D01*
X205546794Y-45386310D01*
X207070604Y-45862501D02*
X206499175Y-45862501D01*
X206784889Y-45862501D02*
X206784889Y-44862501D01*
X206689651Y-45005358D01*
X206594413Y-45100596D01*
X206499175Y-45148215D01*
X207451556Y-44957739D02*
X207499175Y-44910120D01*
X207594413Y-44862501D01*
X207832509Y-44862501D01*
X207927747Y-44910120D01*
X207975366Y-44957739D01*
X208022985Y-45052977D01*
X208022985Y-45148215D01*
X207975366Y-45291072D01*
X207403937Y-45862501D01*
X208022985Y-45862501D01*
X206118223Y-48402501D02*
X205784889Y-47926310D01*
X205546794Y-48402501D02*
X205546794Y-47402501D01*
X205927747Y-47402501D01*
X206022985Y-47450120D01*
X206070604Y-47497739D01*
X206118223Y-47592977D01*
X206118223Y-47735834D01*
X206070604Y-47831072D01*
X206022985Y-47878691D01*
X205927747Y-47926310D01*
X205546794Y-47926310D01*
X207070604Y-48402501D02*
X206499175Y-48402501D01*
X206784889Y-48402501D02*
X206784889Y-47402501D01*
X206689651Y-47545358D01*
X206594413Y-47640596D01*
X206499175Y-47688215D01*
X207403937Y-47402501D02*
X208022985Y-47402501D01*
X207689651Y-47783453D01*
X207832509Y-47783453D01*
X207927747Y-47831072D01*
X207975366Y-47878691D01*
X208022985Y-47973930D01*
X208022985Y-48212025D01*
X207975366Y-48307263D01*
X207927747Y-48354882D01*
X207832509Y-48402501D01*
X207546794Y-48402501D01*
X207451556Y-48354882D01*
X207403937Y-48307263D01*
X207018095Y-82065762D02*
X207160952Y-82113381D01*
X207399048Y-82113381D01*
X207494286Y-82065762D01*
X207541905Y-82018143D01*
X207589524Y-81922905D01*
X207589524Y-81827667D01*
X207541905Y-81732429D01*
X207494286Y-81684810D01*
X207399048Y-81637190D01*
X207208571Y-81589571D01*
X207113333Y-81541952D01*
X207065714Y-81494333D01*
X207018095Y-81399095D01*
X207018095Y-81303857D01*
X207065714Y-81208619D01*
X207113333Y-81161000D01*
X207208571Y-81113381D01*
X207446667Y-81113381D01*
X207589524Y-81161000D01*
X208018095Y-82113381D02*
X208018095Y-81113381D01*
X208399048Y-81113381D01*
X208494286Y-81161000D01*
X208541905Y-81208619D01*
X208589524Y-81303857D01*
X208589524Y-81446714D01*
X208541905Y-81541952D01*
X208494286Y-81589571D01*
X208399048Y-81637190D01*
X208018095Y-81637190D01*
X209541905Y-82113381D02*
X208970476Y-82113381D01*
X209256190Y-82113381D02*
X209256190Y-81113381D01*
X209160952Y-81256238D01*
X209065714Y-81351476D01*
X208970476Y-81399095D01*
X211709048Y-76271429D02*
X212470953Y-76271429D01*
X212090001Y-76652381D02*
X212090001Y-75890476D01*
X133754762Y-67373333D02*
X133802381Y-67230476D01*
X133802381Y-66992380D01*
X133754762Y-66897142D01*
X133707143Y-66849523D01*
X133611905Y-66801904D01*
X133516667Y-66801904D01*
X133421429Y-66849523D01*
X133373810Y-66897142D01*
X133326190Y-66992380D01*
X133278571Y-67182857D01*
X133230952Y-67278095D01*
X133183333Y-67325714D01*
X133088095Y-67373333D01*
X132992857Y-67373333D01*
X132897619Y-67325714D01*
X132850000Y-67278095D01*
X132802381Y-67182857D01*
X132802381Y-66944761D01*
X132850000Y-66801904D01*
X132802381Y-66468571D02*
X133802381Y-66230476D01*
X133088095Y-66039999D01*
X133802381Y-65849523D01*
X132802381Y-65611428D01*
X133802381Y-64706666D02*
X133802381Y-65278095D01*
X133802381Y-64992381D02*
X132802381Y-64992381D01*
X132945238Y-65087619D01*
X133040476Y-65182857D01*
X133088095Y-65278095D01*
X193952762Y-94043333D02*
X194000381Y-93900476D01*
X194000381Y-93662380D01*
X193952762Y-93567142D01*
X193905143Y-93519523D01*
X193809905Y-93471904D01*
X193714667Y-93471904D01*
X193619429Y-93519523D01*
X193571810Y-93567142D01*
X193524190Y-93662380D01*
X193476571Y-93852857D01*
X193428952Y-93948095D01*
X193381333Y-93995714D01*
X193286095Y-94043333D01*
X193190857Y-94043333D01*
X193095619Y-93995714D01*
X193048000Y-93948095D01*
X193000381Y-93852857D01*
X193000381Y-93614761D01*
X193048000Y-93471904D01*
X193000381Y-93138571D02*
X194000381Y-92900476D01*
X193286095Y-92709999D01*
X194000381Y-92519523D01*
X193000381Y-92281428D01*
X193095619Y-91948095D02*
X193048000Y-91900476D01*
X193000381Y-91805238D01*
X193000381Y-91567142D01*
X193048000Y-91471904D01*
X193095619Y-91424285D01*
X193190857Y-91376666D01*
X193286095Y-91376666D01*
X193428952Y-91424285D01*
X194000381Y-91995714D01*
X194000381Y-91376666D01*
X207922762Y-94043333D02*
X207970381Y-93900476D01*
X207970381Y-93662380D01*
X207922762Y-93567142D01*
X207875143Y-93519523D01*
X207779905Y-93471904D01*
X207684667Y-93471904D01*
X207589429Y-93519523D01*
X207541810Y-93567142D01*
X207494190Y-93662380D01*
X207446571Y-93852857D01*
X207398952Y-93948095D01*
X207351333Y-93995714D01*
X207256095Y-94043333D01*
X207160857Y-94043333D01*
X207065619Y-93995714D01*
X207018000Y-93948095D01*
X206970381Y-93852857D01*
X206970381Y-93614761D01*
X207018000Y-93471904D01*
X206970381Y-93138571D02*
X207970381Y-92900476D01*
X207256095Y-92709999D01*
X207970381Y-92519523D01*
X206970381Y-92281428D01*
X206970381Y-91995714D02*
X206970381Y-91376666D01*
X207351333Y-91710000D01*
X207351333Y-91567142D01*
X207398952Y-91471904D01*
X207446571Y-91424285D01*
X207541810Y-91376666D01*
X207779905Y-91376666D01*
X207875143Y-91424285D01*
X207922762Y-91471904D01*
X207970381Y-91567142D01*
X207970381Y-91852857D01*
X207922762Y-91948095D01*
X207875143Y-91995714D01*
X169418095Y-48982381D02*
X169418095Y-49791905D01*
X169465714Y-49887143D01*
X169513333Y-49934762D01*
X169608571Y-49982381D01*
X169799048Y-49982381D01*
X169894286Y-49934762D01*
X169941905Y-49887143D01*
X169989524Y-49791905D01*
X169989524Y-48982381D01*
X170370476Y-48982381D02*
X170989524Y-48982381D01*
X170656190Y-49363333D01*
X170799048Y-49363333D01*
X170894286Y-49410952D01*
X170941905Y-49458571D01*
X170989524Y-49553810D01*
X170989524Y-49791905D01*
X170941905Y-49887143D01*
X170894286Y-49934762D01*
X170799048Y-49982381D01*
X170513333Y-49982381D01*
X170418095Y-49934762D01*
X170370476Y-49887143D01*
X154463809Y-74906190D02*
X154463809Y-75382381D01*
X154130476Y-74382381D02*
X154463809Y-74906190D01*
X154797143Y-74382381D01*
X155654286Y-75382381D02*
X155082857Y-75382381D01*
X155368571Y-75382381D02*
X155368571Y-74382381D01*
X155273333Y-74525238D01*
X155178095Y-74620476D01*
X155082857Y-74668095D01*
X151923809Y-68556190D02*
X151923809Y-69032381D01*
X151590476Y-68032381D02*
X151923809Y-68556190D01*
X152257143Y-68032381D01*
X152542857Y-68127619D02*
X152590476Y-68080000D01*
X152685714Y-68032381D01*
X152923810Y-68032381D01*
X153019048Y-68080000D01*
X153066667Y-68127619D01*
X153114286Y-68222857D01*
X153114286Y-68318095D01*
X153066667Y-68460952D01*
X152495238Y-69032381D01*
X153114286Y-69032381D01*
X189372501Y-71535586D02*
X188896310Y-71868920D01*
X189372501Y-72107015D02*
X188372501Y-72107015D01*
X188372501Y-71726062D01*
X188420120Y-71630824D01*
X188467739Y-71583205D01*
X188562977Y-71535586D01*
X188705834Y-71535586D01*
X188801072Y-71583205D01*
X188848691Y-71630824D01*
X188896310Y-71726062D01*
X188896310Y-72107015D01*
X188372501Y-70630824D02*
X188372501Y-71107015D01*
X188848691Y-71154634D01*
X188801072Y-71107015D01*
X188753453Y-71011777D01*
X188753453Y-70773681D01*
X188801072Y-70678443D01*
X188848691Y-70630824D01*
X188943930Y-70583205D01*
X189182025Y-70583205D01*
X189277263Y-70630824D01*
X189324882Y-70678443D01*
X189372501Y-70773681D01*
X189372501Y-71011777D01*
X189324882Y-71107015D01*
X189277263Y-71154634D01*
X179152254Y-41402261D02*
X178818920Y-40926070D01*
X178580825Y-41402261D02*
X178580825Y-40402261D01*
X178961778Y-40402261D01*
X179057016Y-40449880D01*
X179104635Y-40497499D01*
X179152254Y-40592737D01*
X179152254Y-40735594D01*
X179104635Y-40830832D01*
X179057016Y-40878451D01*
X178961778Y-40926070D01*
X178580825Y-40926070D01*
X180009397Y-40402261D02*
X179818920Y-40402261D01*
X179723682Y-40449880D01*
X179676063Y-40497499D01*
X179580825Y-40640356D01*
X179533206Y-40830832D01*
X179533206Y-41211785D01*
X179580825Y-41307023D01*
X179628444Y-41354642D01*
X179723682Y-41402261D01*
X179914159Y-41402261D01*
X180009397Y-41354642D01*
X180057016Y-41307023D01*
X180104635Y-41211785D01*
X180104635Y-40973690D01*
X180057016Y-40878451D01*
X180009397Y-40830832D01*
X179914159Y-40783213D01*
X179723682Y-40783213D01*
X179628444Y-40830832D01*
X179580825Y-40878451D01*
X179533206Y-40973690D01*
X133183334Y-84272381D02*
X132850000Y-83796190D01*
X132611905Y-84272381D02*
X132611905Y-83272381D01*
X132992858Y-83272381D01*
X133088096Y-83320000D01*
X133135715Y-83367619D01*
X133183334Y-83462857D01*
X133183334Y-83605714D01*
X133135715Y-83700952D01*
X133088096Y-83748571D01*
X132992858Y-83796190D01*
X132611905Y-83796190D01*
X134040477Y-83605714D02*
X134040477Y-84272381D01*
X133802381Y-83224762D02*
X133564286Y-83939048D01*
X134183334Y-83939048D01*
X138938095Y-105370381D02*
X138938095Y-106179905D01*
X138985714Y-106275143D01*
X139033333Y-106322762D01*
X139128571Y-106370381D01*
X139319048Y-106370381D01*
X139414286Y-106322762D01*
X139461905Y-106275143D01*
X139509524Y-106179905D01*
X139509524Y-105370381D01*
X140509524Y-106370381D02*
X139938095Y-106370381D01*
X140223809Y-106370381D02*
X140223809Y-105370381D01*
X140128571Y-105513238D01*
X140033333Y-105608476D01*
X139938095Y-105656095D01*
X155287143Y-101496666D02*
X155334762Y-101544285D01*
X155382381Y-101687142D01*
X155382381Y-101782380D01*
X155334762Y-101925238D01*
X155239524Y-102020476D01*
X155144286Y-102068095D01*
X154953810Y-102115714D01*
X154810952Y-102115714D01*
X154620476Y-102068095D01*
X154525238Y-102020476D01*
X154430000Y-101925238D01*
X154382381Y-101782380D01*
X154382381Y-101687142D01*
X154430000Y-101544285D01*
X154477619Y-101496666D01*
X155382381Y-100544285D02*
X155382381Y-101115714D01*
X155382381Y-100830000D02*
X154382381Y-100830000D01*
X154525238Y-100925238D01*
X154620476Y-101020476D01*
X154668095Y-101115714D01*
X134297143Y-101746666D02*
X134344762Y-101794285D01*
X134392381Y-101937142D01*
X134392381Y-102032380D01*
X134344762Y-102175238D01*
X134249524Y-102270476D01*
X134154286Y-102318095D01*
X133963810Y-102365714D01*
X133820952Y-102365714D01*
X133630476Y-102318095D01*
X133535238Y-102270476D01*
X133440000Y-102175238D01*
X133392381Y-102032380D01*
X133392381Y-101937142D01*
X133440000Y-101794285D01*
X133487619Y-101746666D01*
X133487619Y-101365714D02*
X133440000Y-101318095D01*
X133392381Y-101222857D01*
X133392381Y-100984761D01*
X133440000Y-100889523D01*
X133487619Y-100841904D01*
X133582857Y-100794285D01*
X133678095Y-100794285D01*
X133820952Y-100841904D01*
X134392381Y-101413333D01*
X134392381Y-100794285D01*
X195937619Y-110585238D02*
X195890000Y-110680476D01*
X195794762Y-110775714D01*
X195651905Y-110918571D01*
X195604286Y-111013810D01*
X195604286Y-111109048D01*
X195842381Y-111061429D02*
X195794762Y-111156667D01*
X195699524Y-111251905D01*
X195509048Y-111299524D01*
X195175714Y-111299524D01*
X194985238Y-111251905D01*
X194890000Y-111156667D01*
X194842381Y-111061429D01*
X194842381Y-110870952D01*
X194890000Y-110775714D01*
X194985238Y-110680476D01*
X195175714Y-110632857D01*
X195509048Y-110632857D01*
X195699524Y-110680476D01*
X195794762Y-110775714D01*
X195842381Y-110870952D01*
X195842381Y-111061429D01*
X195842381Y-109680476D02*
X195842381Y-110251905D01*
X195842381Y-109966191D02*
X194842381Y-109966191D01*
X194985238Y-110061429D01*
X195080476Y-110156667D01*
X195128095Y-110251905D01*
X177014286Y-111688571D02*
X177157143Y-111736190D01*
X177204762Y-111783810D01*
X177252381Y-111879048D01*
X177252381Y-112021905D01*
X177204762Y-112117143D01*
X177157143Y-112164762D01*
X177061905Y-112212381D01*
X176680952Y-112212381D01*
X176680952Y-111212381D01*
X177014286Y-111212381D01*
X177109524Y-111260000D01*
X177157143Y-111307619D01*
X177204762Y-111402857D01*
X177204762Y-111498095D01*
X177157143Y-111593333D01*
X177109524Y-111640952D01*
X177014286Y-111688571D01*
X176680952Y-111688571D01*
X177538095Y-111212381D02*
X178109524Y-111212381D01*
X177823809Y-112212381D02*
X177823809Y-111212381D01*
X178966667Y-112212381D02*
X178395238Y-112212381D01*
X178680952Y-112212381D02*
X178680952Y-111212381D01*
X178585714Y-111355238D01*
X178490476Y-111450476D01*
X178395238Y-111498095D01*
M02*
