G04 #@! TF.FileFunction,Copper,L2,Bot,Signal*
%FSLAX46Y46*%
G04 Gerber Fmt 4.6, Leading zero omitted, Abs format (unit mm)*
G04 Created by KiCad (PCBNEW 4.0.6) date Tue Mar 14 17:15:09 2017*
%MOMM*%
%LPD*%
G01*
G04 APERTURE LIST*
%ADD10C,0.100000*%
%ADD11C,1.524000*%
%ADD12O,2.032000X2.540000*%
%ADD13O,3.048000X1.727200*%
%ADD14R,1.000000X1.600000*%
%ADD15R,1.600000X1.000000*%
%ADD16O,1.600000X2.300000*%
%ADD17C,1.300000*%
%ADD18R,1.300000X1.300000*%
%ADD19C,1.998980*%
%ADD20R,1.998980X1.998980*%
%ADD21R,1.900000X0.800000*%
%ADD22R,2.000000X2.500000*%
%ADD23R,2.500000X2.000000*%
%ADD24C,2.000000*%
%ADD25R,1.397000X1.397000*%
%ADD26C,1.397000*%
%ADD27C,1.000760*%
%ADD28C,1.500000*%
%ADD29R,1.800000X1.800000*%
%ADD30C,1.800000*%
%ADD31R,1.600000X1.600000*%
%ADD32O,1.600000X1.600000*%
%ADD33R,1.700000X1.700000*%
%ADD34O,1.700000X1.700000*%
%ADD35R,5.080000X2.790000*%
%ADD36C,17.780000*%
%ADD37C,0.600000*%
%ADD38C,0.250000*%
%ADD39C,0.254000*%
G04 APERTURE END LIST*
D10*
D11*
X53086000Y-31496000D03*
X55626000Y-31496000D03*
X58166000Y-31496000D03*
X60706000Y-31496000D03*
X53086000Y-46736000D03*
X55626000Y-46736000D03*
X58166000Y-46736000D03*
X60706000Y-46736000D03*
X50546000Y-31496000D03*
X48006000Y-31496000D03*
X45466000Y-31496000D03*
X45466000Y-46736000D03*
X48006000Y-46736000D03*
X50546000Y-46736000D03*
D12*
X31496000Y-82296000D03*
X28956000Y-82296000D03*
X34036000Y-82296000D03*
D13*
X40386000Y-53086000D03*
X40386000Y-58166000D03*
X27686000Y-53086000D03*
X27686000Y-58166000D03*
X78486000Y-53086000D03*
X78486000Y-58166000D03*
X65786000Y-53086000D03*
X65786000Y-58166000D03*
D14*
X32616140Y-91694000D03*
X26616660Y-91694000D03*
D15*
X29616400Y-96393000D03*
D16*
X68326000Y-72771000D03*
X70866000Y-72771000D03*
X73406000Y-72771000D03*
X75946000Y-72771000D03*
X75946000Y-65151000D03*
X73406000Y-65151000D03*
X70866000Y-65151000D03*
X68326000Y-65151000D03*
D17*
X39116000Y-94194000D03*
D18*
X39116000Y-91694000D03*
X22606000Y-82296000D03*
D17*
X22606000Y-84296000D03*
D18*
X36576000Y-73406000D03*
D17*
X39076000Y-73406000D03*
D18*
X36576000Y-78486000D03*
D17*
X39076000Y-78486000D03*
D19*
X22606000Y-78488540D03*
D20*
X32766000Y-78488540D03*
D21*
X64921000Y-89596000D03*
X64921000Y-87696000D03*
X67921000Y-88646000D03*
X30456000Y-63566000D03*
X30456000Y-65466000D03*
X27456000Y-64516000D03*
D22*
X63786000Y-92456000D03*
X67786000Y-92456000D03*
X39846000Y-64516000D03*
X35846000Y-64516000D03*
D23*
X65151000Y-67151000D03*
X65151000Y-63151000D03*
X79121000Y-67151000D03*
X79121000Y-63151000D03*
X22606000Y-65246000D03*
X22606000Y-61246000D03*
X36068000Y-41116000D03*
X36068000Y-37116000D03*
X32512000Y-41116000D03*
X32512000Y-37116000D03*
X39878000Y-41116000D03*
X39878000Y-37116000D03*
X55118000Y-41116000D03*
X55118000Y-37116000D03*
X43688000Y-41116000D03*
X43688000Y-37116000D03*
X47498000Y-41116000D03*
X47498000Y-37116000D03*
X51308000Y-41116000D03*
X51308000Y-37116000D03*
X58928000Y-41116000D03*
X58928000Y-37116000D03*
X62738000Y-41116000D03*
X62738000Y-37116000D03*
D24*
X30215840Y-69596000D03*
X22616160Y-69596000D03*
D25*
X23876000Y-44831000D03*
D26*
X23876000Y-42291000D03*
X23876000Y-39751000D03*
D27*
X70345300Y-75946000D03*
X68846700Y-75946000D03*
D28*
X43180000Y-78486000D03*
X43180000Y-73606000D03*
D29*
X21336000Y-55626000D03*
D30*
X23876000Y-55626000D03*
D31*
X49276000Y-54356000D03*
D32*
X56896000Y-87376000D03*
X49276000Y-56896000D03*
X56896000Y-84836000D03*
X49276000Y-59436000D03*
X56896000Y-82296000D03*
X49276000Y-61976000D03*
X56896000Y-79756000D03*
X49276000Y-64516000D03*
X56896000Y-77216000D03*
X49276000Y-67056000D03*
X56896000Y-74676000D03*
X49276000Y-69596000D03*
X56896000Y-72136000D03*
X49276000Y-72136000D03*
X56896000Y-69596000D03*
X49276000Y-74676000D03*
X56896000Y-67056000D03*
X49276000Y-77216000D03*
X56896000Y-64516000D03*
X49276000Y-79756000D03*
X56896000Y-61976000D03*
X49276000Y-82296000D03*
X56896000Y-59436000D03*
X49276000Y-84836000D03*
X56896000Y-56896000D03*
X49276000Y-87376000D03*
X56896000Y-54356000D03*
D33*
X55372000Y-97790000D03*
D34*
X55372000Y-100330000D03*
X52832000Y-97790000D03*
X52832000Y-100330000D03*
X50292000Y-97790000D03*
X50292000Y-100330000D03*
D14*
X73555860Y-91186000D03*
X79555340Y-91186000D03*
D15*
X76555600Y-86487000D03*
D35*
X75946000Y-24352000D03*
X75946000Y-48292000D03*
D36*
X75946000Y-36322000D03*
D37*
X30226000Y-67056000D03*
X65278000Y-69088000D03*
X25146000Y-67056000D03*
X51308000Y-34798000D03*
X33274000Y-45212000D03*
X33274000Y-62738000D03*
X47498000Y-52578000D03*
X47498000Y-39116000D03*
X43688000Y-39116000D03*
X46736000Y-51308000D03*
X39878000Y-39116000D03*
X45974000Y-52578000D03*
X36068000Y-39116000D03*
X45212000Y-53848000D03*
X58420000Y-75692000D03*
X40132000Y-60706000D03*
X52832000Y-60706000D03*
X54356000Y-82550000D03*
X53086000Y-79756000D03*
X51816000Y-67818000D03*
X59182000Y-60706000D03*
X60960000Y-51054000D03*
X60706000Y-44450000D03*
X55118000Y-38862000D03*
X55372000Y-52324000D03*
X59436000Y-48514000D03*
X68326000Y-63246000D03*
X51054000Y-65532000D03*
X52451000Y-54356000D03*
D38*
X75946000Y-24352000D02*
X77091000Y-24352000D01*
X77091000Y-48292000D02*
X75946000Y-48292000D01*
X77091000Y-48292000D02*
X77123000Y-48260000D01*
X73406000Y-72771000D02*
X73406000Y-72421000D01*
X73406000Y-72421000D02*
X76231000Y-69596000D01*
X76231000Y-69596000D02*
X80518000Y-69596000D01*
X80518000Y-69596000D02*
X81280000Y-68834000D01*
X81280000Y-68834000D02*
X81280000Y-52481000D01*
X81280000Y-52481000D02*
X77091000Y-48292000D01*
X39116000Y-91694000D02*
X57404000Y-91694000D01*
X69491860Y-95250000D02*
X73555860Y-91186000D01*
X60960000Y-95250000D02*
X69491860Y-95250000D01*
X57404000Y-91694000D02*
X60960000Y-95250000D01*
X30456000Y-65466000D02*
X30456000Y-66826000D01*
X30456000Y-66826000D02*
X30226000Y-67056000D01*
X65151000Y-68961000D02*
X65151000Y-67151000D01*
X65278000Y-69088000D02*
X65151000Y-68961000D01*
X65151000Y-67151000D02*
X64421000Y-67151000D01*
X55372000Y-100330000D02*
X52832000Y-102870000D01*
X52832000Y-102870000D02*
X32004000Y-102870000D01*
X32004000Y-102870000D02*
X25049599Y-96677599D01*
X25049599Y-96677599D02*
X25049599Y-86960401D01*
X25049599Y-86960401D02*
X28956000Y-83816000D01*
X28956000Y-83816000D02*
X28956000Y-82296000D01*
X49276000Y-69596000D02*
X53594000Y-69596000D01*
X53594000Y-69596000D02*
X54864000Y-70866000D01*
X54864000Y-73914000D02*
X55626000Y-74676000D01*
X54864000Y-70866000D02*
X54864000Y-73914000D01*
X55626000Y-74676000D02*
X56896000Y-74676000D01*
X65151000Y-67151000D02*
X66326000Y-67151000D01*
X66326000Y-67151000D02*
X68326000Y-65151000D01*
X65056000Y-67151000D02*
X65151000Y-67151000D01*
X68326000Y-65151000D02*
X68326000Y-65786000D01*
X68326000Y-65786000D02*
X69691000Y-67151000D01*
X69691000Y-67151000D02*
X79121000Y-67151000D01*
X25146000Y-67056000D02*
X23336000Y-65246000D01*
X23336000Y-65246000D02*
X22606000Y-65246000D01*
X22606000Y-78488540D02*
X22606000Y-73406000D01*
X25146000Y-68326000D02*
X22606000Y-65786000D01*
X25146000Y-70866000D02*
X25146000Y-68326000D01*
X22606000Y-73406000D02*
X25146000Y-70866000D01*
X22606000Y-65786000D02*
X22606000Y-65246000D01*
X76555600Y-86487000D02*
X76555600Y-88186260D01*
X76555600Y-88186260D02*
X79555340Y-91186000D01*
X67921000Y-88646000D02*
X74396600Y-88646000D01*
X74396600Y-88646000D02*
X76555600Y-86487000D01*
X22606000Y-61246000D02*
X22606000Y-59436000D01*
X23876000Y-58166000D02*
X23876000Y-55626000D01*
X22606000Y-59436000D02*
X23876000Y-58166000D01*
X51308000Y-34798000D02*
X51308000Y-37116000D01*
X33274000Y-62738000D02*
X33274000Y-45212000D01*
X49276000Y-79756000D02*
X49022000Y-79756000D01*
X49022000Y-79756000D02*
X47498000Y-78232000D01*
X47498000Y-78232000D02*
X47498000Y-52578000D01*
X47498000Y-39116000D02*
X47498000Y-37116000D01*
X49276000Y-82296000D02*
X46736000Y-79756000D01*
X43688000Y-39116000D02*
X43688000Y-37116000D01*
X46736000Y-79756000D02*
X46736000Y-51308000D01*
X49276000Y-84836000D02*
X45974000Y-81534000D01*
X39878000Y-39116000D02*
X39878000Y-37116000D01*
X45974000Y-81534000D02*
X45974000Y-52578000D01*
X49276000Y-87376000D02*
X45212000Y-83312000D01*
X36068000Y-39116000D02*
X36068000Y-37116000D01*
X45212000Y-83312000D02*
X45212000Y-53848000D01*
X56896000Y-87376000D02*
X58706000Y-87376000D01*
X58706000Y-87376000D02*
X63786000Y-92456000D01*
X55626000Y-68326000D02*
X57658000Y-68326000D01*
X58420000Y-69088000D02*
X58420000Y-75692000D01*
X57658000Y-68326000D02*
X58420000Y-69088000D01*
X52832000Y-65532000D02*
X55626000Y-68326000D01*
X39846000Y-64516000D02*
X40132000Y-64516000D01*
X40132000Y-64516000D02*
X40132000Y-60706000D01*
X52832000Y-60706000D02*
X52832000Y-65532000D01*
X54356000Y-82550000D02*
X56642000Y-82550000D01*
X56642000Y-82550000D02*
X56896000Y-82296000D01*
X32512000Y-41116000D02*
X32512000Y-42926000D01*
X53086000Y-79756000D02*
X56896000Y-79756000D01*
X51816000Y-53340000D02*
X51816000Y-67818000D01*
X48768000Y-50292000D02*
X51816000Y-53340000D01*
X41656000Y-50292000D02*
X48768000Y-50292000D01*
X35814000Y-44450000D02*
X41656000Y-50292000D01*
X34036000Y-44450000D02*
X35814000Y-44450000D01*
X32512000Y-42926000D02*
X34036000Y-44450000D01*
X59182000Y-70866000D02*
X59182000Y-76200000D01*
X55118000Y-41116000D02*
X55118000Y-38862000D01*
X58166000Y-77216000D02*
X56896000Y-77216000D01*
X59182000Y-76200000D02*
X58166000Y-77216000D01*
X59182000Y-60706000D02*
X59182000Y-70866000D01*
X62484000Y-49530000D02*
X60960000Y-51054000D01*
X62484000Y-46228000D02*
X62484000Y-49530000D01*
X60706000Y-44450000D02*
X62484000Y-46228000D01*
X56261000Y-67056000D02*
X56896000Y-67056000D01*
X58928000Y-41116000D02*
X58928000Y-41656000D01*
X58928000Y-41656000D02*
X56896000Y-43688000D01*
X56896000Y-50800000D02*
X55372000Y-52324000D01*
X56896000Y-43688000D02*
X56896000Y-50800000D01*
X58928000Y-41116000D02*
X58928000Y-41960800D01*
X59436000Y-44196000D02*
X59436000Y-48514000D01*
X60706000Y-42926000D02*
X62738000Y-41116000D01*
X59436000Y-44196000D02*
X60706000Y-42926000D01*
X57531000Y-59436000D02*
X56896000Y-59436000D01*
X65151000Y-63151000D02*
X63151000Y-63151000D01*
X63151000Y-63151000D02*
X56896000Y-56896000D01*
X68326000Y-63246000D02*
X68231000Y-63151000D01*
X68231000Y-63151000D02*
X65151000Y-63151000D01*
X73406000Y-65151000D02*
X73406000Y-64516000D01*
X73406000Y-64516000D02*
X74771000Y-63151000D01*
X73406000Y-64516000D02*
X68961000Y-60071000D01*
X74771000Y-63151000D02*
X79121000Y-63151000D01*
X62611000Y-60071000D02*
X56896000Y-54356000D01*
X68961000Y-60071000D02*
X62611000Y-60071000D01*
X56896000Y-54356000D02*
X57531000Y-54356000D01*
X64921000Y-89596000D02*
X64926000Y-89596000D01*
X64926000Y-89596000D02*
X67786000Y-92456000D01*
X30456000Y-63566000D02*
X34896000Y-63566000D01*
X34896000Y-63566000D02*
X35846000Y-64516000D01*
X27456000Y-64516000D02*
X27456000Y-66836160D01*
X27456000Y-66836160D02*
X30215840Y-69596000D01*
X27696160Y-64275840D02*
X27456000Y-64516000D01*
X36068000Y-41116000D02*
X36068000Y-41148000D01*
X36068000Y-41148000D02*
X41656000Y-46736000D01*
X41656000Y-46736000D02*
X45466000Y-46736000D01*
X48006000Y-31496000D02*
X46736000Y-32766000D01*
X32512000Y-34036000D02*
X32512000Y-37116000D01*
X33274000Y-33274000D02*
X32512000Y-34036000D01*
X46228000Y-33274000D02*
X33274000Y-33274000D01*
X46736000Y-32766000D02*
X46228000Y-33274000D01*
X48006000Y-31496000D02*
X48006000Y-31534100D01*
X39878000Y-41116000D02*
X39878000Y-41148000D01*
X39878000Y-41148000D02*
X43180000Y-44450000D01*
X43180000Y-44450000D02*
X45720000Y-44450000D01*
X45720000Y-44450000D02*
X48006000Y-46736000D01*
X48006000Y-46736000D02*
X48006000Y-46342300D01*
X52324000Y-33274000D02*
X54356000Y-33274000D01*
X55118000Y-34036000D02*
X55118000Y-37116000D01*
X54356000Y-33274000D02*
X55118000Y-34036000D01*
X50546000Y-31496000D02*
X52324000Y-33274000D01*
X55118000Y-37116000D02*
X55118000Y-36576000D01*
X43688000Y-41116000D02*
X43688000Y-41148000D01*
X43688000Y-41148000D02*
X46228000Y-43688000D01*
X47498000Y-43688000D02*
X50546000Y-46736000D01*
X46228000Y-43688000D02*
X47498000Y-43688000D01*
X50546000Y-46736000D02*
X50546000Y-46139100D01*
X43332400Y-42062400D02*
X43688000Y-41116000D01*
X47498000Y-41116000D02*
X47498000Y-41148000D01*
X47498000Y-41148000D02*
X53086000Y-46736000D01*
X53086000Y-46736000D02*
X53086000Y-46545500D01*
X47498000Y-41656000D02*
X47498000Y-41116000D01*
X47142400Y-42062400D02*
X47498000Y-41116000D01*
X51308000Y-41116000D02*
X51308000Y-41148000D01*
X51308000Y-41148000D02*
X55626000Y-45466000D01*
X55626000Y-45466000D02*
X55626000Y-46736000D01*
X55626000Y-46736000D02*
X55626000Y-46037500D01*
X55626000Y-46736000D02*
X55626000Y-46215300D01*
X58166000Y-31496000D02*
X58928000Y-32258000D01*
X58928000Y-32258000D02*
X58928000Y-37116000D01*
X58928000Y-37116000D02*
X58928000Y-36474400D01*
X60706000Y-31496000D02*
X62738000Y-33528000D01*
X62738000Y-33528000D02*
X62738000Y-37116000D01*
X60591700Y-31610300D02*
X60706000Y-31496000D01*
X60706000Y-31496000D02*
X61150500Y-31496000D01*
X51054000Y-65532000D02*
X51054000Y-55084000D01*
X51054000Y-55084000D02*
X50326000Y-54356000D01*
X50326000Y-54356000D02*
X49276000Y-54356000D01*
X23876000Y-39751000D02*
X21336000Y-42291000D01*
X21336000Y-55626000D02*
X21336000Y-42291000D01*
X53721000Y-53086000D02*
X52451000Y-54356000D01*
X53721000Y-53086000D02*
X65786000Y-53086000D01*
X23876000Y-44831000D02*
X23876000Y-45466000D01*
D39*
G36*
X86691000Y-103836000D02*
X19481000Y-103836000D01*
X19481000Y-86960401D01*
X24289599Y-86960401D01*
X24289599Y-96677599D01*
X24293952Y-96699481D01*
X24290873Y-96721575D01*
X24322734Y-96844179D01*
X24347451Y-96968438D01*
X24359846Y-96986989D01*
X24365457Y-97008580D01*
X24441817Y-97109667D01*
X24512198Y-97215000D01*
X24530746Y-97227393D01*
X24544194Y-97245196D01*
X31498595Y-103437597D01*
X31607835Y-103501771D01*
X31713161Y-103572148D01*
X31735040Y-103576500D01*
X31754277Y-103587801D01*
X31879748Y-103605284D01*
X32004000Y-103630000D01*
X52832000Y-103630000D01*
X53122839Y-103572148D01*
X53369401Y-103407401D01*
X55005592Y-101771210D01*
X55372000Y-101844093D01*
X55940285Y-101731054D01*
X56422054Y-101409147D01*
X56743961Y-100927378D01*
X56857000Y-100359093D01*
X56857000Y-100300907D01*
X56743961Y-99732622D01*
X56422054Y-99250853D01*
X56420821Y-99250029D01*
X56457317Y-99243162D01*
X56673441Y-99104090D01*
X56818431Y-98891890D01*
X56869440Y-98640000D01*
X56869440Y-96940000D01*
X56825162Y-96704683D01*
X56686090Y-96488559D01*
X56473890Y-96343569D01*
X56222000Y-96292560D01*
X54522000Y-96292560D01*
X54286683Y-96336838D01*
X54070559Y-96475910D01*
X53925569Y-96688110D01*
X53911914Y-96755541D01*
X53882054Y-96710853D01*
X53400285Y-96388946D01*
X52832000Y-96275907D01*
X52263715Y-96388946D01*
X51781946Y-96710853D01*
X51562000Y-97040026D01*
X51342054Y-96710853D01*
X50860285Y-96388946D01*
X50292000Y-96275907D01*
X49723715Y-96388946D01*
X49241946Y-96710853D01*
X48920039Y-97192622D01*
X48807000Y-97760907D01*
X48807000Y-97819093D01*
X48920039Y-98387378D01*
X49241946Y-98869147D01*
X49525101Y-99058345D01*
X49525076Y-99058355D01*
X49096817Y-99448642D01*
X48850514Y-99973108D01*
X48971181Y-100203000D01*
X50165000Y-100203000D01*
X50165000Y-100183000D01*
X50419000Y-100183000D01*
X50419000Y-100203000D01*
X50439000Y-100203000D01*
X50439000Y-100457000D01*
X50419000Y-100457000D01*
X50419000Y-101650155D01*
X50648890Y-101771476D01*
X51058924Y-101601645D01*
X51487183Y-101211358D01*
X51554298Y-101068447D01*
X51781946Y-101409147D01*
X52263715Y-101731054D01*
X52791217Y-101835981D01*
X52517198Y-102110000D01*
X32293326Y-102110000D01*
X30695099Y-100686892D01*
X48850514Y-100686892D01*
X49096817Y-101211358D01*
X49525076Y-101601645D01*
X49935110Y-101771476D01*
X50165000Y-101650155D01*
X50165000Y-100457000D01*
X48971181Y-100457000D01*
X48850514Y-100686892D01*
X30695099Y-100686892D01*
X26193739Y-96678750D01*
X28181400Y-96678750D01*
X28181400Y-97019310D01*
X28278073Y-97252699D01*
X28456702Y-97431327D01*
X28690091Y-97528000D01*
X29330650Y-97528000D01*
X29489400Y-97369250D01*
X29489400Y-96520000D01*
X29743400Y-96520000D01*
X29743400Y-97369250D01*
X29902150Y-97528000D01*
X30542709Y-97528000D01*
X30776098Y-97431327D01*
X30954727Y-97252699D01*
X31051400Y-97019310D01*
X31051400Y-96678750D01*
X30892650Y-96520000D01*
X29743400Y-96520000D01*
X29489400Y-96520000D01*
X28340150Y-96520000D01*
X28181400Y-96678750D01*
X26193739Y-96678750D01*
X25809599Y-96336701D01*
X25809599Y-95766690D01*
X28181400Y-95766690D01*
X28181400Y-96107250D01*
X28340150Y-96266000D01*
X29489400Y-96266000D01*
X29489400Y-95416750D01*
X29743400Y-95416750D01*
X29743400Y-96266000D01*
X30892650Y-96266000D01*
X31051400Y-96107250D01*
X31051400Y-95766690D01*
X30954727Y-95533301D01*
X30776098Y-95354673D01*
X30542709Y-95258000D01*
X29902150Y-95258000D01*
X29743400Y-95416750D01*
X29489400Y-95416750D01*
X29330650Y-95258000D01*
X28690091Y-95258000D01*
X28456702Y-95354673D01*
X28278073Y-95533301D01*
X28181400Y-95766690D01*
X25809599Y-95766690D01*
X25809599Y-95093016D01*
X38396590Y-95093016D01*
X38452271Y-95323611D01*
X38935078Y-95491622D01*
X39445428Y-95462083D01*
X39779729Y-95323611D01*
X39835410Y-95093016D01*
X39116000Y-94373605D01*
X38396590Y-95093016D01*
X25809599Y-95093016D01*
X25809599Y-94013078D01*
X37818378Y-94013078D01*
X37847917Y-94523428D01*
X37986389Y-94857729D01*
X38216984Y-94913410D01*
X38936395Y-94194000D01*
X39295605Y-94194000D01*
X40015016Y-94913410D01*
X40245611Y-94857729D01*
X40413622Y-94374922D01*
X40384083Y-93864572D01*
X40245611Y-93530271D01*
X40015016Y-93474590D01*
X39295605Y-94194000D01*
X38936395Y-94194000D01*
X38216984Y-93474590D01*
X37986389Y-93530271D01*
X37818378Y-94013078D01*
X25809599Y-94013078D01*
X25809599Y-93054130D01*
X25990351Y-93129000D01*
X26330910Y-93129000D01*
X26489660Y-92970250D01*
X26489660Y-91821000D01*
X26743660Y-91821000D01*
X26743660Y-92970250D01*
X26902410Y-93129000D01*
X27242969Y-93129000D01*
X27476358Y-93032327D01*
X27654987Y-92853699D01*
X27751660Y-92620310D01*
X27751660Y-91979750D01*
X27592910Y-91821000D01*
X26743660Y-91821000D01*
X26489660Y-91821000D01*
X26469660Y-91821000D01*
X26469660Y-91567000D01*
X26489660Y-91567000D01*
X26489660Y-90417750D01*
X26743660Y-90417750D01*
X26743660Y-91567000D01*
X27592910Y-91567000D01*
X27751660Y-91408250D01*
X27751660Y-90894000D01*
X31468700Y-90894000D01*
X31468700Y-92494000D01*
X31512978Y-92729317D01*
X31652050Y-92945441D01*
X31864250Y-93090431D01*
X32116140Y-93141440D01*
X33116140Y-93141440D01*
X33351457Y-93097162D01*
X33567581Y-92958090D01*
X33712571Y-92745890D01*
X33763580Y-92494000D01*
X33763580Y-91044000D01*
X37818560Y-91044000D01*
X37818560Y-92344000D01*
X37862838Y-92579317D01*
X38001910Y-92795441D01*
X38214110Y-92940431D01*
X38466000Y-92991440D01*
X38628385Y-92991440D01*
X38452271Y-93064389D01*
X38396590Y-93294984D01*
X39116000Y-94014395D01*
X39835410Y-93294984D01*
X39779729Y-93064389D01*
X39570098Y-92991440D01*
X39766000Y-92991440D01*
X40001317Y-92947162D01*
X40217441Y-92808090D01*
X40362431Y-92595890D01*
X40391164Y-92454000D01*
X57089198Y-92454000D01*
X60422599Y-95787401D01*
X60669160Y-95952148D01*
X60707625Y-95959799D01*
X60960000Y-96010000D01*
X69491860Y-96010000D01*
X69782699Y-95952148D01*
X70029261Y-95787401D01*
X73183222Y-92633440D01*
X74055860Y-92633440D01*
X74291177Y-92589162D01*
X74507301Y-92450090D01*
X74652291Y-92237890D01*
X74703300Y-91986000D01*
X74703300Y-90386000D01*
X74659022Y-90150683D01*
X74519950Y-89934559D01*
X74307750Y-89789569D01*
X74055860Y-89738560D01*
X73055860Y-89738560D01*
X72820543Y-89782838D01*
X72604419Y-89921910D01*
X72459429Y-90134110D01*
X72408420Y-90386000D01*
X72408420Y-91258638D01*
X69177058Y-94490000D01*
X61274802Y-94490000D01*
X57941401Y-91156599D01*
X57694839Y-90991852D01*
X57404000Y-90934000D01*
X40392742Y-90934000D01*
X40369162Y-90808683D01*
X40230090Y-90592559D01*
X40017890Y-90447569D01*
X39766000Y-90396560D01*
X38466000Y-90396560D01*
X38230683Y-90440838D01*
X38014559Y-90579910D01*
X37869569Y-90792110D01*
X37818560Y-91044000D01*
X33763580Y-91044000D01*
X33763580Y-90894000D01*
X33719302Y-90658683D01*
X33580230Y-90442559D01*
X33368030Y-90297569D01*
X33116140Y-90246560D01*
X32116140Y-90246560D01*
X31880823Y-90290838D01*
X31664699Y-90429910D01*
X31519709Y-90642110D01*
X31468700Y-90894000D01*
X27751660Y-90894000D01*
X27751660Y-90767690D01*
X27654987Y-90534301D01*
X27476358Y-90355673D01*
X27242969Y-90259000D01*
X26902410Y-90259000D01*
X26743660Y-90417750D01*
X26489660Y-90417750D01*
X26330910Y-90259000D01*
X25990351Y-90259000D01*
X25809599Y-90333870D01*
X25809599Y-87324272D01*
X29432548Y-84408032D01*
X29459055Y-84376350D01*
X29493401Y-84353401D01*
X29553463Y-84263512D01*
X29622833Y-84180599D01*
X29635198Y-84141186D01*
X29658148Y-84106839D01*
X29667597Y-84059334D01*
X30123433Y-83754754D01*
X30240054Y-83580219D01*
X30418370Y-83807236D01*
X30981523Y-84123926D01*
X31113056Y-84155975D01*
X31369000Y-84036836D01*
X31369000Y-82423000D01*
X31349000Y-82423000D01*
X31349000Y-82169000D01*
X31369000Y-82169000D01*
X31369000Y-80555164D01*
X31623000Y-80555164D01*
X31623000Y-82169000D01*
X31643000Y-82169000D01*
X31643000Y-82423000D01*
X31623000Y-82423000D01*
X31623000Y-84036836D01*
X31878944Y-84155975D01*
X32010477Y-84123926D01*
X32573630Y-83807236D01*
X32751946Y-83580219D01*
X32868567Y-83754754D01*
X33404190Y-84112646D01*
X34036000Y-84238321D01*
X34667810Y-84112646D01*
X35203433Y-83754754D01*
X35561325Y-83219131D01*
X35687000Y-82587321D01*
X35687000Y-82004679D01*
X35561325Y-81372869D01*
X35203433Y-80837246D01*
X34667810Y-80479354D01*
X34036000Y-80353679D01*
X33404190Y-80479354D01*
X32868567Y-80837246D01*
X32751946Y-81011781D01*
X32573630Y-80784764D01*
X32010477Y-80468074D01*
X31878944Y-80436025D01*
X31623000Y-80555164D01*
X31369000Y-80555164D01*
X31113056Y-80436025D01*
X30981523Y-80468074D01*
X30418370Y-80784764D01*
X30240054Y-81011781D01*
X30123433Y-80837246D01*
X29587810Y-80479354D01*
X28956000Y-80353679D01*
X28324190Y-80479354D01*
X27788567Y-80837246D01*
X27430675Y-81372869D01*
X27305000Y-82004679D01*
X27305000Y-82587321D01*
X27430675Y-83219131D01*
X27788567Y-83754754D01*
X27805763Y-83766244D01*
X24573051Y-86368369D01*
X24546544Y-86400051D01*
X24512198Y-86423000D01*
X24452136Y-86512889D01*
X24382766Y-86595802D01*
X24370401Y-86635215D01*
X24347451Y-86669562D01*
X24326360Y-86775592D01*
X24293999Y-86878741D01*
X24297658Y-86919886D01*
X24289599Y-86960401D01*
X19481000Y-86960401D01*
X19481000Y-85195016D01*
X21886590Y-85195016D01*
X21942271Y-85425611D01*
X22425078Y-85593622D01*
X22935428Y-85564083D01*
X23269729Y-85425611D01*
X23325410Y-85195016D01*
X22606000Y-84475605D01*
X21886590Y-85195016D01*
X19481000Y-85195016D01*
X19481000Y-84115078D01*
X21308378Y-84115078D01*
X21337917Y-84625428D01*
X21476389Y-84959729D01*
X21706984Y-85015410D01*
X22426395Y-84296000D01*
X22412252Y-84281858D01*
X22591858Y-84102252D01*
X22606000Y-84116395D01*
X22620142Y-84102252D01*
X22799748Y-84281858D01*
X22785605Y-84296000D01*
X23505016Y-85015410D01*
X23735611Y-84959729D01*
X23903622Y-84476922D01*
X23874083Y-83966572D01*
X23735611Y-83632271D01*
X23505018Y-83576590D01*
X23606680Y-83474928D01*
X23707441Y-83410090D01*
X23852431Y-83197890D01*
X23903440Y-82946000D01*
X23903440Y-81646000D01*
X23859162Y-81410683D01*
X23720090Y-81194559D01*
X23507890Y-81049569D01*
X23256000Y-80998560D01*
X21956000Y-80998560D01*
X21720683Y-81042838D01*
X21504559Y-81181910D01*
X21359569Y-81394110D01*
X21308560Y-81646000D01*
X21308560Y-82946000D01*
X21352838Y-83181317D01*
X21491910Y-83397441D01*
X21605329Y-83474937D01*
X21706982Y-83576590D01*
X21476389Y-83632271D01*
X21308378Y-84115078D01*
X19481000Y-84115078D01*
X19481000Y-70748532D01*
X21643233Y-70748532D01*
X21741896Y-71015387D01*
X22351621Y-71241908D01*
X23001620Y-71217856D01*
X23490424Y-71015387D01*
X23589087Y-70748532D01*
X22616160Y-69775605D01*
X21643233Y-70748532D01*
X19481000Y-70748532D01*
X19481000Y-69331461D01*
X20970252Y-69331461D01*
X20994304Y-69981460D01*
X21196773Y-70470264D01*
X21463628Y-70568927D01*
X22436555Y-69596000D01*
X22795765Y-69596000D01*
X23768692Y-70568927D01*
X24035547Y-70470264D01*
X24262068Y-69860539D01*
X24238016Y-69210540D01*
X24035547Y-68721736D01*
X23768692Y-68623073D01*
X22795765Y-69596000D01*
X22436555Y-69596000D01*
X21463628Y-68623073D01*
X21196773Y-68721736D01*
X20970252Y-69331461D01*
X19481000Y-69331461D01*
X19481000Y-68443468D01*
X21643233Y-68443468D01*
X22616160Y-69416395D01*
X23589087Y-68443468D01*
X23490424Y-68176613D01*
X22880699Y-67950092D01*
X22230700Y-67974144D01*
X21741896Y-68176613D01*
X21643233Y-68443468D01*
X19481000Y-68443468D01*
X19481000Y-64246000D01*
X20708560Y-64246000D01*
X20708560Y-66246000D01*
X20752838Y-66481317D01*
X20891910Y-66697441D01*
X21104110Y-66842431D01*
X21356000Y-66893440D01*
X22638638Y-66893440D01*
X24386000Y-68640802D01*
X24386000Y-70551198D01*
X22068599Y-72868599D01*
X21903852Y-73115161D01*
X21846000Y-73406000D01*
X21846000Y-77034044D01*
X21681345Y-77102078D01*
X21221154Y-77561467D01*
X20971794Y-78161993D01*
X20971226Y-78812234D01*
X21219538Y-79413195D01*
X21678927Y-79873386D01*
X22279453Y-80122746D01*
X22929694Y-80123314D01*
X23530655Y-79875002D01*
X23990846Y-79415613D01*
X24240206Y-78815087D01*
X24240774Y-78164846D01*
X23992462Y-77563885D01*
X23917758Y-77489050D01*
X31119070Y-77489050D01*
X31119070Y-79488030D01*
X31163348Y-79723347D01*
X31302420Y-79939471D01*
X31514620Y-80084461D01*
X31766510Y-80135470D01*
X33765490Y-80135470D01*
X34000807Y-80091192D01*
X34216931Y-79952120D01*
X34361921Y-79739920D01*
X34412930Y-79488030D01*
X34412930Y-78771750D01*
X35291000Y-78771750D01*
X35291000Y-79262310D01*
X35387673Y-79495699D01*
X35566302Y-79674327D01*
X35799691Y-79771000D01*
X36290250Y-79771000D01*
X36449000Y-79612250D01*
X36449000Y-78613000D01*
X35449750Y-78613000D01*
X35291000Y-78771750D01*
X34412930Y-78771750D01*
X34412930Y-77709690D01*
X35291000Y-77709690D01*
X35291000Y-78200250D01*
X35449750Y-78359000D01*
X36449000Y-78359000D01*
X36449000Y-77359750D01*
X36703000Y-77359750D01*
X36703000Y-78359000D01*
X36723000Y-78359000D01*
X36723000Y-78613000D01*
X36703000Y-78613000D01*
X36703000Y-79612250D01*
X36861750Y-79771000D01*
X37352309Y-79771000D01*
X37585698Y-79674327D01*
X37764327Y-79495699D01*
X37861000Y-79262310D01*
X37861000Y-78910433D01*
X37985995Y-79212943D01*
X38347155Y-79574735D01*
X38819276Y-79770777D01*
X39330481Y-79771223D01*
X39802943Y-79576005D01*
X40164735Y-79214845D01*
X40360777Y-78742724D01*
X40361223Y-78231519D01*
X40166005Y-77759057D01*
X39804845Y-77397265D01*
X39332724Y-77201223D01*
X38821519Y-77200777D01*
X38349057Y-77395995D01*
X37987265Y-77757155D01*
X37861000Y-78061235D01*
X37861000Y-77709690D01*
X37764327Y-77476301D01*
X37585698Y-77297673D01*
X37352309Y-77201000D01*
X36861750Y-77201000D01*
X36703000Y-77359750D01*
X36449000Y-77359750D01*
X36290250Y-77201000D01*
X35799691Y-77201000D01*
X35566302Y-77297673D01*
X35387673Y-77476301D01*
X35291000Y-77709690D01*
X34412930Y-77709690D01*
X34412930Y-77489050D01*
X34368652Y-77253733D01*
X34229580Y-77037609D01*
X34017380Y-76892619D01*
X33765490Y-76841610D01*
X31766510Y-76841610D01*
X31531193Y-76885888D01*
X31315069Y-77024960D01*
X31170079Y-77237160D01*
X31119070Y-77489050D01*
X23917758Y-77489050D01*
X23533073Y-77103694D01*
X23366000Y-77034319D01*
X23366000Y-73720802D01*
X23395052Y-73691750D01*
X35291000Y-73691750D01*
X35291000Y-74182310D01*
X35387673Y-74415699D01*
X35566302Y-74594327D01*
X35799691Y-74691000D01*
X36290250Y-74691000D01*
X36449000Y-74532250D01*
X36449000Y-73533000D01*
X35449750Y-73533000D01*
X35291000Y-73691750D01*
X23395052Y-73691750D01*
X24457112Y-72629690D01*
X35291000Y-72629690D01*
X35291000Y-73120250D01*
X35449750Y-73279000D01*
X36449000Y-73279000D01*
X36449000Y-72279750D01*
X36703000Y-72279750D01*
X36703000Y-73279000D01*
X36723000Y-73279000D01*
X36723000Y-73533000D01*
X36703000Y-73533000D01*
X36703000Y-74532250D01*
X36861750Y-74691000D01*
X37352309Y-74691000D01*
X37585698Y-74594327D01*
X37764327Y-74415699D01*
X37861000Y-74182310D01*
X37861000Y-73830433D01*
X37985995Y-74132943D01*
X38347155Y-74494735D01*
X38819276Y-74690777D01*
X39330481Y-74691223D01*
X39802943Y-74496005D01*
X40164735Y-74134845D01*
X40360777Y-73662724D01*
X40361223Y-73151519D01*
X40166005Y-72679057D01*
X39804845Y-72317265D01*
X39332724Y-72121223D01*
X38821519Y-72120777D01*
X38349057Y-72315995D01*
X37987265Y-72677155D01*
X37861000Y-72981235D01*
X37861000Y-72629690D01*
X37764327Y-72396301D01*
X37585698Y-72217673D01*
X37352309Y-72121000D01*
X36861750Y-72121000D01*
X36703000Y-72279750D01*
X36449000Y-72279750D01*
X36290250Y-72121000D01*
X35799691Y-72121000D01*
X35566302Y-72217673D01*
X35387673Y-72396301D01*
X35291000Y-72629690D01*
X24457112Y-72629690D01*
X25683401Y-71403401D01*
X25848148Y-71156840D01*
X25867358Y-71060263D01*
X25906000Y-70866000D01*
X25906000Y-68326000D01*
X25848148Y-68035161D01*
X25848148Y-68035160D01*
X25704274Y-67819837D01*
X25938192Y-67586327D01*
X26080838Y-67242799D01*
X26081162Y-66870833D01*
X25939117Y-66527057D01*
X25676327Y-66263808D01*
X25332799Y-66121162D01*
X25285923Y-66121121D01*
X24503440Y-65338638D01*
X24503440Y-64246000D01*
X24478979Y-64116000D01*
X25858560Y-64116000D01*
X25858560Y-64916000D01*
X25902838Y-65151317D01*
X26041910Y-65367441D01*
X26254110Y-65512431D01*
X26506000Y-65563440D01*
X26696000Y-65563440D01*
X26696000Y-66836160D01*
X26753852Y-67126999D01*
X26918599Y-67373561D01*
X28649565Y-69104527D01*
X28581124Y-69269352D01*
X28580556Y-69919795D01*
X28828946Y-70520943D01*
X29288477Y-70981278D01*
X29889192Y-71230716D01*
X30539635Y-71231284D01*
X31140783Y-70982894D01*
X31601118Y-70523363D01*
X31850556Y-69922648D01*
X31851124Y-69272205D01*
X31602734Y-68671057D01*
X31143203Y-68210722D01*
X30542488Y-67961284D01*
X30483602Y-67961233D01*
X30754943Y-67849117D01*
X31018192Y-67586327D01*
X31160838Y-67242799D01*
X31160960Y-67102702D01*
X31216000Y-66826000D01*
X31216000Y-66513440D01*
X31406000Y-66513440D01*
X31641317Y-66469162D01*
X31857441Y-66330090D01*
X32002431Y-66117890D01*
X32053440Y-65866000D01*
X32053440Y-65066000D01*
X32009162Y-64830683D01*
X31870090Y-64614559D01*
X31724917Y-64515367D01*
X31857441Y-64430090D01*
X31928563Y-64326000D01*
X34198560Y-64326000D01*
X34198560Y-65766000D01*
X34242838Y-66001317D01*
X34381910Y-66217441D01*
X34594110Y-66362431D01*
X34846000Y-66413440D01*
X36846000Y-66413440D01*
X37081317Y-66369162D01*
X37297441Y-66230090D01*
X37442431Y-66017890D01*
X37493440Y-65766000D01*
X37493440Y-63266000D01*
X38198560Y-63266000D01*
X38198560Y-65766000D01*
X38242838Y-66001317D01*
X38381910Y-66217441D01*
X38594110Y-66362431D01*
X38846000Y-66413440D01*
X40846000Y-66413440D01*
X41081317Y-66369162D01*
X41297441Y-66230090D01*
X41442431Y-66017890D01*
X41493440Y-65766000D01*
X41493440Y-63266000D01*
X41449162Y-63030683D01*
X41310090Y-62814559D01*
X41097890Y-62669569D01*
X40892000Y-62627875D01*
X40892000Y-61268463D01*
X40924192Y-61236327D01*
X41066838Y-60892799D01*
X41067162Y-60520833D01*
X40925117Y-60177057D01*
X40662327Y-59913808D01*
X40318799Y-59771162D01*
X39946833Y-59770838D01*
X39603057Y-59912883D01*
X39339808Y-60175673D01*
X39197162Y-60519201D01*
X39196838Y-60891167D01*
X39338883Y-61234943D01*
X39372000Y-61268118D01*
X39372000Y-62618560D01*
X38846000Y-62618560D01*
X38610683Y-62662838D01*
X38394559Y-62801910D01*
X38249569Y-63014110D01*
X38198560Y-63266000D01*
X37493440Y-63266000D01*
X37449162Y-63030683D01*
X37310090Y-62814559D01*
X37097890Y-62669569D01*
X36846000Y-62618560D01*
X34846000Y-62618560D01*
X34610683Y-62662838D01*
X34394559Y-62801910D01*
X34391764Y-62806000D01*
X34208941Y-62806000D01*
X34209162Y-62552833D01*
X34067117Y-62209057D01*
X34034000Y-62175882D01*
X34034000Y-58525026D01*
X38270642Y-58525026D01*
X38292473Y-58622157D01*
X38576127Y-59135868D01*
X39034778Y-59501925D01*
X39598600Y-59664600D01*
X40259000Y-59664600D01*
X40259000Y-58293000D01*
X40513000Y-58293000D01*
X40513000Y-59664600D01*
X41173400Y-59664600D01*
X41737222Y-59501925D01*
X42195873Y-59135868D01*
X42479527Y-58622157D01*
X42501358Y-58525026D01*
X42380217Y-58293000D01*
X40513000Y-58293000D01*
X40259000Y-58293000D01*
X38391783Y-58293000D01*
X38270642Y-58525026D01*
X34034000Y-58525026D01*
X34034000Y-57806974D01*
X38270642Y-57806974D01*
X38391783Y-58039000D01*
X40259000Y-58039000D01*
X40259000Y-56667400D01*
X40513000Y-56667400D01*
X40513000Y-58039000D01*
X42380217Y-58039000D01*
X42501358Y-57806974D01*
X42479527Y-57709843D01*
X42195873Y-57196132D01*
X41737222Y-56830075D01*
X41173400Y-56667400D01*
X40513000Y-56667400D01*
X40259000Y-56667400D01*
X39598600Y-56667400D01*
X39034778Y-56830075D01*
X38576127Y-57196132D01*
X38292473Y-57709843D01*
X38270642Y-57806974D01*
X34034000Y-57806974D01*
X34034000Y-53086000D01*
X38184703Y-53086000D01*
X38298777Y-53659489D01*
X38623633Y-54145670D01*
X39109814Y-54470526D01*
X39683303Y-54584600D01*
X41088697Y-54584600D01*
X41662186Y-54470526D01*
X42148367Y-54145670D01*
X42473223Y-53659489D01*
X42587297Y-53086000D01*
X42473223Y-52512511D01*
X42148367Y-52026330D01*
X41662186Y-51701474D01*
X41088697Y-51587400D01*
X39683303Y-51587400D01*
X39109814Y-51701474D01*
X38623633Y-52026330D01*
X38298777Y-52512511D01*
X38184703Y-53086000D01*
X34034000Y-53086000D01*
X34034000Y-45774463D01*
X34066192Y-45742327D01*
X34208838Y-45398799D01*
X34209002Y-45210000D01*
X35499198Y-45210000D01*
X41118599Y-50829401D01*
X41365161Y-50994148D01*
X41656000Y-51052000D01*
X45829897Y-51052000D01*
X45801162Y-51121201D01*
X45800838Y-51493167D01*
X45862707Y-51642902D01*
X45788833Y-51642838D01*
X45445057Y-51784883D01*
X45181808Y-52047673D01*
X45039162Y-52391201D01*
X45038838Y-52763167D01*
X45100707Y-52912902D01*
X45026833Y-52912838D01*
X44683057Y-53054883D01*
X44419808Y-53317673D01*
X44277162Y-53661201D01*
X44276838Y-54033167D01*
X44418883Y-54376943D01*
X44452000Y-54410118D01*
X44452000Y-73057653D01*
X44354831Y-72822485D01*
X43965564Y-72432539D01*
X43456702Y-72221241D01*
X42905715Y-72220760D01*
X42396485Y-72431169D01*
X42006539Y-72820436D01*
X41795241Y-73329298D01*
X41794760Y-73880285D01*
X42005169Y-74389515D01*
X42394436Y-74779461D01*
X42903298Y-74990759D01*
X43454285Y-74991240D01*
X43963515Y-74780831D01*
X44353461Y-74391564D01*
X44452000Y-74154256D01*
X44452000Y-77937653D01*
X44354831Y-77702485D01*
X43965564Y-77312539D01*
X43456702Y-77101241D01*
X42905715Y-77100760D01*
X42396485Y-77311169D01*
X42006539Y-77700436D01*
X41795241Y-78209298D01*
X41794760Y-78760285D01*
X42005169Y-79269515D01*
X42394436Y-79659461D01*
X42903298Y-79870759D01*
X43454285Y-79871240D01*
X43963515Y-79660831D01*
X44353461Y-79271564D01*
X44452000Y-79034256D01*
X44452000Y-83312000D01*
X44509852Y-83602839D01*
X44674599Y-83849401D01*
X47877312Y-87052114D01*
X47812887Y-87376000D01*
X47922120Y-87925151D01*
X48233189Y-88390698D01*
X48698736Y-88701767D01*
X49247887Y-88811000D01*
X49304113Y-88811000D01*
X49853264Y-88701767D01*
X50318811Y-88390698D01*
X50629880Y-87925151D01*
X50739113Y-87376000D01*
X50629880Y-86826849D01*
X50318811Y-86361302D01*
X49936725Y-86106000D01*
X50318811Y-85850698D01*
X50629880Y-85385151D01*
X50739113Y-84836000D01*
X50629880Y-84286849D01*
X50318811Y-83821302D01*
X49936725Y-83566000D01*
X50318811Y-83310698D01*
X50629880Y-82845151D01*
X50739113Y-82296000D01*
X50629880Y-81746849D01*
X50318811Y-81281302D01*
X49936725Y-81026000D01*
X50318811Y-80770698D01*
X50629880Y-80305151D01*
X50739113Y-79756000D01*
X50629880Y-79206849D01*
X50318811Y-78741302D01*
X49936725Y-78486000D01*
X50318811Y-78230698D01*
X50629880Y-77765151D01*
X50739113Y-77216000D01*
X50629880Y-76666849D01*
X50318811Y-76201302D01*
X49936725Y-75946000D01*
X50318811Y-75690698D01*
X50629880Y-75225151D01*
X50739113Y-74676000D01*
X50629880Y-74126849D01*
X50318811Y-73661302D01*
X49914297Y-73391014D01*
X50131134Y-73288389D01*
X50507041Y-72873423D01*
X50667904Y-72485039D01*
X50545915Y-72263000D01*
X49403000Y-72263000D01*
X49403000Y-72283000D01*
X49149000Y-72283000D01*
X49149000Y-72263000D01*
X49129000Y-72263000D01*
X49129000Y-72009000D01*
X49149000Y-72009000D01*
X49149000Y-71989000D01*
X49403000Y-71989000D01*
X49403000Y-72009000D01*
X50545915Y-72009000D01*
X50667904Y-71786961D01*
X50507041Y-71398577D01*
X50131134Y-70983611D01*
X49914297Y-70880986D01*
X50318811Y-70610698D01*
X50488995Y-70356000D01*
X53279198Y-70356000D01*
X54104000Y-71180802D01*
X54104000Y-73914000D01*
X54161852Y-74204839D01*
X54326599Y-74451401D01*
X55088599Y-75213401D01*
X55335161Y-75378148D01*
X55626000Y-75436000D01*
X55683005Y-75436000D01*
X55853189Y-75690698D01*
X56235275Y-75946000D01*
X55853189Y-76201302D01*
X55542120Y-76666849D01*
X55432887Y-77216000D01*
X55542120Y-77765151D01*
X55853189Y-78230698D01*
X56235275Y-78486000D01*
X55853189Y-78741302D01*
X55683005Y-78996000D01*
X53648463Y-78996000D01*
X53616327Y-78963808D01*
X53272799Y-78821162D01*
X52900833Y-78820838D01*
X52557057Y-78962883D01*
X52293808Y-79225673D01*
X52151162Y-79569201D01*
X52150838Y-79941167D01*
X52292883Y-80284943D01*
X52555673Y-80548192D01*
X52899201Y-80690838D01*
X53271167Y-80691162D01*
X53614943Y-80549117D01*
X53648118Y-80516000D01*
X55683005Y-80516000D01*
X55853189Y-80770698D01*
X56235275Y-81026000D01*
X55853189Y-81281302D01*
X55542120Y-81746849D01*
X55533537Y-81790000D01*
X54918463Y-81790000D01*
X54886327Y-81757808D01*
X54542799Y-81615162D01*
X54170833Y-81614838D01*
X53827057Y-81756883D01*
X53563808Y-82019673D01*
X53421162Y-82363201D01*
X53420838Y-82735167D01*
X53562883Y-83078943D01*
X53825673Y-83342192D01*
X54169201Y-83484838D01*
X54541167Y-83485162D01*
X54884943Y-83343117D01*
X54918118Y-83310000D01*
X55852723Y-83310000D01*
X55853189Y-83310698D01*
X56235275Y-83566000D01*
X55853189Y-83821302D01*
X55542120Y-84286849D01*
X55432887Y-84836000D01*
X55542120Y-85385151D01*
X55853189Y-85850698D01*
X56235275Y-86106000D01*
X55853189Y-86361302D01*
X55542120Y-86826849D01*
X55432887Y-87376000D01*
X55542120Y-87925151D01*
X55853189Y-88390698D01*
X56318736Y-88701767D01*
X56867887Y-88811000D01*
X56924113Y-88811000D01*
X57473264Y-88701767D01*
X57938811Y-88390698D01*
X58108995Y-88136000D01*
X58391198Y-88136000D01*
X62138560Y-91883362D01*
X62138560Y-93706000D01*
X62182838Y-93941317D01*
X62321910Y-94157441D01*
X62534110Y-94302431D01*
X62786000Y-94353440D01*
X64786000Y-94353440D01*
X65021317Y-94309162D01*
X65237441Y-94170090D01*
X65382431Y-93957890D01*
X65433440Y-93706000D01*
X65433440Y-91206000D01*
X65427006Y-91171808D01*
X66138560Y-91883362D01*
X66138560Y-93706000D01*
X66182838Y-93941317D01*
X66321910Y-94157441D01*
X66534110Y-94302431D01*
X66786000Y-94353440D01*
X68786000Y-94353440D01*
X69021317Y-94309162D01*
X69237441Y-94170090D01*
X69382431Y-93957890D01*
X69433440Y-93706000D01*
X69433440Y-91206000D01*
X69389162Y-90970683D01*
X69250090Y-90754559D01*
X69037890Y-90609569D01*
X68786000Y-90558560D01*
X66963362Y-90558560D01*
X66498629Y-90093827D01*
X66518440Y-89996000D01*
X66518440Y-89505319D01*
X66719110Y-89642431D01*
X66971000Y-89693440D01*
X68871000Y-89693440D01*
X69106317Y-89649162D01*
X69322441Y-89510090D01*
X69393563Y-89406000D01*
X74396600Y-89406000D01*
X74687439Y-89348148D01*
X74934001Y-89183401D01*
X75818088Y-88299314D01*
X75853452Y-88477099D01*
X76018199Y-88723661D01*
X78407900Y-91113362D01*
X78407900Y-91986000D01*
X78452178Y-92221317D01*
X78591250Y-92437441D01*
X78803450Y-92582431D01*
X79055340Y-92633440D01*
X80055340Y-92633440D01*
X80290657Y-92589162D01*
X80506781Y-92450090D01*
X80651771Y-92237890D01*
X80702780Y-91986000D01*
X80702780Y-90386000D01*
X80658502Y-90150683D01*
X80519430Y-89934559D01*
X80307230Y-89789569D01*
X80055340Y-89738560D01*
X79182702Y-89738560D01*
X77315600Y-87871458D01*
X77315600Y-87634440D01*
X77355600Y-87634440D01*
X77590917Y-87590162D01*
X77807041Y-87451090D01*
X77952031Y-87238890D01*
X78003040Y-86987000D01*
X78003040Y-85987000D01*
X77958762Y-85751683D01*
X77819690Y-85535559D01*
X77607490Y-85390569D01*
X77355600Y-85339560D01*
X75755600Y-85339560D01*
X75520283Y-85383838D01*
X75304159Y-85522910D01*
X75159169Y-85735110D01*
X75108160Y-85987000D01*
X75108160Y-86859638D01*
X74081798Y-87886000D01*
X69393931Y-87886000D01*
X69335090Y-87794559D01*
X69122890Y-87649569D01*
X68871000Y-87598560D01*
X66971000Y-87598560D01*
X66735683Y-87642838D01*
X66519559Y-87781910D01*
X66432936Y-87908686D01*
X66347250Y-87823000D01*
X65048000Y-87823000D01*
X65048000Y-87843000D01*
X64794000Y-87843000D01*
X64794000Y-87823000D01*
X63494750Y-87823000D01*
X63336000Y-87981750D01*
X63336000Y-88222310D01*
X63432673Y-88455699D01*
X63611302Y-88634327D01*
X63647747Y-88649423D01*
X63519559Y-88731910D01*
X63374569Y-88944110D01*
X63323560Y-89196000D01*
X63323560Y-89996000D01*
X63367838Y-90231317D01*
X63506910Y-90447441D01*
X63669538Y-90558560D01*
X62963362Y-90558560D01*
X59574492Y-87169690D01*
X63336000Y-87169690D01*
X63336000Y-87410250D01*
X63494750Y-87569000D01*
X64794000Y-87569000D01*
X64794000Y-86819750D01*
X65048000Y-86819750D01*
X65048000Y-87569000D01*
X66347250Y-87569000D01*
X66506000Y-87410250D01*
X66506000Y-87169690D01*
X66409327Y-86936301D01*
X66230698Y-86757673D01*
X65997309Y-86661000D01*
X65206750Y-86661000D01*
X65048000Y-86819750D01*
X64794000Y-86819750D01*
X64635250Y-86661000D01*
X63844691Y-86661000D01*
X63611302Y-86757673D01*
X63432673Y-86936301D01*
X63336000Y-87169690D01*
X59574492Y-87169690D01*
X59243401Y-86838599D01*
X58996839Y-86673852D01*
X58706000Y-86616000D01*
X58108995Y-86616000D01*
X57938811Y-86361302D01*
X57556725Y-86106000D01*
X57938811Y-85850698D01*
X58249880Y-85385151D01*
X58359113Y-84836000D01*
X58249880Y-84286849D01*
X57938811Y-83821302D01*
X57556725Y-83566000D01*
X57938811Y-83310698D01*
X58249880Y-82845151D01*
X58359113Y-82296000D01*
X58249880Y-81746849D01*
X57938811Y-81281302D01*
X57556725Y-81026000D01*
X57938811Y-80770698D01*
X58249880Y-80305151D01*
X58359113Y-79756000D01*
X58249880Y-79206849D01*
X57938811Y-78741302D01*
X57556725Y-78486000D01*
X57938811Y-78230698D01*
X58108995Y-77976000D01*
X58166000Y-77976000D01*
X58456839Y-77918148D01*
X58703401Y-77753401D01*
X59719401Y-76737401D01*
X59884148Y-76490839D01*
X59942000Y-76200000D01*
X59942000Y-76170850D01*
X67711124Y-76170850D01*
X67883611Y-76588301D01*
X68202719Y-76907967D01*
X68619868Y-77081182D01*
X69071550Y-77081576D01*
X69489001Y-76909089D01*
X69595906Y-76802370D01*
X69701319Y-76907967D01*
X70118468Y-77081182D01*
X70570150Y-77081576D01*
X70987601Y-76909089D01*
X71307267Y-76589981D01*
X71480482Y-76172832D01*
X71480876Y-75721150D01*
X71308389Y-75303699D01*
X70989281Y-74984033D01*
X70572132Y-74810818D01*
X70120450Y-74810424D01*
X69702999Y-74982911D01*
X69596094Y-75089630D01*
X69490681Y-74984033D01*
X69073532Y-74810818D01*
X68621850Y-74810424D01*
X68204399Y-74982911D01*
X67884733Y-75302019D01*
X67711518Y-75719168D01*
X67711124Y-76170850D01*
X59942000Y-76170850D01*
X59942000Y-61268463D01*
X59974192Y-61236327D01*
X60029156Y-61103958D01*
X62613599Y-63688401D01*
X62860161Y-63853148D01*
X63151000Y-63911000D01*
X63253560Y-63911000D01*
X63253560Y-64151000D01*
X63297838Y-64386317D01*
X63436910Y-64602441D01*
X63649110Y-64747431D01*
X63901000Y-64798440D01*
X66401000Y-64798440D01*
X66636317Y-64754162D01*
X66852441Y-64615090D01*
X66949189Y-64473495D01*
X66891000Y-64766030D01*
X66891000Y-65511198D01*
X66768581Y-65633617D01*
X66652890Y-65554569D01*
X66401000Y-65503560D01*
X63901000Y-65503560D01*
X63665683Y-65547838D01*
X63449559Y-65686910D01*
X63304569Y-65899110D01*
X63253560Y-66151000D01*
X63253560Y-68151000D01*
X63297838Y-68386317D01*
X63436910Y-68602441D01*
X63649110Y-68747431D01*
X63901000Y-68798440D01*
X64385832Y-68798440D01*
X64343162Y-68901201D01*
X64342838Y-69273167D01*
X64484883Y-69616943D01*
X64747673Y-69880192D01*
X65091201Y-70022838D01*
X65463167Y-70023162D01*
X65806943Y-69881117D01*
X66070192Y-69618327D01*
X66212838Y-69274799D01*
X66213162Y-68902833D01*
X66170028Y-68798440D01*
X66401000Y-68798440D01*
X66636317Y-68754162D01*
X66852441Y-68615090D01*
X66997431Y-68402890D01*
X67048440Y-68151000D01*
X67048440Y-67503362D01*
X67724826Y-66826976D01*
X67776849Y-66861737D01*
X68326000Y-66970970D01*
X68417890Y-66952692D01*
X69153599Y-67688401D01*
X69400161Y-67853148D01*
X69691000Y-67911000D01*
X77223560Y-67911000D01*
X77223560Y-68151000D01*
X77267838Y-68386317D01*
X77406910Y-68602441D01*
X77619110Y-68747431D01*
X77871000Y-68798440D01*
X80240758Y-68798440D01*
X80203198Y-68836000D01*
X76231000Y-68836000D01*
X75940160Y-68893852D01*
X75693599Y-69058599D01*
X73735605Y-71016593D01*
X73406000Y-70951030D01*
X72856849Y-71060263D01*
X72391302Y-71371332D01*
X72136000Y-71753418D01*
X71880698Y-71371332D01*
X71415151Y-71060263D01*
X70866000Y-70951030D01*
X70316849Y-71060263D01*
X69851302Y-71371332D01*
X69596000Y-71753418D01*
X69340698Y-71371332D01*
X68875151Y-71060263D01*
X68326000Y-70951030D01*
X67776849Y-71060263D01*
X67311302Y-71371332D01*
X67000233Y-71836879D01*
X66891000Y-72386030D01*
X66891000Y-73155970D01*
X67000233Y-73705121D01*
X67311302Y-74170668D01*
X67776849Y-74481737D01*
X68326000Y-74590970D01*
X68875151Y-74481737D01*
X69340698Y-74170668D01*
X69596000Y-73788582D01*
X69851302Y-74170668D01*
X70316849Y-74481737D01*
X70866000Y-74590970D01*
X71415151Y-74481737D01*
X71880698Y-74170668D01*
X72136000Y-73788582D01*
X72391302Y-74170668D01*
X72856849Y-74481737D01*
X73406000Y-74590970D01*
X73955151Y-74481737D01*
X74420698Y-74170668D01*
X74673149Y-73792849D01*
X75021104Y-74225500D01*
X75514181Y-74495367D01*
X75596961Y-74512904D01*
X75819000Y-74390915D01*
X75819000Y-72898000D01*
X76073000Y-72898000D01*
X76073000Y-74390915D01*
X76295039Y-74512904D01*
X76377819Y-74495367D01*
X76870896Y-74225500D01*
X77223166Y-73787483D01*
X77381000Y-73248000D01*
X77381000Y-72898000D01*
X76073000Y-72898000D01*
X75819000Y-72898000D01*
X75799000Y-72898000D01*
X75799000Y-72644000D01*
X75819000Y-72644000D01*
X75819000Y-71151085D01*
X76073000Y-71151085D01*
X76073000Y-72644000D01*
X77381000Y-72644000D01*
X77381000Y-72294000D01*
X77223166Y-71754517D01*
X76870896Y-71316500D01*
X76377819Y-71046633D01*
X76295039Y-71029096D01*
X76073000Y-71151085D01*
X75819000Y-71151085D01*
X75774929Y-71126873D01*
X76545802Y-70356000D01*
X80518000Y-70356000D01*
X80808839Y-70298148D01*
X81055401Y-70133401D01*
X81817401Y-69371401D01*
X81982148Y-69124839D01*
X82040000Y-68834000D01*
X82040000Y-52481000D01*
X81982148Y-52190161D01*
X81817401Y-51943599D01*
X79133440Y-49259638D01*
X79133440Y-46897000D01*
X79089162Y-46661683D01*
X78950090Y-46445559D01*
X78737890Y-46300569D01*
X78486000Y-46249560D01*
X73406000Y-46249560D01*
X73170683Y-46293838D01*
X72954559Y-46432910D01*
X72809569Y-46645110D01*
X72758560Y-46897000D01*
X72758560Y-49687000D01*
X72802838Y-49922317D01*
X72941910Y-50138441D01*
X73154110Y-50283431D01*
X73406000Y-50334440D01*
X78058638Y-50334440D01*
X79342115Y-51617917D01*
X79188697Y-51587400D01*
X77783303Y-51587400D01*
X77209814Y-51701474D01*
X76723633Y-52026330D01*
X76398777Y-52512511D01*
X76284703Y-53086000D01*
X76398777Y-53659489D01*
X76723633Y-54145670D01*
X77209814Y-54470526D01*
X77783303Y-54584600D01*
X79188697Y-54584600D01*
X79762186Y-54470526D01*
X80248367Y-54145670D01*
X80520000Y-53739143D01*
X80520000Y-57602037D01*
X80295873Y-57196132D01*
X79837222Y-56830075D01*
X79273400Y-56667400D01*
X78613000Y-56667400D01*
X78613000Y-58039000D01*
X78633000Y-58039000D01*
X78633000Y-58293000D01*
X78613000Y-58293000D01*
X78613000Y-59664600D01*
X79273400Y-59664600D01*
X79837222Y-59501925D01*
X80295873Y-59135868D01*
X80520000Y-58729963D01*
X80520000Y-61533733D01*
X80371000Y-61503560D01*
X77871000Y-61503560D01*
X77635683Y-61547838D01*
X77419559Y-61686910D01*
X77274569Y-61899110D01*
X77223560Y-62151000D01*
X77223560Y-62391000D01*
X74771000Y-62391000D01*
X74480161Y-62448852D01*
X74233599Y-62613599D01*
X73497890Y-63349308D01*
X73406000Y-63331030D01*
X73314110Y-63349308D01*
X69498401Y-59533599D01*
X69251839Y-59368852D01*
X68961000Y-59311000D01*
X67376441Y-59311000D01*
X67595873Y-59135868D01*
X67879527Y-58622157D01*
X67901358Y-58525026D01*
X76370642Y-58525026D01*
X76392473Y-58622157D01*
X76676127Y-59135868D01*
X77134778Y-59501925D01*
X77698600Y-59664600D01*
X78359000Y-59664600D01*
X78359000Y-58293000D01*
X76491783Y-58293000D01*
X76370642Y-58525026D01*
X67901358Y-58525026D01*
X67780217Y-58293000D01*
X65913000Y-58293000D01*
X65913000Y-58313000D01*
X65659000Y-58313000D01*
X65659000Y-58293000D01*
X63791783Y-58293000D01*
X63670642Y-58525026D01*
X63692473Y-58622157D01*
X63976127Y-59135868D01*
X64195559Y-59311000D01*
X62925803Y-59311000D01*
X61421777Y-57806974D01*
X63670642Y-57806974D01*
X63791783Y-58039000D01*
X65659000Y-58039000D01*
X65659000Y-56667400D01*
X65913000Y-56667400D01*
X65913000Y-58039000D01*
X67780217Y-58039000D01*
X67901358Y-57806974D01*
X76370642Y-57806974D01*
X76491783Y-58039000D01*
X78359000Y-58039000D01*
X78359000Y-56667400D01*
X77698600Y-56667400D01*
X77134778Y-56830075D01*
X76676127Y-57196132D01*
X76392473Y-57709843D01*
X76370642Y-57806974D01*
X67901358Y-57806974D01*
X67879527Y-57709843D01*
X67595873Y-57196132D01*
X67137222Y-56830075D01*
X66573400Y-56667400D01*
X65913000Y-56667400D01*
X65659000Y-56667400D01*
X64998600Y-56667400D01*
X64434778Y-56830075D01*
X63976127Y-57196132D01*
X63692473Y-57709843D01*
X63670642Y-57806974D01*
X61421777Y-57806974D01*
X58294688Y-54679886D01*
X58359113Y-54356000D01*
X58257668Y-53846000D01*
X63823400Y-53846000D01*
X64023633Y-54145670D01*
X64509814Y-54470526D01*
X65083303Y-54584600D01*
X66488697Y-54584600D01*
X67062186Y-54470526D01*
X67548367Y-54145670D01*
X67873223Y-53659489D01*
X67987297Y-53086000D01*
X67873223Y-52512511D01*
X67548367Y-52026330D01*
X67062186Y-51701474D01*
X66488697Y-51587400D01*
X65083303Y-51587400D01*
X64509814Y-51701474D01*
X64023633Y-52026330D01*
X63823400Y-52326000D01*
X56444802Y-52326000D01*
X57433401Y-51337401D01*
X57598148Y-51090840D01*
X57607746Y-51042586D01*
X57656000Y-50800000D01*
X57656000Y-48036879D01*
X57886900Y-48132757D01*
X58442661Y-48133242D01*
X58610497Y-48063894D01*
X58501162Y-48327201D01*
X58500838Y-48699167D01*
X58642883Y-49042943D01*
X58905673Y-49306192D01*
X59249201Y-49448838D01*
X59621167Y-49449162D01*
X59964943Y-49307117D01*
X60228192Y-49044327D01*
X60370838Y-48700799D01*
X60371162Y-48328833D01*
X60260158Y-48060183D01*
X60498302Y-48145144D01*
X61053368Y-48117362D01*
X61437143Y-47958397D01*
X61506608Y-47716213D01*
X60706000Y-46915605D01*
X60691858Y-46929748D01*
X60512253Y-46750143D01*
X60526395Y-46736000D01*
X60512253Y-46721858D01*
X60691858Y-46542253D01*
X60706000Y-46556395D01*
X60720143Y-46542253D01*
X60899748Y-46721858D01*
X60885605Y-46736000D01*
X61686213Y-47536608D01*
X61724000Y-47525770D01*
X61724000Y-49215198D01*
X60820320Y-50118878D01*
X60774833Y-50118838D01*
X60431057Y-50260883D01*
X60167808Y-50523673D01*
X60025162Y-50867201D01*
X60024838Y-51239167D01*
X60166883Y-51582943D01*
X60429673Y-51846192D01*
X60773201Y-51988838D01*
X61145167Y-51989162D01*
X61488943Y-51847117D01*
X61752192Y-51584327D01*
X61894838Y-51240799D01*
X61894879Y-51193923D01*
X63021401Y-50067401D01*
X63186148Y-49820840D01*
X63212770Y-49687000D01*
X63244000Y-49530000D01*
X63244000Y-46228000D01*
X63186148Y-45937161D01*
X63021401Y-45690599D01*
X61641122Y-44310320D01*
X61641162Y-44264833D01*
X61499117Y-43921057D01*
X61236327Y-43657808D01*
X61103958Y-43602844D01*
X61227881Y-43478921D01*
X61579075Y-43166095D01*
X69281510Y-43166095D01*
X70340894Y-44252831D01*
X73802555Y-45794113D01*
X77590536Y-45893353D01*
X81128152Y-44535441D01*
X81551106Y-44252831D01*
X82610490Y-43166095D01*
X75946000Y-36501605D01*
X69281510Y-43166095D01*
X61579075Y-43166095D01*
X62031117Y-42763440D01*
X63988000Y-42763440D01*
X64223317Y-42719162D01*
X64439441Y-42580090D01*
X64584431Y-42367890D01*
X64635440Y-42116000D01*
X64635440Y-40116000D01*
X64591162Y-39880683D01*
X64452090Y-39664559D01*
X64239890Y-39519569D01*
X63988000Y-39468560D01*
X61488000Y-39468560D01*
X61252683Y-39512838D01*
X61036559Y-39651910D01*
X60891569Y-39864110D01*
X60840560Y-40116000D01*
X60840560Y-41788356D01*
X60825440Y-41801824D01*
X60825440Y-40116000D01*
X60781162Y-39880683D01*
X60642090Y-39664559D01*
X60429890Y-39519569D01*
X60178000Y-39468560D01*
X57678000Y-39468560D01*
X57442683Y-39512838D01*
X57226559Y-39651910D01*
X57081569Y-39864110D01*
X57030560Y-40116000D01*
X57030560Y-42116000D01*
X57074838Y-42351317D01*
X57107352Y-42401846D01*
X56358599Y-43150599D01*
X56193852Y-43397161D01*
X56136000Y-43688000D01*
X56136000Y-44901198D01*
X53998242Y-42763440D01*
X56368000Y-42763440D01*
X56603317Y-42719162D01*
X56819441Y-42580090D01*
X56964431Y-42367890D01*
X57015440Y-42116000D01*
X57015440Y-40116000D01*
X56971162Y-39880683D01*
X56832090Y-39664559D01*
X56619890Y-39519569D01*
X56368000Y-39468560D01*
X55878000Y-39468560D01*
X55878000Y-39424463D01*
X55910192Y-39392327D01*
X56052838Y-39048799D01*
X56053087Y-38763440D01*
X56368000Y-38763440D01*
X56603317Y-38719162D01*
X56819441Y-38580090D01*
X56964431Y-38367890D01*
X57015440Y-38116000D01*
X57015440Y-36116000D01*
X56971162Y-35880683D01*
X56832090Y-35664559D01*
X56619890Y-35519569D01*
X56368000Y-35468560D01*
X55878000Y-35468560D01*
X55878000Y-34036000D01*
X55820148Y-33745161D01*
X55655401Y-33498599D01*
X54893401Y-32736599D01*
X54646839Y-32571852D01*
X54356000Y-32514000D01*
X54043605Y-32514000D01*
X54269629Y-32288370D01*
X54355949Y-32080488D01*
X54440990Y-32286303D01*
X54833630Y-32679629D01*
X55346900Y-32892757D01*
X55902661Y-32893242D01*
X56416303Y-32681010D01*
X56809629Y-32288370D01*
X56895949Y-32080488D01*
X56980990Y-32286303D01*
X57373630Y-32679629D01*
X57886900Y-32892757D01*
X58168000Y-32893002D01*
X58168000Y-35468560D01*
X57678000Y-35468560D01*
X57442683Y-35512838D01*
X57226559Y-35651910D01*
X57081569Y-35864110D01*
X57030560Y-36116000D01*
X57030560Y-38116000D01*
X57074838Y-38351317D01*
X57213910Y-38567441D01*
X57426110Y-38712431D01*
X57678000Y-38763440D01*
X60178000Y-38763440D01*
X60413317Y-38719162D01*
X60629441Y-38580090D01*
X60774431Y-38367890D01*
X60825440Y-38116000D01*
X60825440Y-36116000D01*
X60781162Y-35880683D01*
X60642090Y-35664559D01*
X60429890Y-35519569D01*
X60178000Y-35468560D01*
X59688000Y-35468560D01*
X59688000Y-32453605D01*
X59913630Y-32679629D01*
X60426900Y-32892757D01*
X60982661Y-32893242D01*
X61015055Y-32879857D01*
X61978000Y-33842802D01*
X61978000Y-35468560D01*
X61488000Y-35468560D01*
X61252683Y-35512838D01*
X61036559Y-35651910D01*
X60891569Y-35864110D01*
X60840560Y-36116000D01*
X60840560Y-38116000D01*
X60884838Y-38351317D01*
X61023910Y-38567441D01*
X61236110Y-38712431D01*
X61488000Y-38763440D01*
X63988000Y-38763440D01*
X64223317Y-38719162D01*
X64439441Y-38580090D01*
X64584431Y-38367890D01*
X64635440Y-38116000D01*
X64635440Y-37966536D01*
X66374647Y-37966536D01*
X67732559Y-41504152D01*
X68015169Y-41927106D01*
X69101905Y-42986490D01*
X75766395Y-36322000D01*
X76125605Y-36322000D01*
X82790095Y-42986490D01*
X83876831Y-41927106D01*
X85418113Y-38465445D01*
X85517353Y-34677464D01*
X84159441Y-31139848D01*
X83876831Y-30716894D01*
X82790095Y-29657510D01*
X76125605Y-36322000D01*
X75766395Y-36322000D01*
X69101905Y-29657510D01*
X68015169Y-30716894D01*
X66473887Y-34178555D01*
X66374647Y-37966536D01*
X64635440Y-37966536D01*
X64635440Y-36116000D01*
X64591162Y-35880683D01*
X64452090Y-35664559D01*
X64239890Y-35519569D01*
X63988000Y-35468560D01*
X63498000Y-35468560D01*
X63498000Y-33528000D01*
X63440148Y-33237161D01*
X63275401Y-32990599D01*
X62090183Y-31805381D01*
X62102757Y-31775100D01*
X62103242Y-31219339D01*
X61891010Y-30705697D01*
X61498370Y-30312371D01*
X60985100Y-30099243D01*
X60429339Y-30098758D01*
X59915697Y-30310990D01*
X59522371Y-30703630D01*
X59436051Y-30911512D01*
X59351010Y-30705697D01*
X58958370Y-30312371D01*
X58445100Y-30099243D01*
X57889339Y-30098758D01*
X57375697Y-30310990D01*
X56982371Y-30703630D01*
X56896051Y-30911512D01*
X56811010Y-30705697D01*
X56418370Y-30312371D01*
X55905100Y-30099243D01*
X55349339Y-30098758D01*
X54835697Y-30310990D01*
X54442371Y-30703630D01*
X54356051Y-30911512D01*
X54271010Y-30705697D01*
X53878370Y-30312371D01*
X53365100Y-30099243D01*
X52809339Y-30098758D01*
X52295697Y-30310990D01*
X51902371Y-30703630D01*
X51816051Y-30911512D01*
X51731010Y-30705697D01*
X51338370Y-30312371D01*
X50825100Y-30099243D01*
X50269339Y-30098758D01*
X49755697Y-30310990D01*
X49362371Y-30703630D01*
X49276051Y-30911512D01*
X49191010Y-30705697D01*
X48798370Y-30312371D01*
X48285100Y-30099243D01*
X47729339Y-30098758D01*
X47215697Y-30310990D01*
X46822371Y-30703630D01*
X46736051Y-30911512D01*
X46651010Y-30705697D01*
X46258370Y-30312371D01*
X45745100Y-30099243D01*
X45189339Y-30098758D01*
X44675697Y-30310990D01*
X44282371Y-30703630D01*
X44069243Y-31216900D01*
X44068758Y-31772661D01*
X44280990Y-32286303D01*
X44508290Y-32514000D01*
X33274000Y-32514000D01*
X32983161Y-32571852D01*
X32736599Y-32736599D01*
X31974599Y-33498599D01*
X31809852Y-33745161D01*
X31752000Y-34036000D01*
X31752000Y-35468560D01*
X31262000Y-35468560D01*
X31026683Y-35512838D01*
X30810559Y-35651910D01*
X30665569Y-35864110D01*
X30614560Y-36116000D01*
X30614560Y-38116000D01*
X30658838Y-38351317D01*
X30797910Y-38567441D01*
X31010110Y-38712431D01*
X31262000Y-38763440D01*
X33762000Y-38763440D01*
X33997317Y-38719162D01*
X34213441Y-38580090D01*
X34289974Y-38468081D01*
X34353910Y-38567441D01*
X34566110Y-38712431D01*
X34818000Y-38763440D01*
X35201992Y-38763440D01*
X35133162Y-38929201D01*
X35132838Y-39301167D01*
X35202003Y-39468560D01*
X34818000Y-39468560D01*
X34582683Y-39512838D01*
X34366559Y-39651910D01*
X34290026Y-39763919D01*
X34226090Y-39664559D01*
X34013890Y-39519569D01*
X33762000Y-39468560D01*
X31262000Y-39468560D01*
X31026683Y-39512838D01*
X30810559Y-39651910D01*
X30665569Y-39864110D01*
X30614560Y-40116000D01*
X30614560Y-42116000D01*
X30658838Y-42351317D01*
X30797910Y-42567441D01*
X31010110Y-42712431D01*
X31262000Y-42763440D01*
X31752000Y-42763440D01*
X31752000Y-42926000D01*
X31809852Y-43216839D01*
X31974599Y-43463401D01*
X32875983Y-44364785D01*
X32745057Y-44418883D01*
X32481808Y-44681673D01*
X32339162Y-45025201D01*
X32338838Y-45397167D01*
X32480883Y-45740943D01*
X32514000Y-45774118D01*
X32514000Y-62175537D01*
X32481808Y-62207673D01*
X32339162Y-62551201D01*
X32338940Y-62806000D01*
X31928931Y-62806000D01*
X31870090Y-62714559D01*
X31657890Y-62569569D01*
X31406000Y-62518560D01*
X29506000Y-62518560D01*
X29270683Y-62562838D01*
X29054559Y-62701910D01*
X28909569Y-62914110D01*
X28858560Y-63166000D01*
X28858560Y-63656681D01*
X28657890Y-63519569D01*
X28406000Y-63468560D01*
X26506000Y-63468560D01*
X26270683Y-63512838D01*
X26054559Y-63651910D01*
X25909569Y-63864110D01*
X25858560Y-64116000D01*
X24478979Y-64116000D01*
X24459162Y-64010683D01*
X24320090Y-63794559D01*
X24107890Y-63649569D01*
X23856000Y-63598560D01*
X21356000Y-63598560D01*
X21120683Y-63642838D01*
X20904559Y-63781910D01*
X20759569Y-63994110D01*
X20708560Y-64246000D01*
X19481000Y-64246000D01*
X19481000Y-54726000D01*
X19788560Y-54726000D01*
X19788560Y-56526000D01*
X19832838Y-56761317D01*
X19971910Y-56977441D01*
X20184110Y-57122431D01*
X20436000Y-57173440D01*
X22236000Y-57173440D01*
X22471317Y-57129162D01*
X22687441Y-56990090D01*
X22832431Y-56777890D01*
X22836567Y-56757466D01*
X23005357Y-56926551D01*
X23116000Y-56972494D01*
X23116000Y-57851198D01*
X22068599Y-58898599D01*
X21903852Y-59145161D01*
X21846000Y-59436000D01*
X21846000Y-59598560D01*
X21356000Y-59598560D01*
X21120683Y-59642838D01*
X20904559Y-59781910D01*
X20759569Y-59994110D01*
X20708560Y-60246000D01*
X20708560Y-62246000D01*
X20752838Y-62481317D01*
X20891910Y-62697441D01*
X21104110Y-62842431D01*
X21356000Y-62893440D01*
X23856000Y-62893440D01*
X24091317Y-62849162D01*
X24307441Y-62710090D01*
X24452431Y-62497890D01*
X24503440Y-62246000D01*
X24503440Y-60246000D01*
X24459162Y-60010683D01*
X24320090Y-59794559D01*
X24107890Y-59649569D01*
X23856000Y-59598560D01*
X23518242Y-59598560D01*
X24413401Y-58703401D01*
X24532587Y-58525026D01*
X25570642Y-58525026D01*
X25592473Y-58622157D01*
X25876127Y-59135868D01*
X26334778Y-59501925D01*
X26898600Y-59664600D01*
X27559000Y-59664600D01*
X27559000Y-58293000D01*
X27813000Y-58293000D01*
X27813000Y-59664600D01*
X28473400Y-59664600D01*
X29037222Y-59501925D01*
X29495873Y-59135868D01*
X29779527Y-58622157D01*
X29801358Y-58525026D01*
X29680217Y-58293000D01*
X27813000Y-58293000D01*
X27559000Y-58293000D01*
X25691783Y-58293000D01*
X25570642Y-58525026D01*
X24532587Y-58525026D01*
X24578148Y-58456840D01*
X24636000Y-58166000D01*
X24636000Y-57806974D01*
X25570642Y-57806974D01*
X25691783Y-58039000D01*
X27559000Y-58039000D01*
X27559000Y-56667400D01*
X27813000Y-56667400D01*
X27813000Y-58039000D01*
X29680217Y-58039000D01*
X29801358Y-57806974D01*
X29779527Y-57709843D01*
X29495873Y-57196132D01*
X29037222Y-56830075D01*
X28473400Y-56667400D01*
X27813000Y-56667400D01*
X27559000Y-56667400D01*
X26898600Y-56667400D01*
X26334778Y-56830075D01*
X25876127Y-57196132D01*
X25592473Y-57709843D01*
X25570642Y-57806974D01*
X24636000Y-57806974D01*
X24636000Y-56972846D01*
X24744371Y-56928068D01*
X25176551Y-56496643D01*
X25410733Y-55932670D01*
X25411265Y-55322009D01*
X25178068Y-54757629D01*
X24746643Y-54325449D01*
X24182670Y-54091267D01*
X23572009Y-54090735D01*
X23007629Y-54323932D01*
X22839387Y-54491880D01*
X22839162Y-54490683D01*
X22700090Y-54274559D01*
X22487890Y-54129569D01*
X22236000Y-54078560D01*
X22096000Y-54078560D01*
X22096000Y-53086000D01*
X25484703Y-53086000D01*
X25598777Y-53659489D01*
X25923633Y-54145670D01*
X26409814Y-54470526D01*
X26983303Y-54584600D01*
X28388697Y-54584600D01*
X28962186Y-54470526D01*
X29448367Y-54145670D01*
X29773223Y-53659489D01*
X29887297Y-53086000D01*
X29773223Y-52512511D01*
X29448367Y-52026330D01*
X28962186Y-51701474D01*
X28388697Y-51587400D01*
X26983303Y-51587400D01*
X26409814Y-51701474D01*
X25923633Y-52026330D01*
X25598777Y-52512511D01*
X25484703Y-53086000D01*
X22096000Y-53086000D01*
X22096000Y-44132500D01*
X22530060Y-44132500D01*
X22530060Y-45529500D01*
X22574338Y-45764817D01*
X22713410Y-45980941D01*
X22925610Y-46125931D01*
X23177500Y-46176940D01*
X23629361Y-46176940D01*
X23876000Y-46226000D01*
X24122639Y-46176940D01*
X24574500Y-46176940D01*
X24809817Y-46132662D01*
X25025941Y-45993590D01*
X25170931Y-45781390D01*
X25221940Y-45529500D01*
X25221940Y-44132500D01*
X25177662Y-43897183D01*
X25038590Y-43681059D01*
X24826390Y-43536069D01*
X24574500Y-43485060D01*
X24510360Y-43485060D01*
X24568929Y-43460800D01*
X24630583Y-43225188D01*
X23876000Y-42470605D01*
X23121417Y-43225188D01*
X23183071Y-43460800D01*
X23251998Y-43485060D01*
X23177500Y-43485060D01*
X22942183Y-43529338D01*
X22726059Y-43668410D01*
X22581069Y-43880610D01*
X22530060Y-44132500D01*
X22096000Y-44132500D01*
X22096000Y-42605802D01*
X22533847Y-42167955D01*
X22558852Y-42628199D01*
X22706200Y-42983929D01*
X22941812Y-43045583D01*
X23696395Y-42291000D01*
X24055605Y-42291000D01*
X24810188Y-43045583D01*
X25045800Y-42983929D01*
X25221927Y-42483520D01*
X25193148Y-41953801D01*
X25045800Y-41598071D01*
X24810188Y-41536417D01*
X24055605Y-42291000D01*
X23696395Y-42291000D01*
X23682253Y-42276858D01*
X23861858Y-42097253D01*
X23876000Y-42111395D01*
X24630583Y-41356812D01*
X24568929Y-41121200D01*
X24289688Y-41022917D01*
X24630380Y-40882146D01*
X25005827Y-40507353D01*
X25209268Y-40017413D01*
X25209731Y-39486914D01*
X25007146Y-38996620D01*
X24632353Y-38621173D01*
X24142413Y-38417732D01*
X23611914Y-38417269D01*
X23121620Y-38619854D01*
X22746173Y-38994647D01*
X22542732Y-39484587D01*
X22542274Y-40009924D01*
X20798599Y-41753599D01*
X20633852Y-42000161D01*
X20576000Y-42291000D01*
X20576000Y-54078560D01*
X20436000Y-54078560D01*
X20200683Y-54122838D01*
X19984559Y-54261910D01*
X19839569Y-54474110D01*
X19788560Y-54726000D01*
X19481000Y-54726000D01*
X19481000Y-29477905D01*
X69281510Y-29477905D01*
X75946000Y-36142395D01*
X82610490Y-29477905D01*
X81551106Y-28391169D01*
X78089445Y-26849887D01*
X74301464Y-26750647D01*
X70763848Y-28108559D01*
X70340894Y-28391169D01*
X69281510Y-29477905D01*
X19481000Y-29477905D01*
X19481000Y-22957000D01*
X72758560Y-22957000D01*
X72758560Y-25747000D01*
X72802838Y-25982317D01*
X72941910Y-26198441D01*
X73154110Y-26343431D01*
X73406000Y-26394440D01*
X78486000Y-26394440D01*
X78721317Y-26350162D01*
X78937441Y-26211090D01*
X79082431Y-25998890D01*
X79133440Y-25747000D01*
X79133440Y-22957000D01*
X79089162Y-22721683D01*
X78950090Y-22505559D01*
X78737890Y-22360569D01*
X78486000Y-22309560D01*
X73406000Y-22309560D01*
X73170683Y-22353838D01*
X72954559Y-22492910D01*
X72809569Y-22705110D01*
X72758560Y-22957000D01*
X19481000Y-22957000D01*
X19481000Y-18846000D01*
X86691000Y-18846000D01*
X86691000Y-103836000D01*
X86691000Y-103836000D01*
G37*
X86691000Y-103836000D02*
X19481000Y-103836000D01*
X19481000Y-86960401D01*
X24289599Y-86960401D01*
X24289599Y-96677599D01*
X24293952Y-96699481D01*
X24290873Y-96721575D01*
X24322734Y-96844179D01*
X24347451Y-96968438D01*
X24359846Y-96986989D01*
X24365457Y-97008580D01*
X24441817Y-97109667D01*
X24512198Y-97215000D01*
X24530746Y-97227393D01*
X24544194Y-97245196D01*
X31498595Y-103437597D01*
X31607835Y-103501771D01*
X31713161Y-103572148D01*
X31735040Y-103576500D01*
X31754277Y-103587801D01*
X31879748Y-103605284D01*
X32004000Y-103630000D01*
X52832000Y-103630000D01*
X53122839Y-103572148D01*
X53369401Y-103407401D01*
X55005592Y-101771210D01*
X55372000Y-101844093D01*
X55940285Y-101731054D01*
X56422054Y-101409147D01*
X56743961Y-100927378D01*
X56857000Y-100359093D01*
X56857000Y-100300907D01*
X56743961Y-99732622D01*
X56422054Y-99250853D01*
X56420821Y-99250029D01*
X56457317Y-99243162D01*
X56673441Y-99104090D01*
X56818431Y-98891890D01*
X56869440Y-98640000D01*
X56869440Y-96940000D01*
X56825162Y-96704683D01*
X56686090Y-96488559D01*
X56473890Y-96343569D01*
X56222000Y-96292560D01*
X54522000Y-96292560D01*
X54286683Y-96336838D01*
X54070559Y-96475910D01*
X53925569Y-96688110D01*
X53911914Y-96755541D01*
X53882054Y-96710853D01*
X53400285Y-96388946D01*
X52832000Y-96275907D01*
X52263715Y-96388946D01*
X51781946Y-96710853D01*
X51562000Y-97040026D01*
X51342054Y-96710853D01*
X50860285Y-96388946D01*
X50292000Y-96275907D01*
X49723715Y-96388946D01*
X49241946Y-96710853D01*
X48920039Y-97192622D01*
X48807000Y-97760907D01*
X48807000Y-97819093D01*
X48920039Y-98387378D01*
X49241946Y-98869147D01*
X49525101Y-99058345D01*
X49525076Y-99058355D01*
X49096817Y-99448642D01*
X48850514Y-99973108D01*
X48971181Y-100203000D01*
X50165000Y-100203000D01*
X50165000Y-100183000D01*
X50419000Y-100183000D01*
X50419000Y-100203000D01*
X50439000Y-100203000D01*
X50439000Y-100457000D01*
X50419000Y-100457000D01*
X50419000Y-101650155D01*
X50648890Y-101771476D01*
X51058924Y-101601645D01*
X51487183Y-101211358D01*
X51554298Y-101068447D01*
X51781946Y-101409147D01*
X52263715Y-101731054D01*
X52791217Y-101835981D01*
X52517198Y-102110000D01*
X32293326Y-102110000D01*
X30695099Y-100686892D01*
X48850514Y-100686892D01*
X49096817Y-101211358D01*
X49525076Y-101601645D01*
X49935110Y-101771476D01*
X50165000Y-101650155D01*
X50165000Y-100457000D01*
X48971181Y-100457000D01*
X48850514Y-100686892D01*
X30695099Y-100686892D01*
X26193739Y-96678750D01*
X28181400Y-96678750D01*
X28181400Y-97019310D01*
X28278073Y-97252699D01*
X28456702Y-97431327D01*
X28690091Y-97528000D01*
X29330650Y-97528000D01*
X29489400Y-97369250D01*
X29489400Y-96520000D01*
X29743400Y-96520000D01*
X29743400Y-97369250D01*
X29902150Y-97528000D01*
X30542709Y-97528000D01*
X30776098Y-97431327D01*
X30954727Y-97252699D01*
X31051400Y-97019310D01*
X31051400Y-96678750D01*
X30892650Y-96520000D01*
X29743400Y-96520000D01*
X29489400Y-96520000D01*
X28340150Y-96520000D01*
X28181400Y-96678750D01*
X26193739Y-96678750D01*
X25809599Y-96336701D01*
X25809599Y-95766690D01*
X28181400Y-95766690D01*
X28181400Y-96107250D01*
X28340150Y-96266000D01*
X29489400Y-96266000D01*
X29489400Y-95416750D01*
X29743400Y-95416750D01*
X29743400Y-96266000D01*
X30892650Y-96266000D01*
X31051400Y-96107250D01*
X31051400Y-95766690D01*
X30954727Y-95533301D01*
X30776098Y-95354673D01*
X30542709Y-95258000D01*
X29902150Y-95258000D01*
X29743400Y-95416750D01*
X29489400Y-95416750D01*
X29330650Y-95258000D01*
X28690091Y-95258000D01*
X28456702Y-95354673D01*
X28278073Y-95533301D01*
X28181400Y-95766690D01*
X25809599Y-95766690D01*
X25809599Y-95093016D01*
X38396590Y-95093016D01*
X38452271Y-95323611D01*
X38935078Y-95491622D01*
X39445428Y-95462083D01*
X39779729Y-95323611D01*
X39835410Y-95093016D01*
X39116000Y-94373605D01*
X38396590Y-95093016D01*
X25809599Y-95093016D01*
X25809599Y-94013078D01*
X37818378Y-94013078D01*
X37847917Y-94523428D01*
X37986389Y-94857729D01*
X38216984Y-94913410D01*
X38936395Y-94194000D01*
X39295605Y-94194000D01*
X40015016Y-94913410D01*
X40245611Y-94857729D01*
X40413622Y-94374922D01*
X40384083Y-93864572D01*
X40245611Y-93530271D01*
X40015016Y-93474590D01*
X39295605Y-94194000D01*
X38936395Y-94194000D01*
X38216984Y-93474590D01*
X37986389Y-93530271D01*
X37818378Y-94013078D01*
X25809599Y-94013078D01*
X25809599Y-93054130D01*
X25990351Y-93129000D01*
X26330910Y-93129000D01*
X26489660Y-92970250D01*
X26489660Y-91821000D01*
X26743660Y-91821000D01*
X26743660Y-92970250D01*
X26902410Y-93129000D01*
X27242969Y-93129000D01*
X27476358Y-93032327D01*
X27654987Y-92853699D01*
X27751660Y-92620310D01*
X27751660Y-91979750D01*
X27592910Y-91821000D01*
X26743660Y-91821000D01*
X26489660Y-91821000D01*
X26469660Y-91821000D01*
X26469660Y-91567000D01*
X26489660Y-91567000D01*
X26489660Y-90417750D01*
X26743660Y-90417750D01*
X26743660Y-91567000D01*
X27592910Y-91567000D01*
X27751660Y-91408250D01*
X27751660Y-90894000D01*
X31468700Y-90894000D01*
X31468700Y-92494000D01*
X31512978Y-92729317D01*
X31652050Y-92945441D01*
X31864250Y-93090431D01*
X32116140Y-93141440D01*
X33116140Y-93141440D01*
X33351457Y-93097162D01*
X33567581Y-92958090D01*
X33712571Y-92745890D01*
X33763580Y-92494000D01*
X33763580Y-91044000D01*
X37818560Y-91044000D01*
X37818560Y-92344000D01*
X37862838Y-92579317D01*
X38001910Y-92795441D01*
X38214110Y-92940431D01*
X38466000Y-92991440D01*
X38628385Y-92991440D01*
X38452271Y-93064389D01*
X38396590Y-93294984D01*
X39116000Y-94014395D01*
X39835410Y-93294984D01*
X39779729Y-93064389D01*
X39570098Y-92991440D01*
X39766000Y-92991440D01*
X40001317Y-92947162D01*
X40217441Y-92808090D01*
X40362431Y-92595890D01*
X40391164Y-92454000D01*
X57089198Y-92454000D01*
X60422599Y-95787401D01*
X60669160Y-95952148D01*
X60707625Y-95959799D01*
X60960000Y-96010000D01*
X69491860Y-96010000D01*
X69782699Y-95952148D01*
X70029261Y-95787401D01*
X73183222Y-92633440D01*
X74055860Y-92633440D01*
X74291177Y-92589162D01*
X74507301Y-92450090D01*
X74652291Y-92237890D01*
X74703300Y-91986000D01*
X74703300Y-90386000D01*
X74659022Y-90150683D01*
X74519950Y-89934559D01*
X74307750Y-89789569D01*
X74055860Y-89738560D01*
X73055860Y-89738560D01*
X72820543Y-89782838D01*
X72604419Y-89921910D01*
X72459429Y-90134110D01*
X72408420Y-90386000D01*
X72408420Y-91258638D01*
X69177058Y-94490000D01*
X61274802Y-94490000D01*
X57941401Y-91156599D01*
X57694839Y-90991852D01*
X57404000Y-90934000D01*
X40392742Y-90934000D01*
X40369162Y-90808683D01*
X40230090Y-90592559D01*
X40017890Y-90447569D01*
X39766000Y-90396560D01*
X38466000Y-90396560D01*
X38230683Y-90440838D01*
X38014559Y-90579910D01*
X37869569Y-90792110D01*
X37818560Y-91044000D01*
X33763580Y-91044000D01*
X33763580Y-90894000D01*
X33719302Y-90658683D01*
X33580230Y-90442559D01*
X33368030Y-90297569D01*
X33116140Y-90246560D01*
X32116140Y-90246560D01*
X31880823Y-90290838D01*
X31664699Y-90429910D01*
X31519709Y-90642110D01*
X31468700Y-90894000D01*
X27751660Y-90894000D01*
X27751660Y-90767690D01*
X27654987Y-90534301D01*
X27476358Y-90355673D01*
X27242969Y-90259000D01*
X26902410Y-90259000D01*
X26743660Y-90417750D01*
X26489660Y-90417750D01*
X26330910Y-90259000D01*
X25990351Y-90259000D01*
X25809599Y-90333870D01*
X25809599Y-87324272D01*
X29432548Y-84408032D01*
X29459055Y-84376350D01*
X29493401Y-84353401D01*
X29553463Y-84263512D01*
X29622833Y-84180599D01*
X29635198Y-84141186D01*
X29658148Y-84106839D01*
X29667597Y-84059334D01*
X30123433Y-83754754D01*
X30240054Y-83580219D01*
X30418370Y-83807236D01*
X30981523Y-84123926D01*
X31113056Y-84155975D01*
X31369000Y-84036836D01*
X31369000Y-82423000D01*
X31349000Y-82423000D01*
X31349000Y-82169000D01*
X31369000Y-82169000D01*
X31369000Y-80555164D01*
X31623000Y-80555164D01*
X31623000Y-82169000D01*
X31643000Y-82169000D01*
X31643000Y-82423000D01*
X31623000Y-82423000D01*
X31623000Y-84036836D01*
X31878944Y-84155975D01*
X32010477Y-84123926D01*
X32573630Y-83807236D01*
X32751946Y-83580219D01*
X32868567Y-83754754D01*
X33404190Y-84112646D01*
X34036000Y-84238321D01*
X34667810Y-84112646D01*
X35203433Y-83754754D01*
X35561325Y-83219131D01*
X35687000Y-82587321D01*
X35687000Y-82004679D01*
X35561325Y-81372869D01*
X35203433Y-80837246D01*
X34667810Y-80479354D01*
X34036000Y-80353679D01*
X33404190Y-80479354D01*
X32868567Y-80837246D01*
X32751946Y-81011781D01*
X32573630Y-80784764D01*
X32010477Y-80468074D01*
X31878944Y-80436025D01*
X31623000Y-80555164D01*
X31369000Y-80555164D01*
X31113056Y-80436025D01*
X30981523Y-80468074D01*
X30418370Y-80784764D01*
X30240054Y-81011781D01*
X30123433Y-80837246D01*
X29587810Y-80479354D01*
X28956000Y-80353679D01*
X28324190Y-80479354D01*
X27788567Y-80837246D01*
X27430675Y-81372869D01*
X27305000Y-82004679D01*
X27305000Y-82587321D01*
X27430675Y-83219131D01*
X27788567Y-83754754D01*
X27805763Y-83766244D01*
X24573051Y-86368369D01*
X24546544Y-86400051D01*
X24512198Y-86423000D01*
X24452136Y-86512889D01*
X24382766Y-86595802D01*
X24370401Y-86635215D01*
X24347451Y-86669562D01*
X24326360Y-86775592D01*
X24293999Y-86878741D01*
X24297658Y-86919886D01*
X24289599Y-86960401D01*
X19481000Y-86960401D01*
X19481000Y-85195016D01*
X21886590Y-85195016D01*
X21942271Y-85425611D01*
X22425078Y-85593622D01*
X22935428Y-85564083D01*
X23269729Y-85425611D01*
X23325410Y-85195016D01*
X22606000Y-84475605D01*
X21886590Y-85195016D01*
X19481000Y-85195016D01*
X19481000Y-84115078D01*
X21308378Y-84115078D01*
X21337917Y-84625428D01*
X21476389Y-84959729D01*
X21706984Y-85015410D01*
X22426395Y-84296000D01*
X22412252Y-84281858D01*
X22591858Y-84102252D01*
X22606000Y-84116395D01*
X22620142Y-84102252D01*
X22799748Y-84281858D01*
X22785605Y-84296000D01*
X23505016Y-85015410D01*
X23735611Y-84959729D01*
X23903622Y-84476922D01*
X23874083Y-83966572D01*
X23735611Y-83632271D01*
X23505018Y-83576590D01*
X23606680Y-83474928D01*
X23707441Y-83410090D01*
X23852431Y-83197890D01*
X23903440Y-82946000D01*
X23903440Y-81646000D01*
X23859162Y-81410683D01*
X23720090Y-81194559D01*
X23507890Y-81049569D01*
X23256000Y-80998560D01*
X21956000Y-80998560D01*
X21720683Y-81042838D01*
X21504559Y-81181910D01*
X21359569Y-81394110D01*
X21308560Y-81646000D01*
X21308560Y-82946000D01*
X21352838Y-83181317D01*
X21491910Y-83397441D01*
X21605329Y-83474937D01*
X21706982Y-83576590D01*
X21476389Y-83632271D01*
X21308378Y-84115078D01*
X19481000Y-84115078D01*
X19481000Y-70748532D01*
X21643233Y-70748532D01*
X21741896Y-71015387D01*
X22351621Y-71241908D01*
X23001620Y-71217856D01*
X23490424Y-71015387D01*
X23589087Y-70748532D01*
X22616160Y-69775605D01*
X21643233Y-70748532D01*
X19481000Y-70748532D01*
X19481000Y-69331461D01*
X20970252Y-69331461D01*
X20994304Y-69981460D01*
X21196773Y-70470264D01*
X21463628Y-70568927D01*
X22436555Y-69596000D01*
X22795765Y-69596000D01*
X23768692Y-70568927D01*
X24035547Y-70470264D01*
X24262068Y-69860539D01*
X24238016Y-69210540D01*
X24035547Y-68721736D01*
X23768692Y-68623073D01*
X22795765Y-69596000D01*
X22436555Y-69596000D01*
X21463628Y-68623073D01*
X21196773Y-68721736D01*
X20970252Y-69331461D01*
X19481000Y-69331461D01*
X19481000Y-68443468D01*
X21643233Y-68443468D01*
X22616160Y-69416395D01*
X23589087Y-68443468D01*
X23490424Y-68176613D01*
X22880699Y-67950092D01*
X22230700Y-67974144D01*
X21741896Y-68176613D01*
X21643233Y-68443468D01*
X19481000Y-68443468D01*
X19481000Y-64246000D01*
X20708560Y-64246000D01*
X20708560Y-66246000D01*
X20752838Y-66481317D01*
X20891910Y-66697441D01*
X21104110Y-66842431D01*
X21356000Y-66893440D01*
X22638638Y-66893440D01*
X24386000Y-68640802D01*
X24386000Y-70551198D01*
X22068599Y-72868599D01*
X21903852Y-73115161D01*
X21846000Y-73406000D01*
X21846000Y-77034044D01*
X21681345Y-77102078D01*
X21221154Y-77561467D01*
X20971794Y-78161993D01*
X20971226Y-78812234D01*
X21219538Y-79413195D01*
X21678927Y-79873386D01*
X22279453Y-80122746D01*
X22929694Y-80123314D01*
X23530655Y-79875002D01*
X23990846Y-79415613D01*
X24240206Y-78815087D01*
X24240774Y-78164846D01*
X23992462Y-77563885D01*
X23917758Y-77489050D01*
X31119070Y-77489050D01*
X31119070Y-79488030D01*
X31163348Y-79723347D01*
X31302420Y-79939471D01*
X31514620Y-80084461D01*
X31766510Y-80135470D01*
X33765490Y-80135470D01*
X34000807Y-80091192D01*
X34216931Y-79952120D01*
X34361921Y-79739920D01*
X34412930Y-79488030D01*
X34412930Y-78771750D01*
X35291000Y-78771750D01*
X35291000Y-79262310D01*
X35387673Y-79495699D01*
X35566302Y-79674327D01*
X35799691Y-79771000D01*
X36290250Y-79771000D01*
X36449000Y-79612250D01*
X36449000Y-78613000D01*
X35449750Y-78613000D01*
X35291000Y-78771750D01*
X34412930Y-78771750D01*
X34412930Y-77709690D01*
X35291000Y-77709690D01*
X35291000Y-78200250D01*
X35449750Y-78359000D01*
X36449000Y-78359000D01*
X36449000Y-77359750D01*
X36703000Y-77359750D01*
X36703000Y-78359000D01*
X36723000Y-78359000D01*
X36723000Y-78613000D01*
X36703000Y-78613000D01*
X36703000Y-79612250D01*
X36861750Y-79771000D01*
X37352309Y-79771000D01*
X37585698Y-79674327D01*
X37764327Y-79495699D01*
X37861000Y-79262310D01*
X37861000Y-78910433D01*
X37985995Y-79212943D01*
X38347155Y-79574735D01*
X38819276Y-79770777D01*
X39330481Y-79771223D01*
X39802943Y-79576005D01*
X40164735Y-79214845D01*
X40360777Y-78742724D01*
X40361223Y-78231519D01*
X40166005Y-77759057D01*
X39804845Y-77397265D01*
X39332724Y-77201223D01*
X38821519Y-77200777D01*
X38349057Y-77395995D01*
X37987265Y-77757155D01*
X37861000Y-78061235D01*
X37861000Y-77709690D01*
X37764327Y-77476301D01*
X37585698Y-77297673D01*
X37352309Y-77201000D01*
X36861750Y-77201000D01*
X36703000Y-77359750D01*
X36449000Y-77359750D01*
X36290250Y-77201000D01*
X35799691Y-77201000D01*
X35566302Y-77297673D01*
X35387673Y-77476301D01*
X35291000Y-77709690D01*
X34412930Y-77709690D01*
X34412930Y-77489050D01*
X34368652Y-77253733D01*
X34229580Y-77037609D01*
X34017380Y-76892619D01*
X33765490Y-76841610D01*
X31766510Y-76841610D01*
X31531193Y-76885888D01*
X31315069Y-77024960D01*
X31170079Y-77237160D01*
X31119070Y-77489050D01*
X23917758Y-77489050D01*
X23533073Y-77103694D01*
X23366000Y-77034319D01*
X23366000Y-73720802D01*
X23395052Y-73691750D01*
X35291000Y-73691750D01*
X35291000Y-74182310D01*
X35387673Y-74415699D01*
X35566302Y-74594327D01*
X35799691Y-74691000D01*
X36290250Y-74691000D01*
X36449000Y-74532250D01*
X36449000Y-73533000D01*
X35449750Y-73533000D01*
X35291000Y-73691750D01*
X23395052Y-73691750D01*
X24457112Y-72629690D01*
X35291000Y-72629690D01*
X35291000Y-73120250D01*
X35449750Y-73279000D01*
X36449000Y-73279000D01*
X36449000Y-72279750D01*
X36703000Y-72279750D01*
X36703000Y-73279000D01*
X36723000Y-73279000D01*
X36723000Y-73533000D01*
X36703000Y-73533000D01*
X36703000Y-74532250D01*
X36861750Y-74691000D01*
X37352309Y-74691000D01*
X37585698Y-74594327D01*
X37764327Y-74415699D01*
X37861000Y-74182310D01*
X37861000Y-73830433D01*
X37985995Y-74132943D01*
X38347155Y-74494735D01*
X38819276Y-74690777D01*
X39330481Y-74691223D01*
X39802943Y-74496005D01*
X40164735Y-74134845D01*
X40360777Y-73662724D01*
X40361223Y-73151519D01*
X40166005Y-72679057D01*
X39804845Y-72317265D01*
X39332724Y-72121223D01*
X38821519Y-72120777D01*
X38349057Y-72315995D01*
X37987265Y-72677155D01*
X37861000Y-72981235D01*
X37861000Y-72629690D01*
X37764327Y-72396301D01*
X37585698Y-72217673D01*
X37352309Y-72121000D01*
X36861750Y-72121000D01*
X36703000Y-72279750D01*
X36449000Y-72279750D01*
X36290250Y-72121000D01*
X35799691Y-72121000D01*
X35566302Y-72217673D01*
X35387673Y-72396301D01*
X35291000Y-72629690D01*
X24457112Y-72629690D01*
X25683401Y-71403401D01*
X25848148Y-71156840D01*
X25867358Y-71060263D01*
X25906000Y-70866000D01*
X25906000Y-68326000D01*
X25848148Y-68035161D01*
X25848148Y-68035160D01*
X25704274Y-67819837D01*
X25938192Y-67586327D01*
X26080838Y-67242799D01*
X26081162Y-66870833D01*
X25939117Y-66527057D01*
X25676327Y-66263808D01*
X25332799Y-66121162D01*
X25285923Y-66121121D01*
X24503440Y-65338638D01*
X24503440Y-64246000D01*
X24478979Y-64116000D01*
X25858560Y-64116000D01*
X25858560Y-64916000D01*
X25902838Y-65151317D01*
X26041910Y-65367441D01*
X26254110Y-65512431D01*
X26506000Y-65563440D01*
X26696000Y-65563440D01*
X26696000Y-66836160D01*
X26753852Y-67126999D01*
X26918599Y-67373561D01*
X28649565Y-69104527D01*
X28581124Y-69269352D01*
X28580556Y-69919795D01*
X28828946Y-70520943D01*
X29288477Y-70981278D01*
X29889192Y-71230716D01*
X30539635Y-71231284D01*
X31140783Y-70982894D01*
X31601118Y-70523363D01*
X31850556Y-69922648D01*
X31851124Y-69272205D01*
X31602734Y-68671057D01*
X31143203Y-68210722D01*
X30542488Y-67961284D01*
X30483602Y-67961233D01*
X30754943Y-67849117D01*
X31018192Y-67586327D01*
X31160838Y-67242799D01*
X31160960Y-67102702D01*
X31216000Y-66826000D01*
X31216000Y-66513440D01*
X31406000Y-66513440D01*
X31641317Y-66469162D01*
X31857441Y-66330090D01*
X32002431Y-66117890D01*
X32053440Y-65866000D01*
X32053440Y-65066000D01*
X32009162Y-64830683D01*
X31870090Y-64614559D01*
X31724917Y-64515367D01*
X31857441Y-64430090D01*
X31928563Y-64326000D01*
X34198560Y-64326000D01*
X34198560Y-65766000D01*
X34242838Y-66001317D01*
X34381910Y-66217441D01*
X34594110Y-66362431D01*
X34846000Y-66413440D01*
X36846000Y-66413440D01*
X37081317Y-66369162D01*
X37297441Y-66230090D01*
X37442431Y-66017890D01*
X37493440Y-65766000D01*
X37493440Y-63266000D01*
X38198560Y-63266000D01*
X38198560Y-65766000D01*
X38242838Y-66001317D01*
X38381910Y-66217441D01*
X38594110Y-66362431D01*
X38846000Y-66413440D01*
X40846000Y-66413440D01*
X41081317Y-66369162D01*
X41297441Y-66230090D01*
X41442431Y-66017890D01*
X41493440Y-65766000D01*
X41493440Y-63266000D01*
X41449162Y-63030683D01*
X41310090Y-62814559D01*
X41097890Y-62669569D01*
X40892000Y-62627875D01*
X40892000Y-61268463D01*
X40924192Y-61236327D01*
X41066838Y-60892799D01*
X41067162Y-60520833D01*
X40925117Y-60177057D01*
X40662327Y-59913808D01*
X40318799Y-59771162D01*
X39946833Y-59770838D01*
X39603057Y-59912883D01*
X39339808Y-60175673D01*
X39197162Y-60519201D01*
X39196838Y-60891167D01*
X39338883Y-61234943D01*
X39372000Y-61268118D01*
X39372000Y-62618560D01*
X38846000Y-62618560D01*
X38610683Y-62662838D01*
X38394559Y-62801910D01*
X38249569Y-63014110D01*
X38198560Y-63266000D01*
X37493440Y-63266000D01*
X37449162Y-63030683D01*
X37310090Y-62814559D01*
X37097890Y-62669569D01*
X36846000Y-62618560D01*
X34846000Y-62618560D01*
X34610683Y-62662838D01*
X34394559Y-62801910D01*
X34391764Y-62806000D01*
X34208941Y-62806000D01*
X34209162Y-62552833D01*
X34067117Y-62209057D01*
X34034000Y-62175882D01*
X34034000Y-58525026D01*
X38270642Y-58525026D01*
X38292473Y-58622157D01*
X38576127Y-59135868D01*
X39034778Y-59501925D01*
X39598600Y-59664600D01*
X40259000Y-59664600D01*
X40259000Y-58293000D01*
X40513000Y-58293000D01*
X40513000Y-59664600D01*
X41173400Y-59664600D01*
X41737222Y-59501925D01*
X42195873Y-59135868D01*
X42479527Y-58622157D01*
X42501358Y-58525026D01*
X42380217Y-58293000D01*
X40513000Y-58293000D01*
X40259000Y-58293000D01*
X38391783Y-58293000D01*
X38270642Y-58525026D01*
X34034000Y-58525026D01*
X34034000Y-57806974D01*
X38270642Y-57806974D01*
X38391783Y-58039000D01*
X40259000Y-58039000D01*
X40259000Y-56667400D01*
X40513000Y-56667400D01*
X40513000Y-58039000D01*
X42380217Y-58039000D01*
X42501358Y-57806974D01*
X42479527Y-57709843D01*
X42195873Y-57196132D01*
X41737222Y-56830075D01*
X41173400Y-56667400D01*
X40513000Y-56667400D01*
X40259000Y-56667400D01*
X39598600Y-56667400D01*
X39034778Y-56830075D01*
X38576127Y-57196132D01*
X38292473Y-57709843D01*
X38270642Y-57806974D01*
X34034000Y-57806974D01*
X34034000Y-53086000D01*
X38184703Y-53086000D01*
X38298777Y-53659489D01*
X38623633Y-54145670D01*
X39109814Y-54470526D01*
X39683303Y-54584600D01*
X41088697Y-54584600D01*
X41662186Y-54470526D01*
X42148367Y-54145670D01*
X42473223Y-53659489D01*
X42587297Y-53086000D01*
X42473223Y-52512511D01*
X42148367Y-52026330D01*
X41662186Y-51701474D01*
X41088697Y-51587400D01*
X39683303Y-51587400D01*
X39109814Y-51701474D01*
X38623633Y-52026330D01*
X38298777Y-52512511D01*
X38184703Y-53086000D01*
X34034000Y-53086000D01*
X34034000Y-45774463D01*
X34066192Y-45742327D01*
X34208838Y-45398799D01*
X34209002Y-45210000D01*
X35499198Y-45210000D01*
X41118599Y-50829401D01*
X41365161Y-50994148D01*
X41656000Y-51052000D01*
X45829897Y-51052000D01*
X45801162Y-51121201D01*
X45800838Y-51493167D01*
X45862707Y-51642902D01*
X45788833Y-51642838D01*
X45445057Y-51784883D01*
X45181808Y-52047673D01*
X45039162Y-52391201D01*
X45038838Y-52763167D01*
X45100707Y-52912902D01*
X45026833Y-52912838D01*
X44683057Y-53054883D01*
X44419808Y-53317673D01*
X44277162Y-53661201D01*
X44276838Y-54033167D01*
X44418883Y-54376943D01*
X44452000Y-54410118D01*
X44452000Y-73057653D01*
X44354831Y-72822485D01*
X43965564Y-72432539D01*
X43456702Y-72221241D01*
X42905715Y-72220760D01*
X42396485Y-72431169D01*
X42006539Y-72820436D01*
X41795241Y-73329298D01*
X41794760Y-73880285D01*
X42005169Y-74389515D01*
X42394436Y-74779461D01*
X42903298Y-74990759D01*
X43454285Y-74991240D01*
X43963515Y-74780831D01*
X44353461Y-74391564D01*
X44452000Y-74154256D01*
X44452000Y-77937653D01*
X44354831Y-77702485D01*
X43965564Y-77312539D01*
X43456702Y-77101241D01*
X42905715Y-77100760D01*
X42396485Y-77311169D01*
X42006539Y-77700436D01*
X41795241Y-78209298D01*
X41794760Y-78760285D01*
X42005169Y-79269515D01*
X42394436Y-79659461D01*
X42903298Y-79870759D01*
X43454285Y-79871240D01*
X43963515Y-79660831D01*
X44353461Y-79271564D01*
X44452000Y-79034256D01*
X44452000Y-83312000D01*
X44509852Y-83602839D01*
X44674599Y-83849401D01*
X47877312Y-87052114D01*
X47812887Y-87376000D01*
X47922120Y-87925151D01*
X48233189Y-88390698D01*
X48698736Y-88701767D01*
X49247887Y-88811000D01*
X49304113Y-88811000D01*
X49853264Y-88701767D01*
X50318811Y-88390698D01*
X50629880Y-87925151D01*
X50739113Y-87376000D01*
X50629880Y-86826849D01*
X50318811Y-86361302D01*
X49936725Y-86106000D01*
X50318811Y-85850698D01*
X50629880Y-85385151D01*
X50739113Y-84836000D01*
X50629880Y-84286849D01*
X50318811Y-83821302D01*
X49936725Y-83566000D01*
X50318811Y-83310698D01*
X50629880Y-82845151D01*
X50739113Y-82296000D01*
X50629880Y-81746849D01*
X50318811Y-81281302D01*
X49936725Y-81026000D01*
X50318811Y-80770698D01*
X50629880Y-80305151D01*
X50739113Y-79756000D01*
X50629880Y-79206849D01*
X50318811Y-78741302D01*
X49936725Y-78486000D01*
X50318811Y-78230698D01*
X50629880Y-77765151D01*
X50739113Y-77216000D01*
X50629880Y-76666849D01*
X50318811Y-76201302D01*
X49936725Y-75946000D01*
X50318811Y-75690698D01*
X50629880Y-75225151D01*
X50739113Y-74676000D01*
X50629880Y-74126849D01*
X50318811Y-73661302D01*
X49914297Y-73391014D01*
X50131134Y-73288389D01*
X50507041Y-72873423D01*
X50667904Y-72485039D01*
X50545915Y-72263000D01*
X49403000Y-72263000D01*
X49403000Y-72283000D01*
X49149000Y-72283000D01*
X49149000Y-72263000D01*
X49129000Y-72263000D01*
X49129000Y-72009000D01*
X49149000Y-72009000D01*
X49149000Y-71989000D01*
X49403000Y-71989000D01*
X49403000Y-72009000D01*
X50545915Y-72009000D01*
X50667904Y-71786961D01*
X50507041Y-71398577D01*
X50131134Y-70983611D01*
X49914297Y-70880986D01*
X50318811Y-70610698D01*
X50488995Y-70356000D01*
X53279198Y-70356000D01*
X54104000Y-71180802D01*
X54104000Y-73914000D01*
X54161852Y-74204839D01*
X54326599Y-74451401D01*
X55088599Y-75213401D01*
X55335161Y-75378148D01*
X55626000Y-75436000D01*
X55683005Y-75436000D01*
X55853189Y-75690698D01*
X56235275Y-75946000D01*
X55853189Y-76201302D01*
X55542120Y-76666849D01*
X55432887Y-77216000D01*
X55542120Y-77765151D01*
X55853189Y-78230698D01*
X56235275Y-78486000D01*
X55853189Y-78741302D01*
X55683005Y-78996000D01*
X53648463Y-78996000D01*
X53616327Y-78963808D01*
X53272799Y-78821162D01*
X52900833Y-78820838D01*
X52557057Y-78962883D01*
X52293808Y-79225673D01*
X52151162Y-79569201D01*
X52150838Y-79941167D01*
X52292883Y-80284943D01*
X52555673Y-80548192D01*
X52899201Y-80690838D01*
X53271167Y-80691162D01*
X53614943Y-80549117D01*
X53648118Y-80516000D01*
X55683005Y-80516000D01*
X55853189Y-80770698D01*
X56235275Y-81026000D01*
X55853189Y-81281302D01*
X55542120Y-81746849D01*
X55533537Y-81790000D01*
X54918463Y-81790000D01*
X54886327Y-81757808D01*
X54542799Y-81615162D01*
X54170833Y-81614838D01*
X53827057Y-81756883D01*
X53563808Y-82019673D01*
X53421162Y-82363201D01*
X53420838Y-82735167D01*
X53562883Y-83078943D01*
X53825673Y-83342192D01*
X54169201Y-83484838D01*
X54541167Y-83485162D01*
X54884943Y-83343117D01*
X54918118Y-83310000D01*
X55852723Y-83310000D01*
X55853189Y-83310698D01*
X56235275Y-83566000D01*
X55853189Y-83821302D01*
X55542120Y-84286849D01*
X55432887Y-84836000D01*
X55542120Y-85385151D01*
X55853189Y-85850698D01*
X56235275Y-86106000D01*
X55853189Y-86361302D01*
X55542120Y-86826849D01*
X55432887Y-87376000D01*
X55542120Y-87925151D01*
X55853189Y-88390698D01*
X56318736Y-88701767D01*
X56867887Y-88811000D01*
X56924113Y-88811000D01*
X57473264Y-88701767D01*
X57938811Y-88390698D01*
X58108995Y-88136000D01*
X58391198Y-88136000D01*
X62138560Y-91883362D01*
X62138560Y-93706000D01*
X62182838Y-93941317D01*
X62321910Y-94157441D01*
X62534110Y-94302431D01*
X62786000Y-94353440D01*
X64786000Y-94353440D01*
X65021317Y-94309162D01*
X65237441Y-94170090D01*
X65382431Y-93957890D01*
X65433440Y-93706000D01*
X65433440Y-91206000D01*
X65427006Y-91171808D01*
X66138560Y-91883362D01*
X66138560Y-93706000D01*
X66182838Y-93941317D01*
X66321910Y-94157441D01*
X66534110Y-94302431D01*
X66786000Y-94353440D01*
X68786000Y-94353440D01*
X69021317Y-94309162D01*
X69237441Y-94170090D01*
X69382431Y-93957890D01*
X69433440Y-93706000D01*
X69433440Y-91206000D01*
X69389162Y-90970683D01*
X69250090Y-90754559D01*
X69037890Y-90609569D01*
X68786000Y-90558560D01*
X66963362Y-90558560D01*
X66498629Y-90093827D01*
X66518440Y-89996000D01*
X66518440Y-89505319D01*
X66719110Y-89642431D01*
X66971000Y-89693440D01*
X68871000Y-89693440D01*
X69106317Y-89649162D01*
X69322441Y-89510090D01*
X69393563Y-89406000D01*
X74396600Y-89406000D01*
X74687439Y-89348148D01*
X74934001Y-89183401D01*
X75818088Y-88299314D01*
X75853452Y-88477099D01*
X76018199Y-88723661D01*
X78407900Y-91113362D01*
X78407900Y-91986000D01*
X78452178Y-92221317D01*
X78591250Y-92437441D01*
X78803450Y-92582431D01*
X79055340Y-92633440D01*
X80055340Y-92633440D01*
X80290657Y-92589162D01*
X80506781Y-92450090D01*
X80651771Y-92237890D01*
X80702780Y-91986000D01*
X80702780Y-90386000D01*
X80658502Y-90150683D01*
X80519430Y-89934559D01*
X80307230Y-89789569D01*
X80055340Y-89738560D01*
X79182702Y-89738560D01*
X77315600Y-87871458D01*
X77315600Y-87634440D01*
X77355600Y-87634440D01*
X77590917Y-87590162D01*
X77807041Y-87451090D01*
X77952031Y-87238890D01*
X78003040Y-86987000D01*
X78003040Y-85987000D01*
X77958762Y-85751683D01*
X77819690Y-85535559D01*
X77607490Y-85390569D01*
X77355600Y-85339560D01*
X75755600Y-85339560D01*
X75520283Y-85383838D01*
X75304159Y-85522910D01*
X75159169Y-85735110D01*
X75108160Y-85987000D01*
X75108160Y-86859638D01*
X74081798Y-87886000D01*
X69393931Y-87886000D01*
X69335090Y-87794559D01*
X69122890Y-87649569D01*
X68871000Y-87598560D01*
X66971000Y-87598560D01*
X66735683Y-87642838D01*
X66519559Y-87781910D01*
X66432936Y-87908686D01*
X66347250Y-87823000D01*
X65048000Y-87823000D01*
X65048000Y-87843000D01*
X64794000Y-87843000D01*
X64794000Y-87823000D01*
X63494750Y-87823000D01*
X63336000Y-87981750D01*
X63336000Y-88222310D01*
X63432673Y-88455699D01*
X63611302Y-88634327D01*
X63647747Y-88649423D01*
X63519559Y-88731910D01*
X63374569Y-88944110D01*
X63323560Y-89196000D01*
X63323560Y-89996000D01*
X63367838Y-90231317D01*
X63506910Y-90447441D01*
X63669538Y-90558560D01*
X62963362Y-90558560D01*
X59574492Y-87169690D01*
X63336000Y-87169690D01*
X63336000Y-87410250D01*
X63494750Y-87569000D01*
X64794000Y-87569000D01*
X64794000Y-86819750D01*
X65048000Y-86819750D01*
X65048000Y-87569000D01*
X66347250Y-87569000D01*
X66506000Y-87410250D01*
X66506000Y-87169690D01*
X66409327Y-86936301D01*
X66230698Y-86757673D01*
X65997309Y-86661000D01*
X65206750Y-86661000D01*
X65048000Y-86819750D01*
X64794000Y-86819750D01*
X64635250Y-86661000D01*
X63844691Y-86661000D01*
X63611302Y-86757673D01*
X63432673Y-86936301D01*
X63336000Y-87169690D01*
X59574492Y-87169690D01*
X59243401Y-86838599D01*
X58996839Y-86673852D01*
X58706000Y-86616000D01*
X58108995Y-86616000D01*
X57938811Y-86361302D01*
X57556725Y-86106000D01*
X57938811Y-85850698D01*
X58249880Y-85385151D01*
X58359113Y-84836000D01*
X58249880Y-84286849D01*
X57938811Y-83821302D01*
X57556725Y-83566000D01*
X57938811Y-83310698D01*
X58249880Y-82845151D01*
X58359113Y-82296000D01*
X58249880Y-81746849D01*
X57938811Y-81281302D01*
X57556725Y-81026000D01*
X57938811Y-80770698D01*
X58249880Y-80305151D01*
X58359113Y-79756000D01*
X58249880Y-79206849D01*
X57938811Y-78741302D01*
X57556725Y-78486000D01*
X57938811Y-78230698D01*
X58108995Y-77976000D01*
X58166000Y-77976000D01*
X58456839Y-77918148D01*
X58703401Y-77753401D01*
X59719401Y-76737401D01*
X59884148Y-76490839D01*
X59942000Y-76200000D01*
X59942000Y-76170850D01*
X67711124Y-76170850D01*
X67883611Y-76588301D01*
X68202719Y-76907967D01*
X68619868Y-77081182D01*
X69071550Y-77081576D01*
X69489001Y-76909089D01*
X69595906Y-76802370D01*
X69701319Y-76907967D01*
X70118468Y-77081182D01*
X70570150Y-77081576D01*
X70987601Y-76909089D01*
X71307267Y-76589981D01*
X71480482Y-76172832D01*
X71480876Y-75721150D01*
X71308389Y-75303699D01*
X70989281Y-74984033D01*
X70572132Y-74810818D01*
X70120450Y-74810424D01*
X69702999Y-74982911D01*
X69596094Y-75089630D01*
X69490681Y-74984033D01*
X69073532Y-74810818D01*
X68621850Y-74810424D01*
X68204399Y-74982911D01*
X67884733Y-75302019D01*
X67711518Y-75719168D01*
X67711124Y-76170850D01*
X59942000Y-76170850D01*
X59942000Y-61268463D01*
X59974192Y-61236327D01*
X60029156Y-61103958D01*
X62613599Y-63688401D01*
X62860161Y-63853148D01*
X63151000Y-63911000D01*
X63253560Y-63911000D01*
X63253560Y-64151000D01*
X63297838Y-64386317D01*
X63436910Y-64602441D01*
X63649110Y-64747431D01*
X63901000Y-64798440D01*
X66401000Y-64798440D01*
X66636317Y-64754162D01*
X66852441Y-64615090D01*
X66949189Y-64473495D01*
X66891000Y-64766030D01*
X66891000Y-65511198D01*
X66768581Y-65633617D01*
X66652890Y-65554569D01*
X66401000Y-65503560D01*
X63901000Y-65503560D01*
X63665683Y-65547838D01*
X63449559Y-65686910D01*
X63304569Y-65899110D01*
X63253560Y-66151000D01*
X63253560Y-68151000D01*
X63297838Y-68386317D01*
X63436910Y-68602441D01*
X63649110Y-68747431D01*
X63901000Y-68798440D01*
X64385832Y-68798440D01*
X64343162Y-68901201D01*
X64342838Y-69273167D01*
X64484883Y-69616943D01*
X64747673Y-69880192D01*
X65091201Y-70022838D01*
X65463167Y-70023162D01*
X65806943Y-69881117D01*
X66070192Y-69618327D01*
X66212838Y-69274799D01*
X66213162Y-68902833D01*
X66170028Y-68798440D01*
X66401000Y-68798440D01*
X66636317Y-68754162D01*
X66852441Y-68615090D01*
X66997431Y-68402890D01*
X67048440Y-68151000D01*
X67048440Y-67503362D01*
X67724826Y-66826976D01*
X67776849Y-66861737D01*
X68326000Y-66970970D01*
X68417890Y-66952692D01*
X69153599Y-67688401D01*
X69400161Y-67853148D01*
X69691000Y-67911000D01*
X77223560Y-67911000D01*
X77223560Y-68151000D01*
X77267838Y-68386317D01*
X77406910Y-68602441D01*
X77619110Y-68747431D01*
X77871000Y-68798440D01*
X80240758Y-68798440D01*
X80203198Y-68836000D01*
X76231000Y-68836000D01*
X75940160Y-68893852D01*
X75693599Y-69058599D01*
X73735605Y-71016593D01*
X73406000Y-70951030D01*
X72856849Y-71060263D01*
X72391302Y-71371332D01*
X72136000Y-71753418D01*
X71880698Y-71371332D01*
X71415151Y-71060263D01*
X70866000Y-70951030D01*
X70316849Y-71060263D01*
X69851302Y-71371332D01*
X69596000Y-71753418D01*
X69340698Y-71371332D01*
X68875151Y-71060263D01*
X68326000Y-70951030D01*
X67776849Y-71060263D01*
X67311302Y-71371332D01*
X67000233Y-71836879D01*
X66891000Y-72386030D01*
X66891000Y-73155970D01*
X67000233Y-73705121D01*
X67311302Y-74170668D01*
X67776849Y-74481737D01*
X68326000Y-74590970D01*
X68875151Y-74481737D01*
X69340698Y-74170668D01*
X69596000Y-73788582D01*
X69851302Y-74170668D01*
X70316849Y-74481737D01*
X70866000Y-74590970D01*
X71415151Y-74481737D01*
X71880698Y-74170668D01*
X72136000Y-73788582D01*
X72391302Y-74170668D01*
X72856849Y-74481737D01*
X73406000Y-74590970D01*
X73955151Y-74481737D01*
X74420698Y-74170668D01*
X74673149Y-73792849D01*
X75021104Y-74225500D01*
X75514181Y-74495367D01*
X75596961Y-74512904D01*
X75819000Y-74390915D01*
X75819000Y-72898000D01*
X76073000Y-72898000D01*
X76073000Y-74390915D01*
X76295039Y-74512904D01*
X76377819Y-74495367D01*
X76870896Y-74225500D01*
X77223166Y-73787483D01*
X77381000Y-73248000D01*
X77381000Y-72898000D01*
X76073000Y-72898000D01*
X75819000Y-72898000D01*
X75799000Y-72898000D01*
X75799000Y-72644000D01*
X75819000Y-72644000D01*
X75819000Y-71151085D01*
X76073000Y-71151085D01*
X76073000Y-72644000D01*
X77381000Y-72644000D01*
X77381000Y-72294000D01*
X77223166Y-71754517D01*
X76870896Y-71316500D01*
X76377819Y-71046633D01*
X76295039Y-71029096D01*
X76073000Y-71151085D01*
X75819000Y-71151085D01*
X75774929Y-71126873D01*
X76545802Y-70356000D01*
X80518000Y-70356000D01*
X80808839Y-70298148D01*
X81055401Y-70133401D01*
X81817401Y-69371401D01*
X81982148Y-69124839D01*
X82040000Y-68834000D01*
X82040000Y-52481000D01*
X81982148Y-52190161D01*
X81817401Y-51943599D01*
X79133440Y-49259638D01*
X79133440Y-46897000D01*
X79089162Y-46661683D01*
X78950090Y-46445559D01*
X78737890Y-46300569D01*
X78486000Y-46249560D01*
X73406000Y-46249560D01*
X73170683Y-46293838D01*
X72954559Y-46432910D01*
X72809569Y-46645110D01*
X72758560Y-46897000D01*
X72758560Y-49687000D01*
X72802838Y-49922317D01*
X72941910Y-50138441D01*
X73154110Y-50283431D01*
X73406000Y-50334440D01*
X78058638Y-50334440D01*
X79342115Y-51617917D01*
X79188697Y-51587400D01*
X77783303Y-51587400D01*
X77209814Y-51701474D01*
X76723633Y-52026330D01*
X76398777Y-52512511D01*
X76284703Y-53086000D01*
X76398777Y-53659489D01*
X76723633Y-54145670D01*
X77209814Y-54470526D01*
X77783303Y-54584600D01*
X79188697Y-54584600D01*
X79762186Y-54470526D01*
X80248367Y-54145670D01*
X80520000Y-53739143D01*
X80520000Y-57602037D01*
X80295873Y-57196132D01*
X79837222Y-56830075D01*
X79273400Y-56667400D01*
X78613000Y-56667400D01*
X78613000Y-58039000D01*
X78633000Y-58039000D01*
X78633000Y-58293000D01*
X78613000Y-58293000D01*
X78613000Y-59664600D01*
X79273400Y-59664600D01*
X79837222Y-59501925D01*
X80295873Y-59135868D01*
X80520000Y-58729963D01*
X80520000Y-61533733D01*
X80371000Y-61503560D01*
X77871000Y-61503560D01*
X77635683Y-61547838D01*
X77419559Y-61686910D01*
X77274569Y-61899110D01*
X77223560Y-62151000D01*
X77223560Y-62391000D01*
X74771000Y-62391000D01*
X74480161Y-62448852D01*
X74233599Y-62613599D01*
X73497890Y-63349308D01*
X73406000Y-63331030D01*
X73314110Y-63349308D01*
X69498401Y-59533599D01*
X69251839Y-59368852D01*
X68961000Y-59311000D01*
X67376441Y-59311000D01*
X67595873Y-59135868D01*
X67879527Y-58622157D01*
X67901358Y-58525026D01*
X76370642Y-58525026D01*
X76392473Y-58622157D01*
X76676127Y-59135868D01*
X77134778Y-59501925D01*
X77698600Y-59664600D01*
X78359000Y-59664600D01*
X78359000Y-58293000D01*
X76491783Y-58293000D01*
X76370642Y-58525026D01*
X67901358Y-58525026D01*
X67780217Y-58293000D01*
X65913000Y-58293000D01*
X65913000Y-58313000D01*
X65659000Y-58313000D01*
X65659000Y-58293000D01*
X63791783Y-58293000D01*
X63670642Y-58525026D01*
X63692473Y-58622157D01*
X63976127Y-59135868D01*
X64195559Y-59311000D01*
X62925803Y-59311000D01*
X61421777Y-57806974D01*
X63670642Y-57806974D01*
X63791783Y-58039000D01*
X65659000Y-58039000D01*
X65659000Y-56667400D01*
X65913000Y-56667400D01*
X65913000Y-58039000D01*
X67780217Y-58039000D01*
X67901358Y-57806974D01*
X76370642Y-57806974D01*
X76491783Y-58039000D01*
X78359000Y-58039000D01*
X78359000Y-56667400D01*
X77698600Y-56667400D01*
X77134778Y-56830075D01*
X76676127Y-57196132D01*
X76392473Y-57709843D01*
X76370642Y-57806974D01*
X67901358Y-57806974D01*
X67879527Y-57709843D01*
X67595873Y-57196132D01*
X67137222Y-56830075D01*
X66573400Y-56667400D01*
X65913000Y-56667400D01*
X65659000Y-56667400D01*
X64998600Y-56667400D01*
X64434778Y-56830075D01*
X63976127Y-57196132D01*
X63692473Y-57709843D01*
X63670642Y-57806974D01*
X61421777Y-57806974D01*
X58294688Y-54679886D01*
X58359113Y-54356000D01*
X58257668Y-53846000D01*
X63823400Y-53846000D01*
X64023633Y-54145670D01*
X64509814Y-54470526D01*
X65083303Y-54584600D01*
X66488697Y-54584600D01*
X67062186Y-54470526D01*
X67548367Y-54145670D01*
X67873223Y-53659489D01*
X67987297Y-53086000D01*
X67873223Y-52512511D01*
X67548367Y-52026330D01*
X67062186Y-51701474D01*
X66488697Y-51587400D01*
X65083303Y-51587400D01*
X64509814Y-51701474D01*
X64023633Y-52026330D01*
X63823400Y-52326000D01*
X56444802Y-52326000D01*
X57433401Y-51337401D01*
X57598148Y-51090840D01*
X57607746Y-51042586D01*
X57656000Y-50800000D01*
X57656000Y-48036879D01*
X57886900Y-48132757D01*
X58442661Y-48133242D01*
X58610497Y-48063894D01*
X58501162Y-48327201D01*
X58500838Y-48699167D01*
X58642883Y-49042943D01*
X58905673Y-49306192D01*
X59249201Y-49448838D01*
X59621167Y-49449162D01*
X59964943Y-49307117D01*
X60228192Y-49044327D01*
X60370838Y-48700799D01*
X60371162Y-48328833D01*
X60260158Y-48060183D01*
X60498302Y-48145144D01*
X61053368Y-48117362D01*
X61437143Y-47958397D01*
X61506608Y-47716213D01*
X60706000Y-46915605D01*
X60691858Y-46929748D01*
X60512253Y-46750143D01*
X60526395Y-46736000D01*
X60512253Y-46721858D01*
X60691858Y-46542253D01*
X60706000Y-46556395D01*
X60720143Y-46542253D01*
X60899748Y-46721858D01*
X60885605Y-46736000D01*
X61686213Y-47536608D01*
X61724000Y-47525770D01*
X61724000Y-49215198D01*
X60820320Y-50118878D01*
X60774833Y-50118838D01*
X60431057Y-50260883D01*
X60167808Y-50523673D01*
X60025162Y-50867201D01*
X60024838Y-51239167D01*
X60166883Y-51582943D01*
X60429673Y-51846192D01*
X60773201Y-51988838D01*
X61145167Y-51989162D01*
X61488943Y-51847117D01*
X61752192Y-51584327D01*
X61894838Y-51240799D01*
X61894879Y-51193923D01*
X63021401Y-50067401D01*
X63186148Y-49820840D01*
X63212770Y-49687000D01*
X63244000Y-49530000D01*
X63244000Y-46228000D01*
X63186148Y-45937161D01*
X63021401Y-45690599D01*
X61641122Y-44310320D01*
X61641162Y-44264833D01*
X61499117Y-43921057D01*
X61236327Y-43657808D01*
X61103958Y-43602844D01*
X61227881Y-43478921D01*
X61579075Y-43166095D01*
X69281510Y-43166095D01*
X70340894Y-44252831D01*
X73802555Y-45794113D01*
X77590536Y-45893353D01*
X81128152Y-44535441D01*
X81551106Y-44252831D01*
X82610490Y-43166095D01*
X75946000Y-36501605D01*
X69281510Y-43166095D01*
X61579075Y-43166095D01*
X62031117Y-42763440D01*
X63988000Y-42763440D01*
X64223317Y-42719162D01*
X64439441Y-42580090D01*
X64584431Y-42367890D01*
X64635440Y-42116000D01*
X64635440Y-40116000D01*
X64591162Y-39880683D01*
X64452090Y-39664559D01*
X64239890Y-39519569D01*
X63988000Y-39468560D01*
X61488000Y-39468560D01*
X61252683Y-39512838D01*
X61036559Y-39651910D01*
X60891569Y-39864110D01*
X60840560Y-40116000D01*
X60840560Y-41788356D01*
X60825440Y-41801824D01*
X60825440Y-40116000D01*
X60781162Y-39880683D01*
X60642090Y-39664559D01*
X60429890Y-39519569D01*
X60178000Y-39468560D01*
X57678000Y-39468560D01*
X57442683Y-39512838D01*
X57226559Y-39651910D01*
X57081569Y-39864110D01*
X57030560Y-40116000D01*
X57030560Y-42116000D01*
X57074838Y-42351317D01*
X57107352Y-42401846D01*
X56358599Y-43150599D01*
X56193852Y-43397161D01*
X56136000Y-43688000D01*
X56136000Y-44901198D01*
X53998242Y-42763440D01*
X56368000Y-42763440D01*
X56603317Y-42719162D01*
X56819441Y-42580090D01*
X56964431Y-42367890D01*
X57015440Y-42116000D01*
X57015440Y-40116000D01*
X56971162Y-39880683D01*
X56832090Y-39664559D01*
X56619890Y-39519569D01*
X56368000Y-39468560D01*
X55878000Y-39468560D01*
X55878000Y-39424463D01*
X55910192Y-39392327D01*
X56052838Y-39048799D01*
X56053087Y-38763440D01*
X56368000Y-38763440D01*
X56603317Y-38719162D01*
X56819441Y-38580090D01*
X56964431Y-38367890D01*
X57015440Y-38116000D01*
X57015440Y-36116000D01*
X56971162Y-35880683D01*
X56832090Y-35664559D01*
X56619890Y-35519569D01*
X56368000Y-35468560D01*
X55878000Y-35468560D01*
X55878000Y-34036000D01*
X55820148Y-33745161D01*
X55655401Y-33498599D01*
X54893401Y-32736599D01*
X54646839Y-32571852D01*
X54356000Y-32514000D01*
X54043605Y-32514000D01*
X54269629Y-32288370D01*
X54355949Y-32080488D01*
X54440990Y-32286303D01*
X54833630Y-32679629D01*
X55346900Y-32892757D01*
X55902661Y-32893242D01*
X56416303Y-32681010D01*
X56809629Y-32288370D01*
X56895949Y-32080488D01*
X56980990Y-32286303D01*
X57373630Y-32679629D01*
X57886900Y-32892757D01*
X58168000Y-32893002D01*
X58168000Y-35468560D01*
X57678000Y-35468560D01*
X57442683Y-35512838D01*
X57226559Y-35651910D01*
X57081569Y-35864110D01*
X57030560Y-36116000D01*
X57030560Y-38116000D01*
X57074838Y-38351317D01*
X57213910Y-38567441D01*
X57426110Y-38712431D01*
X57678000Y-38763440D01*
X60178000Y-38763440D01*
X60413317Y-38719162D01*
X60629441Y-38580090D01*
X60774431Y-38367890D01*
X60825440Y-38116000D01*
X60825440Y-36116000D01*
X60781162Y-35880683D01*
X60642090Y-35664559D01*
X60429890Y-35519569D01*
X60178000Y-35468560D01*
X59688000Y-35468560D01*
X59688000Y-32453605D01*
X59913630Y-32679629D01*
X60426900Y-32892757D01*
X60982661Y-32893242D01*
X61015055Y-32879857D01*
X61978000Y-33842802D01*
X61978000Y-35468560D01*
X61488000Y-35468560D01*
X61252683Y-35512838D01*
X61036559Y-35651910D01*
X60891569Y-35864110D01*
X60840560Y-36116000D01*
X60840560Y-38116000D01*
X60884838Y-38351317D01*
X61023910Y-38567441D01*
X61236110Y-38712431D01*
X61488000Y-38763440D01*
X63988000Y-38763440D01*
X64223317Y-38719162D01*
X64439441Y-38580090D01*
X64584431Y-38367890D01*
X64635440Y-38116000D01*
X64635440Y-37966536D01*
X66374647Y-37966536D01*
X67732559Y-41504152D01*
X68015169Y-41927106D01*
X69101905Y-42986490D01*
X75766395Y-36322000D01*
X76125605Y-36322000D01*
X82790095Y-42986490D01*
X83876831Y-41927106D01*
X85418113Y-38465445D01*
X85517353Y-34677464D01*
X84159441Y-31139848D01*
X83876831Y-30716894D01*
X82790095Y-29657510D01*
X76125605Y-36322000D01*
X75766395Y-36322000D01*
X69101905Y-29657510D01*
X68015169Y-30716894D01*
X66473887Y-34178555D01*
X66374647Y-37966536D01*
X64635440Y-37966536D01*
X64635440Y-36116000D01*
X64591162Y-35880683D01*
X64452090Y-35664559D01*
X64239890Y-35519569D01*
X63988000Y-35468560D01*
X63498000Y-35468560D01*
X63498000Y-33528000D01*
X63440148Y-33237161D01*
X63275401Y-32990599D01*
X62090183Y-31805381D01*
X62102757Y-31775100D01*
X62103242Y-31219339D01*
X61891010Y-30705697D01*
X61498370Y-30312371D01*
X60985100Y-30099243D01*
X60429339Y-30098758D01*
X59915697Y-30310990D01*
X59522371Y-30703630D01*
X59436051Y-30911512D01*
X59351010Y-30705697D01*
X58958370Y-30312371D01*
X58445100Y-30099243D01*
X57889339Y-30098758D01*
X57375697Y-30310990D01*
X56982371Y-30703630D01*
X56896051Y-30911512D01*
X56811010Y-30705697D01*
X56418370Y-30312371D01*
X55905100Y-30099243D01*
X55349339Y-30098758D01*
X54835697Y-30310990D01*
X54442371Y-30703630D01*
X54356051Y-30911512D01*
X54271010Y-30705697D01*
X53878370Y-30312371D01*
X53365100Y-30099243D01*
X52809339Y-30098758D01*
X52295697Y-30310990D01*
X51902371Y-30703630D01*
X51816051Y-30911512D01*
X51731010Y-30705697D01*
X51338370Y-30312371D01*
X50825100Y-30099243D01*
X50269339Y-30098758D01*
X49755697Y-30310990D01*
X49362371Y-30703630D01*
X49276051Y-30911512D01*
X49191010Y-30705697D01*
X48798370Y-30312371D01*
X48285100Y-30099243D01*
X47729339Y-30098758D01*
X47215697Y-30310990D01*
X46822371Y-30703630D01*
X46736051Y-30911512D01*
X46651010Y-30705697D01*
X46258370Y-30312371D01*
X45745100Y-30099243D01*
X45189339Y-30098758D01*
X44675697Y-30310990D01*
X44282371Y-30703630D01*
X44069243Y-31216900D01*
X44068758Y-31772661D01*
X44280990Y-32286303D01*
X44508290Y-32514000D01*
X33274000Y-32514000D01*
X32983161Y-32571852D01*
X32736599Y-32736599D01*
X31974599Y-33498599D01*
X31809852Y-33745161D01*
X31752000Y-34036000D01*
X31752000Y-35468560D01*
X31262000Y-35468560D01*
X31026683Y-35512838D01*
X30810559Y-35651910D01*
X30665569Y-35864110D01*
X30614560Y-36116000D01*
X30614560Y-38116000D01*
X30658838Y-38351317D01*
X30797910Y-38567441D01*
X31010110Y-38712431D01*
X31262000Y-38763440D01*
X33762000Y-38763440D01*
X33997317Y-38719162D01*
X34213441Y-38580090D01*
X34289974Y-38468081D01*
X34353910Y-38567441D01*
X34566110Y-38712431D01*
X34818000Y-38763440D01*
X35201992Y-38763440D01*
X35133162Y-38929201D01*
X35132838Y-39301167D01*
X35202003Y-39468560D01*
X34818000Y-39468560D01*
X34582683Y-39512838D01*
X34366559Y-39651910D01*
X34290026Y-39763919D01*
X34226090Y-39664559D01*
X34013890Y-39519569D01*
X33762000Y-39468560D01*
X31262000Y-39468560D01*
X31026683Y-39512838D01*
X30810559Y-39651910D01*
X30665569Y-39864110D01*
X30614560Y-40116000D01*
X30614560Y-42116000D01*
X30658838Y-42351317D01*
X30797910Y-42567441D01*
X31010110Y-42712431D01*
X31262000Y-42763440D01*
X31752000Y-42763440D01*
X31752000Y-42926000D01*
X31809852Y-43216839D01*
X31974599Y-43463401D01*
X32875983Y-44364785D01*
X32745057Y-44418883D01*
X32481808Y-44681673D01*
X32339162Y-45025201D01*
X32338838Y-45397167D01*
X32480883Y-45740943D01*
X32514000Y-45774118D01*
X32514000Y-62175537D01*
X32481808Y-62207673D01*
X32339162Y-62551201D01*
X32338940Y-62806000D01*
X31928931Y-62806000D01*
X31870090Y-62714559D01*
X31657890Y-62569569D01*
X31406000Y-62518560D01*
X29506000Y-62518560D01*
X29270683Y-62562838D01*
X29054559Y-62701910D01*
X28909569Y-62914110D01*
X28858560Y-63166000D01*
X28858560Y-63656681D01*
X28657890Y-63519569D01*
X28406000Y-63468560D01*
X26506000Y-63468560D01*
X26270683Y-63512838D01*
X26054559Y-63651910D01*
X25909569Y-63864110D01*
X25858560Y-64116000D01*
X24478979Y-64116000D01*
X24459162Y-64010683D01*
X24320090Y-63794559D01*
X24107890Y-63649569D01*
X23856000Y-63598560D01*
X21356000Y-63598560D01*
X21120683Y-63642838D01*
X20904559Y-63781910D01*
X20759569Y-63994110D01*
X20708560Y-64246000D01*
X19481000Y-64246000D01*
X19481000Y-54726000D01*
X19788560Y-54726000D01*
X19788560Y-56526000D01*
X19832838Y-56761317D01*
X19971910Y-56977441D01*
X20184110Y-57122431D01*
X20436000Y-57173440D01*
X22236000Y-57173440D01*
X22471317Y-57129162D01*
X22687441Y-56990090D01*
X22832431Y-56777890D01*
X22836567Y-56757466D01*
X23005357Y-56926551D01*
X23116000Y-56972494D01*
X23116000Y-57851198D01*
X22068599Y-58898599D01*
X21903852Y-59145161D01*
X21846000Y-59436000D01*
X21846000Y-59598560D01*
X21356000Y-59598560D01*
X21120683Y-59642838D01*
X20904559Y-59781910D01*
X20759569Y-59994110D01*
X20708560Y-60246000D01*
X20708560Y-62246000D01*
X20752838Y-62481317D01*
X20891910Y-62697441D01*
X21104110Y-62842431D01*
X21356000Y-62893440D01*
X23856000Y-62893440D01*
X24091317Y-62849162D01*
X24307441Y-62710090D01*
X24452431Y-62497890D01*
X24503440Y-62246000D01*
X24503440Y-60246000D01*
X24459162Y-60010683D01*
X24320090Y-59794559D01*
X24107890Y-59649569D01*
X23856000Y-59598560D01*
X23518242Y-59598560D01*
X24413401Y-58703401D01*
X24532587Y-58525026D01*
X25570642Y-58525026D01*
X25592473Y-58622157D01*
X25876127Y-59135868D01*
X26334778Y-59501925D01*
X26898600Y-59664600D01*
X27559000Y-59664600D01*
X27559000Y-58293000D01*
X27813000Y-58293000D01*
X27813000Y-59664600D01*
X28473400Y-59664600D01*
X29037222Y-59501925D01*
X29495873Y-59135868D01*
X29779527Y-58622157D01*
X29801358Y-58525026D01*
X29680217Y-58293000D01*
X27813000Y-58293000D01*
X27559000Y-58293000D01*
X25691783Y-58293000D01*
X25570642Y-58525026D01*
X24532587Y-58525026D01*
X24578148Y-58456840D01*
X24636000Y-58166000D01*
X24636000Y-57806974D01*
X25570642Y-57806974D01*
X25691783Y-58039000D01*
X27559000Y-58039000D01*
X27559000Y-56667400D01*
X27813000Y-56667400D01*
X27813000Y-58039000D01*
X29680217Y-58039000D01*
X29801358Y-57806974D01*
X29779527Y-57709843D01*
X29495873Y-57196132D01*
X29037222Y-56830075D01*
X28473400Y-56667400D01*
X27813000Y-56667400D01*
X27559000Y-56667400D01*
X26898600Y-56667400D01*
X26334778Y-56830075D01*
X25876127Y-57196132D01*
X25592473Y-57709843D01*
X25570642Y-57806974D01*
X24636000Y-57806974D01*
X24636000Y-56972846D01*
X24744371Y-56928068D01*
X25176551Y-56496643D01*
X25410733Y-55932670D01*
X25411265Y-55322009D01*
X25178068Y-54757629D01*
X24746643Y-54325449D01*
X24182670Y-54091267D01*
X23572009Y-54090735D01*
X23007629Y-54323932D01*
X22839387Y-54491880D01*
X22839162Y-54490683D01*
X22700090Y-54274559D01*
X22487890Y-54129569D01*
X22236000Y-54078560D01*
X22096000Y-54078560D01*
X22096000Y-53086000D01*
X25484703Y-53086000D01*
X25598777Y-53659489D01*
X25923633Y-54145670D01*
X26409814Y-54470526D01*
X26983303Y-54584600D01*
X28388697Y-54584600D01*
X28962186Y-54470526D01*
X29448367Y-54145670D01*
X29773223Y-53659489D01*
X29887297Y-53086000D01*
X29773223Y-52512511D01*
X29448367Y-52026330D01*
X28962186Y-51701474D01*
X28388697Y-51587400D01*
X26983303Y-51587400D01*
X26409814Y-51701474D01*
X25923633Y-52026330D01*
X25598777Y-52512511D01*
X25484703Y-53086000D01*
X22096000Y-53086000D01*
X22096000Y-44132500D01*
X22530060Y-44132500D01*
X22530060Y-45529500D01*
X22574338Y-45764817D01*
X22713410Y-45980941D01*
X22925610Y-46125931D01*
X23177500Y-46176940D01*
X23629361Y-46176940D01*
X23876000Y-46226000D01*
X24122639Y-46176940D01*
X24574500Y-46176940D01*
X24809817Y-46132662D01*
X25025941Y-45993590D01*
X25170931Y-45781390D01*
X25221940Y-45529500D01*
X25221940Y-44132500D01*
X25177662Y-43897183D01*
X25038590Y-43681059D01*
X24826390Y-43536069D01*
X24574500Y-43485060D01*
X24510360Y-43485060D01*
X24568929Y-43460800D01*
X24630583Y-43225188D01*
X23876000Y-42470605D01*
X23121417Y-43225188D01*
X23183071Y-43460800D01*
X23251998Y-43485060D01*
X23177500Y-43485060D01*
X22942183Y-43529338D01*
X22726059Y-43668410D01*
X22581069Y-43880610D01*
X22530060Y-44132500D01*
X22096000Y-44132500D01*
X22096000Y-42605802D01*
X22533847Y-42167955D01*
X22558852Y-42628199D01*
X22706200Y-42983929D01*
X22941812Y-43045583D01*
X23696395Y-42291000D01*
X24055605Y-42291000D01*
X24810188Y-43045583D01*
X25045800Y-42983929D01*
X25221927Y-42483520D01*
X25193148Y-41953801D01*
X25045800Y-41598071D01*
X24810188Y-41536417D01*
X24055605Y-42291000D01*
X23696395Y-42291000D01*
X23682253Y-42276858D01*
X23861858Y-42097253D01*
X23876000Y-42111395D01*
X24630583Y-41356812D01*
X24568929Y-41121200D01*
X24289688Y-41022917D01*
X24630380Y-40882146D01*
X25005827Y-40507353D01*
X25209268Y-40017413D01*
X25209731Y-39486914D01*
X25007146Y-38996620D01*
X24632353Y-38621173D01*
X24142413Y-38417732D01*
X23611914Y-38417269D01*
X23121620Y-38619854D01*
X22746173Y-38994647D01*
X22542732Y-39484587D01*
X22542274Y-40009924D01*
X20798599Y-41753599D01*
X20633852Y-42000161D01*
X20576000Y-42291000D01*
X20576000Y-54078560D01*
X20436000Y-54078560D01*
X20200683Y-54122838D01*
X19984559Y-54261910D01*
X19839569Y-54474110D01*
X19788560Y-54726000D01*
X19481000Y-54726000D01*
X19481000Y-29477905D01*
X69281510Y-29477905D01*
X75946000Y-36142395D01*
X82610490Y-29477905D01*
X81551106Y-28391169D01*
X78089445Y-26849887D01*
X74301464Y-26750647D01*
X70763848Y-28108559D01*
X70340894Y-28391169D01*
X69281510Y-29477905D01*
X19481000Y-29477905D01*
X19481000Y-22957000D01*
X72758560Y-22957000D01*
X72758560Y-25747000D01*
X72802838Y-25982317D01*
X72941910Y-26198441D01*
X73154110Y-26343431D01*
X73406000Y-26394440D01*
X78486000Y-26394440D01*
X78721317Y-26350162D01*
X78937441Y-26211090D01*
X79082431Y-25998890D01*
X79133440Y-25747000D01*
X79133440Y-22957000D01*
X79089162Y-22721683D01*
X78950090Y-22505559D01*
X78737890Y-22360569D01*
X78486000Y-22309560D01*
X73406000Y-22309560D01*
X73170683Y-22353838D01*
X72954559Y-22492910D01*
X72809569Y-22705110D01*
X72758560Y-22957000D01*
X19481000Y-22957000D01*
X19481000Y-18846000D01*
X86691000Y-18846000D01*
X86691000Y-103836000D01*
G36*
X50523673Y-66324192D02*
X50867201Y-66466838D01*
X51056000Y-66467002D01*
X51056000Y-67255537D01*
X51023808Y-67287673D01*
X50881162Y-67631201D01*
X50880838Y-68003167D01*
X51022883Y-68346943D01*
X51285673Y-68610192D01*
X51629201Y-68752838D01*
X52001167Y-68753162D01*
X52344943Y-68611117D01*
X52608192Y-68348327D01*
X52750838Y-68004799D01*
X52751162Y-67632833D01*
X52609117Y-67289057D01*
X52576000Y-67255882D01*
X52576000Y-66350802D01*
X55088599Y-68863401D01*
X55335161Y-69028148D01*
X55574968Y-69075849D01*
X55504096Y-69246961D01*
X55626085Y-69469000D01*
X56769000Y-69469000D01*
X56769000Y-69449000D01*
X57023000Y-69449000D01*
X57023000Y-69469000D01*
X57043000Y-69469000D01*
X57043000Y-69723000D01*
X57023000Y-69723000D01*
X57023000Y-69743000D01*
X56769000Y-69743000D01*
X56769000Y-69723000D01*
X55626085Y-69723000D01*
X55504096Y-69945039D01*
X55664959Y-70333423D01*
X56040866Y-70748389D01*
X56257703Y-70851014D01*
X55853189Y-71121302D01*
X55624000Y-71464307D01*
X55624000Y-70866000D01*
X55566148Y-70575161D01*
X55566148Y-70575160D01*
X55401401Y-70328599D01*
X54131401Y-69058599D01*
X53884839Y-68893852D01*
X53594000Y-68836000D01*
X50488995Y-68836000D01*
X50318811Y-68581302D01*
X49936725Y-68326000D01*
X50318811Y-68070698D01*
X50629880Y-67605151D01*
X50739113Y-67056000D01*
X50629880Y-66506849D01*
X50475766Y-66276201D01*
X50523673Y-66324192D01*
X50523673Y-66324192D01*
G37*
X50523673Y-66324192D02*
X50867201Y-66466838D01*
X51056000Y-66467002D01*
X51056000Y-67255537D01*
X51023808Y-67287673D01*
X50881162Y-67631201D01*
X50880838Y-68003167D01*
X51022883Y-68346943D01*
X51285673Y-68610192D01*
X51629201Y-68752838D01*
X52001167Y-68753162D01*
X52344943Y-68611117D01*
X52608192Y-68348327D01*
X52750838Y-68004799D01*
X52751162Y-67632833D01*
X52609117Y-67289057D01*
X52576000Y-67255882D01*
X52576000Y-66350802D01*
X55088599Y-68863401D01*
X55335161Y-69028148D01*
X55574968Y-69075849D01*
X55504096Y-69246961D01*
X55626085Y-69469000D01*
X56769000Y-69469000D01*
X56769000Y-69449000D01*
X57023000Y-69449000D01*
X57023000Y-69469000D01*
X57043000Y-69469000D01*
X57043000Y-69723000D01*
X57023000Y-69723000D01*
X57023000Y-69743000D01*
X56769000Y-69743000D01*
X56769000Y-69723000D01*
X55626085Y-69723000D01*
X55504096Y-69945039D01*
X55664959Y-70333423D01*
X56040866Y-70748389D01*
X56257703Y-70851014D01*
X55853189Y-71121302D01*
X55624000Y-71464307D01*
X55624000Y-70866000D01*
X55566148Y-70575161D01*
X55566148Y-70575160D01*
X55401401Y-70328599D01*
X54131401Y-69058599D01*
X53884839Y-68893852D01*
X53594000Y-68836000D01*
X50488995Y-68836000D01*
X50318811Y-68581302D01*
X49936725Y-68326000D01*
X50318811Y-68070698D01*
X50629880Y-67605151D01*
X50739113Y-67056000D01*
X50629880Y-66506849D01*
X50475766Y-66276201D01*
X50523673Y-66324192D01*
M02*
