M48
;DRILL file {KiCad 4.0.4-stable} date Thursday, November 10, 2016 'AMt' 08:57:50 AM
;FORMAT={-:-/ absolute / metric / decimal}
FMAT,2
METRIC,TZ
T1C0.599
T2C0.600
T3C0.762
T4C0.800
T5C0.800
T6C0.813
T7C1.001
T8C1.143
T9C1.199
T10C1.270
%
G90
G05
M71
T1
X159.271Y-87.63
X160.769Y-87.63
T2
X200.66Y-106.68
X200.66Y-107.95
X200.66Y-109.22
T3
X185.42Y-48.26
X185.42Y-63.5
X187.96Y-48.26
X187.96Y-63.5
X190.5Y-48.26
X190.5Y-63.5
X193.04Y-48.26
X193.04Y-63.5
X195.58Y-48.26
X195.58Y-63.5
X198.12Y-48.26
X198.12Y-63.5
X200.66Y-48.26
X200.66Y-63.5
T4
X129.54Y-100.33
X130.81Y-52.07
X130.81Y-59.69
X132.04Y-100.33
X133.35Y-52.07
X133.35Y-59.69
X135.89Y-52.07
X135.89Y-59.69
X138.43Y-52.07
X138.43Y-59.69
X140.97Y-52.07
X140.97Y-59.69
X143.51Y-52.07
X143.51Y-59.69
X146.05Y-52.07
X146.05Y-59.69
X147.32Y-107.22
X147.32Y-109.22
X148.59Y-52.07
X148.59Y-59.69
X149.86Y-71.12
X151.13Y-52.07
X151.13Y-59.69
X153.67Y-52.07
X153.67Y-59.69
X153.67Y-90.17
X153.67Y-97.79
X154.94Y-71.12
X156.21Y-52.07
X156.21Y-59.69
X156.21Y-90.17
X156.21Y-97.79
X158.75Y-52.07
X158.75Y-59.69
X158.75Y-82.55
X158.75Y-90.17
X158.75Y-97.79
X161.29Y-52.07
X161.29Y-59.69
X161.29Y-82.55
X161.29Y-90.17
X161.29Y-97.79
X163.83Y-52.07
X163.83Y-59.69
T5
X149.86Y-68.62
X154.94Y-68.62
X158.75Y-85.05
X161.29Y-85.05
T6
X130.81Y-63.5
X130.81Y-66.04
X130.81Y-68.58
X191.77Y-86.36
X191.77Y-99.06
X196.85Y-86.36
X196.85Y-99.06
X205.74Y-86.36
X205.74Y-99.06
X210.82Y-86.36
X210.82Y-99.06
T7
X135.89Y-83.82
X135.89Y-87.63
X135.89Y-91.44
X139.7Y-77.47
X139.7Y-80.01
X143.51Y-83.82
X143.51Y-87.63
X143.51Y-91.44
X144.78Y-96.523
X175.26Y-41.91
X175.26Y-44.45
X182.88Y-41.91
X182.88Y-44.45
X185.42Y-67.31
X185.42Y-74.93
X187.96Y-67.31
X187.96Y-74.93
X190.5Y-67.31
X190.5Y-74.93
X193.04Y-67.31
X193.04Y-74.93
X193.04Y-114.3
X195.58Y-67.31
X195.58Y-74.93
X200.66Y-41.91
X200.66Y-44.45
X200.66Y-114.3
X204.48Y-73.66
X208.28Y-41.91
X208.28Y-44.45
X212.08Y-73.66
T8
X137.16Y-101.6
X139.7Y-101.6
X142.24Y-101.6
T9
X149.959Y-64.77
X154.841Y-64.77
T10
X134.62Y-96.523
T7
X136.091Y-112.031G85X136.091Y-114.029
G05
X138.091Y-117.729G85X140.09Y-117.729
G05
X142.09Y-112.031G85X142.09Y-114.029
G05
X204.62Y-114.029G85X204.62Y-112.031
G05
X208.619Y-108.331G85X206.62Y-108.331
G05
X210.619Y-114.029G85X210.619Y-112.031
G05
T0
M30
